# Exported from Wings 3D 1.5.4
mtllib 1mv_solar_srf_1.mtl
o mesh1
#32 vertices, 28 faces
v 0.45000006 2.5000059e-2 -0.42500000
v 0.45000006 5.8888141e-8 -0.42500000
v -0.45000006 2.5000059e-2 -0.27500000
v -0.45000006 5.8888141e-8 -0.27500000
v 0.45000006 2.5000059e-2 -8.4596516e-17
v 0.45000006 5.8888141e-8 -8.3065709e-17
v -0.45000006 2.5000059e-2 8.1534895e-17
v -0.45000006 5.8888141e-8 8.3065702e-17
v 0.30000006 5.8888141e-8 -0.42500000
v 0.30000006 2.5000059e-2 -0.42500000
v 0.30000006 2.5000059e-2 -0.57500000
v 0.30000006 5.8888141e-8 -0.57500000
v 0.10000007 5.8888141e-8 -0.57500000
v 0.10000007 2.5000059e-2 -0.57500000
v -0.19295696 2.5000059e-2 -0.45792108
v -0.19295696 5.8888141e-8 -0.45792108
v -3.7500000e-2 1.8750000e-2 0.0000000e+0
v -3.7500000e-2 1.3258252e-2 1.3258252e-2
v -3.7500000e-2 3.7511099e-17 1.8750000e-2
v -3.7500000e-2 -1.3258252e-2 1.3258252e-2
v -3.7500000e-2 -1.8750000e-2 2.2962127e-18
v -3.7500000e-2 -1.3258252e-2 -1.3258252e-2
v -3.7500000e-2 3.2918674e-17 -1.8750000e-2
v 3.7500000e-2 1.8750000e-2 0.0000000e+0
v 3.7500000e-2 1.3258252e-2 1.3258252e-2
v 3.7500000e-2 3.5214887e-17 1.8750000e-2
v 3.7500000e-2 -1.3258252e-2 1.3258252e-2
v 3.7500000e-2 -1.8750000e-2 2.2962127e-18
v 3.7500000e-2 -1.3258252e-2 -1.3258252e-2
v 3.7500000e-2 3.0622461e-17 -1.8750000e-2
v -3.7500000e-2 3.6862874e-17 -6.1587864e-19
v 3.7500000e-2 3.4260789e-17 -6.5052130e-19
vt 4.0000000e-2 0.25723631
vt 4.0000000e-2 0.96000000
vt 4.0025648e-2 0.15613058
vt 4.0025648e-2 0.17565180
vt 4.0311070e-2 9.5845460e-2
vt 4.0311070e-2 0.11536667
vt 0.25471210 9.5783503e-2
vt 0.25471210 0.11530471
vt 0.25473332 0.96000000
vt 0.25504439 9.5845460e-2
vt 0.25504439 0.11536667
vt 0.37186059 0.25723631
vt 0.37186059 0.37436358
vt 0.39756696 0.75928829
vt 0.40837442 0.92809321
vt 0.40837442 0.92809321
vt 0.41201008 0.21575282
vt 0.41201008 0.23527403
vt 0.41201008 0.21575282
vt 0.41201008 0.23527403
vt 0.41211351 0.27592241
vt 0.41211351 0.29544362
vt 0.41267339 0.91771457
vt 0.42305203 0.91341559
vt 0.42305203 0.92809321
vt 0.42305203 0.94277083
vt 0.42305203 0.92809321
vt 0.42305203 0.94277083
vt 0.43343068 0.91771457
vt 0.43343068 0.93847185
vt 0.43343068 0.91771457
vt 0.43343068 0.93847185
vt 0.43772965 0.92809321
vt 0.43772965 0.92809321
vt 0.47918191 0.89873798
vt 0.47918191 0.95744845
vt 0.48898785 0.37436358
vt 0.48898785 0.53053326
vt 0.49041567 0.89873798
vt 0.49041567 0.95744845
vt 0.50164943 0.89873798
vt 0.50164943 0.95744845
vt 0.51101215 0.68670305
vt 0.51101215 0.84287273
vt 0.51288319 0.89873798
vt 0.51288319 0.95744845
vt 0.52411695 0.89873798
vt 0.52411695 0.95744845
vt 0.53535072 0.89873798
vt 0.53535072 0.95744845
vt 0.54658448 0.89873798
vt 0.54658448 0.95744845
vt 0.56828319 0.27592241
vt 0.56828319 0.29544362
vt 0.58657269 9.5783503e-2
vt 0.58657269 0.11530471
vt 0.58702192 0.11526181
vt 0.58702192 9.5740597e-2
vt 0.58708483 9.5740597e-2
vt 0.58708483 0.11526181
vt 0.60243304 0.45794802
vt 0.62813941 0.96000000
vt 0.62813941 0.84287273
vt 0.65835667 0.21575282
vt 0.65835667 0.23527403
vt 0.65835667 0.21575282
vt 0.65835667 0.23527403
vt 0.70414918 0.11526181
vt 0.70414918 9.5740597e-2
vt 0.70421209 9.5740597e-2
vt 0.70421209 0.11526181
vt 0.74278933 0.15613058
vt 0.74278933 0.17565180
vt 0.74526668 0.25723631
vt 0.96000000 0.25723631
vt 0.96000000 0.96000000
vn -1.00000000 7.2689466e-17 0.0000000e+0
vn 1.00000000 -7.2689466e-17 -8.7227359e-17
vn 1.00000000 0.0000000e+0 0.0000000e+0
vn 9.7973410e-19 1.00000000 -6.0311983e-17
vn 0.0000000e+0 0.0000000e+0 -1.00000000
vn 1.00000000 0.0000000e+0 0.0000000e+0
vn 0.0000000e+0 0.0000000e+0 -1.00000000
vn -1.6846514e-24 -1.00000000 6.1232349e-17
vn -1.00000000 0.0000000e+0 0.0000000e+0
vn 9.7973410e-19 1.00000000 -6.0311983e-17
vn -0.57980769 0.0000000e+0 -0.81475336
vn -1.00000000 0.0000000e+0 0.0000000e+0
vn -1.6846514e-24 -1.00000000 6.1232349e-17
vn -0.57980769 0.0000000e+0 -0.81475336
vn 1.00000000 0.0000000e+0 0.0000000e+0
vn 9.7973410e-19 1.00000000 -6.0311983e-17
vn 1.8459043e-16 6.1232276e-17 1.00000000
vn 1.00000000 0.0000000e+0 0.0000000e+0
vn 1.8459043e-16 6.1232276e-17 1.00000000
vn -1.6846514e-24 -1.00000000 6.1232349e-17
vn -1.00000000 0.0000000e+0 0.0000000e+0
vn 9.7973410e-19 1.00000000 -6.0311983e-17
vn 1.8459043e-16 6.1232276e-17 1.00000000
vn -1.00000000 0.0000000e+0 0.0000000e+0
vn 1.8459043e-16 6.1232276e-17 1.00000000
vn -1.6846514e-24 -1.00000000 6.1232349e-17
vn 0.0000000e+0 0.0000000e+0 -1.00000000
vn 1.00000000 0.0000000e+0 -3.7007434e-16
vn -1.6846514e-24 -1.00000000 6.1232349e-17
vn 9.7973410e-19 1.00000000 -6.0311983e-17
vn 0.0000000e+0 0.0000000e+0 -1.00000000
vn 1.00000000 0.0000000e+0 -3.7007434e-16
vn 9.7973410e-19 1.00000000 -6.0311983e-17
vn -5.5511153e-16 0.0000000e+0 -1.00000000
vn 1.00000000 0.0000000e+0 -3.7007434e-16
vn -5.5511153e-16 0.0000000e+0 -1.00000000
vn 1.00000000 0.0000000e+0 -3.7007434e-16
vn -1.6846514e-24 -1.00000000 6.1232349e-17
vn -5.5511153e-16 0.0000000e+0 -1.00000000
vn -1.6846514e-24 -1.00000000 6.1232349e-17
vn -0.37110677 0.0000000e+0 -0.92859020
vn 9.7973410e-19 1.00000000 -6.0311983e-17
vn -5.5511153e-16 0.0000000e+0 -1.00000000
vn -0.37110677 0.0000000e+0 -0.92859020
vn 9.7973410e-19 1.00000000 -6.0311983e-17
vn -0.57980769 0.0000000e+0 -0.81475336
vn -0.37110677 0.0000000e+0 -0.92859020
vn -1.6846514e-24 -1.00000000 6.1232349e-17
vn -0.57980769 0.0000000e+0 -0.81475336
vn -0.37110677 0.0000000e+0 -0.92859020
vn 3.1479520e-17 0.92387953 0.38268343
vn -1.00000000 0.0000000e+0 0.0000000e+0
vn 3.0665868e-17 0.70710678 0.70710678
vn 3.0665868e-17 0.70710678 0.70710678
vn -1.00000000 -1.0903420e-16 0.0000000e+0
vn -1.00000000 -1.0903420e-16 0.0000000e+0
vn 3.4073187e-18 -3.0042419e-17 1.00000000
vn 3.4073187e-18 -3.0042419e-17 1.00000000
vn -1.00000000 1.0903420e-16 0.0000000e+0
vn -1.00000000 1.0903420e-16 0.0000000e+0
vn -2.0443912e-17 -0.70710678 0.70710678
vn -2.0443912e-17 -0.70710678 0.70710678
vn -1.00000000 2.1806840e-16 0.0000000e+0
vn -1.00000000 2.1806840e-16 0.0000000e+0
vn -2.7258550e-17 -1.00000000 1.5021209e-16
vn -2.7258550e-17 -1.00000000 1.5021209e-16
vn -1.00000000 0.0000000e+0 0.0000000e+0
vn -1.00000000 0.0000000e+0 0.0000000e+0
vn -2.7258550e-17 -0.70710678 -0.70710678
vn -2.7258550e-17 -0.70710678 -0.70710678
vn -1.00000000 1.0903420e-16 0.0000000e+0
vn -1.00000000 1.0903420e-16 0.0000000e+0
vn -1.8887712e-17 -0.38268343 -0.92387953
vn -1.00000000 2.1806840e-16 0.0000000e+0
vn 3.1479520e-17 0.92387953 0.38268343
vn 1.00000000 0.0000000e+0 -1.5328981e-16
vn 3.0665868e-17 0.70710678 0.70710678
vn 3.0665868e-17 0.70710678 0.70710678
vn 1.00000000 -1.0903420e-16 -2.6168208e-16
vn 1.00000000 -1.0903420e-16 -2.6168208e-16
vn 3.4073187e-18 -3.0042419e-17 1.00000000
vn 3.4073187e-18 -3.0042419e-17 1.00000000
vn 1.00000000 -3.2710260e-16 -3.7007434e-16
vn 1.00000000 -3.2710260e-16 -3.7007434e-16
vn -2.0443912e-17 -0.70710678 0.70710678
vn -2.0443912e-17 -0.70710678 0.70710678
vn 1.00000000 2.1806840e-16 -2.6168208e-16
vn 1.00000000 2.1806840e-16 -2.6168208e-16
vn -2.7258550e-17 -1.00000000 1.5021209e-16
vn -2.7258550e-17 -1.00000000 1.5021209e-16
vn 1.00000000 0.0000000e+0 -7.3955710e-32
vn 1.00000000 0.0000000e+0 -7.3955710e-32
vn -2.7258550e-17 -0.70710678 -0.70710678
vn -2.7258550e-17 -0.70710678 -0.70710678
vn 1.00000000 -3.2710260e-16 2.6168208e-16
vn 1.00000000 -3.2710260e-16 2.6168208e-16
vn -1.8887712e-17 -0.38268343 -0.92387953
vn 1.00000000 2.1806840e-16 3.7007434e-16
g mesh1
usemtl mesh1_auv
s 1
f 2/60/7 9/71/27 10/70/31 1/59/5
f 3/19/11 15/64/46 16/65/49 4/20/14
f 5/73/17 7/4/23 8/3/25 6/72/19
f 12/54/36 13/22/39 14/21/43 11/53/34
f 17/15/52 31/25/1 18/23/55
f 18/50/54 25/49/78 24/51/75 17/52/51
f 18/23/56 31/25/1 19/24/60
f 19/48/58 26/47/82 25/49/77 18/50/53
f 19/24/59 31/25/1 20/29/64
f 20/46/62 27/45/86 26/47/81 19/48/57
f 20/29/63 31/25/1 21/33/68
f 21/42/66 28/41/90 27/45/85 20/46/61
f 21/33/67 31/25/1 22/30/72
f 22/40/70 29/39/94 28/41/89 21/42/65
f 22/30/71 31/25/1 23/26/74
f 23/36/73 30/35/97 29/39/93 22/40/69
f 25/32/79 32/27/2 24/28/76
f 26/34/83 32/27/2 25/32/80
f 27/31/87 32/27/2 26/34/84
f 28/24/91 32/27/2 27/31/88
f 29/23/95 32/27/2 28/24/92
f 30/16/98 32/27/2 29/23/96
s 2
f 1/56/3 5/8/15 6/7/18 2/55/6
f 4/5/12 8/10/24 7/11/21 3/6/9
f 9/68/28 12/57/37 11/58/35 10/69/32
f 13/67/41 16/18/50 15/17/47 14/66/44
s 3
f 2/62/8 6/76/20 8/75/26 4/74/13 16/61/48 13/43/40 12/44/38 9/63/29
f 10/13/30 11/37/33 14/38/42 15/14/45 3/9/10 7/2/22 5/1/16 1/12/4
