# Exported from Wings 3D 1.5.4
mtllib 1mv_solar_srf_1_collider.mtl
o collider
#12 vertices, 8 faces
v 0.45000006 2.5000059e-2 -0.42500000
v 0.45000006 5.8888141e-8 -0.42500000
v -0.45000006 2.5000059e-2 -0.27500000
v -0.45000006 5.8888141e-8 -0.27500000
v 0.45000006 2.5000059e-2 -8.4596516e-17
v 0.45000006 5.8888141e-8 -8.3065709e-17
v -0.45000006 2.5000059e-2 8.1534895e-17
v -0.45000006 5.8888141e-8 8.3065702e-17
v 0.30000006 2.5000059e-2 -0.57500000
v 0.30000006 5.8888141e-8 -0.57500000
v 0.10000007 5.8888141e-8 -0.57500000
v 0.10000007 2.5000059e-2 -0.57500000
vt 4.0000000e-2 0.25723631
vt 4.0000000e-2 0.96000000
vt 4.0025648e-2 0.15613058
vt 4.0025648e-2 0.17565180
vt 4.0311070e-2 9.5845460e-2
vt 4.0311070e-2 0.11536667
vt 0.25471210 9.5783503e-2
vt 0.25471210 0.11530471
vt 0.25473332 0.96000000
vt 0.25504439 9.5845460e-2
vt 0.25504439 0.11536667
vt 0.37186059 0.25723631
vt 0.41201008 0.21575282
vt 0.41201008 0.23527403
vt 0.41211351 0.27592241
vt 0.41211351 0.29544362
vt 0.48898785 0.37436358
vt 0.48898785 0.53053326
vt 0.51101215 0.68670305
vt 0.51101215 0.84287273
vt 0.56828319 0.27592241
vt 0.56828319 0.29544362
vt 0.58657269 9.5783503e-2
vt 0.58657269 0.11530471
vt 0.58702192 0.11526181
vt 0.58702192 9.5740597e-2
vt 0.58708483 9.5740597e-2
vt 0.58708483 0.11526181
vt 0.62813941 0.96000000
vt 0.65835667 0.21575282
vt 0.65835667 0.23527403
vt 0.74278933 0.15613058
vt 0.74278933 0.17565180
vt 0.74526668 0.25723631
vt 0.96000000 0.25723631
vt 0.96000000 0.96000000
vn 1.00000000 0.0000000e+0 0.0000000e+0
vn 9.2109200e-19 1.00000000 -6.6523311e-17
vn 0.70710678 0.0000000e+0 -0.70710678
vn 1.00000000 0.0000000e+0 0.0000000e+0
vn 0.70710678 0.0000000e+0 -0.70710678
vn -1.9520484e-24 -1.00000000 6.1232358e-17
vn -1.00000000 0.0000000e+0 0.0000000e+0
vn 9.2109200e-19 1.00000000 -6.6523311e-17
vn -0.47885205 0.0000000e+0 -0.87789562
vn -1.00000000 0.0000000e+0 0.0000000e+0
vn -1.9520484e-24 -1.00000000 6.1232358e-17
vn -0.47885205 0.0000000e+0 -0.87789562
vn 1.00000000 0.0000000e+0 0.0000000e+0
vn 9.2109200e-19 1.00000000 -6.6523311e-17
vn 1.8459043e-16 6.1232276e-17 1.00000000
vn 1.00000000 0.0000000e+0 0.0000000e+0
vn 1.8459043e-16 6.1232276e-17 1.00000000
vn -1.9520484e-24 -1.00000000 6.1232358e-17
vn -1.00000000 0.0000000e+0 0.0000000e+0
vn 9.2109200e-19 1.00000000 -6.6523311e-17
vn 1.8459043e-16 6.1232276e-17 1.00000000
vn -1.00000000 0.0000000e+0 0.0000000e+0
vn 1.8459043e-16 6.1232276e-17 1.00000000
vn -1.9520484e-24 -1.00000000 6.1232358e-17
vn 9.2109200e-19 1.00000000 -6.6523311e-17
vn -5.5511153e-16 0.0000000e+0 -1.00000000
vn 0.70710678 0.0000000e+0 -0.70710678
vn -5.5511153e-16 0.0000000e+0 -1.00000000
vn 0.70710678 0.0000000e+0 -0.70710678
vn -1.9520484e-24 -1.00000000 6.1232358e-17
vn -5.5511153e-16 0.0000000e+0 -1.00000000
vn -1.9520484e-24 -1.00000000 6.1232358e-17
vn -0.47885205 0.0000000e+0 -0.87789562
vn 9.2109200e-19 1.00000000 -6.6523311e-17
vn -5.5511153e-16 0.0000000e+0 -1.00000000
vn -0.47885205 0.0000000e+0 -0.87789562
g collider
usemtl default
s 1
f 2/28/5 10/25/29 9/26/27 1/27/3
f 4/5/10 8/10/22 7/11/19 3/6/7
s 2
f 6/36/18 8/35/24 4/34/11 11/19/32 10/20/30 2/29/6
f 9/17/25 12/18/34 3/9/8 7/2/20 5/1/14 1/12/2
s 3
f 5/33/15 7/4/21 8/3/23 6/32/17
f 10/22/28 11/16/31 12/15/35 9/21/26
s 4
f 1/24/1 5/8/13 6/7/16 2/23/4
f 3/13/9 12/30/36 11/31/33 4/14/12
