# Exported from Wings 3D 1.5.4
mtllib hgneck.mtl
o 1
#74 vertices, 72 faces
v 2.1650635e-2 0.0000000e+0 1.2500000e-2
v 2.5000000e-2 0.0000000e+0 0.0000000e+0
v 2.1650635e-2 0.0000000e+0 -1.2500000e-2
v 1.2500000e-2 0.0000000e+0 -2.1650635e-2
v -4.2936676e-18 0.0000000e+0 -2.5000000e-2
v -1.2500000e-2 0.0000000e+0 -2.1650635e-2
v -2.1650635e-2 0.0000000e+0 -1.2500000e-2
v -2.5000000e-2 0.0000000e+0 0.0000000e+0
v -2.1650635e-2 0.0000000e+0 1.2500000e-2
v -1.2500000e-2 0.0000000e+0 2.1650635e-2
v 1.8295664e-18 0.0000000e+0 2.5000000e-2
v 1.2500000e-2 0.0000000e+0 2.1650635e-2
v 2.1650635e-2 1.2500000e-2 1.2500000e-2
v 2.5000000e-2 1.2500000e-2 0.0000000e+0
v 2.1650635e-2 1.2500000e-2 -1.2500000e-2
v 1.2500000e-2 1.2500000e-2 -2.1650635e-2
v -4.2936676e-18 1.2500000e-2 -2.5000000e-2
v -1.2500000e-2 1.2500000e-2 -2.1650635e-2
v -2.1650635e-2 1.2500000e-2 -1.2500000e-2
v -2.5000000e-2 1.2500000e-2 0.0000000e+0
v -2.1650635e-2 1.2500000e-2 1.2500000e-2
v -1.2500000e-2 1.2500000e-2 2.1650635e-2
v 1.8295664e-18 1.2500000e-2 2.5000000e-2
v 1.2500000e-2 1.2500000e-2 2.1650635e-2
v 3.2475953e-2 1.2500000e-2 1.8750000e-2
v 3.7500000e-2 1.2500000e-2 -2.7755576e-17
v 3.2475953e-2 1.2500000e-2 -1.8750000e-2
v 1.8750000e-2 1.2500000e-2 -3.2475953e-2
v -4.1191674e-18 1.2500000e-2 -3.7500000e-2
v -1.8750000e-2 1.2500000e-2 -3.2475953e-2
v -3.2475953e-2 1.2500000e-2 -1.8750000e-2
v -3.7500000e-2 1.2500000e-2 -2.7755576e-17
v -3.2475953e-2 1.2500000e-2 1.8750000e-2
v -1.8750000e-2 1.2500000e-2 3.2475953e-2
v 5.0656836e-18 1.2500000e-2 3.7500000e-2
v 1.8750000e-2 1.2500000e-2 3.2475953e-2
v 3.2475953e-2 3.7500000e-2 1.8750000e-2
v 3.7500000e-2 3.7500000e-2 -2.7755576e-17
v 3.2475953e-2 3.7500000e-2 -1.8750000e-2
v 1.8750000e-2 3.7500000e-2 -3.2475953e-2
v -4.1191674e-18 3.7500000e-2 -3.7500000e-2
v -1.8750000e-2 3.7500000e-2 -3.2475953e-2
v -3.2475953e-2 3.7500000e-2 -1.8750000e-2
v -3.7500000e-2 3.7500000e-2 -2.7755576e-17
v -3.2475953e-2 3.7500000e-2 1.8750000e-2
v -1.8750000e-2 3.7500000e-2 3.2475953e-2
v 5.0656836e-18 3.7500000e-2 3.7500000e-2
v 1.8750000e-2 3.7500000e-2 3.2475953e-2
v 8.9018705e-19 1.2500000e-2 -5.5511151e-17
v -8.6736174e-19 5.0000000e-2 -5.5511151e-17
v 1.2893873e-2 4.4029906e-2 2.2332844e-2
v 3.1053490e-18 4.4029906e-2 2.5787747e-2
v -1.2893873e-2 4.4029906e-2 2.2332844e-2
v -2.2332844e-2 4.4029906e-2 1.2893873e-2
v -2.5787747e-2 4.4029906e-2 -2.7755576e-17
v -2.2332844e-2 4.4029906e-2 -1.2893873e-2
v -1.2893873e-2 4.4029906e-2 -2.2332844e-2
v -2.7923709e-18 4.4029906e-2 -2.5787747e-2
v 1.2893873e-2 4.4029906e-2 -2.2332844e-2
v 2.2332844e-2 4.4029906e-2 -1.2893873e-2
v 2.5787747e-2 4.4029906e-2 -2.7755576e-17
v 2.2332844e-2 4.4029906e-2 1.2893873e-2
v 1.1507526e-2 4.8196573e-2 6.6438733e-3
v 1.3287747e-2 4.8196573e-2 -5.5511151e-17
v 1.1507526e-2 4.8196573e-2 -6.6438733e-3
v 6.6438733e-3 4.8196573e-2 -1.1507526e-2
v -1.7257829e-18 4.8196573e-2 -1.3287747e-2
v -6.6438733e-3 4.8196573e-2 -1.1507526e-2
v -1.1507526e-2 4.8196573e-2 -6.6438733e-3
v -1.3287747e-2 4.8196573e-2 -5.5511151e-17
v -1.1507526e-2 4.8196573e-2 6.6438733e-3
v -6.6438733e-3 4.8196573e-2 1.1507526e-2
v 1.2317507e-18 4.8196573e-2 1.3287747e-2
v 6.6438733e-3 4.8196573e-2 1.1507526e-2
vt 1.9918165e-2 0.25937134
vt 2.0000000e-2 0.16635085
vt 2.0000000e-2 0.17708586
vt 2.0000000e-2 0.22377546
vt 2.0000000e-2 0.21402926
vt 2.1917542e-2 0.25190956
vt 2.1917542e-2 0.26683312
vt 2.5150000e-2 0.17708586
vt 2.5150000e-2 0.16635085
vt 2.7379942e-2 0.24644716
vt 2.7379942e-2 0.27229552
vt 2.7725000e-2 0.22377546
vt 2.7725000e-2 0.21402926
vt 3.0300000e-2 0.16635085
vt 3.0300000e-2 0.17708586
vt 3.4841719e-2 0.27429489
vt 3.4841719e-2 0.24444779
vt 3.4841719e-2 0.25937134
vt 3.5450000e-2 0.16635085
vt 3.5450000e-2 0.17708586
vt 3.5450000e-2 0.21402926
vt 3.5450000e-2 0.22377546
vt 4.0600000e-2 0.16635085
vt 4.0600000e-2 0.17708586
vt 4.2303496e-2 0.27229552
vt 4.2303496e-2 0.24644716
vt 4.3175000e-2 0.21402926
vt 4.3175000e-2 0.22377546
vt 4.5750000e-2 0.16635085
vt 4.5750000e-2 0.17708586
vt 4.7765896e-2 0.25190956
vt 4.7765896e-2 0.26683312
vt 4.9765273e-2 0.25937134
vt 5.0900000e-2 0.16635085
vt 5.0900000e-2 0.17708586
vt 5.0900000e-2 0.21402926
vt 5.0900000e-2 0.22377546
vt 5.6050000e-2 0.16635085
vt 5.6050000e-2 0.17708586
vt 5.8625000e-2 0.21402926
vt 5.8625000e-2 0.22377546
vt 6.1200000e-2 0.16635085
vt 6.1200000e-2 0.17708586
vt 6.6350000e-2 0.16635085
vt 6.6350000e-2 0.17708586
vt 6.6350000e-2 0.21402926
vt 6.6350000e-2 0.22377546
vt 7.0176480e-2 0.25940971
vt 7.1500000e-2 0.17708586
vt 7.1500000e-2 0.16635085
vt 7.2246575e-2 0.25157916
vt 7.2284932e-2 0.26723002
vt 7.4075000e-2 0.21402926
vt 7.4075000e-2 0.22377546
vt 7.5621680e-2 0.25939636
vt 7.6650000e-2 0.16635085
vt 7.6650000e-2 0.17708586
vt 7.6974124e-2 0.25428454
vt 7.6999163e-2 0.26450150
vt 7.7949670e-2 0.24581988
vt 7.8016187e-2 0.27296127
vt 8.0698078e-2 0.25053278
vt 8.0741462e-2 0.26823496
vt 8.0748823e-2 0.25938380
vt 8.1422286e-2 0.25683812
vt 8.1434755e-2 0.26192615
vt 8.1800000e-2 0.16635085
vt 8.1800000e-2 0.17708586
vt 8.1800000e-2 0.21402926
vt 8.1800000e-2 0.22377546
vt 8.3277351e-2 0.25497052
vt 8.3298953e-2 0.26378463
vt 8.5793236e-2 0.24367050
vt 8.5806650e-2 0.24914370
vt 8.5819242e-2 0.25428164
vt 8.5831715e-2 0.25937134
vt 8.5844189e-2 0.26446104
vt 8.5856781e-2 0.26959898
vt 8.5870195e-2 0.27507218
vt 8.8364478e-2 0.25495805
vt 8.8386080e-2 0.26377216
vt 8.9525000e-2 0.21402926
vt 8.9525000e-2 0.22377546
vt 9.0228676e-2 0.25681654
vt 9.0241145e-2 0.26190456
vt 9.0914608e-2 0.25935888
vt 9.0921969e-2 0.25050772
vt 9.0965353e-2 0.26820991
vt 9.3647244e-2 0.24578141
vt 9.3713761e-2 0.27292280
vt 9.4664268e-2 0.25424118
vt 9.4689307e-2 0.26445815
vt 9.6041751e-2 0.25934632
vt 9.7250000e-2 0.21402926
vt 9.7250000e-2 0.22377546
vt 9.9378499e-2 0.25151267
vt 9.9416856e-2 0.26716352
vt 0.10148695 0.25933297
vt 0.10497500 0.21402926
vt 0.10497500 0.22377546
vt 0.11270000 0.21402926
vt 0.11270000 0.22377546
vn 0.0000000e+0 -1.00000000 -9.6373526e-18
vn -4.4378018e-17 1.00000000 -3.2699592e-17
vn 0.20157189 0.91513666 0.34913275
vn 2.4539449e-17 0.91513666 0.40314377
vn -0.20157189 0.91513666 0.34913275
vn -0.34913275 0.91513666 0.20157189
vn -0.40314377 0.91513666 1.9280995e-16
vn -0.34913275 0.91513666 -0.20157189
vn -0.20157189 0.91513666 -0.34913275
vn 1.1919161e-16 0.91513666 -0.40314377
vn 0.20157189 0.91513666 -0.34913275
vn 0.34913275 0.91513666 -0.20157189
vn 0.40314377 0.91513666 -1.5424796e-16
vn 0.34913275 0.91513666 0.20157189
vn 0.19590482 0.97407823 0.11310570
vn 0.22621140 0.97407823 5.3427765e-16
vn 0.19590482 0.97407823 -0.11310570
vn 0.11310570 0.97407823 -0.19590482
vn 6.6348204e-17 0.97407823 -0.22621140
vn -0.11310570 0.97407823 -0.19590482
vn -0.19590482 0.97407823 -0.11310570
vn -0.22621140 0.97407823 7.3157625e-16
vn -0.19590482 0.97407823 0.11310570
vn -0.11310570 0.97407823 0.19590482
vn 1.3968043e-17 0.97407823 0.22621140
vn 0.11310570 0.97407823 0.19590482
vn 0.86602540 0.0000000e+0 0.50000000
vn 0.86602540 0.0000000e+0 0.50000000
vn 1.00000000 0.0000000e+0 -2.2987749e-16
vn 1.00000000 0.0000000e+0 -2.2987749e-16
vn 0.86602540 0.0000000e+0 -0.50000000
vn 0.86602540 0.0000000e+0 -0.50000000
vn 0.50000000 0.0000000e+0 -0.86602540
vn 0.50000000 0.0000000e+0 -0.86602540
vn 2.8734686e-16 0.0000000e+0 -1.00000000
vn 2.8734686e-16 0.0000000e+0 -1.00000000
vn -0.50000000 0.0000000e+0 -0.86602540
vn -0.50000000 0.0000000e+0 -0.86602540
vn -0.86602540 0.0000000e+0 -0.50000000
vn -0.86602540 0.0000000e+0 -0.50000000
vn -1.00000000 0.0000000e+0 2.5861218e-16
vn -1.00000000 0.0000000e+0 2.5861218e-16
vn -0.86602540 0.0000000e+0 0.50000000
vn -0.86602540 0.0000000e+0 0.50000000
vn -0.50000000 0.0000000e+0 0.86602540
vn -0.50000000 0.0000000e+0 0.86602540
vn 0.0000000e+0 0.0000000e+0 1.00000000
vn 0.0000000e+0 0.0000000e+0 1.00000000
vn 0.50000000 0.0000000e+0 0.86602540
vn 0.50000000 0.0000000e+0 0.86602540
vn 0.86602540 0.0000000e+0 0.50000000
vn 0.86602540 0.0000000e+0 0.50000000
vn 1.00000000 0.0000000e+0 -2.2987749e-16
vn 1.00000000 0.0000000e+0 -2.2987749e-16
vn 0.86602540 0.0000000e+0 -0.50000000
vn 0.86602540 0.0000000e+0 -0.50000000
vn 0.50000000 0.0000000e+0 -0.86602540
vn 0.50000000 0.0000000e+0 -0.86602540
vn 2.8734686e-16 0.0000000e+0 -1.00000000
vn 2.8734686e-16 0.0000000e+0 -1.00000000
vn -0.50000000 0.0000000e+0 -0.86602540
vn -0.50000000 0.0000000e+0 -0.86602540
vn -0.86602540 0.0000000e+0 -0.50000000
vn -0.86602540 0.0000000e+0 -0.50000000
vn -1.00000000 0.0000000e+0 2.5861218e-16
vn -1.00000000 0.0000000e+0 2.5861218e-16
vn -0.86602540 0.0000000e+0 0.50000000
vn -0.86602540 0.0000000e+0 0.50000000
vn -0.50000000 0.0000000e+0 0.86602540
vn -0.50000000 0.0000000e+0 0.86602540
vn 0.0000000e+0 0.0000000e+0 1.00000000
vn 0.0000000e+0 0.0000000e+0 1.00000000
vn 0.50000000 0.0000000e+0 0.86602540
vn 0.50000000 0.0000000e+0 0.86602540
vn 0.86602540 0.0000000e+0 0.50000000
vn 0.86602540 0.0000000e+0 0.50000000
vn 0.0000000e+0 -1.00000000 1.9274705e-17
vn 0.0000000e+0 -1.00000000 1.9274705e-17
vn 1.00000000 0.0000000e+0 -3.1608155e-16
vn 1.00000000 0.0000000e+0 -3.1608155e-16
vn 0.0000000e+0 -1.00000000 -5.7824116e-17
vn 0.0000000e+0 -1.00000000 -5.7824116e-17
vn 0.86602540 0.0000000e+0 -0.50000000
vn 0.86602540 0.0000000e+0 -0.50000000
vn 0.0000000e+0 -1.00000000 -2.4651903e-32
vn 0.0000000e+0 -1.00000000 -2.4651903e-32
vn 0.50000000 0.0000000e+0 -0.86602540
vn 0.50000000 0.0000000e+0 -0.86602540
vn 0.0000000e+0 -1.00000000 3.8549411e-17
vn 0.0000000e+0 -1.00000000 3.8549411e-17
vn 2.5861218e-16 0.0000000e+0 -1.00000000
vn 2.5861218e-16 0.0000000e+0 -1.00000000
vn 0.0000000e+0 -1.00000000 -3.8549411e-17
vn 0.0000000e+0 -1.00000000 -3.8549411e-17
vn -0.50000000 0.0000000e+0 -0.86602540
vn -0.50000000 0.0000000e+0 -0.86602540
vn 0.0000000e+0 -1.00000000 -3.0814879e-32
vn 0.0000000e+0 -1.00000000 -3.0814879e-32
vn -0.86602540 0.0000000e+0 -0.50000000
vn -0.86602540 0.0000000e+0 -0.50000000
vn 0.0000000e+0 -1.00000000 1.9274705e-17
vn 0.0000000e+0 -1.00000000 1.9274705e-17
vn -1.00000000 0.0000000e+0 3.7355092e-16
vn -1.00000000 0.0000000e+0 3.7355092e-16
vn 0.0000000e+0 -1.00000000 -3.8549411e-17
vn 0.0000000e+0 -1.00000000 -3.8549411e-17
vn -0.86602540 0.0000000e+0 0.50000000
vn -0.86602540 0.0000000e+0 0.50000000
vn 0.0000000e+0 -1.00000000 -1.9274705e-17
vn 0.0000000e+0 -1.00000000 -1.9274705e-17
vn -0.50000000 0.0000000e+0 0.86602540
vn -0.50000000 0.0000000e+0 0.86602540
vn 0.0000000e+0 -1.00000000 -3.8549411e-17
vn 0.0000000e+0 -1.00000000 -3.8549411e-17
vn 2.8734686e-17 0.0000000e+0 1.00000000
vn 2.8734686e-17 0.0000000e+0 1.00000000
vn 0.0000000e+0 -1.00000000 -3.8549411e-17
vn 0.0000000e+0 -1.00000000 -3.8549411e-17
vn 0.50000000 0.0000000e+0 0.86602540
vn 0.50000000 0.0000000e+0 0.86602540
vn 0.0000000e+0 -1.00000000 3.8549411e-17
vn 0.0000000e+0 -1.00000000 3.8549411e-17
vn 0.86602540 0.0000000e+0 0.50000000
vn 0.86602540 0.0000000e+0 0.50000000
vn 0.42171859 0.87342500 0.24347934
vn 0.42171859 0.87342500 0.24347934
vn 1.00000000 0.0000000e+0 -3.1608155e-16
vn 1.00000000 0.0000000e+0 -3.1608155e-16
vn 0.48695869 0.87342500 -1.5394967e-16
vn 0.48695869 0.87342500 -1.5394967e-16
vn 0.86602540 0.0000000e+0 -0.50000000
vn 0.86602540 0.0000000e+0 -0.50000000
vn 0.42171859 0.87342500 -0.24347934
vn 0.42171859 0.87342500 -0.24347934
vn 0.50000000 0.0000000e+0 -0.86602540
vn 0.50000000 0.0000000e+0 -0.86602540
vn 0.24347934 0.87342500 -0.42171859
vn 0.24347934 0.87342500 -0.42171859
vn 2.5861218e-16 0.0000000e+0 -1.00000000
vn 2.5861218e-16 0.0000000e+0 -1.00000000
vn 1.3995424e-16 0.87342500 -0.48695869
vn 1.3995424e-16 0.87342500 -0.48695869
vn -0.50000000 0.0000000e+0 -0.86602540
vn -0.50000000 0.0000000e+0 -0.86602540
vn -0.24347934 0.87342500 -0.42171859
vn -0.24347934 0.87342500 -0.42171859
vn -0.86602540 0.0000000e+0 -0.50000000
vn -0.86602540 0.0000000e+0 -0.50000000
vn -0.42171859 0.87342500 -0.24347934
vn -0.42171859 0.87342500 -0.24347934
vn -1.00000000 0.0000000e+0 3.7355092e-16
vn -1.00000000 0.0000000e+0 3.7355092e-16
vn -0.48695869 0.87342500 2.2392679e-16
vn -0.48695869 0.87342500 2.2392679e-16
vn -0.86602540 0.0000000e+0 0.50000000
vn -0.86602540 0.0000000e+0 0.50000000
vn -0.42171859 0.87342500 0.24347934
vn -0.42171859 0.87342500 0.24347934
vn -0.50000000 0.0000000e+0 0.86602540
vn -0.50000000 0.0000000e+0 0.86602540
vn -0.24347934 0.87342500 0.42171859
vn -0.24347934 0.87342500 0.42171859
vn 2.8734686e-17 0.0000000e+0 1.00000000
vn 2.8734686e-17 0.0000000e+0 1.00000000
vn 2.7990849e-17 0.87342500 0.48695869
vn 2.7990849e-17 0.87342500 0.48695869
vn 0.50000000 0.0000000e+0 0.86602540
vn 0.50000000 0.0000000e+0 0.86602540
vn 0.24347934 0.87342500 0.42171859
vn 0.24347934 0.87342500 0.42171859
g 1_1_auv
usemtl 1_auv
s 1
f 25/6/77 49/18/1 26/1/81
f 26/1/82 49/18/1 27/7/86
f 27/7/85 49/18/1 28/11/90
f 28/11/89 49/18/1 29/16/94
f 29/16/93 49/18/1 30/25/98
f 30/25/97 49/18/1 31/32/102
f 31/32/101 49/18/1 32/33/106
f 32/33/105 49/18/1 33/31/110
f 33/31/109 49/18/1 34/26/114
f 34/26/113 49/18/1 35/17/118
f 35/17/117 49/18/1 36/10/122
f 36/10/121 49/18/1 25/6/78
f 37/96/126 62/91/14 51/87/3 48/89/170
f 38/98/129 61/93/13 62/91/14 37/96/125
f 39/97/133 60/92/12 61/93/13 38/98/130
f 40/90/137 59/88/11 60/92/12 39/97/134
f 41/79/141 58/78/10 59/88/11 40/90/138
f 42/61/145 57/63/9 58/78/10 41/79/142
f 43/52/149 56/59/8 57/63/9 42/61/146
f 44/48/153 55/55/7 56/59/8 43/52/150
f 45/51/157 54/58/6 55/55/7 44/48/154
f 46/60/161 53/62/5 54/58/6 45/51/158
f 47/73/165 52/74/4 53/62/5 46/60/162
f 48/89/169 51/87/3 52/74/4 47/73/166
f 50/76/2 74/80/26 63/84/15
f 51/87/3 62/91/14 63/84/15 74/80/26
f 63/84/15 64/86/16 50/76/2
f 64/86/16 63/84/15 62/91/14 61/93/13
f 64/86/16 65/85/17 50/76/2
f 65/85/17 64/86/16 61/93/13 60/92/12
f 65/85/17 66/81/18 50/76/2
f 66/81/18 65/85/17 60/92/12 59/88/11
f 66/81/18 67/77/19 50/76/2
f 67/77/19 66/81/18 59/88/11 58/78/10
f 67/77/19 68/72/20 50/76/2
f 68/72/20 67/77/19 58/78/10 57/63/9
f 68/72/20 69/66/21 50/76/2
f 69/66/21 68/72/20 57/63/9 56/59/8
f 69/66/21 70/64/22 50/76/2
f 70/64/22 69/66/21 56/59/8 55/55/7
f 70/64/22 71/65/23 50/76/2
f 71/65/23 70/64/22 55/55/7 54/58/6
f 71/65/23 72/71/24 50/76/2
f 72/71/24 71/65/23 54/58/6 53/62/5
f 72/71/24 73/75/25 50/76/2
f 73/75/25 72/71/24 53/62/5 52/74/4
f 73/75/25 74/80/26 50/76/2
f 74/80/26 73/75/25 52/74/4 51/87/3
s 2
f 1/49/28 13/50/52 24/56/74 12/57/50
f 2/45/29 14/44/53 13/50/51 1/49/27
f 3/43/31 15/42/55 14/44/54 2/45/30
f 4/39/33 16/38/57 15/42/56 3/43/32
f 5/35/35 17/34/59 16/38/58 4/39/34
f 6/30/37 18/29/61 17/34/60 5/35/36
f 7/24/39 19/23/63 18/29/62 6/30/38
f 8/20/41 20/19/65 19/23/64 7/24/40
f 9/15/43 21/14/67 20/19/66 8/20/42
f 10/8/45 22/9/69 21/14/68 9/15/44
f 11/3/47 23/2/71 22/9/70 10/8/46
f 12/57/49 24/56/73 23/67/72 11/68/48
f 25/95/76 37/94/124 48/99/168 36/100/120
f 26/83/79 38/82/127 37/94/123 25/95/75
f 27/70/83 39/69/131 38/82/128 26/83/80
f 28/54/87 40/53/135 39/69/132 27/70/84
f 29/47/91 41/46/139 40/53/136 28/54/88
f 30/41/95 42/40/143 41/46/140 29/47/92
f 31/37/99 43/36/147 42/40/144 30/41/96
f 32/28/103 44/27/151 43/36/148 31/37/100
f 33/22/107 45/21/155 44/27/152 32/28/104
f 34/12/111 46/13/159 45/21/156 33/22/108
f 35/4/115 47/5/163 46/13/160 34/12/112
f 36/100/119 48/99/167 47/101/164 35/102/116
