# Exported from Wings 3D 1.5.4
mtllib lgbase.mtl
o 1
#14 vertices, 11 faces
v -1.8750000e-2 -2.5000000e-2 3.7500000e-2
v -1.8750000e-2 2.5000000e-2 3.7500000e-2
v 1.8750000e-2 -2.5000000e-2 3.7500000e-2
v 1.8750000e-2 2.5000000e-2 3.7500000e-2
v -1.8750000e-2 2.5000000e-2 -5.0000000e-2
v -1.8750000e-2 -2.5000000e-2 -5.0000000e-2
v -1.8750000e-2 -1.7677670e-2 -6.7677670e-2
v -1.8750000e-2 -1.0408341e-18 -7.5000000e-2
v -1.8750000e-2 1.7677670e-2 -6.7677670e-2
v 1.8750000e-2 2.5000000e-2 -5.0000000e-2
v 1.8750000e-2 -2.5000000e-2 -5.0000000e-2
v 1.8750000e-2 -1.7677670e-2 -6.7677670e-2
v 1.8750000e-2 -7.1640681e-18 -7.5000000e-2
v 1.8750000e-2 1.7677670e-2 -6.7677670e-2
vt 0.21752371 0.36536520
vt 0.21752371 0.39964850
vt 0.21752371 0.43071005
vt 0.21752371 0.46515405
vt 0.22044646 0.35830906
vt 0.22044646 0.47221019
vt 0.22750259 0.35538632
vt 0.22750259 0.47513294
vt 0.23455873 0.35830906
vt 0.23455873 0.47221019
vt 0.23748148 0.36536520
vt 0.23748148 0.39964850
vt 0.23748148 0.43071005
vt 0.23748148 0.46515405
vt 0.25682890 0.37596815
vt 0.25682890 0.41069337
vt 0.25682890 0.41833088
vt 0.25682890 0.42596839
vt 0.25682890 0.43360590
vt 0.25682890 0.44124341
vt 0.25682890 0.47534592
vt 0.26858197 0.37596815
vt 0.26858197 0.41069337
vt 0.26858197 0.41833088
vt 0.26858197 0.42596839
vt 0.26858197 0.43360590
vt 0.26858197 0.44124341
vt 0.26858197 0.47534592
vn 0.0000000e+0 -1.00000000 0.0000000e+0
vn 0.0000000e+0 0.0000000e+0 1.00000000
vn -1.00000000 0.0000000e+0 0.0000000e+0
vn 0.0000000e+0 1.00000000 -3.9650822e-17
vn 0.0000000e+0 0.0000000e+0 1.00000000
vn -1.00000000 0.0000000e+0 0.0000000e+0
vn 0.0000000e+0 -1.00000000 0.0000000e+0
vn 0.0000000e+0 0.0000000e+0 1.00000000
vn 1.00000000 0.0000000e+0 0.0000000e+0
vn 0.0000000e+0 1.00000000 -3.9650822e-17
vn 0.0000000e+0 0.0000000e+0 1.00000000
vn 1.00000000 0.0000000e+0 0.0000000e+0
vn 5.7773233e-17 0.98078528 -0.19509032
vn -1.00000000 -3.0665868e-17 0.0000000e+0
vn -1.00000000 -3.0665868e-17 0.0000000e+0
vn 5.7773233e-17 0.98078528 -0.19509032
vn -5.7773233e-17 -0.98078528 -0.19509032
vn -1.00000000 -3.0665868e-17 0.0000000e+0
vn -1.00000000 -3.0665868e-17 0.0000000e+0
vn -5.7773233e-17 -0.98078528 -0.19509032
vn -1.00000000 -6.1331737e-17 0.0000000e+0
vn -1.1244152e-16 -0.70710678 -0.70710678
vn -1.1244152e-16 -0.70710678 -0.70710678
vn -1.00000000 -6.1331737e-17 0.0000000e+0
vn 2.0012271e-32 -3.3046660e-16 -1.00000000
vn 2.0012271e-32 -3.3046660e-16 -1.00000000
vn -1.00000000 -6.1331737e-17 0.0000000e+0
vn 1.1244152e-16 0.70710678 -0.70710678
vn 1.1244152e-16 0.70710678 -0.70710678
vn 5.7773233e-17 0.98078528 -0.19509032
vn 1.00000000 -3.0665868e-17 0.0000000e+0
vn 5.7773233e-17 0.98078528 -0.19509032
vn 1.00000000 -3.0665868e-17 0.0000000e+0
vn -5.7773233e-17 -0.98078528 -0.19509032
vn 1.00000000 -3.0665868e-17 0.0000000e+0
vn -5.7773233e-17 -0.98078528 -0.19509032
vn 1.00000000 -3.0665868e-17 0.0000000e+0
vn -1.1244152e-16 -0.70710678 -0.70710678
vn -1.1244152e-16 -0.70710678 -0.70710678
vn 1.00000000 -6.1331737e-17 0.0000000e+0
vn 2.0012271e-32 -3.3046660e-16 -1.00000000
vn 2.0012271e-32 -3.3046660e-16 -1.00000000
vn 1.00000000 -6.1331737e-17 0.0000000e+0
vn 1.1244152e-16 0.70710678 -0.70710678
vn 1.1244152e-16 0.70710678 -0.70710678
vn 1.00000000 -6.1331737e-17 0.0000000e+0
g 1_1_auv
usemtl 1_auv
s 1
f 1/12/2 3/13/8 4/3/11 2/2/5
s 2
f 1/12/3 2/2/6 5/1/14 6/11/18
f 5/1/15 9/5/27 8/7/24 7/9/21 6/11/19
f 11/14/35 10/4/31 4/3/12 3/13/9
f 11/14/37 12/10/40 13/8/43 14/6/46 10/4/33
s 3
f 2/28/4 4/21/10 10/20/30 5/27/13
f 6/23/20 7/24/23 12/17/39 11/16/36
f 6/23/17 11/16/34 3/15/7 1/22/1
f 8/25/26 13/18/42 12/17/38 7/24/22
f 9/26/29 14/19/45 13/18/41 8/25/25
f 10/20/32 14/19/44 9/26/28 5/27/16
