# Exported from Wings 3D 1.5.4
mtllib lglg.mtl
o 1
#91 vertices, 93 faces
v 1.8750000e-2 2.5000000e-2 0.0000000e+0
v 1.3258252e-2 2.5000000e-2 1.3258252e-2
v -5.3322211e-17 2.5000000e-2 1.8750000e-2
v -1.3258252e-2 2.5000000e-2 1.3258252e-2
v -1.8750000e-2 2.5000000e-2 0.0000000e+0
v -1.3258252e-2 2.5000000e-2 -1.3258252e-2
v -5.7914636e-17 2.5000000e-2 -1.8750000e-2
v 1.3258252e-2 2.5000000e-2 -1.3258252e-2
v 1.8750000e-2 -2.5000000e-2 0.0000000e+0
v 1.3258252e-2 -2.5000000e-2 1.3258252e-2
v -5.3322211e-17 -2.5000000e-2 1.8750000e-2
v -1.3258252e-2 -2.5000000e-2 1.3258252e-2
v -1.8750000e-2 -2.5000000e-2 0.0000000e+0
v -1.3258252e-2 -2.5000000e-2 -1.3258252e-2
v -5.7914636e-17 -2.5000000e-2 -1.8750000e-2
v 1.3258252e-2 -2.5000000e-2 -1.3258252e-2
v 4.3750000e-2 5.0000000e-2 0.0000000e+0
v 3.7888611e-2 5.0000000e-2 2.1875000e-2
v 2.1875000e-2 5.0000000e-2 3.7888611e-2
v -4.2825634e-17 5.0000000e-2 4.3750000e-2
v -2.1875000e-2 5.0000000e-2 3.7888611e-2
v -3.7888611e-2 5.0000000e-2 2.1875000e-2
v -4.3750000e-2 5.0000000e-2 0.0000000e+0
v -3.7888611e-2 5.0000000e-2 -2.1875000e-2
v -2.1875000e-2 5.0000000e-2 -3.7888611e-2
v -5.9291216e-17 5.0000000e-2 -4.3750000e-2
v 2.1875000e-2 5.0000000e-2 -3.7888611e-2
v 3.7888611e-2 5.0000000e-2 -2.1875000e-2
v 3.7500000e-2 2.5000000e-2 0.0000000e+0
v 3.2475953e-2 2.5000000e-2 1.8750000e-2
v 1.8750000e-2 2.5000000e-2 3.2475953e-2
v -4.3522672e-17 2.5000000e-2 3.7500000e-2
v -1.8750000e-2 2.5000000e-2 3.2475953e-2
v -3.2475953e-2 2.5000000e-2 1.8750000e-2
v -3.7500000e-2 2.5000000e-2 0.0000000e+0
v -3.2475953e-2 2.5000000e-2 -1.8750000e-2
v -1.8750000e-2 2.5000000e-2 -3.2475953e-2
v -5.7636027e-17 2.5000000e-2 -3.7500000e-2
v 1.8750000e-2 2.5000000e-2 -3.2475953e-2
v 3.2475953e-2 2.5000000e-2 -1.8750000e-2
v -4.7415775e-17 2.5000000e-2 0.0000000e+0
v 5.0000000e-2 5.0000000e-2 0.0000000e+0
v 4.3301270e-2 5.0000000e-2 2.5000000e-2
v 2.5000000e-2 5.0000000e-2 4.3301270e-2
v -4.1261235e-17 5.0000000e-2 5.0000000e-2
v -2.5000000e-2 5.0000000e-2 4.3301270e-2
v -4.3301270e-2 5.0000000e-2 2.5000000e-2
v -5.0000000e-2 5.0000000e-2 0.0000000e+0
v -4.3301270e-2 5.0000000e-2 -2.5000000e-2
v -2.5000000e-2 5.0000000e-2 -4.3301270e-2
v -6.0079043e-17 5.0000000e-2 -5.0000000e-2
v 2.5000000e-2 5.0000000e-2 -4.3301270e-2
v 4.3301270e-2 5.0000000e-2 -2.5000000e-2
v 1.0825318e-2 0.27500000 6.2500000e-3
v 1.2500000e-2 0.27500000 0.0000000e+0
v 1.0825318e-2 0.27500000 -6.2500000e-3
v 6.2500000e-3 0.27500000 -1.0825318e-2
v -5.5352082e-17 0.27500000 -1.2500000e-2
v -6.2500000e-3 0.27500000 -1.0825318e-2
v -1.0825318e-2 0.27500000 -6.2500000e-3
v -1.2500000e-2 0.27500000 0.0000000e+0
v -1.0825318e-2 0.27500000 6.2500000e-3
v -6.2500000e-3 0.27500000 1.0825318e-2
v -5.0647630e-17 0.27500000 1.2500000e-2
v 6.2500000e-3 0.27500000 1.0825318e-2
v -4.9222779e-17 0.27500000 0.0000000e+0
v 1.8750000e-2 0.12500000 3.2475953e-2
v -4.4390033e-17 0.12500000 3.7500000e-2
v -1.8750000e-2 0.12500000 3.2475953e-2
v -3.2475953e-2 0.12500000 1.8750000e-2
v -3.7500000e-2 0.12500000 0.0000000e+0
v -3.2475953e-2 0.12500000 -1.8750000e-2
v -1.8750000e-2 0.12500000 -3.2475953e-2
v -5.8503389e-17 0.12500000 -3.7500000e-2
v 1.8750000e-2 0.12500000 -3.2475953e-2
v 3.2475953e-2 0.12500000 -1.8750000e-2
v 3.7500000e-2 0.12500000 0.0000000e+0
v 3.2475953e-2 0.12500000 1.8750000e-2
v 2.1650635e-2 0.20000000 1.2500000e-2
v 2.5000000e-2 0.20000000 0.0000000e+0
v 2.1650635e-2 0.20000000 -1.2500000e-2
v 1.2500000e-2 0.20000000 -2.1650635e-2
v -5.6927735e-17 0.20000000 -2.5000000e-2
v -1.2500000e-2 0.20000000 -2.1650635e-2
v -2.1650635e-2 0.20000000 -1.2500000e-2
v -2.5000000e-2 0.20000000 0.0000000e+0
v -2.1650635e-2 0.20000000 1.2500000e-2
v -1.2500000e-2 0.20000000 2.1650635e-2
v -4.7518832e-17 0.20000000 2.5000000e-2
v 1.2500000e-2 0.20000000 2.1650635e-2
v -5.0306981e-17 5.0000000e-2 0.0000000e+0
vt 2.0331518e-2 0.10823994
vt 2.0331518e-2 0.12817214
vt 2.6052308e-2 0.10823994
vt 2.6052308e-2 0.12817214
vt 3.1773098e-2 0.10823994
vt 3.1773098e-2 0.12817214
vt 3.5740106e-2 7.9688296e-2
vt 3.7493889e-2 0.10823994
vt 3.7493889e-2 0.12817214
vt 3.7929358e-2 7.4402975e-2
vt 3.7929358e-2 8.4973617e-2
vt 4.3214679e-2 7.2213723e-2
vt 4.3214679e-2 8.7162869e-2
vt 4.3214679e-2 0.10823994
vt 4.3214679e-2 0.12817214
vt 4.8500000e-2 7.4402975e-2
vt 4.8500000e-2 8.4973617e-2
vt 4.8935469e-2 0.10823994
vt 4.8935469e-2 0.12817214
vt 5.0689252e-2 7.9688296e-2
vt 5.4656260e-2 0.10823994
vt 5.4656260e-2 0.12817214
vt 6.0377050e-2 0.10823994
vt 6.0377050e-2 0.12817214
vt 6.6097841e-2 0.10823994
vt 6.6097841e-2 0.12817214
vt 0.25059605 0.58218133
vt 0.25059605 0.61098080
vt 0.25059605 0.63977074
vt 0.25059605 0.66857012
vt 0.25635124 0.58218133
vt 0.25635124 0.61098080
vt 0.25635124 0.63977074
vt 0.25635124 0.66857012
vt 0.26233413 0.58218133
vt 0.26233413 0.61098080
vt 0.26233413 0.63977074
vt 0.26233413 0.66857012
vt 0.26771196 0.54223120
vt 0.26849667 0.58218133
vt 0.26849667 0.61098080
vt 0.26849667 0.63977074
vt 0.26849667 0.66857012
vt 0.27038237 0.55219730
vt 0.27038237 0.53226511
vt 0.27479778 0.58218133
vt 0.27479778 0.61098080
vt 0.27479778 0.63977074
vt 0.27479778 0.66857012
vt 0.27767806 0.55949299
vt 0.27767806 0.52496942
vt 0.28119730 0.58218133
vt 0.28119730 0.61098080
vt 0.28119730 0.63977074
vt 0.28119730 0.66857012
vt 0.28266111 0.69438298
vt 0.28332871 0.69189146
vt 0.28332871 0.69687451
vt 0.28515263 0.69006754
vt 0.28515263 0.69869843
vt 0.28764415 0.63977074
vt 0.28764415 0.52229901
vt 0.28764415 0.54223120
vt 0.28764415 0.56216340
vt 0.28764415 0.68939993
vt 0.28764415 0.69438298
vt 0.28764415 0.69936603
vt 0.28764415 0.58218133
vt 0.28764415 0.61098080
vt 0.28764415 0.66857012
vt 0.29013568 0.69006754
vt 0.29013568 0.69869843
vt 0.29195960 0.69189146
vt 0.29195960 0.69687451
vt 0.29262720 0.69438298
vt 0.29409101 0.58218133
vt 0.29409101 0.61098080
vt 0.29409101 0.63977074
vt 0.29409101 0.66857012
vt 0.29761025 0.52496942
vt 0.29761025 0.55949299
vt 0.30049053 0.58218133
vt 0.30049053 0.61098080
vt 0.30049053 0.63977074
vt 0.30049053 0.66857012
vt 0.30490594 0.53226511
vt 0.30490594 0.55219730
vt 0.30679163 0.58218133
vt 0.30679163 0.61098080
vt 0.30679163 0.63977074
vt 0.30679163 0.66857012
vt 0.30757635 0.54223120
vt 0.31295418 0.58218133
vt 0.31295418 0.61098080
vt 0.31295418 0.63977074
vt 0.31295418 0.66857012
vt 0.31893707 0.58218133
vt 0.31893707 0.61098080
vt 0.31893707 0.63977074
vt 0.31893707 0.66857012
vt 0.32469226 0.58218133
vt 0.32469226 0.61098080
vt 0.32469226 0.63977074
vt 0.32469226 0.66857012
vt 0.33043341 0.97912308
vt 0.33739069 0.97912308
vt 0.33746404 0.96994843
vt 0.34342743 0.96994843
vt 0.34501401 0.97912308
vt 0.34996170 0.96994843
vt 0.35318323 0.97912308
vt 0.35696389 0.96994843
vt 0.36176957 0.97912308
vt 0.36432361 0.96994843
vt 0.36469871 0.93474893
vt 0.36670152 0.92727436
vt 0.36670152 0.94222350
vt 0.37063770 0.97912308
vt 0.37192487 0.96994843
vt 0.37217328 0.92180259
vt 0.37217328 0.94769527
vt 0.37964786 0.91979979
vt 0.37964786 0.93474893
vt 0.37964786 0.94969808
vt 0.37964786 0.96994843
vt 0.37964786 0.97912308
vt 0.38712243 0.92180259
vt 0.38712243 0.94769527
vt 0.38737084 0.96994843
vt 0.38865801 0.97912308
vt 0.39259420 0.92727436
vt 0.39259420 0.94222350
vt 0.39459700 0.93474893
vt 0.39497210 0.96994843
vt 0.39752614 0.97912308
vt 0.40233182 0.96994843
vt 0.40611248 0.97912308
vt 0.40933401 0.96994843
vt 0.41428170 0.97912308
vt 0.41586829 0.96994843
vt 0.42183167 0.96994843
vt 0.42190502 0.97912308
vt 0.42886230 0.97912308
vn -5.4439620e-32 -1.00000000 -1.0279843e-16
vn 6.8367945e-30 1.00000000 -1.1564823e-16
vn 0.49319696 0.16439899 0.85424220
vn -5.7417326e-17 0.16439899 0.98639392
vn -0.49319696 0.16439899 0.85424220
vn -0.85424220 0.16439899 0.49319696
vn -0.98639392 0.16439899 2.4402363e-16
vn -0.85424220 0.16439899 -0.49319696
vn -0.49319696 0.16439899 -0.85424220
vn -1.1770552e-15 0.16439899 -0.98639392
vn 0.49319696 0.16439899 -0.85424220
vn 0.85424220 0.16439899 -0.49319696
vn 0.98639392 0.16439899 7.1771657e-17
vn 0.85424220 0.16439899 0.49319696
vn 0.85424220 0.16439899 0.49319696
vn 0.98639392 0.16439899 6.0288192e-16
vn 0.85424220 0.16439899 -0.49319696
vn 0.49319696 0.16439899 -0.85424220
vn -1.9665434e-15 0.16439899 -0.98639392
vn -0.49319696 0.16439899 -0.85424220
vn -0.85424220 0.16439899 -0.49319696
vn -0.98639392 0.16439899 3.0144096e-16
vn -0.85424220 0.16439899 0.49319696
vn -0.49319696 0.16439899 0.85424220
vn -5.7417326e-17 0.16439899 0.98639392
vn 0.49319696 0.16439899 0.85424220
vn 0.0000000e+0 -1.00000000 -1.4456029e-17
vn 1.00000000 0.0000000e+0 6.0084837e-16
vn 1.00000000 0.0000000e+0 6.0084837e-16
vn 0.70710678 0.0000000e+0 0.70710678
vn 0.70710678 0.0000000e+0 0.70710678
vn -3.0042419e-17 0.0000000e+0 1.00000000
vn -3.0042419e-17 0.0000000e+0 1.00000000
vn -0.70710678 0.0000000e+0 0.70710678
vn -0.70710678 0.0000000e+0 0.70710678
vn -1.00000000 0.0000000e+0 1.8025451e-16
vn -1.00000000 0.0000000e+0 1.8025451e-16
vn -0.70710678 0.0000000e+0 -0.70710678
vn -0.70710678 0.0000000e+0 -0.70710678
vn -1.7725027e-15 0.0000000e+0 -1.00000000
vn -1.7725027e-15 0.0000000e+0 -1.00000000
vn 0.70710678 0.0000000e+0 -0.70710678
vn 0.70710678 0.0000000e+0 -0.70710678
vn 0.0000000e+0 -1.00000000 0.0000000e+0
vn 1.00000000 0.0000000e+0 6.0084837e-16
vn 1.00000000 0.0000000e+0 6.0084837e-16
vn 0.0000000e+0 -1.00000000 0.0000000e+0
vn 0.70710678 0.0000000e+0 0.70710678
vn 0.70710678 0.0000000e+0 0.70710678
vn 0.0000000e+0 -1.00000000 0.0000000e+0
vn -3.0042419e-17 0.0000000e+0 1.00000000
vn -3.0042419e-17 0.0000000e+0 1.00000000
vn 0.0000000e+0 -1.00000000 0.0000000e+0
vn -0.70710678 0.0000000e+0 0.70710678
vn -0.70710678 0.0000000e+0 0.70710678
vn 0.0000000e+0 -1.00000000 0.0000000e+0
vn -1.00000000 0.0000000e+0 1.8025451e-16
vn -1.00000000 0.0000000e+0 1.8025451e-16
vn 0.0000000e+0 -1.00000000 0.0000000e+0
vn -0.70710678 0.0000000e+0 -0.70710678
vn -0.70710678 0.0000000e+0 -0.70710678
vn 0.0000000e+0 -1.00000000 0.0000000e+0
vn -1.7725027e-15 0.0000000e+0 -1.00000000
vn -1.7725027e-15 0.0000000e+0 -1.00000000
vn 0.0000000e+0 -1.00000000 0.0000000e+0
vn 0.70710678 0.0000000e+0 -0.70710678
vn 0.70710678 0.0000000e+0 -0.70710678
vn 0.97014250 -0.24253563 -8.6034051e-17
vn 0.97014250 -0.24253563 -8.6034051e-17
vn 0.84016805 -0.24253563 0.48507125
vn 0.84016805 -0.24253563 0.48507125
vn 0.48507125 -0.24253563 0.84016805
vn 0.48507125 -0.24253563 0.84016805
vn 0.0000000e+0 -0.24253563 0.97014250
vn 0.0000000e+0 -0.24253563 0.97014250
vn -0.48507125 -0.24253563 0.84016805
vn -0.48507125 -0.24253563 0.84016805
vn -0.84016805 -0.24253563 0.48507125
vn -0.84016805 -0.24253563 0.48507125
vn -0.97014250 -0.24253563 3.7281422e-16
vn -0.97014250 -0.24253563 3.7281422e-16
vn -0.84016805 -0.24253563 -0.48507125
vn -0.84016805 -0.24253563 -0.48507125
vn -0.48507125 -0.24253563 -0.84016805
vn -0.48507125 -0.24253563 -0.84016805
vn -1.0324086e-15 -0.24253563 -0.97014250
vn -1.0324086e-15 -0.24253563 -0.97014250
vn 0.48507125 -0.24253563 -0.84016805
vn 0.48507125 -0.24253563 -0.84016805
vn 0.84016805 -0.24253563 -0.48507125
vn 0.84016805 -0.24253563 -0.48507125
vn 0.97014250 -0.24253563 -8.6034051e-17
vn 0.97014250 -0.24253563 -8.6034051e-17
vn 9.2518585e-17 -1.00000000 -2.3129646e-16
vn 9.2518585e-17 -1.00000000 -2.3129646e-16
vn 0.84016805 -0.24253563 0.48507125
vn 0.84016805 -0.24253563 0.48507125
vn 4.6259293e-17 -1.00000000 0.0000000e+0
vn 4.6259293e-17 -1.00000000 0.0000000e+0
vn 0.48507125 -0.24253563 0.84016805
vn 0.48507125 -0.24253563 0.84016805
vn 0.0000000e+0 -1.00000000 7.7098821e-17
vn 0.0000000e+0 -1.00000000 7.7098821e-17
vn 0.0000000e+0 -0.24253563 0.97014250
vn 0.0000000e+0 -0.24253563 0.97014250
vn 0.0000000e+0 -1.00000000 7.7098821e-17
vn 0.0000000e+0 -1.00000000 7.7098821e-17
vn -0.48507125 -0.24253563 0.84016805
vn -0.48507125 -0.24253563 0.84016805
vn 0.0000000e+0 -1.00000000 0.0000000e+0
vn 0.0000000e+0 -1.00000000 0.0000000e+0
vn -0.84016805 -0.24253563 0.48507125
vn -0.84016805 -0.24253563 0.48507125
vn -4.6259293e-17 -1.00000000 3.8549411e-17
vn -4.6259293e-17 -1.00000000 3.8549411e-17
vn -0.97014250 -0.24253563 3.7281422e-16
vn -0.97014250 -0.24253563 3.7281422e-16
vn -9.2518585e-17 -1.00000000 -1.5419764e-16
vn -9.2518585e-17 -1.00000000 -1.5419764e-16
vn -0.84016805 -0.24253563 -0.48507125
vn -0.84016805 -0.24253563 -0.48507125
vn -1.1398760e-16 -1.00000000 -2.6984587e-16
vn -1.1398760e-16 -1.00000000 -2.6984587e-16
vn -0.48507125 -0.24253563 -0.84016805
vn -0.48507125 -0.24253563 -0.84016805
vn -9.2518585e-17 -1.00000000 -1.5419764e-16
vn -9.2518585e-17 -1.00000000 -1.5419764e-16
vn -1.0324086e-15 -0.24253563 -0.97014250
vn -1.0324086e-15 -0.24253563 -0.97014250
vn -2.2186713e-31 -1.00000000 -1.5419764e-16
vn -2.2186713e-31 -1.00000000 -1.5419764e-16
vn 0.48507125 -0.24253563 -0.84016805
vn 0.48507125 -0.24253563 -0.84016805
vn 9.2518585e-17 -1.00000000 -1.5419764e-16
vn 9.2518585e-17 -1.00000000 -1.5419764e-16
vn 0.84016805 -0.24253563 -0.48507125
vn 0.84016805 -0.24253563 -0.48507125
vn 1.1398760e-16 -1.00000000 -3.0839528e-16
vn 1.1398760e-16 -1.00000000 -3.0839528e-16
vn 0.98639392 0.16439899 -2.5837797e-16
vn 0.98639392 0.16439899 -2.5837797e-16
vn 0.0000000e+0 -1.00000000 -1.3010426e-16
vn 0.0000000e+0 -1.00000000 -1.3010426e-16
vn 0.85424220 0.16439899 0.49319696
vn 0.85424220 0.16439899 0.49319696
vn 0.0000000e+0 -1.00000000 4.3368087e-17
vn 0.0000000e+0 -1.00000000 4.3368087e-17
vn 0.49319696 0.16439899 0.85424220
vn 0.49319696 0.16439899 0.85424220
vn 0.0000000e+0 -1.00000000 2.6020852e-16
vn 0.0000000e+0 -1.00000000 2.6020852e-16
vn -5.7417326e-17 0.16439899 0.98639392
vn -5.7417326e-17 0.16439899 0.98639392
vn 0.0000000e+0 -1.00000000 -1.7347235e-16
vn 0.0000000e+0 -1.00000000 -1.7347235e-16
vn -0.49319696 0.16439899 0.85424220
vn -0.49319696 0.16439899 0.85424220
vn 0.0000000e+0 -1.00000000 -1.7347235e-16
vn 0.0000000e+0 -1.00000000 -1.7347235e-16
vn -0.85424220 0.16439899 0.49319696
vn -0.85424220 0.16439899 0.49319696
vn 0.0000000e+0 -1.00000000 -4.3368087e-17
vn 0.0000000e+0 -1.00000000 -4.3368087e-17
vn -0.98639392 0.16439899 2.0096064e-16
vn -0.98639392 0.16439899 2.0096064e-16
vn 0.0000000e+0 -1.00000000 1.3010426e-16
vn 0.0000000e+0 -1.00000000 1.3010426e-16
vn -0.85424220 0.16439899 -0.49319696
vn -0.85424220 0.16439899 -0.49319696
vn 0.0000000e+0 -1.00000000 1.7347235e-16
vn 0.0000000e+0 -1.00000000 1.7347235e-16
vn -0.49319696 0.16439899 -0.85424220
vn -0.49319696 0.16439899 -0.85424220
vn 0.0000000e+0 -1.00000000 0.0000000e+0
vn 0.0000000e+0 -1.00000000 0.0000000e+0
vn -9.4738588e-16 0.16439899 -0.98639392
vn -9.4738588e-16 0.16439899 -0.98639392
vn 0.0000000e+0 -1.00000000 -1.7347235e-16
vn 0.0000000e+0 -1.00000000 -1.7347235e-16
vn 0.49319696 0.16439899 -0.85424220
vn 0.49319696 0.16439899 -0.85424220
vn 0.0000000e+0 -1.00000000 -1.7347235e-16
vn 0.0000000e+0 -1.00000000 -1.7347235e-16
vn 0.85424220 0.16439899 -0.49319696
vn 0.85424220 0.16439899 -0.49319696
vn 0.0000000e+0 -1.00000000 8.6736174e-17
vn 0.0000000e+0 -1.00000000 8.6736174e-17
vn -7.6918507e-15 1.00000000 -7.6327833e-15
vn -7.6918507e-15 1.00000000 -7.6327833e-15
vn 0.85424220 0.16439899 0.49319696
vn 0.85424220 0.16439899 0.49319696
vn -8.8817842e-15 1.00000000 1.3877788e-15
vn -8.8817842e-15 1.00000000 1.3877788e-15
vn 0.98639392 0.16439899 8.0384256e-16
vn 0.98639392 0.16439899 8.0384256e-16
vn -7.6918507e-15 1.00000000 9.0205621e-15
vn -7.6918507e-15 1.00000000 9.0205621e-15
vn 0.85424220 0.16439899 -0.49319696
vn 0.85424220 0.16439899 -0.49319696
vn -4.4408921e-15 1.00000000 8.3266727e-15
vn -4.4408921e-15 1.00000000 8.3266727e-15
vn 0.49319696 0.16439899 -0.85424220
vn 0.49319696 0.16439899 -0.85424220
vn 3.6682032e-29 1.00000000 5.5511151e-15
vn 3.6682032e-29 1.00000000 5.5511151e-15
vn -2.5263623e-15 0.16439899 -0.98639392
vn -2.5263623e-15 0.16439899 -0.98639392
vn 4.4408921e-15 1.00000000 2.7755576e-15
vn 4.4408921e-15 1.00000000 2.7755576e-15
vn -0.49319696 0.16439899 -0.85424220
vn -0.49319696 0.16439899 -0.85424220
vn 7.6918507e-15 1.00000000 1.3877788e-15
vn 7.6918507e-15 1.00000000 1.3877788e-15
vn -0.85424220 0.16439899 -0.49319696
vn -0.85424220 0.16439899 -0.49319696
vn 8.8817842e-15 1.00000000 3.4694470e-15
vn 8.8817842e-15 1.00000000 3.4694470e-15
vn -0.98639392 0.16439899 3.1579529e-16
vn -0.98639392 0.16439899 3.1579529e-16
vn 7.6918507e-15 1.00000000 2.0816682e-15
vn 7.6918507e-15 1.00000000 2.0816682e-15
vn -0.85424220 0.16439899 0.49319696
vn -0.85424220 0.16439899 0.49319696
vn 4.4408921e-15 1.00000000 -8.3266727e-15
vn 4.4408921e-15 1.00000000 -8.3266727e-15
vn -0.49319696 0.16439899 0.85424220
vn -0.49319696 0.16439899 0.85424220
vn 3.9443045e-31 1.00000000 -1.1102230e-14
vn 3.9443045e-31 1.00000000 -1.1102230e-14
vn -5.7417326e-17 0.16439899 0.98639392
vn -5.7417326e-17 0.16439899 0.98639392
vn -4.4408921e-15 1.00000000 -8.3266727e-15
vn -4.4408921e-15 1.00000000 -8.3266727e-15
vn 0.49319696 0.16439899 0.85424220
vn 0.49319696 0.16439899 0.85424220
g 1_1_auv
usemtl 1_auv
s 1
f 10/10/47 11/12/50 12/16/53 13/20/56 14/17/59 15/13/62 16/11/65 9/7/44
f 29/115/95 41/123/1 40/117/139
f 30/116/98 41/123/1 29/115/94
f 31/120/102 41/123/1 30/116/99
f 32/122/106 41/123/1 31/120/103
f 33/127/110 41/123/1 32/122/107
f 34/131/114 41/123/1 33/127/111
f 35/133/118 41/123/1 34/131/115
f 36/132/122 41/123/1 35/133/119
f 37/128/126 41/123/1 36/132/123
f 38/124/130 41/123/1 37/128/127
f 39/121/134 41/123/1 38/124/131
f 40/117/138 41/123/1 39/121/135
f 42/39/142 91/63/27 53/44/186
f 43/45/146 91/63/27 42/39/143
f 44/51/150 91/63/27 43/45/147
f 45/62/154 91/63/27 44/51/151
f 46/80/158 91/63/27 45/62/155
f 47/86/162 91/63/27 46/80/159
f 48/92/166 91/63/27 47/86/163
f 49/87/170 91/63/27 48/92/167
f 50/81/174 91/63/27 49/87/171
f 51/64/178 91/63/27 50/81/175
f 52/50/182 91/63/27 51/64/179
f 53/44/187 91/63/27 52/50/183
f 54/73/189 66/66/2 65/71/233
f 55/75/192 66/66/2 54/73/188
f 56/74/196 66/66/2 55/75/193
f 57/72/200 66/66/2 56/74/197
f 58/67/204 66/66/2 57/72/201
f 59/60/208 66/66/2 58/67/205
f 60/58/212 66/66/2 59/60/209
f 61/56/216 66/66/2 60/58/213
f 62/57/220 66/66/2 61/56/217
f 63/59/224 66/66/2 62/57/221
f 64/65/228 66/66/2 63/59/225
f 65/71/232 66/66/2 64/65/229
s 2
f 1/6/28 9/5/45 16/8/66 8/9/42
f 2/4/31 10/3/49 9/5/46 1/6/29
f 3/2/33 11/1/52 10/3/48 2/4/30
f 4/24/35 12/23/55 11/25/51 3/26/32
f 5/22/37 13/21/58 12/23/54 4/24/34
f 6/19/39 14/18/61 13/21/57 5/22/36
f 7/15/41 15/14/64 14/18/60 6/19/38
f 8/9/43 16/8/67 15/14/63 7/15/40
f 17/111/68 29/112/92 40/114/136 28/113/90
f 18/109/71 30/110/97 29/112/93 17/111/69
f 19/106/73 31/108/101 30/110/96 18/109/70
f 20/105/75 32/107/105 31/108/100 19/106/72
f 21/142/77 33/140/109 32/141/104 20/143/74
f 22/139/79 34/138/113 33/140/108 21/142/76
f 23/137/81 35/136/117 34/138/112 22/139/78
f 24/135/83 36/134/121 35/136/116 23/137/80
f 25/130/85 37/129/125 36/134/120 24/135/82
f 26/126/87 38/125/129 37/129/124 25/130/84
f 27/118/89 39/119/133 38/125/128 26/126/86
f 28/113/91 40/114/137 39/119/132 27/118/88
f 42/40/140 77/41/13 78/36/14 43/35/144
f 43/35/145 78/36/14 67/32/3 44/31/149
f 44/31/148 67/32/3 68/28/4 45/27/153
f 45/101/152 68/102/4 69/98/5 46/97/157
f 46/97/156 69/98/5 70/94/6 47/93/161
f 47/93/160 70/94/6 71/89/7 48/88/165
f 48/88/164 71/89/7 72/83/8 49/82/169
f 49/82/168 72/83/8 73/77/9 50/76/173
f 50/76/172 73/77/9 74/69/10 51/68/177
f 51/68/176 74/69/10 75/53/11 52/52/181
f 52/52/180 75/53/11 76/47/12 53/46/185
f 53/46/184 76/47/12 77/41/13 42/40/141
f 54/38/190 79/37/15 80/42/16 55/43/194
f 55/43/195 80/42/16 81/48/17 56/49/198
f 56/49/199 81/48/17 82/54/18 57/55/202
f 57/55/203 82/54/18 83/61/19 58/70/206
f 58/70/207 83/61/19 84/78/20 59/79/210
f 59/79/211 84/78/20 85/84/21 60/85/214
f 60/85/215 85/84/21 86/90/22 61/91/218
f 61/91/219 86/90/22 87/95/23 62/96/222
f 62/96/223 87/95/23 88/99/24 63/100/226
f 63/100/227 88/99/24 89/103/25 64/104/230
f 64/30/231 89/29/25 90/33/26 65/34/234
f 65/34/235 90/33/26 79/37/15 54/38/191
f 67/32/3 78/36/14 79/37/15 90/33/26
f 80/42/16 79/37/15 78/36/14 77/41/13
f 81/48/17 80/42/16 77/41/13 76/47/12
f 82/54/18 81/48/17 76/47/12 75/53/11
f 83/61/19 82/54/18 75/53/11 74/69/10
f 84/78/20 83/61/19 74/69/10 73/77/9
f 85/84/21 84/78/20 73/77/9 72/83/8
f 86/90/22 85/84/21 72/83/8 71/89/7
f 87/95/23 86/90/22 71/89/7 70/94/6
f 88/99/24 87/95/23 70/94/6 69/98/5
f 89/103/25 88/99/24 69/98/5 68/102/4
f 90/33/26 89/29/25 68/28/4 67/32/3
