# Exported from Wings 3D 1.5.4
mtllib ./tape_drum.mtl
o drum
#26 vertices, 36 faces
v 1.2500000e-2 -5.0000000e-2 -2.7755576e-17
v 1.2500000e-2 -4.3301270e-2 2.5000000e-2
v 1.2500000e-2 -2.5000000e-2 4.3301270e-2
v 1.2500000e-2 1.0324666e-17 5.0000000e-2
v 1.2500000e-2 2.5000000e-2 4.3301270e-2
v 1.2500000e-2 4.3301270e-2 2.5000000e-2
v 1.2500000e-2 5.0000000e-2 2.7755576e-17
v 1.2500000e-2 4.3301270e-2 -2.5000000e-2
v 1.2500000e-2 2.5000000e-2 -4.3301270e-2
v 1.2500000e-2 6.3279311e-17 -5.0000000e-2
v 1.2500000e-2 -2.5000000e-2 -4.3301270e-2
v 1.2500000e-2 -4.3301270e-2 -2.5000000e-2
v -1.2500000e-2 -5.0000000e-2 -2.7755576e-17
v -1.2500000e-2 -4.3301270e-2 2.5000000e-2
v -1.2500000e-2 -2.5000000e-2 4.3301270e-2
v -1.2500000e-2 2.1889489e-17 5.0000000e-2
v -1.2500000e-2 2.5000000e-2 4.3301270e-2
v -1.2500000e-2 4.3301270e-2 2.5000000e-2
v -1.2500000e-2 5.0000000e-2 1.3877788e-17
v -1.2500000e-2 4.3301270e-2 -2.5000000e-2
v -1.2500000e-2 2.5000000e-2 -4.3301270e-2
v -1.2500000e-2 7.4844135e-17 -5.0000000e-2
v -1.2500000e-2 -2.5000000e-2 -4.3301270e-2
v -1.2500000e-2 -4.3301270e-2 -2.5000000e-2
v 1.2500000e-2 3.1803264e-17 0.0000000e+0
v -1.2500000e-2 4.5681052e-17 0.0000000e+0
vt 0.17705158 0.20690365
vt 0.17705158 0.38713803
vt 0.17705158 0.18687761
vt 0.17705158 0.22692969
vt 0.17705158 0.16685157
vt 0.17705158 0.26698178
vt 0.17705158 0.24695574
vt 0.17705158 0.32705990
vt 0.17705158 0.28700782
vt 0.17705158 0.30703386
vt 0.17705158 0.36711199
vt 0.17705158 0.14682553
vt 0.17705158 0.34708594
vt 0.17802972 4.0000000e-2
vt 0.17802972 4.0000000e-2
vt 0.17802972 4.0000000e-2
vt 0.17802972 4.0000000e-2
vt 0.17802972 4.0000000e-2
vt 0.17802972 4.0000000e-2
vt 0.17802972 4.0000000e-2
vt 0.17802972 4.0000000e-2
vt 0.18804274 7.7369102e-2
vt 0.18804274 7.7369102e-2
vt 0.18804274 7.7369102e-2
vt 0.18804274 7.7369102e-2
vt 0.18804274 7.7369102e-2
vt 0.18804274 7.7369102e-2
vt 0.18804274 7.7369102e-2
vt 0.18804274 7.7369102e-2
vt 0.18804274 7.7369102e-2
vt 0.18804274 7.7369102e-2
vt 0.18804274 7.7369102e-2
vt 0.18804274 7.7369102e-2
vt 0.18804274 7.7369102e-2
vt 0.18804274 7.7369102e-2
vt 0.18804274 7.7369102e-2
vt 0.19798932 0.16685157
vt 0.19798932 0.28700782
vt 0.19798932 0.30703386
vt 0.19798932 0.14682553
vt 0.19798932 0.18687761
vt 0.19798932 0.38713803
vt 0.19798932 0.20690365
vt 0.19798932 0.26698178
vt 0.19798932 0.24695574
vt 0.19798932 0.32705990
vt 0.19798932 0.36711199
vt 0.19798932 0.22692969
vt 0.19798932 0.34708594
vt 0.19805577 4.0000000e-2
vt 0.19805577 4.0000000e-2
vt 0.19805577 4.0000000e-2
vt 0.19805577 4.0000000e-2
vt 0.19805577 4.0000000e-2
vt 0.19805577 4.0000000e-2
vt 0.19805577 4.0000000e-2
vt 0.19805577 4.0000000e-2
vt 0.19805577 4.0000000e-2
vn 1.00000000 -1.8070036e-18 0.0000000e+0
vn -1.00000000 -7.2280145e-18 0.0000000e+0
vn -5.6378513e-16 -1.00000000 -6.3216310e-16
vn -5.6378513e-16 -1.00000000 -6.3216310e-16
vn 1.00000000 0.0000000e+0 0.0000000e+0
vn 1.00000000 0.0000000e+0 0.0000000e+0
vn -4.9873300e-16 -0.86602540 0.50000000
vn -4.9873300e-16 -0.86602540 0.50000000
vn 1.00000000 0.0000000e+0 0.0000000e+0
vn 1.00000000 0.0000000e+0 0.0000000e+0
vn -3.3610267e-16 -0.50000000 0.86602540
vn -3.3610267e-16 -0.50000000 0.86602540
vn 1.00000000 1.0842022e-17 0.0000000e+0
vn 1.00000000 1.0842022e-17 0.0000000e+0
vn -1.4094628e-16 -5.4595904e-16 1.00000000
vn -1.4094628e-16 -5.4595904e-16 1.00000000
vn 1.00000000 2.1684043e-17 0.0000000e+0
vn 1.00000000 2.1684043e-17 0.0000000e+0
vn 4.3368087e-17 0.50000000 0.86602540
vn 4.3368087e-17 0.50000000 0.86602540
vn 1.00000000 1.0842022e-17 0.0000000e+0
vn 1.00000000 1.0842022e-17 0.0000000e+0
vn 2.9273459e-16 0.86602540 0.50000000
vn 2.9273459e-16 0.86602540 0.50000000
vn 1.00000000 0.0000000e+0 0.0000000e+0
vn 1.00000000 0.0000000e+0 0.0000000e+0
vn 5.4210109e-16 1.00000000 8.6204059e-16
vn 5.4210109e-16 1.00000000 8.6204059e-16
vn 1.00000000 -4.3368087e-17 0.0000000e+0
vn 1.00000000 -4.3368087e-17 0.0000000e+0
vn 5.0957502e-16 0.86602540 -0.50000000
vn 5.0957502e-16 0.86602540 -0.50000000
vn 1.00000000 -2.1684043e-17 0.0000000e+0
vn 1.00000000 -2.1684043e-17 0.0000000e+0
vn 2.6020852e-16 0.50000000 -0.86602540
vn 2.6020852e-16 0.50000000 -0.86602540
vn 1.00000000 6.5052130e-17 0.0000000e+0
vn 1.00000000 6.5052130e-17 0.0000000e+0
vn -1.0208611e-31 9.1950996e-16 -1.00000000
vn -1.0208611e-31 9.1950996e-16 -1.00000000
vn 1.00000000 -3.2526065e-17 0.0000000e+0
vn 1.00000000 -3.2526065e-17 0.0000000e+0
vn -2.6020852e-16 -0.50000000 -0.86602540
vn -2.6020852e-16 -0.50000000 -0.86602540
vn 1.00000000 -5.4210109e-17 0.0000000e+0
vn 1.00000000 -5.4210109e-17 0.0000000e+0
vn -4.7704896e-16 -0.86602540 -0.50000000
vn -4.7704896e-16 -0.86602540 -0.50000000
vn 1.00000000 2.1684043e-17 0.0000000e+0
vn 1.00000000 2.1684043e-17 0.0000000e+0
vn -5.6378513e-16 -1.00000000 -6.3216310e-16
vn -5.6378513e-16 -1.00000000 -6.3216310e-16
vn -1.00000000 0.0000000e+0 0.0000000e+0
vn -1.00000000 0.0000000e+0 0.0000000e+0
vn -4.9873300e-16 -0.86602540 0.50000000
vn -4.9873300e-16 -0.86602540 0.50000000
vn -1.00000000 2.1684043e-17 0.0000000e+0
vn -1.00000000 2.1684043e-17 0.0000000e+0
vn -3.3610267e-16 -0.50000000 0.86602540
vn -3.3610267e-16 -0.50000000 0.86602540
vn -1.00000000 1.0842022e-17 0.0000000e+0
vn -1.00000000 1.0842022e-17 0.0000000e+0
vn -1.4094628e-16 -5.4595904e-16 1.00000000
vn -1.4094628e-16 -5.4595904e-16 1.00000000
vn -1.00000000 1.0842022e-17 0.0000000e+0
vn -1.00000000 1.0842022e-17 0.0000000e+0
vn 4.3368087e-17 0.50000000 0.86602540
vn 4.3368087e-17 0.50000000 0.86602540
vn -1.00000000 -2.1684043e-17 0.0000000e+0
vn -1.00000000 -2.1684043e-17 0.0000000e+0
vn 2.9273459e-16 0.86602540 0.50000000
vn 2.9273459e-16 0.86602540 0.50000000
vn -1.00000000 -4.3368087e-17 0.0000000e+0
vn -1.00000000 -4.3368087e-17 0.0000000e+0
vn 5.4210109e-16 1.00000000 8.6204059e-16
vn 5.4210109e-16 1.00000000 8.6204059e-16
vn -1.00000000 -4.3368087e-17 0.0000000e+0
vn -1.00000000 -4.3368087e-17 0.0000000e+0
vn 5.0957502e-16 0.86602540 -0.50000000
vn 5.0957502e-16 0.86602540 -0.50000000
vn -1.00000000 -2.1684043e-17 0.0000000e+0
vn -1.00000000 -2.1684043e-17 0.0000000e+0
vn 2.6020852e-16 0.50000000 -0.86602540
vn 2.6020852e-16 0.50000000 -0.86602540
vn -1.00000000 6.5052130e-17 0.0000000e+0
vn -1.00000000 6.5052130e-17 0.0000000e+0
vn -1.0208611e-31 9.1950996e-16 -1.00000000
vn -1.0208611e-31 9.1950996e-16 -1.00000000
vn -1.00000000 -3.2526065e-17 0.0000000e+0
vn -1.00000000 -3.2526065e-17 0.0000000e+0
vn -2.6020852e-16 -0.50000000 -0.86602540
vn -2.6020852e-16 -0.50000000 -0.86602540
vn -1.00000000 -5.4210109e-17 0.0000000e+0
vn -1.00000000 -5.4210109e-17 0.0000000e+0
vn -4.7704896e-16 -0.86602540 -0.50000000
vn -4.7704896e-16 -0.86602540 -0.50000000
vn -1.00000000 2.1684043e-17 0.0000000e+0
vn -1.00000000 2.1684043e-17 0.0000000e+0
g drum_main
usemtl main
s 1
f 1/1/3 13/43/51 24/48/95 12/4/47
f 2/3/8 14/41/56 13/43/52 1/1/4
f 3/5/12 15/37/60 14/41/55 2/3/7
f 4/12/16 16/40/64 15/37/59 3/5/11
f 5/11/20 17/47/68 16/42/63 4/2/15
f 6/13/24 18/49/72 17/47/67 5/11/19
f 7/8/28 19/46/76 18/49/71 6/13/23
f 8/10/32 20/39/80 19/46/75 7/8/27
f 9/9/36 21/38/84 20/39/79 8/10/31
f 10/6/40 22/44/88 21/38/83 9/9/35
f 11/7/44 23/45/92 22/44/87 10/6/39
f 12/4/48 24/48/96 23/45/91 11/7/43
s 2
f 1/19/5 25/31/1 2/56/9
f 2/53/10 25/28/1 3/17/14
f 3/15/13 25/28/1 4/51/18
f 4/53/17 25/28/1 5/16/22
f 5/15/21 25/33/1 6/52/26
f 6/53/25 25/25/1 7/16/30
f 7/15/29 25/25/1 8/52/34
f 8/53/33 25/22/1 9/16/38
f 9/14/37 25/30/1 10/50/42
f 10/53/41 25/28/1 11/19/46
f 11/17/45 25/26/1 12/53/50
f 12/54/49 25/35/1 1/19/6
f 13/53/54 26/27/2 24/17/98
f 14/20/57 26/24/2 13/57/53
f 15/53/61 26/29/2 14/19/58
f 16/15/65 26/34/2 15/51/62
f 17/57/69 26/30/2 16/15/66
f 18/15/73 26/24/2 17/52/70
f 19/53/77 26/25/2 18/16/74
f 20/21/81 26/24/2 19/58/78
f 21/55/85 26/36/2 20/17/82
f 22/15/89 26/32/2 21/52/86
f 23/53/93 26/23/2 22/18/90
f 24/17/97 26/31/2 23/53/94
