# Exported from Wings 3D 1.5.4
mtllib ./tape_tape.mtl
o tape
#8 vertices, 6 faces
v -1.2500000e-2 -3.1250000e-3 -2.00000000
v -1.2500000e-2 -3.1250000e-3 0.0000000e+0
v -1.2500000e-2 3.1250000e-3 -2.00000000
v -1.2500000e-2 3.1250000e-3 0.0000000e+0
v 1.2500000e-2 -3.1250000e-3 -2.00000000
v 1.2500000e-2 -3.1250000e-3 0.0000000e+0
v 1.2500000e-2 3.1250000e-3 -2.00000000
v 1.2500000e-2 3.1250000e-3 0.0000000e+0
vt 0.93821997 0.0000000e+0
vt 0.93821997 1.7347235e-18
vt 0.93821997 3.1250000e-3
vt 0.93821997 6.2500000e-3
vt 0.93821997 1.00000000
vt 0.93821997 0.0000000e+0
vt 0.93821997 1.00000000
vt 0.96074497 0.0000000e+0
vt 0.96074497 1.7347235e-18
vt 0.96074497 3.1250000e-3
vt 0.96074497 6.2500000e-3
vt 0.96074497 0.0000000e+0
vt 0.96074497 1.00000000
vt 0.96074497 1.00000000
vn 0.0000000e+0 -1.00000000 0.0000000e+0
vn 0.0000000e+0 0.0000000e+0 -1.00000000
vn -1.00000000 -5.5511151e-16 -5.7245875e-17
vn 0.0000000e+0 -1.00000000 0.0000000e+0
vn 0.0000000e+0 0.0000000e+0 1.00000000
vn -1.00000000 -5.5511151e-16 -5.7245875e-17
vn 0.0000000e+0 1.00000000 0.0000000e+0
vn 0.0000000e+0 0.0000000e+0 -1.00000000
vn -1.00000000 -5.5511151e-16 -5.7245875e-17
vn 0.0000000e+0 1.00000000 0.0000000e+0
vn 0.0000000e+0 0.0000000e+0 1.00000000
vn -1.00000000 -5.5511151e-16 -5.7245875e-17
vn 0.0000000e+0 -1.00000000 0.0000000e+0
vn 0.0000000e+0 0.0000000e+0 -1.00000000
vn 1.00000000 5.5511151e-16 5.7245875e-17
vn 0.0000000e+0 -1.00000000 0.0000000e+0
vn 0.0000000e+0 0.0000000e+0 1.00000000
vn 1.00000000 5.5511151e-16 5.7245875e-17
vn 0.0000000e+0 1.00000000 0.0000000e+0
vn 0.0000000e+0 0.0000000e+0 -1.00000000
vn 1.00000000 5.5511151e-16 5.7245875e-17
vn 0.0000000e+0 1.00000000 0.0000000e+0
vn 0.0000000e+0 0.0000000e+0 1.00000000
vn 1.00000000 5.5511151e-16 5.7245875e-17
g tape_main
usemtl main
s 1
f 2/1/6 4/1/12 3/5/9 1/5/3
f 5/14/15 7/14/21 8/8/24 6/8/18
s 2
f 2/3/5 6/10/17 8/11/23 4/4/11
f 3/10/8 7/3/20 5/2/14 1/9/2
s 3
f 1/13/1 5/7/13 6/6/16 2/12/4
f 4/1/10 8/8/22 7/14/19 3/5/7
