# Exported from Wings 3D 1.5.4
mtllib ./sm_collider.mtl
o c1
#32 vertices, 18 faces
v 0.23437500 0.0000000e+0 -4.6620086e-2
v 0.23437500 0.0000000e+0 4.6620086e-2
v 0.19869353 0.0000000e+0 0.13276277
v 0.13276277 0.0000000e+0 0.19869353
v 4.6620086e-2 0.0000000e+0 0.23437500
v -4.6620086e-2 0.0000000e+0 0.23437500
v -0.13276277 0.0000000e+0 0.19869353
v -0.19869353 0.0000000e+0 0.13276277
v -0.23437500 0.0000000e+0 4.6620086e-2
v -0.23437500 0.0000000e+0 -4.6620086e-2
v -0.19869353 0.0000000e+0 -0.13276277
v -0.13276277 0.0000000e+0 -0.19869353
v -4.6620086e-2 0.0000000e+0 -0.23437500
v 4.6620086e-2 0.0000000e+0 -0.23437500
v 0.13276277 0.0000000e+0 -0.19869353
v 0.19869353 0.0000000e+0 -0.13276277
v 0.31250000 0.28750000 6.2160115e-2
v 0.31250000 0.28750000 -6.2160115e-2
v 0.26492471 0.28750000 -0.17701703
v 0.17701703 0.28750000 -0.26492471
v 6.2160115e-2 0.28750000 -0.31250000
v -6.2160115e-2 0.28750000 -0.31250000
v -0.17701703 0.28750000 -0.26492471
v -0.26492471 0.28750000 -0.17701703
v -0.31250000 0.28750000 -6.2160115e-2
v -0.31250000 0.28750000 6.2160115e-2
v -0.26492471 0.28750000 0.17701703
v -0.17701703 0.28750000 0.26492471
v -6.2160115e-2 0.28750000 0.31250000
v 6.2160115e-2 0.28750000 0.31250000
v 0.17701703 0.28750000 0.26492471
v 0.26492471 0.28750000 0.17701703
vn 0.96500547 -0.26222975 0.0000000e+0
vn 0.89154880 -0.26222975 -0.36929161
vn 0.0000000e+0 -1.00000000 0.0000000e+0
vn 0.96500547 -0.26222975 0.0000000e+0
vn 0.89154880 -0.26222975 0.36929161
vn 0.0000000e+0 -1.00000000 0.0000000e+0
vn 0.68236191 -0.26222975 0.68236191
vn 0.89154880 -0.26222975 0.36929161
vn 0.0000000e+0 -1.00000000 0.0000000e+0
vn 0.36929161 -0.26222975 0.89154880
vn 0.68236191 -0.26222975 0.68236191
vn 0.0000000e+0 -1.00000000 0.0000000e+0
vn 0.0000000e+0 -0.26222975 0.96500547
vn 0.36929161 -0.26222975 0.89154880
vn 0.0000000e+0 -1.00000000 0.0000000e+0
vn -0.36929161 -0.26222975 0.89154880
vn 0.0000000e+0 -0.26222975 0.96500547
vn 0.0000000e+0 -1.00000000 0.0000000e+0
vn -0.68236191 -0.26222975 0.68236191
vn -0.36929161 -0.26222975 0.89154880
vn 0.0000000e+0 -1.00000000 0.0000000e+0
vn -0.89154880 -0.26222975 0.36929161
vn -0.68236191 -0.26222975 0.68236191
vn 0.0000000e+0 -1.00000000 0.0000000e+0
vn -0.96500547 -0.26222975 0.0000000e+0
vn -0.89154880 -0.26222975 0.36929161
vn 0.0000000e+0 -1.00000000 0.0000000e+0
vn -0.89154880 -0.26222975 -0.36929161
vn -0.96500547 -0.26222975 0.0000000e+0
vn 0.0000000e+0 -1.00000000 0.0000000e+0
vn -0.68236191 -0.26222975 -0.68236191
vn -0.89154880 -0.26222975 -0.36929161
vn 0.0000000e+0 -1.00000000 0.0000000e+0
vn -0.36929161 -0.26222975 -0.89154880
vn -0.68236191 -0.26222975 -0.68236191
vn 0.0000000e+0 -1.00000000 0.0000000e+0
vn 0.0000000e+0 -0.26222975 -0.96500547
vn -0.36929161 -0.26222975 -0.89154880
vn 0.0000000e+0 -1.00000000 0.0000000e+0
vn 0.36929161 -0.26222975 -0.89154880
vn 0.0000000e+0 -0.26222975 -0.96500547
vn 0.0000000e+0 -1.00000000 0.0000000e+0
vn 0.68236191 -0.26222975 -0.68236191
vn 0.36929161 -0.26222975 -0.89154880
vn 0.0000000e+0 -1.00000000 0.0000000e+0
vn 0.89154880 -0.26222975 -0.36929161
vn 0.68236191 -0.26222975 -0.68236191
vn 0.0000000e+0 -1.00000000 0.0000000e+0
vn 0.0000000e+0 1.00000000 -5.5814681e-17
vn 0.96500547 -0.26222975 0.0000000e+0
vn 0.89154880 -0.26222975 0.36929161
vn 0.0000000e+0 1.00000000 -5.5814681e-17
vn 0.96500547 -0.26222975 0.0000000e+0
vn 0.89154880 -0.26222975 -0.36929161
vn 0.0000000e+0 1.00000000 -5.5814681e-17
vn 0.89154880 -0.26222975 -0.36929161
vn 0.68236191 -0.26222975 -0.68236191
vn 0.0000000e+0 1.00000000 -5.5814681e-17
vn 0.68236191 -0.26222975 -0.68236191
vn 0.36929161 -0.26222975 -0.89154880
vn 0.0000000e+0 1.00000000 -5.5814681e-17
vn 0.36929161 -0.26222975 -0.89154880
vn 0.0000000e+0 -0.26222975 -0.96500547
vn 0.0000000e+0 1.00000000 -5.5814681e-17
vn 0.0000000e+0 -0.26222975 -0.96500547
vn -0.36929161 -0.26222975 -0.89154880
vn 0.0000000e+0 1.00000000 -5.5814681e-17
vn -0.36929161 -0.26222975 -0.89154880
vn -0.68236191 -0.26222975 -0.68236191
vn 0.0000000e+0 1.00000000 -5.5814681e-17
vn -0.68236191 -0.26222975 -0.68236191
vn -0.89154880 -0.26222975 -0.36929161
vn 0.0000000e+0 1.00000000 -5.5814681e-17
vn -0.89154880 -0.26222975 -0.36929161
vn -0.96500547 -0.26222975 0.0000000e+0
vn 0.0000000e+0 1.00000000 -5.5814681e-17
vn -0.96500547 -0.26222975 0.0000000e+0
vn -0.89154880 -0.26222975 0.36929161
vn 0.0000000e+0 1.00000000 -5.5814681e-17
vn -0.89154880 -0.26222975 0.36929161
vn -0.68236191 -0.26222975 0.68236191
vn 0.0000000e+0 1.00000000 -5.5814681e-17
vn -0.68236191 -0.26222975 0.68236191
vn -0.36929161 -0.26222975 0.89154880
vn 0.0000000e+0 1.00000000 -5.5814681e-17
vn -0.36929161 -0.26222975 0.89154880
vn 0.0000000e+0 -0.26222975 0.96500547
vn 0.0000000e+0 1.00000000 -5.5814681e-17
vn 0.0000000e+0 -0.26222975 0.96500547
vn 0.36929161 -0.26222975 0.89154880
vn 0.0000000e+0 1.00000000 -5.5814681e-17
vn 0.36929161 -0.26222975 0.89154880
vn 0.68236191 -0.26222975 0.68236191
vn 0.0000000e+0 1.00000000 -5.5814681e-17
vn 0.68236191 -0.26222975 0.68236191
vn 0.89154880 -0.26222975 0.36929161
g c1_default
usemtl default
s 1
f 2//5 17//51 32//96 3//8
f 4//10 31//92 30//90 5//14
f 6//16 29//86 28//84 7//20
f 8//22 27//80 26//78 9//26
f 11//31 24//71 23//69 12//35
f 13//37 22//65 21//63 14//41
f 16//46 19//56 18//54 1//2
s 2
f 1//1 18//53 17//50 2//4
f 3//7 32//95 31//93 4//11
f 5//13 30//89 29//87 6//17
f 7//19 28//83 27//81 8//23
f 9//25 26//77 25//75 10//29
f 12//34 23//68 22//66 13//38
f 14//40 21//62 20//60 15//44
s 3
f 2//6 3//9 4//12 5//15 6//18 7//21 8//24 9//27 10//30 11//33 12//36 13//39 14//42 15//45 16//48 1//3
f 18//52 19//55 20//58 21//61 22//64 23//67 24//70 25//73 26//76 27//79 28//82 29//85 30//88 31//91 32//94 17//49
s 4
f 10//28 25//74 24//72 11//32
f 15//43 20//59 19//57 16//47
o c2
#48 vertices, 34 faces
v 0.23437500 0.0000000e+0 -4.6620086e-2
v 0.23437500 0.0000000e+0 4.6620086e-2
v 0.19869353 0.0000000e+0 0.13276277
v 0.13276277 0.0000000e+0 0.19869353
v 4.6620086e-2 0.0000000e+0 0.23437500
v -4.6620086e-2 0.0000000e+0 0.23437500
v -0.13276277 0.0000000e+0 0.19869353
v -0.19869353 0.0000000e+0 0.13276277
v -0.23437500 0.0000000e+0 4.6620086e-2
v -0.23437500 0.0000000e+0 -4.6620086e-2
v -0.19869353 0.0000000e+0 -0.13276277
v -0.13276277 0.0000000e+0 -0.19869353
v -4.6620086e-2 0.0000000e+0 -0.23437500
v 4.6620086e-2 0.0000000e+0 -0.23437500
v 0.13276277 0.0000000e+0 -0.19869353
v 0.19869353 0.0000000e+0 -0.13276277
v 0.31250000 -0.28750000 -6.2160115e-2
v 0.31250000 -0.28750000 6.2160115e-2
v 0.26492471 -0.28750000 0.17701703
v 0.17701703 -0.28750000 0.26492471
v 6.2160115e-2 -0.28750000 0.31250000
v -6.2160115e-2 -0.28750000 0.31250000
v -0.17701703 -0.28750000 0.26492471
v -0.26492471 -0.28750000 0.17701703
v -0.31250000 -0.28750000 6.2160115e-2
v -0.31250000 -0.28750000 -6.2160115e-2
v -0.26492471 -0.28750000 -0.17701703
v -0.17701703 -0.28750000 -0.26492471
v -6.2160115e-2 -0.28750000 -0.31250000
v 6.2160115e-2 -0.28750000 -0.31250000
v 0.17701703 -0.28750000 -0.26492471
v 0.26492471 -0.28750000 -0.17701703
v 0.23967867 -0.14112770 -0.16014817
v 0.16014817 -0.14112770 -0.23967867
v 5.6236558e-2 -0.14112770 -0.28272027
v -5.6236558e-2 -0.14112770 -0.28272027
v -0.16014817 -0.14112770 -0.23967867
v -0.23967867 -0.14112770 -0.16014817
v -0.28272027 -0.14112770 -5.6236558e-2
v -0.28272027 -0.14112770 5.6236558e-2
v -0.23967867 -0.14112770 0.16014817
v -0.16014817 -0.14112770 0.23967867
v -5.6236558e-2 -0.14112770 0.28272027
v 5.6236558e-2 -0.14112770 0.28272027
v 0.16014817 -0.14112770 0.23967867
v 0.23967867 -0.14112770 0.16014817
v 0.28272027 -0.14112770 5.6236558e-2
v 0.28272027 -0.14112770 -5.6236558e-2
vn 0.87401867 0.32407617 -0.36203039
vn 0.94603099 0.32407617 0.0000000e+0
vn 0.0000000e+0 1.00000000 0.0000000e+0
vn 0.87401867 0.32407617 0.36203039
vn 0.94603099 0.32407617 0.0000000e+0
vn 0.0000000e+0 1.00000000 0.0000000e+0
vn 0.66894493 0.32407617 0.66894493
vn 0.87401867 0.32407617 0.36203039
vn 0.0000000e+0 1.00000000 0.0000000e+0
vn 0.36203039 0.32407617 0.87401867
vn 0.66894493 0.32407617 0.66894493
vn 0.0000000e+0 1.00000000 0.0000000e+0
vn 0.0000000e+0 0.32407617 0.94603099
vn 0.36203039 0.32407617 0.87401867
vn 0.0000000e+0 1.00000000 0.0000000e+0
vn -0.36203039 0.32407617 0.87401867
vn 0.0000000e+0 0.32407617 0.94603099
vn 0.0000000e+0 1.00000000 0.0000000e+0
vn -0.66894493 0.32407617 0.66894493
vn -0.36203039 0.32407617 0.87401867
vn 0.0000000e+0 1.00000000 0.0000000e+0
vn -0.87401867 0.32407617 0.36203039
vn -0.66894493 0.32407617 0.66894493
vn 0.0000000e+0 1.00000000 0.0000000e+0
vn -0.94603099 0.32407617 0.0000000e+0
vn -0.87401867 0.32407617 0.36203039
vn 0.0000000e+0 1.00000000 0.0000000e+0
vn -0.87401867 0.32407617 -0.36203039
vn -0.94603099 0.32407617 0.0000000e+0
vn 0.0000000e+0 1.00000000 0.0000000e+0
vn -0.66894493 0.32407617 -0.66894493
vn -0.87401867 0.32407617 -0.36203039
vn 0.0000000e+0 1.00000000 0.0000000e+0
vn -0.36203039 0.32407617 -0.87401867
vn -0.66894493 0.32407617 -0.66894493
vn 0.0000000e+0 1.00000000 0.0000000e+0
vn 0.0000000e+0 0.32407617 -0.94603099
vn -0.36203039 0.32407617 -0.87401867
vn 0.0000000e+0 1.00000000 0.0000000e+0
vn 0.36203039 0.32407617 -0.87401867
vn 0.0000000e+0 0.32407617 -0.94603099
vn 0.0000000e+0 1.00000000 0.0000000e+0
vn 0.66894493 0.32407617 -0.66894493
vn 0.36203039 0.32407617 -0.87401867
vn 0.0000000e+0 1.00000000 0.0000000e+0
vn 0.87401867 0.32407617 -0.36203039
vn 0.66894493 0.32407617 -0.66894493
vn 0.0000000e+0 1.00000000 0.0000000e+0
vn 0.0000000e+0 -1.00000000 -5.5814681e-18
vn 0.90533244 0.19936760 -0.37500098
vn 0.97992477 0.19936760 0.0000000e+0
vn 0.0000000e+0 -1.00000000 -5.5814681e-18
vn 0.90533244 0.19936760 0.37500098
vn 0.97992477 0.19936760 0.0000000e+0
vn 0.0000000e+0 -1.00000000 -5.5814681e-18
vn 0.69291145 0.19936760 0.69291145
vn 0.90533244 0.19936760 0.37500098
vn 0.0000000e+0 -1.00000000 -5.5814681e-18
vn 0.37500098 0.19936760 0.90533244
vn 0.69291145 0.19936760 0.69291145
vn 0.0000000e+0 -1.00000000 -5.5814681e-18
vn 0.0000000e+0 0.19936760 0.97992477
vn 0.37500098 0.19936760 0.90533244
vn 0.0000000e+0 -1.00000000 -5.5814681e-18
vn -0.37500098 0.19936760 0.90533244
vn 0.0000000e+0 0.19936760 0.97992477
vn 0.0000000e+0 -1.00000000 -5.5814681e-18
vn -0.69291145 0.19936760 0.69291145
vn -0.37500098 0.19936760 0.90533244
vn 0.0000000e+0 -1.00000000 -5.5814681e-18
vn -0.90533244 0.19936760 0.37500098
vn -0.69291145 0.19936760 0.69291145
vn 0.0000000e+0 -1.00000000 -5.5814681e-18
vn -0.97992477 0.19936760 0.0000000e+0
vn -0.90533244 0.19936760 0.37500098
vn 0.0000000e+0 -1.00000000 -5.5814681e-18
vn -0.90533244 0.19936760 -0.37500098
vn -0.97992477 0.19936760 0.0000000e+0
vn 0.0000000e+0 -1.00000000 -5.5814681e-18
vn -0.69291145 0.19936760 -0.69291145
vn -0.90533244 0.19936760 -0.37500098
vn 0.0000000e+0 -1.00000000 -5.5814681e-18
vn -0.37500098 0.19936760 -0.90533244
vn -0.69291145 0.19936760 -0.69291145
vn 0.0000000e+0 -1.00000000 -5.5814681e-18
vn 0.0000000e+0 0.19936760 -0.97992477
vn -0.37500098 0.19936760 -0.90533244
vn 0.0000000e+0 -1.00000000 -5.5814681e-18
vn 0.37500098 0.19936760 -0.90533244
vn 0.0000000e+0 0.19936760 -0.97992477
vn 0.0000000e+0 -1.00000000 -5.5814681e-18
vn 0.69291145 0.19936760 -0.69291145
vn 0.37500098 0.19936760 -0.90533244
vn 0.0000000e+0 -1.00000000 -5.5814681e-18
vn 0.90533244 0.19936760 -0.37500098
vn 0.69291145 0.19936760 -0.69291145
vn 0.87401867 0.32407617 -0.36203039
vn 0.66894493 0.32407617 -0.66894493
vn 0.90533244 0.19936760 -0.37500098
vn 0.69291145 0.19936760 -0.69291145
vn 0.66894493 0.32407617 -0.66894493
vn 0.36203039 0.32407617 -0.87401867
vn 0.69291145 0.19936760 -0.69291145
vn 0.37500098 0.19936760 -0.90533244
vn 0.36203039 0.32407617 -0.87401867
vn 0.0000000e+0 0.32407617 -0.94603099
vn 0.37500098 0.19936760 -0.90533244
vn 0.0000000e+0 0.19936760 -0.97992477
vn 0.0000000e+0 0.32407617 -0.94603099
vn -0.36203039 0.32407617 -0.87401867
vn 0.0000000e+0 0.19936760 -0.97992477
vn -0.37500098 0.19936760 -0.90533244
vn -0.36203039 0.32407617 -0.87401867
vn -0.66894493 0.32407617 -0.66894493
vn -0.37500098 0.19936760 -0.90533244
vn -0.69291145 0.19936760 -0.69291145
vn -0.66894493 0.32407617 -0.66894493
vn -0.87401867 0.32407617 -0.36203039
vn -0.69291145 0.19936760 -0.69291145
vn -0.90533244 0.19936760 -0.37500098
vn -0.87401867 0.32407617 -0.36203039
vn -0.94603099 0.32407617 0.0000000e+0
vn -0.90533244 0.19936760 -0.37500098
vn -0.97992477 0.19936760 0.0000000e+0
vn -0.94603099 0.32407617 0.0000000e+0
vn -0.87401867 0.32407617 0.36203039
vn -0.97992477 0.19936760 0.0000000e+0
vn -0.90533244 0.19936760 0.37500098
vn -0.87401867 0.32407617 0.36203039
vn -0.66894493 0.32407617 0.66894493
vn -0.90533244 0.19936760 0.37500098
vn -0.69291145 0.19936760 0.69291145
vn -0.66894493 0.32407617 0.66894493
vn -0.36203039 0.32407617 0.87401867
vn -0.69291145 0.19936760 0.69291145
vn -0.37500098 0.19936760 0.90533244
vn -0.36203039 0.32407617 0.87401867
vn 0.0000000e+0 0.32407617 0.94603099
vn -0.37500098 0.19936760 0.90533244
vn 0.0000000e+0 0.19936760 0.97992477
vn 0.0000000e+0 0.32407617 0.94603099
vn 0.36203039 0.32407617 0.87401867
vn 0.0000000e+0 0.19936760 0.97992477
vn 0.37500098 0.19936760 0.90533244
vn 0.36203039 0.32407617 0.87401867
vn 0.66894493 0.32407617 0.66894493
vn 0.37500098 0.19936760 0.90533244
vn 0.69291145 0.19936760 0.69291145
vn 0.66894493 0.32407617 0.66894493
vn 0.87401867 0.32407617 0.36203039
vn 0.69291145 0.19936760 0.69291145
vn 0.90533244 0.19936760 0.37500098
vn 0.87401867 0.32407617 0.36203039
vn 0.94603099 0.32407617 0.0000000e+0
vn 0.90533244 0.19936760 0.37500098
vn 0.97992477 0.19936760 0.0000000e+0
vn 0.87401867 0.32407617 -0.36203039
vn 0.94603099 0.32407617 0.0000000e+0
vn 0.90533244 0.19936760 -0.37500098
vn 0.97992477 0.19936760 0.0000000e+0
g c2_default
usemtl default
s 1
f 34//101 79//250 80//254 33//98
f 38//113 75//234 76//237 37//109
f 40//119 73//226 74//229 39//115
f 43//128 70//214 71//217 42//124
f 45//134 68//206 69//209 44//130
f 48//143 65//194 66//197 47//139
f 51//152 78//247 77//244 52//156
f 54//161 75//235 74//232 55//165
f 57//170 72//223 71//220 58//174
f 59//176 70//215 69//212 60//180
f 62//185 67//203 66//200 63//189
f 64//191 65//195 80//255 49//146
s 2
f 33//97 80//253 65//193 48//142
f 36//107 77//242 78//245 35//103
f 39//116 74//230 75//233 38//112
f 41//122 72//222 73//225 40//118
f 44//131 69//210 70//213 43//127
f 46//137 67//202 68//205 45//133
f 50//149 79//251 78//248 51//153
f 52//155 77//243 76//240 53//159
f 55//164 74//231 73//228 56//168
f 58//173 71//219 70//216 59//177
f 60//179 69//211 68//208 61//183
f 63//188 66//199 65//196 64//192
s 3
f 33//99 48//144 47//141 46//138 45//135 44//132 43//129 42//126 41//123 40//120 39//117 38//114 37//111 36//108 35//105 34//102
f 50//148 51//151 52//154 53//157 54//160 55//163 56//166 57//169 58//172 59//175 60//178 61//181 62//184 63//187 64//190 49//145
s 4
f 35//104 78//246 79//249 34//100
f 37//110 76//238 77//241 36//106
f 42//125 71//218 72//221 41//121
f 47//140 66//198 67//201 46//136
f 49//147 80//256 79//252 50//150
f 53//158 76//239 75//236 54//162
f 56//167 73//227 72//224 57//171
f 61//182 68//207 67//204 62//186
