# Exported from Wings 3D 1.5.4
mtllib ye85_avionics_s0_1_collider.mtl
o c
#18 vertices, 14 faces
v 0.23125000 0.0000000e+0 0.40053675
v 0.19375000 -0.12990381 0.33558484
v 0.11875000 -0.12990381 0.20568103
v 8.1250000e-2 -1.8369702e-17 0.14072913
v 0.11875000 0.12990381 0.20568103
v 0.19375000 0.12990381 0.33558484
v 2.8319957e-17 0.0000000e+0 0.46250000
v 2.3727532e-17 -0.12990381 0.38750000
v 1.4542681e-17 -0.12990381 0.23750000
v 9.9502552e-18 -1.8369702e-17 0.16250000
v 1.4542681e-17 0.12990381 0.23750000
v 2.3727532e-17 0.12990381 0.38750000
v -0.23125000 0.0000000e+0 0.40053675
v -0.19375000 -0.12990381 0.33558484
v -0.11875000 -0.12990381 0.20568103
v -8.1250000e-2 -1.8369702e-17 0.14072913
v -0.11875000 0.12990381 0.20568103
v -0.19375000 0.12990381 0.33558484
vn 0.22604462 -0.48705847 0.84361002
vn 0.22604462 0.48705847 0.84361002
vn 0.86602540 0.0000000e+0 -0.50000000
vn 0.22604462 -0.48705847 0.84361002
vn 4.9580560e-17 -1.00000000 1.8503717e-16
vn 0.86602540 0.0000000e+0 -0.50000000
vn 4.9580560e-17 -1.00000000 1.8503717e-16
vn -0.22604462 -0.48705847 -0.84361002
vn 0.86602540 0.0000000e+0 -0.50000000
vn -0.22604462 -0.48705847 -0.84361002
vn -0.22604462 0.48705847 -0.84361002
vn 0.86602540 0.0000000e+0 -0.50000000
vn -0.22604462 0.48705847 -0.84361002
vn -1.4874168e-16 1.00000000 -5.5511151e-16
vn 0.86602540 0.0000000e+0 -0.50000000
vn -1.4874168e-16 1.00000000 -5.5511151e-16
vn 0.22604462 0.48705847 0.84361002
vn 0.86602540 0.0000000e+0 -0.50000000
vn 0.22604462 -0.48705847 0.84361002
vn 0.22604462 0.48705847 0.84361002
vn -0.22604462 -0.48705847 0.84361002
vn -0.22604462 0.48705847 0.84361002
vn 0.22604462 -0.48705847 0.84361002
vn 4.9580560e-17 -1.00000000 1.8503717e-16
vn -0.22604462 -0.48705847 0.84361002
vn -4.9580560e-17 -1.00000000 1.8503717e-16
vn 4.9580560e-17 -1.00000000 1.8503717e-16
vn -0.22604462 -0.48705847 -0.84361002
vn -4.9580560e-17 -1.00000000 1.8503717e-16
vn 0.22604462 -0.48705847 -0.84361002
vn -0.22604462 -0.48705847 -0.84361002
vn -0.22604462 0.48705847 -0.84361002
vn 0.22604462 -0.48705847 -0.84361002
vn 0.22604462 0.48705847 -0.84361002
vn -0.22604462 0.48705847 -0.84361002
vn -1.4874168e-16 1.00000000 -5.5511151e-16
vn 0.22604462 0.48705847 -0.84361002
vn 1.4874168e-16 1.00000000 -5.5511151e-16
vn -1.4874168e-16 1.00000000 -5.5511151e-16
vn 0.22604462 0.48705847 0.84361002
vn 1.4874168e-16 1.00000000 -5.5511151e-16
vn -0.22604462 0.48705847 0.84361002
vn -0.22604462 -0.48705847 0.84361002
vn -0.22604462 0.48705847 0.84361002
vn -0.86602540 8.9026050e-17 -0.50000000
vn -0.22604462 -0.48705847 0.84361002
vn -4.9580560e-17 -1.00000000 1.8503717e-16
vn -0.86602540 8.9026050e-17 -0.50000000
vn -4.9580560e-17 -1.00000000 1.8503717e-16
vn 0.22604462 -0.48705847 -0.84361002
vn -0.86602540 8.9026050e-17 -0.50000000
vn 0.22604462 -0.48705847 -0.84361002
vn 0.22604462 0.48705847 -0.84361002
vn -0.86602540 8.9026050e-17 -0.50000000
vn 0.22604462 0.48705847 -0.84361002
vn 1.4874168e-16 1.00000000 -5.5511151e-16
vn -0.86602540 8.9026050e-17 -0.50000000
vn 1.4874168e-16 1.00000000 -5.5511151e-16
vn -0.22604462 0.48705847 0.84361002
vn -0.86602540 8.9026050e-17 -0.50000000
g c_default
usemtl default
s 1
f 3//8 9//28 10//31 4//10
f 6//17 12//40 7//20 1//2
f 7//21 13//43 14//46 8//25
f 10//34 16//53 17//55 11//37
s 2
f 1//1 7//19 8//23 2//4
f 5//14 11//36 12//39 6//16
f 8//26 14//47 15//49 9//29
f 12//42 18//59 13//44 7//22
s 3
f 2//5 8//24 9//27 3//7
f 4//11 10//32 11//35 5//13
f 9//30 15//50 16//52 10//33
f 11//38 17//56 18//58 12//41
s 4
f 2//6 3//9 4//12 5//15 6//18 1//3
f 13//45 18//60 17//57 16//54 15//51 14//48
