# Exported from Wings 3D 1.5.4
mtllib end_probe_s0.mtl
o mesh1
#73 vertices, 72 faces
v 0.31250000 0.0000000e+0 -2.3057366e-17
v 0.30185182 0.0000000e+0 8.0880952e-2
v 0.27063294 0.0000000e+0 0.15625000
v 0.22097087 0.0000000e+0 0.22097087
v 0.15625000 0.0000000e+0 0.27063294
v 8.0880952e-2 0.0000000e+0 0.30185182
v -7.6274685e-17 0.0000000e+0 0.31250000
v -8.0880952e-2 0.0000000e+0 0.30185182
v -0.15625000 0.0000000e+0 0.27063294
v -0.22097087 0.0000000e+0 0.22097087
v -0.27063294 0.0000000e+0 0.15625000
v -0.30185182 0.0000000e+0 8.0880952e-2
v -0.31250000 0.0000000e+0 1.5212846e-17
v -0.30185182 0.0000000e+0 -8.0880952e-2
v -0.27063294 0.0000000e+0 -0.15625000
v -0.22097087 0.0000000e+0 -0.22097087
v -0.15625000 0.0000000e+0 -0.27063294
v -8.0880952e-2 0.0000000e+0 -0.30185182
v -1.5281511e-16 0.0000000e+0 -0.31250000
v 8.0880952e-2 0.0000000e+0 -0.30185182
v 0.15625000 0.0000000e+0 -0.27063294
v 0.22097087 0.0000000e+0 -0.22097087
v 0.27063294 0.0000000e+0 -0.15625000
v 0.30185182 0.0000000e+0 -8.0880952e-2
v 0.18111109 0.0000000e+0 4.8528571e-2
v 0.18750000 0.0000000e+0 -2.2854982e-17
v 0.18111109 0.0000000e+0 -4.8528571e-2
v 0.16237976 0.0000000e+0 -9.3750000e-2
v 0.13258252 0.0000000e+0 -0.13258252
v 9.3750000e-2 0.0000000e+0 -0.16237976
v 4.8528571e-2 0.0000000e+0 -0.18111109
v -1.4812540e-16 0.0000000e+0 -0.18750000
v -4.8528571e-2 0.0000000e+0 -0.18111109
v -9.3750000e-2 0.0000000e+0 -0.16237976
v -0.13258252 0.0000000e+0 -0.13258252
v -0.16237976 0.0000000e+0 -9.3750000e-2
v -0.18111109 0.0000000e+0 -4.8528571e-2
v -0.18750000 0.0000000e+0 1.0714569e-19
v -0.18111109 0.0000000e+0 4.8528571e-2
v -0.16237976 0.0000000e+0 9.3750000e-2
v -0.13258252 0.0000000e+0 0.13258252
v -9.3750000e-2 0.0000000e+0 0.16237976
v -4.8528571e-2 0.0000000e+0 0.18111109
v -1.0220115e-16 0.0000000e+0 0.18750000
v 4.8528571e-2 0.0000000e+0 0.18111109
v 9.3750000e-2 0.0000000e+0 0.16237976
v 0.13258252 0.0000000e+0 0.13258252
v 0.16237976 0.0000000e+0 9.3750000e-2
v 0.18111109 -3.7500000e-2 4.8528571e-2
v 0.18750000 -3.7500000e-2 -2.2854982e-17
v 0.18111109 -3.7500000e-2 -4.8528571e-2
v 0.16237976 -3.7500000e-2 -9.3750000e-2
v 0.13258252 -3.7500000e-2 -0.13258252
v 9.3750000e-2 -3.7500000e-2 -0.16237976
v 4.8528571e-2 -3.7500000e-2 -0.18111109
v -1.4812540e-16 -3.7500000e-2 -0.18750000
v -4.8528571e-2 -3.7500000e-2 -0.18111109
v -9.3750000e-2 -3.7500000e-2 -0.16237976
v -0.13258252 -3.7500000e-2 -0.13258252
v -0.16237976 -3.7500000e-2 -9.3750000e-2
v -0.18111109 -3.7500000e-2 -4.8528571e-2
v -0.18750000 -3.7500000e-2 1.0714569e-19
v -0.18111109 -3.7500000e-2 4.8528571e-2
v -0.16237976 -3.7500000e-2 9.3750000e-2
v -0.13258252 -3.7500000e-2 0.13258252
v -9.3750000e-2 -3.7500000e-2 0.16237976
v -4.8528571e-2 -3.7500000e-2 0.18111109
v -1.0220115e-16 -3.7500000e-2 0.18750000
v 4.8528571e-2 -3.7500000e-2 0.18111109
v 9.3750000e-2 -3.7500000e-2 0.16237976
v 0.13258252 -3.7500000e-2 0.13258252
v 0.16237976 -3.7500000e-2 9.3750000e-2
v -1.3762140e-16 -3.7500000e-2 -8.3749426e-18
vt 4.0000000e-2 0.88690283
vt 4.2490726e-2 0.86798389
vt 4.2490726e-2 0.90582177
vt 4.9793164e-2 0.85035424
vt 4.9793164e-2 0.92345141
vt 6.1409666e-2 0.83521532
vt 6.1409666e-2 0.93859033
vt 7.4916363e-2 0.75895571
vt 7.4916363e-2 0.77357515
vt 7.4916363e-2 0.75895571
vt 7.4916363e-2 0.75895571
vt 7.4916363e-2 0.77357515
vt 7.4916363e-2 0.77357515
vt 7.4916363e-2 0.75895571
vt 7.4916363e-2 0.77357515
vt 7.6548586e-2 0.82359882
vt 7.6548586e-2 0.95020684
vt 9.3998555e-2 0.75895571
vt 9.3998555e-2 0.77357515
vt 9.3998555e-2 0.75895571
vt 9.3998555e-2 0.75895571
vt 9.3998555e-2 0.77357515
vt 9.3998555e-2 0.75895571
vt 9.3998555e-2 0.75895571
vt 9.3998555e-2 0.77357515
vt 9.3998555e-2 0.77357515
vt 9.4178232e-2 0.81629638
vt 9.4178232e-2 0.95750927
vt 0.11308075 0.75895571
vt 0.11308075 0.77357515
vt 0.11308075 0.75895571
vt 0.11308075 0.77357515
vt 0.11308075 0.75895571
vt 0.11308075 0.77357515
vt 0.11308075 0.75895571
vt 0.11308075 0.75895571
vt 0.11308075 0.77357515
vt 0.11308075 0.77357515
vt 0.11309717 0.81380565
vt 0.11309717 0.88690283
vt 0.11309717 0.96000000
vt 0.13201611 0.81629638
vt 0.13201611 0.95750927
vt 0.13216294 0.75895571
vt 0.13216294 0.77357515
vt 0.13216294 0.75895571
vt 0.13216294 0.77357515
vt 0.13216294 0.75895571
vt 0.13216294 0.75895571
vt 0.13216294 0.77357515
vt 0.13216294 0.77357515
vt 0.14964576 0.82359882
vt 0.14964576 0.95020684
vt 0.15124513 0.75895571
vt 0.15124513 0.77357515
vt 0.15124513 0.75895571
vt 0.15124513 0.75895571
vt 0.15124513 0.77357515
vt 0.15124513 0.75895571
vt 0.15124513 0.77357515
vt 0.16478468 0.83521532
vt 0.16478468 0.93859033
vt 0.17640118 0.85035424
vt 0.17640118 0.92345141
vt 0.18370362 0.86798389
vt 0.18370362 0.90582177
vt 0.18619435 0.88690283
vt 0.27579945 0.91100645
vt 0.27579945 0.91100645
vt 0.27579945 0.91100645
vt 0.27579945 0.91100645
vt 0.27579945 0.91100645
vt 0.27579945 0.91100645
vt 0.29444817 0.95991479
vt 0.29444817 0.95991479
vt 0.29444817 0.95991479
vt 0.29444817 0.95991479
vt 0.29444817 0.95991479
vt 0.29444817 0.95991479
vt 0.30651942 0.91100645
vt 0.30651942 0.91100645
vt 0.30651942 0.91100645
vt 0.30651942 0.91100645
vt 0.30651942 0.91100645
vt 0.30651942 0.91100645
vt 0.30651942 0.91100645
vt 0.31288015 0.95991479
vt 0.31288015 0.95991479
vt 0.31288015 0.95991479
vt 0.31288015 0.95991479
vt 0.31288015 0.95991479
vt 0.31288015 0.95991479
vt 0.33196234 0.95991479
vt 0.33196234 0.95991479
vt 0.33196234 0.95991479
vt 0.33196234 0.95991479
vt 0.33832307 0.91100645
vt 0.33832307 0.91100645
vt 0.33832307 0.91100645
vt 0.33832307 0.91100645
vt 0.33832307 0.91100645
vt 0.33832307 0.91100645
vt 0.35039432 0.95991479
vt 0.35039432 0.95991479
vt 0.35039432 0.95991479
vt 0.35039432 0.95991479
vt 0.36904304 0.91100645
vt 0.36904304 0.91100645
vt 0.36904304 0.91100645
vt 0.36904304 0.91100645
vn 0.0000000e+0 1.00000000 0.0000000e+0
vn 0.0000000e+0 1.00000000 0.0000000e+0
vn 0.0000000e+0 1.00000000 0.0000000e+0
vn 0.0000000e+0 1.00000000 0.0000000e+0
vn 0.0000000e+0 1.00000000 0.0000000e+0
vn 0.0000000e+0 1.00000000 0.0000000e+0
vn 0.0000000e+0 1.00000000 0.0000000e+0
vn 0.0000000e+0 1.00000000 0.0000000e+0
vn 0.0000000e+0 1.00000000 0.0000000e+0
vn 0.0000000e+0 1.00000000 0.0000000e+0
vn 0.0000000e+0 1.00000000 0.0000000e+0
vn 0.0000000e+0 1.00000000 0.0000000e+0
vn 0.0000000e+0 1.00000000 0.0000000e+0
vn 0.0000000e+0 1.00000000 0.0000000e+0
vn 0.0000000e+0 1.00000000 0.0000000e+0
vn 0.0000000e+0 1.00000000 0.0000000e+0
vn 0.0000000e+0 1.00000000 0.0000000e+0
vn 0.0000000e+0 1.00000000 0.0000000e+0
vn 0.0000000e+0 1.00000000 0.0000000e+0
vn 0.0000000e+0 1.00000000 0.0000000e+0
vn 0.0000000e+0 1.00000000 0.0000000e+0
vn 0.0000000e+0 1.00000000 0.0000000e+0
vn 0.0000000e+0 1.00000000 0.0000000e+0
vn 0.0000000e+0 1.00000000 0.0000000e+0
vn -7.7037198e-33 1.00000000 4.9647828e-19
vn 0.0000000e+0 1.00000000 0.0000000e+0
vn 0.0000000e+0 1.00000000 0.0000000e+0
vn -0.96592583 0.0000000e+0 -0.25881905
vn -0.96592583 0.0000000e+0 -0.25881905
vn 0.0000000e+0 1.00000000 0.0000000e+0
vn 0.0000000e+0 1.00000000 0.0000000e+0
vn -1.00000000 0.0000000e+0 5.5990155e-17
vn -1.00000000 0.0000000e+0 5.5990155e-17
vn 0.0000000e+0 1.00000000 0.0000000e+0
vn 0.0000000e+0 1.00000000 0.0000000e+0
vn -0.96592583 0.0000000e+0 0.25881905
vn -0.96592583 0.0000000e+0 0.25881905
vn 0.0000000e+0 1.00000000 0.0000000e+0
vn 0.0000000e+0 1.00000000 0.0000000e+0
vn -0.86602540 0.0000000e+0 0.50000000
vn -0.86602540 0.0000000e+0 0.50000000
vn 0.0000000e+0 1.00000000 0.0000000e+0
vn 0.0000000e+0 1.00000000 0.0000000e+0
vn -0.70710678 0.0000000e+0 0.70710678
vn -0.70710678 0.0000000e+0 0.70710678
vn 0.0000000e+0 1.00000000 0.0000000e+0
vn 0.0000000e+0 1.00000000 0.0000000e+0
vn -0.50000000 0.0000000e+0 0.86602540
vn -0.50000000 0.0000000e+0 0.86602540
vn 0.0000000e+0 1.00000000 0.0000000e+0
vn 0.0000000e+0 1.00000000 0.0000000e+0
vn -0.25881905 0.0000000e+0 0.96592583
vn -0.25881905 0.0000000e+0 0.96592583
vn 0.0000000e+0 1.00000000 0.0000000e+0
vn 0.0000000e+0 1.00000000 0.0000000e+0
vn 6.0189416e-16 0.0000000e+0 1.00000000
vn 6.0189416e-16 0.0000000e+0 1.00000000
vn 0.0000000e+0 1.00000000 0.0000000e+0
vn 0.0000000e+0 1.00000000 0.0000000e+0
vn 0.25881905 0.0000000e+0 0.96592583
vn 0.25881905 0.0000000e+0 0.96592583
vn 0.0000000e+0 1.00000000 0.0000000e+0
vn 0.0000000e+0 1.00000000 0.0000000e+0
vn 0.50000000 0.0000000e+0 0.86602540
vn 0.50000000 0.0000000e+0 0.86602540
vn 0.0000000e+0 1.00000000 0.0000000e+0
vn 0.0000000e+0 1.00000000 0.0000000e+0
vn 0.70710678 0.0000000e+0 0.70710678
vn 0.70710678 0.0000000e+0 0.70710678
vn 0.0000000e+0 1.00000000 0.0000000e+0
vn 0.0000000e+0 1.00000000 0.0000000e+0
vn 0.86602540 0.0000000e+0 0.50000000
vn 0.86602540 0.0000000e+0 0.50000000
vn 0.0000000e+0 1.00000000 0.0000000e+0
vn 0.0000000e+0 1.00000000 0.0000000e+0
vn 0.96592583 0.0000000e+0 0.25881905
vn 0.96592583 0.0000000e+0 0.25881905
vn 0.0000000e+0 1.00000000 0.0000000e+0
vn 0.0000000e+0 1.00000000 0.0000000e+0
vn 1.00000000 0.0000000e+0 -4.4792124e-16
vn 1.00000000 0.0000000e+0 -4.4792124e-16
vn 0.0000000e+0 1.00000000 0.0000000e+0
vn 0.0000000e+0 1.00000000 0.0000000e+0
vn 0.96592583 0.0000000e+0 -0.25881905
vn 0.96592583 0.0000000e+0 -0.25881905
vn 0.0000000e+0 1.00000000 0.0000000e+0
vn 0.0000000e+0 1.00000000 0.0000000e+0
vn 0.86602540 0.0000000e+0 -0.50000000
vn 0.86602540 0.0000000e+0 -0.50000000
vn 0.0000000e+0 1.00000000 0.0000000e+0
vn 0.0000000e+0 1.00000000 0.0000000e+0
vn 0.70710678 0.0000000e+0 -0.70710678
vn 0.70710678 0.0000000e+0 -0.70710678
vn 0.0000000e+0 1.00000000 0.0000000e+0
vn 0.0000000e+0 1.00000000 0.0000000e+0
vn 0.50000000 0.0000000e+0 -0.86602540
vn 0.50000000 0.0000000e+0 -0.86602540
vn 0.0000000e+0 1.00000000 0.0000000e+0
vn 0.0000000e+0 1.00000000 0.0000000e+0
vn 0.25881905 0.0000000e+0 -0.96592583
vn 0.25881905 0.0000000e+0 -0.96592583
vn 0.0000000e+0 1.00000000 0.0000000e+0
vn 0.0000000e+0 1.00000000 0.0000000e+0
vn -2.2396062e-16 0.0000000e+0 -1.00000000
vn -2.2396062e-16 0.0000000e+0 -1.00000000
vn 0.0000000e+0 1.00000000 0.0000000e+0
vn 0.0000000e+0 1.00000000 0.0000000e+0
vn -0.25881905 0.0000000e+0 -0.96592583
vn -0.25881905 0.0000000e+0 -0.96592583
vn 0.0000000e+0 1.00000000 0.0000000e+0
vn 0.0000000e+0 1.00000000 0.0000000e+0
vn -0.50000000 0.0000000e+0 -0.86602540
vn -0.50000000 0.0000000e+0 -0.86602540
vn 0.0000000e+0 1.00000000 0.0000000e+0
vn 0.0000000e+0 1.00000000 0.0000000e+0
vn -0.70710678 0.0000000e+0 -0.70710678
vn -0.70710678 0.0000000e+0 -0.70710678
vn 0.0000000e+0 1.00000000 0.0000000e+0
vn 0.0000000e+0 1.00000000 0.0000000e+0
vn -0.86602540 0.0000000e+0 -0.50000000
vn -0.86602540 0.0000000e+0 -0.50000000
vn -0.96592583 0.0000000e+0 -0.25881905
vn -0.96592583 0.0000000e+0 -0.25881905
vn 7.1492873e-17 1.00000000 1.4894349e-17
vn 7.1492873e-17 1.00000000 1.4894349e-17
vn -1.00000000 0.0000000e+0 5.5990155e-17
vn -1.00000000 0.0000000e+0 5.5990155e-17
vn 7.4014868e-17 1.00000000 -2.0852088e-17
vn 7.4014868e-17 1.00000000 -2.0852088e-17
vn -0.96592583 0.0000000e+0 0.25881905
vn -0.96592583 0.0000000e+0 0.25881905
vn 7.1492873e-17 1.00000000 2.3830958e-17
vn 7.1492873e-17 1.00000000 2.3830958e-17
vn -0.86602540 0.0000000e+0 0.50000000
vn -0.86602540 0.0000000e+0 0.50000000
vn 6.4098756e-17 1.00000000 -9.5323830e-17
vn 6.4098756e-17 1.00000000 -9.5323830e-17
vn -0.70710678 0.0000000e+0 0.70710678
vn -0.70710678 0.0000000e+0 0.70710678
vn 5.2336415e-17 1.00000000 -1.1915479e-16
vn 5.2336415e-17 1.00000000 -1.1915479e-16
vn -0.50000000 0.0000000e+0 0.86602540
vn -0.50000000 0.0000000e+0 0.86602540
vn 3.7007434e-17 1.00000000 0.0000000e+0
vn 3.7007434e-17 1.00000000 0.0000000e+0
vn -0.25881905 0.0000000e+0 0.96592583
vn -0.25881905 0.0000000e+0 0.96592583
vn 1.9156458e-17 1.00000000 -2.3830958e-17
vn 1.9156458e-17 1.00000000 -2.3830958e-17
vn 6.0189416e-16 0.0000000e+0 1.00000000
vn 6.0189416e-16 0.0000000e+0 1.00000000
vn -4.6992691e-32 1.00000000 -7.1492873e-17
vn -4.6992691e-32 1.00000000 -7.1492873e-17
vn 0.25881905 0.0000000e+0 0.96592583
vn 0.25881905 0.0000000e+0 0.96592583
vn -1.9156458e-17 1.00000000 -7.1492873e-17
vn -1.9156458e-17 1.00000000 -7.1492873e-17
vn 0.50000000 0.0000000e+0 0.86602540
vn 0.50000000 0.0000000e+0 0.86602540
vn -3.7007434e-17 1.00000000 -7.1492873e-17
vn -3.7007434e-17 1.00000000 -7.1492873e-17
vn 0.70710678 0.0000000e+0 0.70710678
vn 0.70710678 0.0000000e+0 0.70710678
vn -5.2336415e-17 1.00000000 -7.1492873e-17
vn -5.2336415e-17 1.00000000 -7.1492873e-17
vn 0.86602540 0.0000000e+0 0.50000000
vn 0.86602540 0.0000000e+0 0.50000000
vn -6.4098756e-17 1.00000000 -5.9577394e-17
vn -6.4098756e-17 1.00000000 -5.9577394e-17
vn 0.96592583 0.0000000e+0 0.25881905
vn 0.96592583 0.0000000e+0 0.25881905
vn -7.1492873e-17 1.00000000 2.9788697e-18
vn -7.1492873e-17 1.00000000 2.9788697e-18
vn 1.00000000 0.0000000e+0 -4.4792124e-16
vn 1.00000000 0.0000000e+0 -4.4792124e-16
vn -7.4014868e-17 1.00000000 3.8725306e-17
vn -7.4014868e-17 1.00000000 3.8725306e-17
vn 0.96592583 0.0000000e+0 -0.25881905
vn 0.96592583 0.0000000e+0 -0.25881905
vn -7.1492873e-17 1.00000000 -3.5746436e-17
vn -7.1492873e-17 1.00000000 -3.5746436e-17
vn 0.86602540 0.0000000e+0 -0.50000000
vn 0.86602540 0.0000000e+0 -0.50000000
vn -6.4098756e-17 1.00000000 -1.1915479e-17
vn -6.4098756e-17 1.00000000 -1.1915479e-17
vn 0.70710678 0.0000000e+0 -0.70710678
vn 0.70710678 0.0000000e+0 -0.70710678
vn -5.2336415e-17 1.00000000 9.5323830e-17
vn -5.2336415e-17 1.00000000 9.5323830e-17
vn 0.50000000 0.0000000e+0 -0.86602540
vn 0.50000000 0.0000000e+0 -0.86602540
vn -3.7007434e-17 1.00000000 1.1915479e-16
vn -3.7007434e-17 1.00000000 1.1915479e-16
vn 0.25881905 0.0000000e+0 -0.96592583
vn 0.25881905 0.0000000e+0 -0.96592583
vn -1.9156458e-17 1.00000000 7.1492873e-17
vn -1.9156458e-17 1.00000000 7.1492873e-17
vn -2.2396062e-16 0.0000000e+0 -1.00000000
vn -2.2396062e-16 0.0000000e+0 -1.00000000
vn 1.8488927e-32 1.00000000 4.7661915e-17
vn 1.8488927e-32 1.00000000 4.7661915e-17
vn -0.25881905 0.0000000e+0 -0.96592583
vn -0.25881905 0.0000000e+0 -0.96592583
vn 1.9156458e-17 1.00000000 4.7661915e-17
vn 1.9156458e-17 1.00000000 4.7661915e-17
vn -0.50000000 0.0000000e+0 -0.86602540
vn -0.50000000 0.0000000e+0 -0.86602540
vn 3.7007434e-17 1.00000000 7.1492873e-17
vn 3.7007434e-17 1.00000000 7.1492873e-17
vn -0.70710678 0.0000000e+0 -0.70710678
vn -0.70710678 0.0000000e+0 -0.70710678
vn 5.2336415e-17 1.00000000 7.1492873e-17
vn 5.2336415e-17 1.00000000 7.1492873e-17
vn -0.86602540 0.0000000e+0 -0.50000000
vn -0.86602540 0.0000000e+0 -0.50000000
vn 6.4098756e-17 1.00000000 5.9577394e-17
vn 6.4098756e-17 1.00000000 5.9577394e-17
g mesh1
usemtl mesh1_auv
s 1
f 1/110/1 26/105/30 25/96/26 2/100/2
f 2/100/2 25/96/27 48/89/119 3/83/3
f 3/83/3 48/89/118 47/77/115 4/70/4
f 4/108/4 47/106/114 46/95/111 5/102/5
f 5/102/5 46/95/110 45/87/107 6/86/6
f 6/86/6 45/87/106 44/76/103 7/73/7
f 7/110/7 44/105/102 43/96/99 8/97/8
f 8/97/8 43/96/98 42/92/95 9/81/9
f 9/81/9 42/92/94 41/77/91 10/70/10
f 10/107/10 41/104/90 40/95/87 11/101/11
f 11/101/11 40/95/86 39/91/83 12/85/12
f 12/85/12 39/91/82 38/76/79 13/72/13
f 13/110/13 38/105/78 37/96/75 14/100/14
f 14/100/14 37/96/74 36/90/71 15/82/15
f 15/82/15 36/90/70 35/78/67 16/71/16
f 16/110/16 35/103/66 34/94/63 17/98/17
f 17/98/17 34/94/62 33/88/59 18/80/18
f 18/80/18 33/88/58 32/74/55 19/69/19
f 19/109/19 32/105/54 31/93/51 20/99/20
f 20/99/20 31/93/50 30/87/47 21/86/21
f 21/86/21 30/87/46 29/79/43 22/68/22
f 22/110/22 29/105/42 28/96/39 23/100/23
f 23/100/23 28/96/38 27/90/35 24/84/24
f 24/84/24 27/90/34 26/75/31 1/71/1
f 49/65/125 73/40/25 72/63/217
f 50/67/128 73/40/25 49/65/124
f 51/66/132 73/40/25 50/67/129
f 52/64/136 73/40/25 51/66/133
f 53/62/140 73/40/25 52/64/137
f 54/53/144 73/40/25 53/62/141
f 55/43/148 73/40/25 54/53/145
f 56/41/152 73/40/25 55/43/149
f 57/28/156 73/40/25 56/41/153
f 58/17/160 73/40/25 57/28/157
f 59/7/164 73/40/25 58/17/161
f 60/5/168 73/40/25 59/7/165
f 61/3/172 73/40/25 60/5/169
f 62/1/176 73/40/25 61/3/173
f 63/2/180 73/40/25 62/1/177
f 64/4/184 73/40/25 63/2/181
f 65/6/188 73/40/25 64/4/185
f 66/16/192 73/40/25 65/6/189
f 67/27/196 73/40/25 66/16/193
f 68/39/200 73/40/25 67/27/197
f 69/42/204 73/40/25 68/39/201
f 70/52/208 73/40/25 69/42/205
f 71/61/212 73/40/25 70/52/209
f 72/63/216 73/40/25 71/61/213
s 2
f 25/13/29 49/10/123 72/18/215 48/19/121
f 26/47/32 50/46/126 49/59/122 25/60/28
f 27/34/36 51/33/130 50/46/127 26/47/33
f 28/22/40 52/21/134 51/33/131 27/34/37
f 29/9/44 53/8/138 52/21/135 28/22/41
f 30/51/48 54/48/142 53/56/139 29/58/45
f 31/38/52 55/35/146 54/48/143 30/51/49
f 32/26/56 56/23/150 55/35/147 31/38/53
f 33/13/60 57/10/154 56/23/151 32/26/57
f 34/51/64 58/49/158 57/57/155 33/58/61
f 35/38/68 59/36/162 58/49/159 34/51/65
f 36/26/72 60/24/166 59/36/163 35/38/69
f 37/13/76 61/11/170 60/24/167 36/26/73
f 38/50/80 62/48/174 61/56/171 37/58/77
f 39/37/84 63/35/178 62/48/175 38/50/81
f 40/25/88 64/23/182 63/35/179 39/37/85
f 41/12/92 65/10/186 64/23/183 40/25/89
f 42/47/96 66/46/190 65/54/187 41/55/93
f 43/32/100 67/31/194 66/46/191 42/47/97
f 44/22/104 68/20/198 67/31/195 43/32/101
f 45/15/108 69/14/202 68/20/199 44/22/105
f 46/45/112 70/44/206 69/56/203 45/58/109
f 47/30/116 71/29/210 70/44/207 46/45/113
f 48/19/120 72/18/214 71/29/211 47/30/117
