# Exported from Wings 3D 1.5.4
mtllib 4mv_solar_srf_1.mtl
o solar1
#62 vertices, 50 faces
v 0.56250000 1.2500000e-2 -0.22500000
v 0.56250000 -1.2500000e-2 -0.22500000
v -0.56250000 1.2500000e-2 -0.22500000
v -0.56250000 -1.2500000e-2 -0.22500000
v 0.56250000 -1.2500000e-2 -0.85000000
v 0.56250000 1.2500000e-2 -0.85000000
v -0.56250000 1.2500000e-2 -0.85000000
v -0.56250000 -1.2500000e-2 -0.85000000
v 0.27500000 -1.8750000e-2 -1.8750000e-2
v 0.27500000 1.8750000e-2 -1.8750000e-2
v 0.30000000 1.8750000e-2 -1.8750000e-2
v 0.30000000 -1.8750000e-2 -1.8750000e-2
v 0.30000000 -1.1102230e-16 1.8750000e-2
v 0.30000000 -1.3258250e-2 1.3258250e-2
v 0.30000000 -1.8750000e-2 -2.0816682e-17
v 0.30000000 1.8750000e-2 -2.0816682e-17
v 0.30000000 1.3258250e-2 1.3258250e-2
v 0.27500000 -1.1102230e-16 1.8750000e-2
v 0.27500000 -1.3258250e-2 1.3258250e-2
v 0.27500000 -1.8750000e-2 -2.0816682e-17
v 0.27500000 1.8750000e-2 -2.0816682e-17
v 0.27500000 1.3258250e-2 1.3258250e-2
v 0.27500000 1.2500000e-2 -5.0000000e-2
v 0.27500000 -1.2500000e-2 -5.0000000e-2
v 0.30000000 -1.2500000e-2 -5.0000000e-2
v 0.30000000 1.2500000e-2 -5.0000000e-2
v 0.27500000 1.2500000e-2 -0.22500000
v 0.27500000 -1.2500000e-2 -0.22500000
v 0.30000000 -1.2500000e-2 -0.22500000
v 0.30000000 1.2500000e-2 -0.22500000
v -0.30000000 -1.8750000e-2 -1.8750000e-2
v -0.30000000 1.8750000e-2 -1.8750000e-2
v -0.27500000 1.8750000e-2 -1.8750000e-2
v -0.27500000 -1.8750000e-2 -1.8750000e-2
v -0.27500000 -1.1102230e-16 1.8750000e-2
v -0.27500000 -1.3258250e-2 1.3258250e-2
v -0.27500000 -1.8750000e-2 -2.0816682e-17
v -0.27500000 1.8750000e-2 -2.0816682e-17
v -0.27500000 1.3258250e-2 1.3258250e-2
v -0.30000000 -1.1102230e-16 1.8750000e-2
v -0.30000000 -1.3258250e-2 1.3258250e-2
v -0.30000000 -1.8750000e-2 -2.0816682e-17
v -0.30000000 1.8750000e-2 -2.0816682e-17
v -0.30000000 1.3258250e-2 1.3258250e-2
v -0.30000000 1.2500000e-2 -5.0000000e-2
v -0.30000000 -1.2500000e-2 -5.0000000e-2
v -0.27500000 -1.2500000e-2 -5.0000000e-2
v -0.27500000 1.2500000e-2 -5.0000000e-2
v -0.30000000 1.2500000e-2 -0.22500000
v -0.30000000 -1.2500000e-2 -0.22500000
v -0.27500000 -1.2500000e-2 -0.22500000
v -0.27500000 1.2500000e-2 -0.22500000
v -0.27500000 -6.2500000e-3 -0.22500000
v -0.27500000 -6.2500000e-3 -5.0000000e-2
v -0.27500000 6.2500000e-3 -0.22500000
v -0.27500000 6.2500000e-3 -5.0000000e-2
v 0.27500000 -6.2500000e-3 -0.22500000
v 0.27500000 -6.2500000e-3 -5.0000000e-2
v 0.27500000 6.2500000e-3 -0.22500000
v 0.27500000 6.2500000e-3 -5.0000000e-2
v -2.7755576e-17 -6.2500000e-3 -5.0000000e-2
v -2.7755576e-17 6.2500000e-3 -5.0000000e-2
vt 0.29743106 0.86306642
vt 0.29743106 0.98511794
vt 0.30231312 0.86306642
vt 0.30231312 0.85818436
vt 0.30231312 0.98511794
vt 0.30231312 0.99000000
vt 0.52200586 0.85818436
vt 0.52200586 0.86306642
vt 0.52200586 0.98511794
vt 0.52200586 0.99000000
vt 0.52688792 0.86306642
vt 0.52688792 0.98511794
vt 0.54716471 0.86308917
vt 0.54716471 0.98514068
vt 0.76685744 0.86308917
vt 0.76685744 0.98514068
vt 0.78723106 0.86993750
vt 0.78723106 0.97734283
vt 0.82140548 0.86993750
vt 0.82140548 0.92364016
vt 0.82140548 0.97734283
vt 0.82384651 0.86993750
vt 0.82384651 0.92364016
vt 0.82384651 0.97734283
vt 0.85802094 0.86993750
vt 0.85802094 0.97734283
vt 0.87815459 0.98079462
vt 0.87815459 0.98079462
vt 0.87815459 0.98445617
vt 0.87922703 0.98704527
vt 0.87937511 0.94051762
vt 0.87937511 0.97469205
vt 0.87937511 0.97469205
vt 0.87937511 0.94051762
vt 0.88181614 0.98811772
vt 0.88425717 0.94051762
vt 0.88425717 0.97469205
vt 0.88425717 0.94051762
vt 0.88425717 0.97469205
vt 0.88440524 0.98704527
vt 0.88547768 0.98079462
vt 0.88547768 0.98445617
vt 0.89550609 0.98084149
vt 0.89550609 0.98450304
vt 0.89550609 0.94044364
vt 0.89550609 0.94044364
vt 0.89550609 0.97461806
vt 0.89550609 0.98084149
vt 0.89550609 0.98450304
vt 0.89550609 0.98730546
vt 0.89550609 0.97461806
vt 0.89550609 0.99010789
vt 0.89550609 0.98730546
vt 0.89550609 0.99010789
vt 0.90038815 0.98084149
vt 0.90038815 0.98450304
vt 0.90038815 0.94044364
vt 0.90038815 0.97461806
vt 0.90038815 0.98084149
vt 0.90038815 0.94044364
vt 0.90038815 0.97461806
vt 0.90038815 0.98450304
vt 0.90038815 0.98730546
vt 0.90038815 0.98730546
vt 0.90038815 0.99010789
vt 0.90038815 0.99010789
vt 0.91058722 0.98079462
vt 0.91058722 0.98079462
vt 0.91058722 0.98445617
vt 0.91058722 0.98445617
vt 0.91165966 0.98704527
vt 0.91180774 0.94051762
vt 0.91180774 0.97469205
vt 0.91180774 0.94051762
vt 0.91424877 0.98811772
vt 0.91668980 0.94051762
vt 0.91668980 0.97469205
vt 0.91668980 0.94051762
vt 0.91668980 0.97469205
vt 0.91683787 0.98704527
vt 0.91683787 0.98704527
vt 0.91791031 0.98079462
vt 0.91791031 0.98445617
vt 0.91791031 0.98445617
vt 0.92788050 0.98084149
vt 0.92788050 0.98084149
vt 0.92788050 0.98450304
vt 0.92788050 0.94044364
vt 0.92788050 0.97461806
vt 0.92788050 0.98450304
vt 0.92788050 0.94044364
vt 0.92788050 0.97461806
vt 0.92788050 0.98730546
vt 0.92788050 0.98730546
vt 0.92788050 0.99010789
vt 0.92788050 0.99010789
vt 0.93276256 0.98084149
vt 0.93276256 0.98084149
vt 0.93276256 0.94044364
vt 0.93276256 0.94044364
vt 0.93276256 0.97461806
vt 0.93276256 0.98450304
vt 0.93276256 0.98450304
vt 0.93276256 0.97461806
vt 0.93276256 0.98730546
vt 0.93276256 0.98730546
vt 0.93276256 0.99010789
vt 0.93276256 0.99010789
vn 0.0000000e+0 -1.00000000 0.0000000e+0
vn 0.0000000e+0 1.00000000 0.0000000e+0
vn 0.0000000e+0 -1.00000000 0.0000000e+0
vn 0.0000000e+0 1.00000000 0.0000000e+0
vn 0.0000000e+0 0.0000000e+0 1.00000000
vn 1.00000000 0.0000000e+0 0.0000000e+0
vn 0.0000000e+0 1.00000000 -5.5511151e-17
vn 0.0000000e+0 0.0000000e+0 1.00000000
vn 1.00000000 0.0000000e+0 0.0000000e+0
vn 0.0000000e+0 -1.00000000 8.8817842e-17
vn 0.0000000e+0 0.0000000e+0 1.00000000
vn -1.00000000 0.0000000e+0 -1.7763568e-16
vn 0.0000000e+0 1.00000000 -5.5511151e-17
vn 0.0000000e+0 0.0000000e+0 1.00000000
vn -1.00000000 0.0000000e+0 -1.7763568e-16
vn 0.0000000e+0 -1.00000000 8.8817842e-17
vn 0.0000000e+0 0.0000000e+0 -1.00000000
vn 1.00000000 0.0000000e+0 0.0000000e+0
vn 0.0000000e+0 -1.00000000 8.8817842e-17
vn 0.0000000e+0 0.0000000e+0 -1.00000000
vn 1.00000000 0.0000000e+0 0.0000000e+0
vn 0.0000000e+0 1.00000000 -5.5511151e-17
vn 0.0000000e+0 0.0000000e+0 -1.00000000
vn -1.00000000 0.0000000e+0 -1.7763568e-16
vn 0.0000000e+0 1.00000000 -5.5511151e-17
vn 0.0000000e+0 0.0000000e+0 -1.00000000
vn -1.00000000 0.0000000e+0 -1.7763568e-16
vn 0.0000000e+0 -1.00000000 8.8817842e-17
vn -1.00000000 0.0000000e+0 1.7763568e-15
vn -1.00000000 0.0000000e+0 1.7763568e-15
vn 0.0000000e+0 -0.99513333 -9.8537618e-2
vn 0.0000000e+0 -0.99513333 -9.8537618e-2
vn -1.00000000 0.0000000e+0 1.7763568e-15
vn -1.00000000 0.0000000e+0 1.7763568e-15
vn 0.0000000e+0 0.99513333 -9.8537618e-2
vn 0.0000000e+0 0.99513333 -9.8537618e-2
vn 1.00000000 0.0000000e+0 -1.7763568e-15
vn 1.00000000 0.0000000e+0 -1.7763568e-15
vn 0.0000000e+0 0.99513333 -9.8537618e-2
vn 0.0000000e+0 0.99513333 -9.8537618e-2
vn 1.00000000 0.0000000e+0 -1.7763568e-15
vn 1.00000000 0.0000000e+0 -1.7763568e-15
vn 0.0000000e+0 -0.99513333 -9.8537618e-2
vn 0.0000000e+0 -0.99513333 -9.8537618e-2
vn 1.00000000 0.0000000e+0 0.0000000e+0
vn 0.0000000e+0 0.0000000e+0 1.00000000
vn 0.0000000e+0 0.0000000e+0 1.00000000
vn 1.00000000 0.0000000e+0 0.0000000e+0
vn 0.0000000e+0 -0.70710678 0.70710678
vn 0.0000000e+0 -0.70710678 0.70710678
vn 1.00000000 0.0000000e+0 0.0000000e+0
vn 1.00000000 0.0000000e+0 0.0000000e+0
vn 0.0000000e+0 -0.98078526 0.19509042
vn 0.0000000e+0 -0.98078526 0.19509042
vn 1.00000000 0.0000000e+0 0.0000000e+0
vn 1.00000000 0.0000000e+0 0.0000000e+0
vn 0.0000000e+0 0.98078526 0.19509042
vn 0.0000000e+0 0.98078526 0.19509042
vn 1.00000000 0.0000000e+0 0.0000000e+0
vn 0.0000000e+0 0.70710678 0.70710678
vn 0.0000000e+0 0.70710678 0.70710678
vn -1.00000000 -8.7227373e-16 0.0000000e+0
vn 0.0000000e+0 0.0000000e+0 1.00000000
vn 0.0000000e+0 0.0000000e+0 1.00000000
vn -1.00000000 -8.7227373e-16 0.0000000e+0
vn 0.0000000e+0 -0.70710678 0.70710678
vn 0.0000000e+0 -0.70710678 0.70710678
vn -1.00000000 -4.3613686e-16 0.0000000e+0
vn -1.00000000 -4.3613686e-16 0.0000000e+0
vn 0.0000000e+0 -0.98078526 0.19509042
vn 0.0000000e+0 -0.98078526 0.19509042
vn -1.00000000 -4.3613686e-16 0.0000000e+0
vn -1.00000000 -4.3613686e-16 0.0000000e+0
vn 0.0000000e+0 0.98078526 0.19509042
vn 0.0000000e+0 0.98078526 0.19509042
vn -1.00000000 -8.7227373e-16 0.0000000e+0
vn 0.0000000e+0 0.70710678 0.70710678
vn 0.0000000e+0 0.70710678 0.70710678
vn -1.00000000 0.0000000e+0 1.7763568e-15
vn 0.0000000e+0 0.99513333 -9.8537618e-2
vn -1.00000000 0.0000000e+0 1.7763568e-15
vn 0.0000000e+0 0.99513333 -9.8537618e-2
vn -1.00000000 0.0000000e+0 1.7763568e-15
vn 0.0000000e+0 -0.99513333 -9.8537618e-2
vn -1.00000000 0.0000000e+0 1.7763568e-15
vn 0.0000000e+0 -0.99513333 -9.8537618e-2
vn 1.00000000 0.0000000e+0 -1.7763568e-15
vn 0.0000000e+0 -0.99513333 -9.8537618e-2
vn 1.00000000 0.0000000e+0 -1.7763568e-15
vn 0.0000000e+0 -0.99513333 -9.8537618e-2
vn 1.00000000 0.0000000e+0 -1.7763568e-15
vn 0.0000000e+0 0.99513333 -9.8537618e-2
vn 1.00000000 0.0000000e+0 -1.7763568e-15
vn 0.0000000e+0 0.99513333 -9.8537618e-2
vn -1.00000000 0.0000000e+0 0.0000000e+0
vn 0.0000000e+0 1.00000000 -1.5860329e-16
vn -1.00000000 0.0000000e+0 0.0000000e+0
vn 0.0000000e+0 -1.00000000 1.5860329e-16
vn 1.00000000 0.0000000e+0 0.0000000e+0
vn 0.0000000e+0 -1.00000000 1.5860329e-16
vn 1.00000000 0.0000000e+0 0.0000000e+0
vn 0.0000000e+0 1.00000000 -1.5860329e-16
vn -1.00000000 0.0000000e+0 2.6645353e-15
vn -1.00000000 0.0000000e+0 2.6645353e-15
vn 0.0000000e+0 -0.99513333 -9.8537618e-2
vn 0.0000000e+0 -0.99513333 -9.8537618e-2
vn -1.00000000 0.0000000e+0 2.6645353e-15
vn -1.00000000 0.0000000e+0 2.6645353e-15
vn 0.0000000e+0 0.99513333 -9.8537618e-2
vn 0.0000000e+0 0.99513333 -9.8537618e-2
vn 1.00000000 0.0000000e+0 -2.6645353e-15
vn 1.00000000 0.0000000e+0 -2.6645353e-15
vn 0.0000000e+0 0.99513333 -9.8537618e-2
vn 0.0000000e+0 0.99513333 -9.8537618e-2
vn 1.00000000 0.0000000e+0 -2.6645353e-15
vn 1.00000000 0.0000000e+0 -2.6645353e-15
vn 0.0000000e+0 -0.99513333 -9.8537618e-2
vn 0.0000000e+0 -0.99513333 -9.8537618e-2
vn 1.00000000 0.0000000e+0 0.0000000e+0
vn 0.0000000e+0 0.0000000e+0 1.00000000
vn 0.0000000e+0 0.0000000e+0 1.00000000
vn 1.00000000 0.0000000e+0 0.0000000e+0
vn 0.0000000e+0 -0.70710678 0.70710678
vn 0.0000000e+0 -0.70710678 0.70710678
vn 1.00000000 0.0000000e+0 0.0000000e+0
vn 1.00000000 0.0000000e+0 0.0000000e+0
vn 0.0000000e+0 -0.98078526 0.19509042
vn 0.0000000e+0 -0.98078526 0.19509042
vn 1.00000000 0.0000000e+0 0.0000000e+0
vn 1.00000000 0.0000000e+0 0.0000000e+0
vn 0.0000000e+0 0.98078526 0.19509042
vn 0.0000000e+0 0.98078526 0.19509042
vn 1.00000000 0.0000000e+0 0.0000000e+0
vn 0.0000000e+0 0.70710678 0.70710678
vn 0.0000000e+0 0.70710678 0.70710678
vn -1.00000000 0.0000000e+0 0.0000000e+0
vn 0.0000000e+0 0.0000000e+0 1.00000000
vn 0.0000000e+0 0.0000000e+0 1.00000000
vn -1.00000000 0.0000000e+0 0.0000000e+0
vn 0.0000000e+0 -0.70710678 0.70710678
vn 0.0000000e+0 -0.70710678 0.70710678
vn -1.00000000 0.0000000e+0 0.0000000e+0
vn -1.00000000 0.0000000e+0 0.0000000e+0
vn 0.0000000e+0 -0.98078526 0.19509042
vn 0.0000000e+0 -0.98078526 0.19509042
vn -1.00000000 0.0000000e+0 0.0000000e+0
vn -1.00000000 0.0000000e+0 0.0000000e+0
vn 0.0000000e+0 0.98078526 0.19509042
vn 0.0000000e+0 0.98078526 0.19509042
vn -1.00000000 0.0000000e+0 0.0000000e+0
vn 0.0000000e+0 0.70710678 0.70710678
vn 0.0000000e+0 0.70710678 0.70710678
vn -1.00000000 0.0000000e+0 2.6645353e-15
vn 0.0000000e+0 0.99513333 -9.8537618e-2
vn -1.00000000 0.0000000e+0 2.6645353e-15
vn 0.0000000e+0 0.99513333 -9.8537618e-2
vn -1.00000000 0.0000000e+0 2.6645353e-15
vn 0.0000000e+0 -0.99513333 -9.8537618e-2
vn -1.00000000 0.0000000e+0 2.6645353e-15
vn 0.0000000e+0 -0.99513333 -9.8537618e-2
vn 1.00000000 0.0000000e+0 -2.6645353e-15
vn 0.0000000e+0 -0.99513333 -9.8537618e-2
vn 1.00000000 0.0000000e+0 -2.6645353e-15
vn 0.0000000e+0 -0.99513333 -9.8537618e-2
vn 1.00000000 0.0000000e+0 -2.6645353e-15
vn 0.0000000e+0 0.99513333 -9.8537618e-2
vn 1.00000000 0.0000000e+0 -2.6645353e-15
vn 0.0000000e+0 0.99513333 -9.8537618e-2
vn -1.00000000 0.0000000e+0 0.0000000e+0
vn 0.0000000e+0 1.00000000 -1.5860329e-16
vn -1.00000000 0.0000000e+0 0.0000000e+0
vn 0.0000000e+0 -1.00000000 1.5860329e-16
vn 1.00000000 0.0000000e+0 0.0000000e+0
vn 0.0000000e+0 -1.00000000 1.5860329e-16
vn 1.00000000 0.0000000e+0 0.0000000e+0
vn 0.0000000e+0 1.00000000 -1.5860329e-16
vn 0.0000000e+0 -1.00000000 0.0000000e+0
vn 0.0000000e+0 0.0000000e+0 1.00000000
vn 0.0000000e+0 0.0000000e+0 1.00000000
vn 0.0000000e+0 1.00000000 0.0000000e+0
vn 0.0000000e+0 0.0000000e+0 1.00000000
vn 0.0000000e+0 -1.00000000 0.0000000e+0
vn 0.0000000e+0 0.0000000e+0 1.00000000
vn 0.0000000e+0 1.00000000 0.0000000e+0
vn 0.0000000e+0 -1.00000000 0.0000000e+0
vn 0.0000000e+0 0.0000000e+0 1.00000000
vn 0.0000000e+0 0.0000000e+0 1.00000000
vn 0.0000000e+0 -1.00000000 0.0000000e+0
vn 0.0000000e+0 -1.00000000 0.0000000e+0
vn 0.0000000e+0 1.00000000 0.0000000e+0
vn 0.0000000e+0 0.0000000e+0 1.00000000
vn 0.0000000e+0 0.0000000e+0 1.00000000
vn 0.0000000e+0 1.00000000 0.0000000e+0
vn 0.0000000e+0 1.00000000 0.0000000e+0
g solar1
usemtl solar1_auv
s 1
f 2/3/9 5/5/18 6/2/21 1/1/6
f 3/11/12 7/12/24 8/9/27 4/8/15
f 9/82/30 20/84/68 21/70/72 10/68/34
f 10/68/33 23/73/79 24/79/83 9/82/29
f 11/41/38 16/42/55 15/29/51 12/27/42
f 12/27/41 25/32/87 26/37/91 11/41/37
f 14/30/48 15/29/52 16/42/56 17/40/59 13/35/45
f 18/75/62 22/71/76 21/70/73 20/84/69 19/81/65
f 23/73/81 27/74/95 28/78/97 24/79/85
f 25/32/89 29/31/99 30/36/101 26/37/93
f 53/18/1 61/20/185 54/21/177
f 54/21/178 61/20/186 62/23/191 56/24/179
f 55/26/2 62/23/190 59/25/4
f 56/24/180 62/23/194 55/26/2
f 57/17/3 61/20/189 53/18/1
f 58/19/182 61/20/188 57/17/3
f 59/25/4 62/23/193 60/22/184
f 60/22/183 62/23/192 61/20/187 58/19/181
s 2
f 1/4/5 3/7/11 4/8/14 2/3/8
f 5/5/17 8/9/26 7/10/23 6/6/20
f 31/41/104 42/42/142 43/29/146 32/28/108
f 32/28/107 45/33/153 46/39/157 31/41/103
f 33/82/112 38/83/129 37/69/125 34/67/116
f 34/67/115 47/73/161 48/77/165 33/82/111
f 36/71/122 37/69/126 38/83/130 39/80/133 35/75/119
f 40/35/136 44/30/150 43/29/147 42/42/143 41/40/139
f 45/33/155 49/34/169 50/38/171 46/39/159
f 47/73/163 51/72/173 52/76/175 48/77/167
s 3
f 1/15/7 6/16/22 7/14/25 3/13/13
f 4/8/16 8/9/28 5/5/19 2/3/10
f 9/85/32 24/92/84 25/101/88 12/97/44
f 10/48/36 21/44/74 16/56/57 11/55/40
f 11/55/39 26/58/92 23/47/80 10/48/35
f 12/97/43 15/102/53 20/87/70 9/85/31
f 13/108/47 18/95/64 19/93/66 14/105/49
f 14/105/50 19/93/67 20/87/71 15/102/54
f 16/56/58 21/44/75 22/50/78 17/63/61
f 17/63/60 22/50/77 18/52/63 13/65/46
f 24/92/86 28/91/98 29/99/100 25/101/90
f 26/58/94 30/57/102 27/46/96 23/47/82
f 31/86/106 46/89/158 47/104/162 34/98/118
f 32/43/110 43/49/148 38/62/131 33/59/114
f 33/59/113 48/61/166 45/51/154 32/43/109
f 34/98/117 37/103/127 42/90/144 31/86/105
f 35/107/121 40/96/138 41/94/140 36/106/123
f 36/106/124 41/94/141 42/90/145 37/103/128
f 38/62/132 43/49/149 44/53/152 39/64/135
f 39/64/134 44/53/151 40/54/137 35/66/120
f 46/89/160 50/88/172 51/100/174 47/104/164
f 48/61/168 52/60/176 49/45/170 45/51/156
