# Exported from Wings 3D 1.5.4
mtllib 4mv_solar_srf_1_base.mtl
o base1
#58 vertices, 56 faces
v -0.31250000 -1.8750000e-2 3.7500000e-2
v -0.31250000 1.8750000e-2 3.7500000e-2
v -0.30000000 -1.8750000e-2 -3.7500000e-2
v -0.30000000 1.8750000e-2 -3.7500000e-2
v -0.31250000 6.8383826e-18 -7.5000000e-2
v -0.31250000 1.3258252e-2 -6.9508250e-2
v -0.31250000 1.8750000e-2 -5.6250000e-2
v -0.31250000 -1.8750000e-2 -5.6250000e-2
v -0.31250000 -1.3258250e-2 -6.9508250e-2
v -0.30000000 7.6037868e-18 -7.5000000e-2
v -0.30000000 1.3258252e-2 -6.9508250e-2
v -0.30000000 1.8750000e-2 -5.6250000e-2
v -0.30000000 -1.8750000e-2 -5.6250000e-2
v -0.30000000 -1.3258250e-2 -6.9508250e-2
v -0.26250000 -1.8750000e-2 3.7500000e-2
v -0.26250000 1.8750000e-2 3.7500000e-2
v -0.27500000 -1.8750000e-2 -3.7500000e-2
v -0.27500000 1.8750000e-2 -3.7500000e-2
v -0.27500000 9.1345953e-18 -7.5000000e-2
v -0.27500000 1.3258252e-2 -6.9508250e-2
v -0.27500000 1.8750000e-2 -5.6250000e-2
v -0.27500000 -1.8750000e-2 -5.6250000e-2
v -0.27500000 -1.3258250e-2 -6.9508250e-2
v -0.26250000 9.8999996e-18 -7.5000000e-2
v -0.26250000 1.3258252e-2 -6.9508250e-2
v -0.26250000 1.8750000e-2 -5.6250000e-2
v -0.26250000 -1.8750000e-2 -5.6250000e-2
v -0.26250000 -1.3258250e-2 -6.9508250e-2
v -0.31250000 4.5421698e-18 -5.6250000e-2
v 0.26250000 -1.8750000e-2 3.7500000e-2
v 0.26250000 1.8750000e-2 3.7500000e-2
v 0.27500000 -1.8750000e-2 -3.7500000e-2
v 0.27500000 1.8750000e-2 -3.7500000e-2
v 0.26250000 4.2046978e-17 -7.5000000e-2
v 0.26250000 1.3258252e-2 -6.9508250e-2
v 0.26250000 1.8750000e-2 -5.6250000e-2
v 0.26250000 -1.8750000e-2 -5.6250000e-2
v 0.26250000 -1.3258250e-2 -6.9508250e-2
v 0.27500000 4.2812382e-17 -7.5000000e-2
v 0.27500000 1.3258252e-2 -6.9508250e-2
v 0.27500000 1.8750000e-2 -5.6250000e-2
v 0.27500000 -1.8750000e-2 -5.6250000e-2
v 0.27500000 -1.3258250e-2 -6.9508250e-2
v 0.31250000 -1.8750000e-2 3.7500000e-2
v 0.31250000 1.8750000e-2 3.7500000e-2
v 0.30000000 -1.8750000e-2 -3.7500000e-2
v 0.30000000 1.8750000e-2 -3.7500000e-2
v 0.30000000 4.4343191e-17 -7.5000000e-2
v 0.30000000 1.3258252e-2 -6.9508250e-2
v 0.30000000 1.8750000e-2 -5.6250000e-2
v 0.30000000 -1.8750000e-2 -5.6250000e-2
v 0.30000000 -1.3258250e-2 -6.9508250e-2
v 0.31250000 4.5108595e-17 -7.5000000e-2
v 0.31250000 1.3258252e-2 -6.9508250e-2
v 0.31250000 1.8750000e-2 -5.6250000e-2
v 0.31250000 -1.8750000e-2 -5.6250000e-2
v 0.31250000 -1.3258250e-2 -6.9508250e-2
v 0.26250000 3.9750765e-17 -5.6250000e-2
vt 1.0331890e-2 0.94004504
vt 1.0331890e-2 0.95833254
vt 1.0331890e-2 0.98637339
vt 1.0331890e-2 0.96808588
vt 1.1403148e-2 0.93745879
vt 1.1403148e-2 0.98895963
vt 1.3989392e-2 0.94004504
vt 1.3989392e-2 0.93638753
vt 1.3989392e-2 0.99003089
vt 1.6575636e-2 0.93745879
vt 1.6575636e-2 0.98895963
vt 1.7646893e-2 0.94004504
vt 1.7646893e-2 0.95833254
vt 1.7646893e-2 0.96808588
vt 1.7646893e-2 0.98637339
vt 2.7811984e-2 0.95738090
vt 2.7811984e-2 0.95738090
vt 2.7811985e-2 0.96297956
vt 2.7811985e-2 0.96297956
vt 2.7811985e-2 0.93909340
vt 2.7811985e-2 0.93909340
vt 2.7811985e-2 0.98686573
vt 2.7811985e-2 0.98686573
vt 2.7811985e-2 0.96577889
vt 2.7811985e-2 0.96577889
vt 2.7811986e-2 0.96018023
vt 2.7811986e-2 0.96018023
vt 2.7811986e-2 0.96857823
vt 2.7811986e-2 0.96857823
vt 3.0250319e-2 0.95738090
vt 3.0250319e-2 0.95738090
vt 3.0250319e-2 0.95372340
vt 3.0250319e-2 0.95372340
vt 3.0250319e-2 0.96577890
vt 3.0250319e-2 0.96577890
vt 3.0250320e-2 0.96297956
vt 3.0250320e-2 0.96297956
vt 3.0250320e-2 0.97223573
vt 3.0250320e-2 0.97223573
vt 3.0250320e-2 0.96018023
vt 3.0250320e-2 0.96018023
vt 3.0250321e-2 0.96857823
vt 3.0250321e-2 0.96857823
vt 3.5126988e-2 0.96857823
vt 3.5126988e-2 0.96857823
vt 3.5126988e-2 0.97223573
vt 3.5126988e-2 0.97223573
vt 3.5126988e-2 0.96018023
vt 3.5126988e-2 0.96018023
vt 3.5126988e-2 0.96297956
vt 3.5126988e-2 0.96297956
vt 3.5126989e-2 0.95372340
vt 3.5126989e-2 0.95372340
vt 3.5126989e-2 0.96577889
vt 3.5126989e-2 0.96577889
vt 3.5126990e-2 0.95738090
vt 3.5126990e-2 0.95738090
vt 3.7565322e-2 0.96857822
vt 3.7565322e-2 0.96857822
vt 3.7565322e-2 0.96297956
vt 3.7565322e-2 0.96297956
vt 3.7565323e-2 0.93909340
vt 3.7565323e-2 0.98686573
vt 3.7565323e-2 0.93909340
vt 3.7565323e-2 0.98686573
vt 3.7565323e-2 0.96018023
vt 3.7565323e-2 0.96018023
vt 3.7565323e-2 0.96577890
vt 3.7565323e-2 0.96577890
vt 3.7565324e-2 0.95738090
vt 3.7565324e-2 0.95738090
vt 4.7720391e-2 0.96907542
vt 4.7720391e-2 0.96541792
vt 4.7720391e-2 0.96054125
vt 4.7720391e-2 0.95688375
vt 4.7720405e-2 0.96907542
vt 4.7720405e-2 0.95688375
vt 4.7720405e-2 0.96541792
vt 4.7720405e-2 0.96054125
vt 4.8791649e-2 0.97166166
vt 4.8791649e-2 0.95429750
vt 4.8791663e-2 0.97166166
vt 4.8791663e-2 0.95429750
vt 5.1377893e-2 0.97273292
vt 5.1377893e-2 0.95322625
vt 5.1377907e-2 0.97273292
vt 5.1377907e-2 0.95322624
vt 5.3964137e-2 0.97166166
vt 5.3964137e-2 0.95429750
vt 5.3964151e-2 0.95429750
vt 5.3964151e-2 0.97166166
vt 5.5035394e-2 0.95688375
vt 5.5035394e-2 0.96907542
vt 5.5035394e-2 0.96054125
vt 5.5035394e-2 0.96541792
vt 5.5035408e-2 0.95688375
vt 5.5035408e-2 0.96907542
vt 5.5035408e-2 0.96541792
vt 5.5035408e-2 0.96054125
vn -1.00000000 0.0000000e+0 0.0000000e+0
vn -1.00000000 2.1806842e-16 0.0000000e+0
vn 0.0000000e+0 0.0000000e+0 1.00000000
vn -1.00000000 0.0000000e+0 0.0000000e+0
vn 1.2952602e-16 -1.00000000 -1.1564823e-16
vn 1.2952602e-16 -1.00000000 -1.1564823e-16
vn 0.0000000e+0 0.0000000e+0 1.00000000
vn -1.00000000 0.0000000e+0 0.0000000e+0
vn -1.2952602e-16 1.00000000 1.1564823e-16
vn -1.2952602e-16 1.00000000 1.1564823e-16
vn 1.00000000 0.0000000e+0 0.0000000e+0
vn 0.0000000e+0 0.0000000e+0 -1.00000000
vn 8.6350680e-17 -1.00000000 -7.7098821e-17
vn 8.6350680e-17 -1.00000000 -7.7098821e-17
vn 8.6350680e-17 -1.00000000 -7.7098821e-17
vn 1.00000000 0.0000000e+0 0.0000000e+0
vn 0.0000000e+0 0.0000000e+0 -1.00000000
vn -8.6350680e-17 1.00000000 7.7098821e-17
vn -8.6350680e-17 1.00000000 7.7098821e-17
vn -8.6350680e-17 1.00000000 7.7098821e-17
vn -1.00000000 0.0000000e+0 0.0000000e+0
vn 0.0000000e+0 -2.6666678e-8 -1.00000000
vn 0.0000000e+0 -2.6666678e-8 -1.00000000
vn -1.00000000 0.0000000e+0 0.0000000e+0
vn 0.0000000e+0 0.70710681 -0.70710675
vn 0.0000000e+0 0.70710681 -0.70710675
vn -1.00000000 0.0000000e+0 0.0000000e+0
vn -1.00000000 0.0000000e+0 0.0000000e+0
vn -5.6474677e-17 0.99154343 -0.12977529
vn -5.6474677e-17 0.99154343 -0.12977529
vn -5.6474677e-17 0.99154343 -0.12977529
vn -1.00000000 0.0000000e+0 0.0000000e+0
vn -1.00000000 0.0000000e+0 0.0000000e+0
vn 5.6474678e-17 -0.99154343 -0.12977533
vn 5.6474678e-17 -0.99154343 -0.12977533
vn 5.6474678e-17 -0.99154343 -0.12977533
vn -1.00000000 0.0000000e+0 0.0000000e+0
vn 0.0000000e+0 -0.70710678 -0.70710678
vn 0.0000000e+0 -0.70710678 -0.70710678
vn 1.00000000 0.0000000e+0 0.0000000e+0
vn 0.0000000e+0 -2.6666678e-8 -1.00000000
vn 0.0000000e+0 -2.6666678e-8 -1.00000000
vn 1.00000000 0.0000000e+0 0.0000000e+0
vn 0.0000000e+0 0.70710681 -0.70710675
vn 0.0000000e+0 0.70710681 -0.70710675
vn 1.00000000 0.0000000e+0 0.0000000e+0
vn 1.00000000 0.0000000e+0 0.0000000e+0
vn 0.0000000e+0 0.98078527 -0.19509035
vn 0.0000000e+0 0.98078527 -0.19509035
vn 1.00000000 0.0000000e+0 0.0000000e+0
vn 1.00000000 0.0000000e+0 0.0000000e+0
vn 0.0000000e+0 -0.98078526 -0.19509042
vn 0.0000000e+0 -0.98078526 -0.19509042
vn 1.00000000 0.0000000e+0 0.0000000e+0
vn 0.0000000e+0 -0.70710678 -0.70710678
vn 0.0000000e+0 -0.70710678 -0.70710678
vn 0.0000000e+0 0.0000000e+0 1.00000000
vn 1.00000000 0.0000000e+0 0.0000000e+0
vn -3.7007434e-17 -1.00000000 -1.3877788e-16
vn -3.7007434e-17 -1.00000000 -1.3877788e-16
vn 0.0000000e+0 0.0000000e+0 1.00000000
vn 1.00000000 0.0000000e+0 0.0000000e+0
vn 3.7007434e-17 1.00000000 1.3877788e-16
vn 3.7007434e-17 1.00000000 1.3877788e-16
vn -1.00000000 0.0000000e+0 0.0000000e+0
vn 0.0000000e+0 0.0000000e+0 -1.00000000
vn -2.4671623e-17 -1.00000000 -9.2518585e-17
vn -2.4671623e-17 -1.00000000 -9.2518585e-17
vn -2.4671623e-17 -1.00000000 -9.2518585e-17
vn -1.00000000 0.0000000e+0 0.0000000e+0
vn 0.0000000e+0 0.0000000e+0 -1.00000000
vn 2.4671623e-17 1.00000000 9.2518585e-17
vn 2.4671623e-17 1.00000000 9.2518585e-17
vn 2.4671623e-17 1.00000000 9.2518585e-17
vn -1.00000000 -4.3613685e-16 0.0000000e+0
vn 2.6323185e-24 -2.6666678e-8 -1.00000000
vn 2.6323185e-24 -2.6666678e-8 -1.00000000
vn -1.00000000 -4.3613685e-16 0.0000000e+0
vn -4.0887824e-17 0.70710681 -0.70710675
vn -4.0887824e-17 0.70710681 -0.70710675
vn -1.00000000 -2.1806842e-16 0.0000000e+0
vn -1.00000000 -2.1806842e-16 0.0000000e+0
vn -1.9257747e-17 0.98078527 -0.19509035
vn -1.9257747e-17 0.98078527 -0.19509035
vn -1.00000000 -2.1806842e-16 0.0000000e+0
vn -1.00000000 -2.1806842e-16 0.0000000e+0
vn 1.9257746e-17 -0.98078526 -0.19509042
vn 1.9257746e-17 -0.98078526 -0.19509042
vn -1.00000000 -4.3613685e-16 0.0000000e+0
vn 4.0887824e-17 -0.70710678 -0.70710678
vn 4.0887824e-17 -0.70710678 -0.70710678
vn 1.00000000 0.0000000e+0 0.0000000e+0
vn 2.6323185e-24 -2.6666678e-8 -1.00000000
vn 2.6323185e-24 -2.6666678e-8 -1.00000000
vn 1.00000000 0.0000000e+0 0.0000000e+0
vn -4.0887824e-17 0.70710681 -0.70710675
vn -4.0887824e-17 0.70710681 -0.70710675
vn 1.00000000 0.0000000e+0 0.0000000e+0
vn 1.00000000 0.0000000e+0 0.0000000e+0
vn 4.3664307e-17 0.99154343 -0.12977529
vn 4.3664307e-17 0.99154343 -0.12977529
vn 4.3664307e-17 0.99154343 -0.12977529
vn 1.00000000 0.0000000e+0 0.0000000e+0
vn 1.00000000 0.0000000e+0 0.0000000e+0
vn -4.3664308e-17 -0.99154343 -0.12977533
vn -4.3664308e-17 -0.99154343 -0.12977533
vn -4.3664308e-17 -0.99154343 -0.12977533
vn 1.00000000 0.0000000e+0 0.0000000e+0
vn 4.0887824e-17 -0.70710678 -0.70710678
vn 4.0887824e-17 -0.70710678 -0.70710678
vn 0.0000000e+0 0.0000000e+0 1.00000000
vn -1.00000000 0.0000000e+0 0.0000000e+0
vn 1.2952602e-16 -1.00000000 -1.1564823e-16
vn 1.2952602e-16 -1.00000000 -1.1564823e-16
vn 0.0000000e+0 0.0000000e+0 1.00000000
vn -1.00000000 0.0000000e+0 0.0000000e+0
vn -1.2952602e-16 1.00000000 1.1564823e-16
vn -1.2952602e-16 1.00000000 1.1564823e-16
vn 1.00000000 0.0000000e+0 0.0000000e+0
vn 0.0000000e+0 0.0000000e+0 -1.00000000
vn 8.6350680e-17 -1.00000000 -7.7098821e-17
vn 8.6350680e-17 -1.00000000 -7.7098821e-17
vn 8.6350680e-17 -1.00000000 -7.7098821e-17
vn 1.00000000 0.0000000e+0 0.0000000e+0
vn 0.0000000e+0 0.0000000e+0 -1.00000000
vn -8.6350680e-17 1.00000000 7.7098821e-17
vn -8.6350680e-17 1.00000000 7.7098821e-17
vn -8.6350680e-17 1.00000000 7.7098821e-17
vn -1.00000000 4.3613685e-16 0.0000000e+0
vn 2.6323185e-24 -2.6666678e-8 -1.00000000
vn 2.6323185e-24 -2.6666678e-8 -1.00000000
vn -1.00000000 4.3613685e-16 0.0000000e+0
vn -6.1331739e-17 0.70710681 -0.70710675
vn -6.1331739e-17 0.70710681 -0.70710675
vn -1.00000000 2.1806842e-16 0.0000000e+0
vn -1.00000000 2.1806842e-16 0.0000000e+0
vn -8.2095418e-17 0.99154343 -0.12977529
vn -8.2095418e-17 0.99154343 -0.12977529
vn -8.2095418e-17 0.99154343 -0.12977529
vn -1.00000000 2.1806842e-16 0.0000000e+0
vn -1.00000000 2.1806842e-16 0.0000000e+0
vn 8.2095417e-17 -0.99154343 -0.12977533
vn 8.2095417e-17 -0.99154343 -0.12977533
vn 8.2095417e-17 -0.99154343 -0.12977533
vn -1.00000000 4.3613685e-16 0.0000000e+0
vn 6.1331737e-17 -0.70710678 -0.70710678
vn 6.1331737e-17 -0.70710678 -0.70710678
vn 1.00000000 0.0000000e+0 0.0000000e+0
vn 2.6323185e-24 -2.6666678e-8 -1.00000000
vn 2.6323185e-24 -2.6666678e-8 -1.00000000
vn 1.00000000 0.0000000e+0 0.0000000e+0
vn -6.1331739e-17 0.70710681 -0.70710675
vn -6.1331739e-17 0.70710681 -0.70710675
vn 1.00000000 0.0000000e+0 0.0000000e+0
vn 1.00000000 0.0000000e+0 0.0000000e+0
vn -3.8515494e-17 0.98078527 -0.19509035
vn -3.8515494e-17 0.98078527 -0.19509035
vn 1.00000000 0.0000000e+0 0.0000000e+0
vn 1.00000000 0.0000000e+0 0.0000000e+0
vn 3.8515492e-17 -0.98078526 -0.19509042
vn 3.8515492e-17 -0.98078526 -0.19509042
vn 1.00000000 0.0000000e+0 0.0000000e+0
vn 6.1331737e-17 -0.70710678 -0.70710678
vn 6.1331737e-17 -0.70710678 -0.70710678
vn 0.0000000e+0 0.0000000e+0 1.00000000
vn 1.00000000 0.0000000e+0 0.0000000e+0
vn -3.7007434e-17 -1.00000000 -1.3877788e-16
vn -3.7007434e-17 -1.00000000 -1.3877788e-16
vn 0.0000000e+0 0.0000000e+0 1.00000000
vn 1.00000000 0.0000000e+0 0.0000000e+0
vn 3.7007434e-17 1.00000000 1.6190752e-16
vn 3.7007434e-17 1.00000000 1.6190752e-16
vn -1.00000000 0.0000000e+0 0.0000000e+0
vn 0.0000000e+0 0.0000000e+0 -1.00000000
vn -2.4671623e-17 -1.00000000 -9.2518585e-17
vn -2.4671623e-17 -1.00000000 -9.2518585e-17
vn -2.4671623e-17 -1.00000000 -9.2518585e-17
vn -1.00000000 0.0000000e+0 0.0000000e+0
vn 0.0000000e+0 0.0000000e+0 -1.00000000
vn 2.4671623e-17 1.00000000 1.0793835e-16
vn 2.4671623e-17 1.00000000 1.0793835e-16
vn 2.4671623e-17 1.00000000 1.0793835e-16
vn -1.00000000 4.3613685e-16 0.0000000e+0
vn 0.0000000e+0 -2.6666678e-8 -1.00000000
vn 0.0000000e+0 -2.6666678e-8 -1.00000000
vn -1.00000000 4.3613685e-16 0.0000000e+0
vn 0.0000000e+0 0.70710681 -0.70710675
vn 0.0000000e+0 0.70710681 -0.70710675
vn -1.00000000 2.1806842e-16 0.0000000e+0
vn -1.00000000 2.1806842e-16 0.0000000e+0
vn 0.0000000e+0 0.98078527 -0.19509035
vn 0.0000000e+0 0.98078527 -0.19509035
vn -1.00000000 2.1806842e-16 0.0000000e+0
vn -1.00000000 2.1806842e-16 0.0000000e+0
vn 0.0000000e+0 -0.98078526 -0.19509042
vn 0.0000000e+0 -0.98078526 -0.19509042
vn -1.00000000 4.3613685e-16 0.0000000e+0
vn 0.0000000e+0 -0.70710678 -0.70710678
vn 0.0000000e+0 -0.70710678 -0.70710678
vn 1.00000000 0.0000000e+0 0.0000000e+0
vn 0.0000000e+0 -2.6666678e-8 -1.00000000
vn 0.0000000e+0 -2.6666678e-8 -1.00000000
vn 1.00000000 0.0000000e+0 0.0000000e+0
vn 0.0000000e+0 0.70710681 -0.70710675
vn 0.0000000e+0 0.70710681 -0.70710675
vn 1.00000000 0.0000000e+0 0.0000000e+0
vn 1.00000000 0.0000000e+0 0.0000000e+0
vn 5.6474677e-17 0.99154343 -0.12977529
vn 5.6474677e-17 0.99154343 -0.12977529
vn 5.6474677e-17 0.99154343 -0.12977529
vn 1.00000000 0.0000000e+0 0.0000000e+0
vn 1.00000000 0.0000000e+0 0.0000000e+0
vn -5.6474678e-17 -0.99154343 -0.12977533
vn -5.6474678e-17 -0.99154343 -0.12977533
vn -5.6474678e-17 -0.99154343 -0.12977533
vn 1.00000000 0.0000000e+0 0.0000000e+0
vn 0.0000000e+0 -0.70710678 -0.70710678
vn 0.0000000e+0 -0.70710678 -0.70710678
g base1
usemtl base1_auv
s 1
f 1/13/3 15/14/57 16/4/61 2/2/7
f 4/99/17 18/98/71 17/78/66 3/79/12
f 31/2/116 36/1/135 58/7/2 37/12/140 30/13/112
f 32/74/119 42/75/158 41/92/154 33/94/124
f 34/8/129 38/10/145 37/12/141 58/7/2 36/1/136 35/5/132
f 40/89/151 41/92/155 42/75/159 43/81/162 39/85/148
f 44/14/166 56/15/211 55/3/206 45/4/170
f 47/95/178 50/93/189 51/72/193 46/73/173
f 48/84/183 52/80/197 51/72/194 50/93/190 49/88/186
f 54/6/203 55/3/207 56/15/212 57/11/216 53/9/200
s 2
f 2/2/8 7/1/27 29/7/1 8/12/32 1/13/4
f 3/79/11 13/77/50 12/96/46 4/99/16
f 5/8/21 9/10/37 8/12/33 29/7/1 7/1/28 6/5/24
f 11/90/43 12/96/47 13/77/51 14/83/54 10/87/40
f 15/14/58 27/15/103 26/3/98 16/4/62
f 18/98/70 21/97/81 22/76/85 17/78/65
f 19/86/75 23/82/89 22/76/86 21/97/82 20/91/78
f 25/6/95 26/3/99 27/15/104 28/11/108 24/9/92
f 30/13/111 44/14/165 45/4/169 31/2/115
f 33/94/125 47/95/179 46/73/174 32/74/120
s 3
f 1/62/5 8/70/34 3/52/13
f 2/63/9 16/22/63 18/38/72 4/46/18
f 3/52/14 17/32/67 15/20/59 1/62/6
f 4/46/19 7/58/29 2/63/10
f 4/46/20 12/44/48 7/58/30
f 5/60/22 10/50/41 14/48/55 9/66/38
f 6/68/25 11/54/44 10/50/42 5/60/23
f 7/58/31 12/44/49 11/54/45 6/68/26
f 8/70/35 13/56/52 3/52/15
f 9/66/39 14/48/56 13/56/53 8/70/36
f 16/22/64 26/28/100 18/38/73
f 17/32/68 27/16/105 15/20/60
f 18/38/74 26/28/101 21/42/83
f 19/36/76 24/18/93 28/26/109 23/40/90
f 20/34/79 25/24/96 24/18/94 19/36/77
f 21/42/84 26/28/102 25/24/97 20/34/80
f 22/30/87 27/16/106 17/32/69
f 23/40/91 28/26/110 27/16/107 22/30/88
f 30/64/113 37/71/142 32/53/121
f 31/65/117 45/23/171 47/39/180 33/47/126
f 32/53/122 46/33/175 44/21/167 30/64/114
f 33/47/127 36/59/137 31/65/118
f 33/47/128 41/45/156 36/59/138
f 34/61/130 39/51/149 43/49/163 38/67/146
f 35/69/133 40/55/152 39/51/150 34/61/131
f 36/59/139 41/45/157 40/55/153 35/69/134
f 37/71/143 42/57/160 32/53/123
f 38/67/147 43/49/164 42/57/161 37/71/144
f 45/23/172 55/29/208 47/39/181
f 46/33/176 56/17/213 44/21/168
f 47/39/182 55/29/209 50/43/191
f 48/37/184 53/19/201 57/27/217 52/41/198
f 49/35/187 54/25/204 53/19/202 48/37/185
f 50/43/192 55/29/210 54/25/205 49/35/188
f 51/31/195 56/17/214 46/33/177
f 52/41/199 57/27/218 56/17/215 51/31/196
