# Exported from Wings 3D 1.5.4
mtllib 4mv_engine_s0_1_pupper.mtl
o mesh1
#16 vertices, 9 faces
v 9.3750000e-3 1.7123545e-17 0.10000000
v 6.6291261e-3 -6.6291261e-3 0.10000000
v -5.4416681e-17 -9.3750000e-3 0.10000000
v -6.6291261e-3 -6.6291261e-3 0.10000000
v -9.3750000e-3 1.5975439e-17 0.10000000
v -6.6291261e-3 6.6291261e-3 0.10000000
v -5.6712894e-17 9.3750000e-3 0.10000000
v 6.6291261e-3 6.6291261e-3 0.10000000
v 9.3750000e-3 1.5975439e-17 0.0000000e+0
v 6.6291261e-3 -6.6291261e-3 0.0000000e+0
v -5.4416681e-17 -9.3750000e-3 6.9388939e-18
v -6.6291261e-3 -6.6291261e-3 0.0000000e+0
v -9.3750000e-3 1.4827332e-17 0.0000000e+0
v -6.6291261e-3 6.6291261e-3 0.0000000e+0
v -5.6712894e-17 9.3750000e-3 0.0000000e+0
v 6.6291261e-3 6.6291261e-3 0.0000000e+0
vt 0.87512191 0.71560532
vt 0.87512191 0.75320132
vt 0.87647612 0.71560532
vt 0.87647612 0.75320132
vt 0.87701413 0.75310495
vt 0.87783033 0.71560532
vt 0.87783033 0.75320132
vt 0.87804646 0.75308002
vt 0.87804646 0.75312987
vt 0.87918454 0.75320132
vt 0.87918454 0.71560532
vt 0.88053875 0.71560532
vt 0.88053875 0.75320132
vt 0.88053875 0.75306970
vt 0.88053875 0.75314019
vt 0.88189296 0.71560532
vt 0.88189296 0.75320132
vt 0.88303104 0.75308002
vt 0.88303104 0.75312987
vt 0.88324717 0.71560532
vt 0.88324717 0.75320132
vt 0.88406338 0.75310495
vt 0.88460138 0.71560532
vt 0.88460138 0.75320132
vt 0.88595559 0.71560532
vt 0.88595559 0.75320132
vn 1.00000000 9.0127256e-17 1.6676892e-33
vn 0.70710678 -0.70710678 1.2777445e-17
vn 6.0084837e-17 -1.00000000 1.9166168e-17
vn -0.70710678 -0.70710678 1.4055190e-17
vn -1.00000000 -1.5021209e-16 1.2777445e-18
vn -0.70710678 0.70710678 -1.1499701e-17
vn -1.2016967e-16 1.00000000 -2.0443912e-17
vn 0.70710678 0.70710678 -1.5332934e-17
vn -4.3613679e-16 0.0000000e+0 1.00000000
vn 1.00000000 9.0127256e-17 1.6676892e-33
vn 1.00000000 9.0127256e-17 1.6676892e-33
vn -4.3613679e-16 0.0000000e+0 1.00000000
vn 0.70710678 -0.70710678 1.2777445e-17
vn 0.70710678 -0.70710678 1.2777445e-17
vn -4.3613679e-16 0.0000000e+0 1.00000000
vn 6.0084837e-17 -1.00000000 1.9166168e-17
vn 6.0084837e-17 -1.00000000 1.9166168e-17
vn -4.3613679e-16 0.0000000e+0 1.00000000
vn -0.70710678 -0.70710678 1.4055190e-17
vn -0.70710678 -0.70710678 1.4055190e-17
vn -4.3613679e-16 0.0000000e+0 1.00000000
vn -1.00000000 -1.5021209e-16 1.2777445e-18
vn -1.00000000 -1.5021209e-16 1.2777445e-18
vn -4.3613679e-16 0.0000000e+0 1.00000000
vn -0.70710678 0.70710678 -1.1499701e-17
vn -0.70710678 0.70710678 -1.1499701e-17
vn -4.3613679e-16 0.0000000e+0 1.00000000
vn -1.2016967e-16 1.00000000 -2.0443912e-17
vn -1.2016967e-16 1.00000000 -2.0443912e-17
vn -4.3613679e-16 0.0000000e+0 1.00000000
vn 0.70710678 0.70710678 -1.5332934e-17
vn 0.70710678 0.70710678 -1.5332934e-17
g mesh1_mesh1_auv
usemtl mesh1_auv
s 1
f 1/22/9 8/19/30 7/15/27 6/9/24 5/5/21 4/8/18 3/14/15 2/18/12
s 2
f 1/7/10 9/6/1 16/11/8 8/10/31
f 2/4/14 10/3/2 9/6/1 1/7/11
f 3/2/17 11/1/3 10/3/2 2/4/13
f 4/24/20 12/23/4 11/25/3 3/26/16
f 5/21/23 13/20/5 12/23/4 4/24/19
f 6/17/26 14/16/6 13/20/5 5/21/22
f 7/13/29 15/12/7 14/16/6 6/17/25
f 8/10/32 16/11/8 15/12/7 7/13/28
