# Exported from Wings 3D 1.5.4
mtllib sp_rcs_srf_1.mtl
o mesh1
#81 vertices, 78 faces
v 1.2500000e-2 -6.2500000e-2 -6.2500000e-2
v 1.0825318e-2 -6.2500000e-2 -6.8750000e-2
v 6.2500000e-3 -6.2500000e-2 -7.3325318e-2
v 4.0218517e-18 -6.2500000e-2 -7.5000000e-2
v -6.2500000e-3 -6.2500000e-2 -7.3325318e-2
v -1.0825318e-2 -6.2500000e-2 -6.8750000e-2
v -1.2500000e-2 -6.2500000e-2 -6.2500000e-2
v -1.0825318e-2 -6.2500000e-2 -5.6250000e-2
v -6.2500000e-3 -6.2500000e-2 -5.1674682e-2
v 9.6023474e-19 -6.2500000e-2 -5.0000000e-2
v 6.2500000e-3 -6.2500000e-2 -5.1674682e-2
v 1.0825318e-2 -6.2500000e-2 -5.6250000e-2
v 1.8750000e-2 -2.5000000e-2 -6.2500000e-2
v 1.6237976e-2 -2.5000000e-2 -7.1875000e-2
v 9.3750000e-3 -2.5000000e-2 -7.8737976e-2
v 5.0002627e-18 -2.5000000e-2 -8.1250000e-2
v -9.3750000e-3 -2.5000000e-2 -7.8737976e-2
v -1.6237976e-2 -2.5000000e-2 -7.1875000e-2
v -1.8750000e-2 -2.5000000e-2 -6.2500000e-2
v -1.6237976e-2 -2.5000000e-2 -5.3125000e-2
v -9.3750000e-3 -2.5000000e-2 -4.6262024e-2
v 4.0783722e-19 -2.5000000e-2 -4.3750000e-2
v 9.3750000e-3 -2.5000000e-2 -4.6262024e-2
v 1.6237976e-2 -2.5000000e-2 -5.3125000e-2
v 1.6237976e-2 -5.6250000e-2 -5.3125000e-2
v 9.3750000e-3 -5.6250000e-2 -4.6262024e-2
v 4.0783722e-19 -5.6250000e-2 -4.3750000e-2
v -9.3750000e-3 -5.6250000e-2 -4.6262024e-2
v -1.6237976e-2 -5.6250000e-2 -5.3125000e-2
v -1.8750000e-2 -5.6250000e-2 -6.2500000e-2
v -1.6237976e-2 -5.6250000e-2 -7.1875000e-2
v -9.3750000e-3 -5.6250000e-2 -7.8737976e-2
v 5.0002627e-18 -5.6250000e-2 -8.1250000e-2
v 9.3750000e-3 -5.6250000e-2 -7.8737976e-2
v 1.6237976e-2 -5.6250000e-2 -7.1875000e-2
v 1.8750000e-2 -5.6250000e-2 -6.2500000e-2
v 2.5000000e-2 -6.2500000e-2 -6.2500000e-2
v 2.1650635e-2 -6.2500000e-2 -7.5000000e-2
v 1.2500000e-2 -6.2500000e-2 -8.4150635e-2
v 6.1232340e-18 -6.2500000e-2 -8.7500000e-2
v -1.2500000e-2 -6.2500000e-2 -8.4150635e-2
v -2.1650635e-2 -6.2500000e-2 -7.5000000e-2
v -2.5000000e-2 -6.2500000e-2 -6.2500000e-2
v -2.1650635e-2 -6.2500000e-2 -5.0000000e-2
v -1.2500000e-2 -6.2500000e-2 -4.0849365e-2
v 0.0000000e+0 -6.2500000e-2 -3.7500000e-2
v 1.2500000e-2 -6.2500000e-2 -4.0849365e-2
v 2.1650635e-2 -6.2500000e-2 -5.0000000e-2
v 2.1650635e-2 -5.6250000e-2 -5.0000000e-2
v 1.2500000e-2 -5.6250000e-2 -4.0849365e-2
v 0.0000000e+0 -5.6250000e-2 -3.7500000e-2
v -1.2500000e-2 -5.6250000e-2 -4.0849365e-2
v -2.1650635e-2 -5.6250000e-2 -5.0000000e-2
v -2.5000000e-2 -5.6250000e-2 -6.2500000e-2
v -2.1650635e-2 -5.6250000e-2 -7.5000000e-2
v -1.2500000e-2 -5.6250000e-2 -8.4150635e-2
v 6.1232340e-18 -5.6250000e-2 -8.7500000e-2
v 1.2500000e-2 -5.6250000e-2 -8.4150635e-2
v 2.1650635e-2 -5.6250000e-2 -7.5000000e-2
v 2.5000000e-2 -5.6250000e-2 -6.2500000e-2
v 1.0825318e-2 -3.7500000e-2 -6.8750000e-2
v 1.2500000e-2 -3.7500000e-2 -6.2500000e-2
v 1.0825318e-2 -3.7500000e-2 -5.6250000e-2
v 6.2500000e-3 -3.7500000e-2 -5.1674682e-2
v -3.3765740e-18 -3.7500000e-2 -5.0000000e-2
v -6.2500000e-3 -3.7500000e-2 -5.1674682e-2
v -1.0825318e-2 -3.7500000e-2 -5.6250000e-2
v -1.2500000e-2 -3.7500000e-2 -6.2500000e-2
v -1.0825318e-2 -3.7500000e-2 -6.8750000e-2
v -6.2500000e-3 -3.7500000e-2 -7.3325318e-2
v -3.1495695e-19 -3.7500000e-2 -7.5000000e-2
v 6.2500000e-3 -3.7500000e-2 -7.3325318e-2
v -1.6935378e-18 -3.7500000e-2 -6.2500000e-2
v -2.5000000e-2 -2.5000000e-2 -8.7500000e-2
v -3.7500000e-2 -2.5000000e-2 3.7500000e-2
v -2.5000000e-2 2.5000000e-2 -8.7500000e-2
v -3.7500000e-2 2.5000000e-2 3.7500000e-2
v 2.5000000e-2 -2.5000000e-2 -8.7500000e-2
v 3.7500000e-2 -2.5000000e-2 3.7500000e-2
v 2.5000000e-2 2.5000000e-2 -8.7500000e-2
v 3.7500000e-2 2.5000000e-2 3.7500000e-2
vt 5.6003138e-2 0.86088891
vt 5.6003138e-2 0.88796314
vt 6.0352750e-2 0.92728937
vt 6.0352750e-2 0.93903331
vt 6.0352750e-2 0.95104583
vt 6.0352750e-2 0.96280030
vt 6.3572395e-2 0.86088891
vt 6.3572395e-2 0.88796314
vt 6.5903253e-2 0.92728937
vt 6.5903253e-2 0.93903331
vt 6.5903253e-2 0.95104583
vt 6.5903253e-2 0.96280030
vt 7.1141652e-2 0.86088891
vt 7.1141652e-2 0.88796314
vt 7.1293336e-2 0.54498162
vt 7.1341746e-2 0.54497032
vt 7.1341746e-2 0.56446754
vt 7.1665026e-2 0.92728937
vt 7.1665026e-2 0.93903331
vt 7.1665026e-2 0.95104583
vt 7.1665026e-2 0.96280030
vt 7.5355136e-2 0.54498162
vt 7.6387961e-2 0.54497046
vt 7.6387961e-2 0.56446739
vt 7.8459290e-2 0.92728937
vt 7.8459290e-2 0.93903331
vt 7.8459290e-2 0.95104583
vt 7.8459290e-2 0.96280030
vt 7.8710909e-2 0.86088891
vt 7.8710909e-2 0.88796314
vt 8.1434023e-2 0.56446726
vt 8.1434023e-2 0.54497059
vt 8.6280166e-2 0.88796314
vt 8.6280166e-2 0.86088891
vt 8.6452182e-2 0.54498162
vt 8.6480220e-2 0.54497049
vt 8.6480220e-2 0.56446736
vt 8.7371791e-2 0.92728937
vt 8.7371791e-2 0.93903331
vt 8.7371791e-2 0.95104583
vt 8.7371791e-2 0.96280030
vt 9.1526500e-2 0.54497043
vt 9.1526500e-2 0.56446742
vt 9.3849423e-2 0.86088891
vt 9.3849423e-2 0.88796314
vt 9.6572643e-2 0.54497046
vt 9.6572643e-2 0.56446739
vt 9.7359559e-2 0.92728937
vt 9.7359559e-2 0.93903331
vt 9.7359559e-2 0.95104583
vt 9.7359559e-2 0.96280030
vt 0.10141868 0.86088891
vt 0.10141868 0.88796314
vt 0.10161103 0.54498162
vt 0.10161877 0.54497047
vt 0.10161877 0.56446738
vt 0.10666491 0.56446739
vt 0.10666491 0.54497046
vt 0.10797441 0.96280030
vt 0.10804921 0.95104583
vt 0.10805768 0.92728937
vt 0.10805768 0.93903331
vt 0.10898794 0.88796314
vt 0.10898794 0.86088891
vt 0.11171105 0.56446742
vt 0.11171105 0.54497043
vt 0.11655719 0.86088891
vt 0.11655719 0.88796314
vt 0.11675733 0.54497049
vt 0.11675733 0.56446736
vt 0.11676988 0.54498162
vt 0.11887335 0.92728937
vt 0.11887335 0.93903331
vt 0.11887335 0.95104583
vt 0.11887335 0.96280030
vt 0.12180353 0.54497059
vt 0.12180353 0.56446726
vt 0.12412645 0.86088891
vt 0.12412645 0.88796314
vt 0.12684959 0.54497046
vt 0.12684959 0.56446739
vt 0.12786692 0.54498162
vt 0.12906885 0.92728937
vt 0.12906885 0.93903331
vt 0.12906885 0.95104583
vt 0.12906885 0.96280030
vt 0.13169571 0.86088891
vt 0.13169571 0.88796314
vt 0.13189580 0.54497032
vt 0.13189580 0.56446754
vt 0.13192872 0.54498162
vt 0.13580227 0.92728937
vt 0.13580227 0.93903331
vt 0.13580227 0.95104583
vt 0.13580227 0.96280030
vt 0.13926496 0.86088891
vt 0.13926496 0.88796314
vt 0.14067921 0.92728937
vt 0.14067921 0.93903331
vt 0.14067921 0.95104583
vt 0.14067921 0.96280030
vt 0.14440355 0.92728937
vt 0.14440355 0.93903331
vt 0.14440355 0.95104583
vt 0.14440355 0.96280030
vt 0.14683422 0.86088891
vt 0.14683422 0.88796314
vt 0.14765256 0.92728937
vt 0.14765256 0.93903331
vt 0.14765256 0.95104583
vt 0.14765256 0.96280030
vt 0.24479729 0.86199680
vt 0.25458635 0.96000000
vt 0.29374260 0.96000000
vt 0.30353166 0.86199680
vt 0.34465352 0.86031701
vt 0.35444258 0.95832021
vt 0.39359883 0.95832021
vt 0.40338790 0.86031701
vt 0.44329359 0.86093743
vt 0.44329359 0.95867881
vt 0.44354718 0.86093743
vt 0.44354718 0.95867881
vt 0.48226878 0.86093743
vt 0.48226878 0.95867881
vt 0.48250779 0.86093743
vt 0.48250779 0.95867881
vt 0.60352218 0.86141339
vt 0.60352218 0.92038342
vt 0.64299983 0.86141339
vt 0.64299983 0.92038342
vt 0.68148669 0.86090243
vt 0.68148669 0.90005868
vt 0.72064294 0.86090243
vt 0.72064294 0.90005868
vn 0.0000000e+0 -1.00000000 5.7824116e-17
vn 0.0000000e+0 -1.00000000 0.0000000e+0
vn 0.0000000e+0 -1.00000000 0.0000000e+0
vn -1.00000000 -1.3552527e-16 -4.0228561e-16
vn -1.00000000 -1.3552527e-16 -4.0228561e-16
vn 0.0000000e+0 -1.00000000 0.0000000e+0
vn 0.0000000e+0 -1.00000000 0.0000000e+0
vn -0.86602540 -1.2739376e-16 0.50000000
vn -0.86602540 -1.2739376e-16 0.50000000
vn 0.0000000e+0 -1.00000000 0.0000000e+0
vn 0.0000000e+0 -1.00000000 0.0000000e+0
vn -0.50000000 -8.1315163e-17 0.86602540
vn -0.50000000 -8.1315163e-17 0.86602540
vn 0.0000000e+0 -1.00000000 0.0000000e+0
vn 0.0000000e+0 -1.00000000 0.0000000e+0
vn 0.0000000e+0 0.0000000e+0 1.00000000
vn 0.0000000e+0 0.0000000e+0 1.00000000
vn 0.0000000e+0 -1.00000000 0.0000000e+0
vn 0.0000000e+0 -1.00000000 0.0000000e+0
vn 0.50000000 8.1315163e-17 0.86602540
vn 0.50000000 8.1315163e-17 0.86602540
vn 0.0000000e+0 -1.00000000 0.0000000e+0
vn 0.0000000e+0 -1.00000000 0.0000000e+0
vn 0.86602540 1.3010426e-16 0.50000000
vn 0.86602540 1.3010426e-16 0.50000000
vn 0.0000000e+0 -1.00000000 0.0000000e+0
vn 0.0000000e+0 -1.00000000 0.0000000e+0
vn 1.00000000 1.4094628e-16 -2.8734686e-16
vn 1.00000000 1.4094628e-16 -2.8734686e-16
vn 0.0000000e+0 -1.00000000 0.0000000e+0
vn 0.0000000e+0 -1.00000000 0.0000000e+0
vn 0.86602540 1.2468325e-16 -0.50000000
vn 0.86602540 1.2468325e-16 -0.50000000
vn 0.0000000e+0 -1.00000000 0.0000000e+0
vn 0.0000000e+0 -1.00000000 0.0000000e+0
vn 0.50000000 7.8604658e-17 -0.86602540
vn 0.50000000 7.8604658e-17 -0.86602540
vn 0.0000000e+0 -1.00000000 0.0000000e+0
vn 0.0000000e+0 -1.00000000 0.0000000e+0
vn 8.0457122e-16 2.7105054e-18 -1.00000000
vn 8.0457122e-16 2.7105054e-18 -1.00000000
vn 0.0000000e+0 -1.00000000 0.0000000e+0
vn 0.0000000e+0 -1.00000000 0.0000000e+0
vn -0.50000000 -8.1315163e-17 -0.86602540
vn -0.50000000 -8.1315163e-17 -0.86602540
vn 0.0000000e+0 -1.00000000 0.0000000e+0
vn 0.0000000e+0 -1.00000000 0.0000000e+0
vn -0.86602540 -1.2739376e-16 -0.50000000
vn -0.86602540 -1.2739376e-16 -0.50000000
vn 1.00000000 0.0000000e+0 2.8734686e-16
vn 1.00000000 0.0000000e+0 2.8734686e-16
vn 0.86602540 0.0000000e+0 -0.50000000
vn 0.86602540 0.0000000e+0 -0.50000000
vn 0.50000000 0.0000000e+0 -0.86602540
vn 0.50000000 0.0000000e+0 -0.86602540
vn -2.8734686e-17 0.0000000e+0 -1.00000000
vn -2.8734686e-17 0.0000000e+0 -1.00000000
vn -0.50000000 0.0000000e+0 -0.86602540
vn -0.50000000 0.0000000e+0 -0.86602540
vn -0.86602540 0.0000000e+0 -0.50000000
vn -0.86602540 0.0000000e+0 -0.50000000
vn -1.00000000 0.0000000e+0 -8.6204059e-17
vn -1.00000000 0.0000000e+0 -8.6204059e-17
vn -0.86602540 0.0000000e+0 0.50000000
vn -0.86602540 0.0000000e+0 0.50000000
vn -0.50000000 1.1275703e-16 0.86602540
vn -0.50000000 1.1275703e-16 0.86602540
vn -1.7240812e-16 3.3248867e-16 1.00000000
vn -1.7240812e-16 3.3248867e-16 1.00000000
vn 0.50000000 3.0068540e-16 0.86602540
vn 0.50000000 3.0068540e-16 0.86602540
vn 0.86602540 8.0953762e-17 0.50000000
vn 0.86602540 8.0953762e-17 0.50000000
vn 0.86602540 8.0953762e-17 0.50000000
vn 0.86602540 8.0953762e-17 0.50000000
vn 0.0000000e+0 1.00000000 0.0000000e+0
vn 0.0000000e+0 1.00000000 0.0000000e+0
vn 0.50000000 3.0068540e-16 0.86602540
vn 0.50000000 3.0068540e-16 0.86602540
vn 0.0000000e+0 1.00000000 0.0000000e+0
vn 0.0000000e+0 1.00000000 0.0000000e+0
vn -1.7240812e-16 3.3248867e-16 1.00000000
vn -1.7240812e-16 3.3248867e-16 1.00000000
vn 0.0000000e+0 1.00000000 0.0000000e+0
vn 0.0000000e+0 1.00000000 0.0000000e+0
vn -0.50000000 1.1275703e-16 0.86602540
vn -0.50000000 1.1275703e-16 0.86602540
vn 0.0000000e+0 1.00000000 0.0000000e+0
vn 0.0000000e+0 1.00000000 0.0000000e+0
vn -0.86602540 0.0000000e+0 0.50000000
vn -0.86602540 0.0000000e+0 0.50000000
vn 0.0000000e+0 1.00000000 0.0000000e+0
vn 0.0000000e+0 1.00000000 0.0000000e+0
vn -1.00000000 0.0000000e+0 -8.6204059e-17
vn -1.00000000 0.0000000e+0 -8.6204059e-17
vn 0.0000000e+0 1.00000000 0.0000000e+0
vn 0.0000000e+0 1.00000000 0.0000000e+0
vn -0.86602540 0.0000000e+0 -0.50000000
vn -0.86602540 0.0000000e+0 -0.50000000
vn 0.0000000e+0 1.00000000 0.0000000e+0
vn 0.0000000e+0 1.00000000 0.0000000e+0
vn -0.50000000 0.0000000e+0 -0.86602540
vn -0.50000000 0.0000000e+0 -0.86602540
vn 0.0000000e+0 1.00000000 0.0000000e+0
vn 0.0000000e+0 1.00000000 0.0000000e+0
vn -2.8734686e-17 0.0000000e+0 -1.00000000
vn -2.8734686e-17 0.0000000e+0 -1.00000000
vn 0.0000000e+0 1.00000000 0.0000000e+0
vn 0.0000000e+0 1.00000000 0.0000000e+0
vn 0.50000000 0.0000000e+0 -0.86602540
vn 0.50000000 0.0000000e+0 -0.86602540
vn 0.0000000e+0 1.00000000 0.0000000e+0
vn 0.0000000e+0 1.00000000 0.0000000e+0
vn 0.86602540 0.0000000e+0 -0.50000000
vn 0.86602540 0.0000000e+0 -0.50000000
vn 0.0000000e+0 1.00000000 0.0000000e+0
vn 0.0000000e+0 1.00000000 0.0000000e+0
vn 1.00000000 0.0000000e+0 2.8734686e-16
vn 1.00000000 0.0000000e+0 2.8734686e-16
vn 0.0000000e+0 1.00000000 0.0000000e+0
vn 0.0000000e+0 1.00000000 0.0000000e+0
vn 1.00000000 3.0357661e-16 1.7240812e-16
vn 1.00000000 3.0357661e-16 1.7240812e-16
vn 0.0000000e+0 -1.00000000 0.0000000e+0
vn 0.0000000e+0 -1.00000000 0.0000000e+0
vn 0.86602540 1.1275703e-15 -0.50000000
vn 0.86602540 1.1275703e-15 -0.50000000
vn 0.0000000e+0 -1.00000000 0.0000000e+0
vn 0.0000000e+0 -1.00000000 0.0000000e+0
vn 0.50000000 8.2399365e-16 -0.86602540
vn 0.50000000 8.2399365e-16 -0.86602540
vn 0.0000000e+0 -1.00000000 0.0000000e+0
vn 0.0000000e+0 -1.00000000 0.0000000e+0
vn 0.0000000e+0 0.0000000e+0 -1.00000000
vn 0.0000000e+0 0.0000000e+0 -1.00000000
vn 0.0000000e+0 -1.00000000 0.0000000e+0
vn 0.0000000e+0 -1.00000000 0.0000000e+0
vn -0.50000000 0.0000000e+0 -0.86602540
vn -0.50000000 0.0000000e+0 -0.86602540
vn 0.0000000e+0 -1.00000000 0.0000000e+0
vn 0.0000000e+0 -1.00000000 0.0000000e+0
vn -0.86602540 0.0000000e+0 -0.50000000
vn -0.86602540 0.0000000e+0 -0.50000000
vn 0.0000000e+0 -1.00000000 0.0000000e+0
vn 0.0000000e+0 -1.00000000 0.0000000e+0
vn -1.00000000 -1.5178830e-16 1.4367343e-16
vn -1.00000000 -1.5178830e-16 1.4367343e-16
vn 0.0000000e+0 -1.00000000 0.0000000e+0
vn 0.0000000e+0 -1.00000000 0.0000000e+0
vn -0.86602540 -5.8546917e-16 0.50000000
vn -0.86602540 -5.8546917e-16 0.50000000
vn 0.0000000e+0 -1.00000000 0.0000000e+0
vn 0.0000000e+0 -1.00000000 0.0000000e+0
vn -0.50000000 -4.3368087e-16 0.86602540
vn -0.50000000 -4.3368087e-16 0.86602540
vn 0.0000000e+0 -1.00000000 0.0000000e+0
vn 0.0000000e+0 -1.00000000 0.0000000e+0
vn -5.7469373e-16 5.4210109e-16 1.00000000
vn -5.7469373e-16 5.4210109e-16 1.00000000
vn 0.0000000e+0 -1.00000000 0.0000000e+0
vn 0.0000000e+0 -1.00000000 0.0000000e+0
vn 0.50000000 9.7578196e-16 0.86602540
vn 0.50000000 9.7578196e-16 0.86602540
vn 0.0000000e+0 -1.00000000 0.0000000e+0
vn 0.0000000e+0 -1.00000000 0.0000000e+0
vn 0.86602540 4.3368087e-16 0.50000000
vn 0.86602540 4.3368087e-16 0.50000000
vn 0.0000000e+0 -1.00000000 0.0000000e+0
vn 0.0000000e+0 -1.00000000 0.0000000e+0
vn 0.86602540 4.3368087e-16 0.50000000
vn 0.86602540 4.3368087e-16 0.50000000
vn 0.0000000e+0 1.00000000 0.0000000e+0
vn 0.0000000e+0 1.00000000 0.0000000e+0
vn 0.50000000 9.7578196e-16 0.86602540
vn 0.50000000 9.7578196e-16 0.86602540
vn 0.0000000e+0 1.00000000 0.0000000e+0
vn 0.0000000e+0 1.00000000 0.0000000e+0
vn -5.7469373e-16 5.4210109e-16 1.00000000
vn -5.7469373e-16 5.4210109e-16 1.00000000
vn 0.0000000e+0 1.00000000 0.0000000e+0
vn 0.0000000e+0 1.00000000 0.0000000e+0
vn -0.50000000 -4.3368087e-16 0.86602540
vn -0.50000000 -4.3368087e-16 0.86602540
vn 0.0000000e+0 1.00000000 0.0000000e+0
vn 0.0000000e+0 1.00000000 0.0000000e+0
vn -0.86602540 -5.8546917e-16 0.50000000
vn -0.86602540 -5.8546917e-16 0.50000000
vn 0.0000000e+0 1.00000000 0.0000000e+0
vn 0.0000000e+0 1.00000000 0.0000000e+0
vn -1.00000000 -1.5178830e-16 1.4367343e-16
vn -1.00000000 -1.5178830e-16 1.4367343e-16
vn 0.0000000e+0 1.00000000 0.0000000e+0
vn 0.0000000e+0 1.00000000 0.0000000e+0
vn -0.86602540 0.0000000e+0 -0.50000000
vn -0.86602540 0.0000000e+0 -0.50000000
vn 0.0000000e+0 1.00000000 0.0000000e+0
vn 0.0000000e+0 1.00000000 0.0000000e+0
vn -0.50000000 0.0000000e+0 -0.86602540
vn -0.50000000 0.0000000e+0 -0.86602540
vn 0.0000000e+0 1.00000000 0.0000000e+0
vn 0.0000000e+0 1.00000000 0.0000000e+0
vn 0.0000000e+0 0.0000000e+0 -1.00000000
vn 0.0000000e+0 0.0000000e+0 -1.00000000
vn 0.0000000e+0 1.00000000 0.0000000e+0
vn 0.0000000e+0 1.00000000 0.0000000e+0
vn 0.50000000 8.2399365e-16 -0.86602540
vn 0.50000000 8.2399365e-16 -0.86602540
vn 0.0000000e+0 1.00000000 0.0000000e+0
vn 0.0000000e+0 1.00000000 0.0000000e+0
vn 0.86602540 1.1275703e-15 -0.50000000
vn 0.86602540 1.1275703e-15 -0.50000000
vn 0.0000000e+0 1.00000000 0.0000000e+0
vn 0.0000000e+0 1.00000000 0.0000000e+0
vn 1.00000000 3.0357661e-16 1.7240812e-16
vn 1.00000000 3.0357661e-16 1.7240812e-16
vn 0.0000000e+0 1.00000000 0.0000000e+0
vn 0.0000000e+0 1.00000000 0.0000000e+0
vn -0.86602540 -1.2739376e-16 0.50000000
vn -0.86602540 -1.2739376e-16 0.50000000
vn 0.0000000e+0 -1.00000000 1.7347235e-16
vn 0.0000000e+0 -1.00000000 1.7347235e-16
vn -1.00000000 -1.3552527e-16 -4.0228561e-16
vn -1.00000000 -1.3552527e-16 -4.0228561e-16
vn 0.0000000e+0 -1.00000000 5.2041704e-16
vn 0.0000000e+0 -1.00000000 5.2041704e-16
vn -0.86602540 -1.2739376e-16 -0.50000000
vn -0.86602540 -1.2739376e-16 -0.50000000
vn 0.0000000e+0 -1.00000000 0.0000000e+0
vn 0.0000000e+0 -1.00000000 0.0000000e+0
vn -0.50000000 -8.1315163e-17 -0.86602540
vn -0.50000000 -8.1315163e-17 -0.86602540
vn 0.0000000e+0 -1.00000000 -3.4694470e-16
vn 0.0000000e+0 -1.00000000 -3.4694470e-16
vn 8.0457122e-16 2.7105054e-18 -1.00000000
vn 8.0457122e-16 2.7105054e-18 -1.00000000
vn 0.0000000e+0 -1.00000000 -6.9025329e-31
vn 0.0000000e+0 -1.00000000 -6.9025329e-31
vn 0.50000000 7.8604658e-17 -0.86602540
vn 0.50000000 7.8604658e-17 -0.86602540
vn 0.0000000e+0 -1.00000000 -3.9443045e-31
vn 0.0000000e+0 -1.00000000 -3.9443045e-31
vn 0.86602540 1.2468325e-16 -0.50000000
vn 0.86602540 1.2468325e-16 -0.50000000
vn 0.0000000e+0 -1.00000000 -1.7347235e-16
vn 0.0000000e+0 -1.00000000 -1.7347235e-16
vn 1.00000000 1.4094628e-16 -2.8734686e-16
vn 1.00000000 1.4094628e-16 -2.8734686e-16
vn 0.0000000e+0 -1.00000000 1.7347235e-16
vn 0.0000000e+0 -1.00000000 1.7347235e-16
vn 0.86602540 1.3010426e-16 0.50000000
vn 0.86602540 1.3010426e-16 0.50000000
vn 0.0000000e+0 -1.00000000 3.4694470e-16
vn 0.0000000e+0 -1.00000000 3.4694470e-16
vn 0.50000000 8.1315163e-17 0.86602540
vn 0.50000000 8.1315163e-17 0.86602540
vn 0.0000000e+0 -1.00000000 3.4694470e-16
vn 0.0000000e+0 -1.00000000 3.4694470e-16
vn 0.0000000e+0 0.0000000e+0 1.00000000
vn 0.0000000e+0 0.0000000e+0 1.00000000
vn 0.0000000e+0 -1.00000000 0.0000000e+0
vn 0.0000000e+0 -1.00000000 0.0000000e+0
vn -0.50000000 -8.1315163e-17 0.86602540
vn -0.50000000 -8.1315163e-17 0.86602540
vn 0.0000000e+0 -1.00000000 -3.4694470e-16
vn 0.0000000e+0 -1.00000000 -3.4694470e-16
vn 0.0000000e+0 -1.00000000 0.0000000e+0
vn 0.0000000e+0 0.0000000e+0 -1.00000000
vn -0.99503719 0.0000000e+0 -9.9503719e-2
vn 0.0000000e+0 -1.00000000 0.0000000e+0
vn 0.0000000e+0 0.0000000e+0 1.00000000
vn -0.99503719 0.0000000e+0 -9.9503719e-2
vn 0.0000000e+0 1.00000000 0.0000000e+0
vn 0.0000000e+0 0.0000000e+0 -1.00000000
vn -0.99503719 0.0000000e+0 -9.9503719e-2
vn 0.0000000e+0 1.00000000 0.0000000e+0
vn 0.0000000e+0 0.0000000e+0 1.00000000
vn -0.99503719 0.0000000e+0 -9.9503719e-2
vn 0.0000000e+0 -1.00000000 0.0000000e+0
vn 0.0000000e+0 0.0000000e+0 -1.00000000
vn 0.99503719 0.0000000e+0 -9.9503719e-2
vn 0.0000000e+0 -1.00000000 0.0000000e+0
vn 0.0000000e+0 0.0000000e+0 1.00000000
vn 0.99503719 0.0000000e+0 -9.9503719e-2
vn 0.0000000e+0 1.00000000 0.0000000e+0
vn 0.0000000e+0 0.0000000e+0 -1.00000000
vn 0.99503719 0.0000000e+0 -9.9503719e-2
vn 0.0000000e+0 1.00000000 0.0000000e+0
vn 0.0000000e+0 0.0000000e+0 1.00000000
vn 0.99503719 0.0000000e+0 -9.9503719e-2
g mesh1
usemtl mesh1_auv
s 1
f 1/92/3 37/93/125 48/84/169 12/83/47
f 2/98/6 38/99/128 37/93/124 1/92/2
f 3/102/11 39/103/133 38/99/129 2/98/7
f 4/108/14 40/109/136 39/103/132 3/102/10
f 5/9/19 41/10/141 40/4/137 4/3/15
f 6/18/22 42/19/144 41/10/140 5/9/18
f 7/25/27 43/26/149 42/19/145 6/18/23
f 8/38/30 44/39/152 43/26/148 7/25/26
f 9/48/35 45/49/157 44/39/153 8/38/31
f 10/61/38 46/62/160 45/49/156 9/48/34
f 11/72/43 47/73/165 46/62/161 10/61/39
f 12/83/46 48/84/168 47/73/164 11/72/42
f 25/86/77 49/85/173 60/94/217 36/95/121
f 26/75/80 50/74/176 49/85/172 25/86/76
f 27/59/84 51/60/180 50/74/177 26/75/81
f 28/51/89 52/50/185 51/60/181 27/59/85
f 29/41/93 53/40/189 52/50/184 28/51/88
f 30/28/96 54/27/192 53/40/188 29/41/92
f 31/21/101 55/20/197 54/27/193 30/28/97
f 32/12/105 56/11/201 55/20/196 31/21/100
f 33/6/108 57/5/204 56/11/200 32/12/104
f 34/105/113 58/104/209 57/110/205 33/111/109
f 35/101/116 59/100/212 58/104/208 34/105/112
f 36/95/120 60/94/216 59/100/213 35/101/117
f 61/22/221 73/54/1 72/35/265
f 62/15/224 73/54/1 61/22/220
f 63/22/228 73/54/1 62/15/225
f 64/35/232 73/54/1 63/22/229
f 65/54/236 73/54/1 64/35/233
f 66/71/240 73/54/1 65/54/237
f 67/82/244 73/54/1 66/71/241
f 68/91/248 73/54/1 67/82/245
f 69/82/252 73/54/1 68/91/249
f 70/71/256 73/54/1 69/82/253
f 71/54/260 73/54/1 70/71/257
f 72/35/264 73/54/1 71/54/261
f 74/118/266 78/117/278 79/116/281 75/119/269
f 77/112/275 81/115/287 80/114/284 76/113/272
s 2
f 1/70/4 62/69/222 61/76/218 2/77/8
f 2/77/9 61/76/219 72/80/263 3/81/13
f 3/81/12 72/80/262 71/89/259 4/90/17
f 4/17/16 71/16/258 70/23/255 5/24/21
f 5/24/20 70/23/254 69/32/251 6/31/25
f 6/31/24 69/32/250 68/36/247 7/37/29
f 7/37/28 68/36/246 67/42/243 8/43/33
f 8/43/32 67/42/242 66/46/239 9/47/37
f 9/47/36 66/46/238 65/55/235 10/56/41
f 10/56/40 65/55/234 64/58/231 11/57/45
f 11/57/44 64/58/230 63/66/227 12/65/49
f 12/65/48 63/66/226 62/69/223 1/70/5
f 13/79/51 36/78/119 35/87/115 14/88/53
f 14/88/52 35/87/114 34/96/111 15/97/55
f 15/97/54 34/96/110 33/106/107 16/107/57
f 16/2/56 33/1/106 32/7/103 17/8/59
f 17/8/58 32/7/102 31/13/99 18/14/61
f 18/14/60 31/13/98 30/29/95 19/30/63
f 19/30/62 30/29/94 29/34/91 20/33/65
f 20/33/64 29/34/90 28/44/87 21/45/67
f 21/45/66 28/44/86 27/52/83 22/53/69
f 22/53/68 27/52/82 26/64/79 23/63/71
f 23/63/70 26/64/78 25/67/75 24/68/73
f 24/68/72 25/67/74 36/78/118 13/79/50
f 37/93/123 38/99/127 59/100/211 60/94/215
f 38/99/126 39/103/131 58/104/207 59/100/210
f 39/103/130 40/109/135 57/110/203 58/104/206
f 40/4/134 41/10/139 56/11/199 57/5/202
f 41/10/138 42/19/143 55/20/195 56/11/198
f 42/19/142 43/26/147 54/27/191 55/20/194
f 43/26/146 44/39/151 53/40/187 54/27/190
f 44/39/150 45/49/155 52/50/183 53/40/186
f 45/49/154 46/62/159 51/60/179 52/50/182
f 46/62/158 47/73/163 50/74/175 51/60/178
f 47/73/162 48/84/167 49/85/171 50/74/174
f 60/94/214 49/85/170 48/84/166 37/93/122
f 75/129/270 79/128/282 81/130/288 77/131/276
f 76/135/273 80/133/285 78/132/279 74/134/267
s 3
f 75/127/271 77/121/277 76/120/274 74/126/268
f 78/122/280 80/124/286 81/125/289 79/123/283
