# Exported from Wings 3D 1.5.4
mtllib lrbase.mtl
o 1
#14 vertices, 11 faces
v -3.7500000e-2 -2.5000000e-2 3.7500000e-2
v -3.7500000e-2 2.5000000e-2 3.7500000e-2
v 3.7500000e-2 -2.5000000e-2 3.7500000e-2
v 3.7500000e-2 2.5000000e-2 3.7500000e-2
v -3.7500000e-2 2.5000000e-2 -5.0000000e-2
v -3.7500000e-2 -2.5000000e-2 -5.0000000e-2
v -3.7500000e-2 -1.7677670e-2 -6.7677670e-2
v -3.7500000e-2 -1.0408341e-18 -7.5000000e-2
v -3.7500000e-2 1.7677670e-2 -6.7677670e-2
v 3.7500000e-2 2.5000000e-2 -5.0000000e-2
v 3.7500000e-2 -2.5000000e-2 -5.0000000e-2
v 3.7500000e-2 -1.7677670e-2 -6.7677670e-2
v 3.7500000e-2 -7.1640681e-18 -7.5000000e-2
v 3.7500000e-2 1.7677670e-2 -6.7677670e-2
vt 2.0467706e-2 3.9903967e-2
vt 2.0467706e-2 7.4629190e-2
vt 2.0467706e-2 8.2266699e-2
vt 2.0467706e-2 8.9904207e-2
vt 2.0467706e-2 9.7541715e-2
vt 2.0467706e-2 0.10517922
vt 2.0467706e-2 0.13928174
vt 4.9981900e-2 3.9903967e-2
vt 4.9981900e-2 7.4629190e-2
vt 4.9981900e-2 8.2266699e-2
vt 4.9981900e-2 8.9904207e-2
vt 4.9981900e-2 9.7541715e-2
vt 4.9981900e-2 0.10517922
vt 4.9981900e-2 0.13928174
vt 7.1117098e-2 2.9301016e-2
vt 7.1117098e-2 6.3584315e-2
vt 7.1117098e-2 9.4645869e-2
vt 7.1117098e-2 0.12908987
vt 7.4039846e-2 2.2244878e-2
vt 7.4039846e-2 0.13614601
vt 8.1095984e-2 1.9322131e-2
vt 8.1095984e-2 0.13906875
vt 8.8152121e-2 2.2244878e-2
vt 8.8152121e-2 0.13614601
vt 9.1074869e-2 2.9301016e-2
vt 9.1074869e-2 6.3584315e-2
vt 9.1074869e-2 9.4645869e-2
vt 9.1074869e-2 0.12908987
vn 0.0000000e+0 -1.00000000 0.0000000e+0
vn 0.0000000e+0 0.0000000e+0 1.00000000
vn -1.00000000 0.0000000e+0 0.0000000e+0
vn 0.0000000e+0 1.00000000 -3.9650822e-17
vn 0.0000000e+0 0.0000000e+0 1.00000000
vn -1.00000000 0.0000000e+0 0.0000000e+0
vn 0.0000000e+0 -1.00000000 0.0000000e+0
vn 0.0000000e+0 0.0000000e+0 1.00000000
vn 1.00000000 0.0000000e+0 0.0000000e+0
vn 0.0000000e+0 1.00000000 -3.9650822e-17
vn 0.0000000e+0 0.0000000e+0 1.00000000
vn 1.00000000 0.0000000e+0 0.0000000e+0
vn 2.8886616e-17 0.98078528 -0.19509032
vn -1.00000000 -6.1331737e-17 0.0000000e+0
vn -1.00000000 -6.1331737e-17 0.0000000e+0
vn 2.8886616e-17 0.98078528 -0.19509032
vn -2.8886616e-17 -0.98078528 -0.19509032
vn -1.00000000 -6.1331737e-17 0.0000000e+0
vn -1.00000000 -6.1331737e-17 0.0000000e+0
vn -2.8886616e-17 -0.98078528 -0.19509032
vn -1.00000000 -1.2266347e-16 0.0000000e+0
vn -5.6220759e-17 -0.70710678 -0.70710678
vn -5.6220759e-17 -0.70710678 -0.70710678
vn -1.00000000 -1.2266347e-16 0.0000000e+0
vn 1.0006135e-32 -3.3046660e-16 -1.00000000
vn 1.0006135e-32 -3.3046660e-16 -1.00000000
vn -1.00000000 -1.2266347e-16 0.0000000e+0
vn 5.6220759e-17 0.70710678 -0.70710678
vn 5.6220759e-17 0.70710678 -0.70710678
vn 2.8886616e-17 0.98078528 -0.19509032
vn 1.00000000 -6.1331737e-17 0.0000000e+0
vn 2.8886616e-17 0.98078528 -0.19509032
vn 1.00000000 -6.1331737e-17 0.0000000e+0
vn -2.8886616e-17 -0.98078528 -0.19509032
vn 1.00000000 -6.1331737e-17 0.0000000e+0
vn -2.8886616e-17 -0.98078528 -0.19509032
vn 1.00000000 -6.1331737e-17 0.0000000e+0
vn -5.6220759e-17 -0.70710678 -0.70710678
vn -5.6220759e-17 -0.70710678 -0.70710678
vn 1.00000000 -1.2266347e-16 0.0000000e+0
vn 1.0006135e-32 -3.3046660e-16 -1.00000000
vn 1.0006135e-32 -3.3046660e-16 -1.00000000
vn 1.00000000 -1.2266347e-16 0.0000000e+0
vn 5.6220759e-17 0.70710678 -0.70710678
vn 5.6220759e-17 0.70710678 -0.70710678
vn 1.00000000 -1.2266347e-16 0.0000000e+0
g 1_1_auv
usemtl 1_auv
s 1
f 1/26/2 3/27/8 4/17/11 2/16/5
s 2
f 1/26/3 2/16/6 5/15/14 6/25/18
f 5/15/15 9/19/27 8/21/24 7/23/21 6/25/19
f 11/28/35 10/18/31 4/17/12 3/27/9
f 11/28/37 12/24/40 13/22/43 14/20/46 10/18/33
s 3
f 2/14/4 4/7/10 10/6/30 5/13/13
f 6/9/20 7/10/23 12/3/39 11/2/36
f 6/9/17 11/2/34 3/1/7 1/8/1
f 8/11/26 13/4/42 12/3/38 7/10/22
f 9/12/29 14/5/45 13/4/41 8/11/25
f 10/6/32 14/5/44 9/12/28 5/13/16
