# Exported from Wings 3D 1.5.4
mtllib lrlid.mtl
o 1
#12 vertices, 8 faces
v 0.15877177 0.0000000e+0 -7.5000000e-2
v 0.11547037 0.0000000e+0 0.0000000e+0
v 0.11547037 0.0000000e+0 -0.15000000
v -0.15877177 0.0000000e+0 -7.5000000e-2
v -0.11547037 0.0000000e+0 0.0000000e+0
v -0.11547037 0.0000000e+0 -0.15000000
v 0.11547037 -2.5000000e-2 -0.15000000
v 0.15877177 -2.5000000e-2 -7.5000000e-2
v 0.11547037 -2.5000000e-2 0.0000000e+0
v -0.11547037 -2.5000000e-2 0.0000000e+0
v -0.15877177 -2.5000000e-2 -7.5000000e-2
v -0.11547037 -2.5000000e-2 -0.15000000
vt 3.5552758e-2 0.95007270
vt 3.5773720e-2 0.86917328
vt 5.2452889e-2 0.92080090
vt 5.2452889e-2 0.97934450
vt 5.2673851e-2 0.83990149
vt 5.2673851e-2 0.89844508
vt 0.10451653 0.20635967
vt 0.10451653 0.24081803
vt 0.10451653 0.33095203
vt 0.10451653 0.36443448
vt 0.11406954 0.20635967
vt 0.11406954 0.24081803
vt 0.11406954 0.36443448
vt 0.11406954 0.33095203
vt 0.14258689 0.92080090
vt 0.14258689 0.97934450
vt 0.14280786 0.83990149
vt 0.14280786 0.89844508
vt 0.15948702 0.95007270
vt 0.15970799 0.86917328
vt 0.21750742 0.98008619
vt 0.21750742 0.82201138
vt 0.21750742 0.85549383
vt 0.21750742 0.94562783
vt 0.22706042 0.98008619
vt 0.22706042 0.82201138
vt 0.22706042 0.85549383
vt 0.22706042 0.94562783
vn 0.0000000e+0 1.00000000 0.0000000e+0
vn 0.86602475 0.0000000e+0 -0.50000112
vn 0.86602475 0.0000000e+0 0.50000112
vn 0.0000000e+0 1.00000000 0.0000000e+0
vn 0.86602475 0.0000000e+0 0.50000112
vn 0.0000000e+0 0.0000000e+0 1.00000000
vn 0.0000000e+0 1.00000000 0.0000000e+0
vn 0.86602475 0.0000000e+0 -0.50000112
vn 0.0000000e+0 0.0000000e+0 -1.00000000
vn 0.0000000e+0 1.00000000 0.0000000e+0
vn -0.86602475 0.0000000e+0 0.50000112
vn -0.86602475 0.0000000e+0 -0.50000112
vn 0.0000000e+0 1.00000000 0.0000000e+0
vn 0.0000000e+0 0.0000000e+0 1.00000000
vn -0.86602475 0.0000000e+0 0.50000112
vn 0.0000000e+0 1.00000000 0.0000000e+0
vn -0.86602475 0.0000000e+0 -0.50000112
vn 0.0000000e+0 0.0000000e+0 -1.00000000
vn 0.0000000e+0 -1.00000000 1.5813794e-17
vn 0.86602475 0.0000000e+0 -0.50000112
vn 0.0000000e+0 0.0000000e+0 -1.00000000
vn 0.0000000e+0 -1.00000000 1.5813794e-17
vn 0.86602475 0.0000000e+0 -0.50000112
vn 0.86602475 0.0000000e+0 0.50000112
vn 0.0000000e+0 -1.00000000 1.5813794e-17
vn 0.86602475 0.0000000e+0 0.50000112
vn 0.0000000e+0 0.0000000e+0 1.00000000
vn 0.0000000e+0 -1.00000000 1.5813794e-17
vn 0.0000000e+0 0.0000000e+0 1.00000000
vn -0.86602475 0.0000000e+0 0.50000112
vn 0.0000000e+0 -1.00000000 1.5813794e-17
vn -0.86602475 0.0000000e+0 0.50000112
vn -0.86602475 0.0000000e+0 -0.50000112
vn 0.0000000e+0 -1.00000000 1.5813794e-17
vn -0.86602475 0.0000000e+0 -0.50000112
vn 0.0000000e+0 0.0000000e+0 -1.00000000
g 1_1_auv
usemtl 1_auv
s 1
f 1/7/2 8/11/23 7/12/20 3/8/8
f 4/21/11 11/25/32 10/28/30 5/24/15
s 2
f 5/24/14 10/28/29 9/27/27 2/23/6
f 6/9/17 12/14/35 11/13/33 4/10/12
s 3
f 2/3/4 1/1/1 3/4/7 6/16/16 4/19/10 5/15/13
f 8/2/22 9/5/25 10/17/28 11/20/31 12/18/34 7/6/19
s 4
f 2/23/5 9/27/26 8/26/24 1/22/3
f 3/8/9 7/12/21 12/14/36 6/9/18
