# Exported from Wings 3D 1.5.4
mtllib prop_m_avionics_s0_1_skid.mtl
o mesh1
#48 vertices, 36 faces
v 0.10000000 2.5000000e-2 0.0000000e+0
v 0.10000000 1.7677670e-2 1.7677670e-2
v 0.10000000 -2.0991853e-18 3.7500000e-2
v 0.10000000 -2.5000000e-2 -3.7500000e-2
v 0.10000000 -8.2224193e-18 -3.7500000e-2
v 0.10000000 1.7677670e-2 -1.7677670e-2
v 0.12500000 2.5000000e-2 0.0000000e+0
v 0.12500000 1.7677670e-2 1.7677670e-2
v 0.12500000 -5.1608023e-18 3.7500000e-2
v 0.12500000 -2.5000000e-2 -3.7500000e-2
v 0.12500000 -1.1284036e-17 -3.7500000e-2
v 0.12500000 1.7677670e-2 -1.7677670e-2
v 0.10000000 2.5000000e-2 0.15000000
v 0.10000000 1.7677670e-2 0.16767767
v 0.10000000 -2.0991853e-18 0.18750000
v 0.10000000 -2.5000000e-2 0.18750000
v 0.10000000 -8.2224193e-18 0.11250000
v 0.10000000 1.7677670e-2 0.13232233
v 0.12500000 2.5000000e-2 0.15000000
v 0.12500000 1.7677670e-2 0.16767767
v 0.12500000 -5.1608023e-18 0.18750000
v 0.12500000 -2.5000000e-2 0.18750000
v 0.12500000 -1.1284036e-17 0.11250000
v 0.12500000 1.7677670e-2 0.13232233
v -0.10000000 2.5000000e-2 0.0000000e+0
v -0.10000000 1.7677670e-2 1.7677670e-2
v -0.10000000 -2.0991853e-18 3.7500000e-2
v -0.10000000 -2.5000000e-2 -3.7500000e-2
v -0.10000000 -8.2224193e-18 -3.7500000e-2
v -0.10000000 1.7677670e-2 -1.7677670e-2
v -0.12500000 2.5000000e-2 0.0000000e+0
v -0.12500000 1.7677670e-2 1.7677670e-2
v -0.12500000 -5.1608023e-18 3.7500000e-2
v -0.12500000 -2.5000000e-2 -3.7500000e-2
v -0.12500000 -1.1284036e-17 -3.7500000e-2
v -0.12500000 1.7677670e-2 -1.7677670e-2
v -0.10000000 2.5000000e-2 0.15000000
v -0.10000000 1.7677670e-2 0.16767767
v -0.10000000 -2.0991853e-18 0.18750000
v -0.10000000 -2.5000000e-2 0.18750000
v -0.10000000 -8.2224193e-18 0.11250000
v -0.10000000 1.7677670e-2 0.13232233
v -0.12500000 2.5000000e-2 0.15000000
v -0.12500000 1.7677670e-2 0.16767767
v -0.12500000 -5.1608023e-18 0.18750000
v -0.12500000 -2.5000000e-2 0.18750000
v -0.12500000 -1.1284036e-17 0.11250000
v -0.12500000 1.7677670e-2 0.13232233
vn -1.00000000 0.0000000e+0 4.5986943e-16
vn 9.1997605e-17 1.00000000 -1.2016967e-16
vn 9.1997605e-17 1.00000000 -1.2016967e-16
vn -1.00000000 0.0000000e+0 4.5986943e-16
vn 4.9436360e-17 0.84699778 0.53159643
vn 4.9436360e-17 0.84699778 0.53159643
vn -1.00000000 0.0000000e+0 2.2993472e-16
vn 4.0821120e-17 0.74632735 0.66557907
vn 1.2246468e-16 1.00000000 8.1643120e-17
vn -1.00000000 0.0000000e+0 2.2993472e-16
vn -1.00000000 0.0000000e+0 2.2993472e-16
vn -2.0816682e-16 -1.00000000 3.8549411e-17
vn 0.0000000e+0 0.0000000e+0 -1.00000000
vn -1.00000000 0.0000000e+0 2.2993472e-16
vn -1.00000000 0.0000000e+0 4.5986943e-16
vn 1.6328448e-16 0.74632735 -0.66557907
vn 0.0000000e+0 0.0000000e+0 -1.00000000
vn -1.00000000 0.0000000e+0 4.5986943e-16
vn 1.4027525e-16 0.84699778 -0.53159643
vn 1.4027525e-16 0.84699778 -0.53159643
vn 1.00000000 0.0000000e+0 -3.1487216e-16
vn 9.1997605e-17 1.00000000 -1.2016967e-16
vn 9.1997605e-17 1.00000000 -1.2016967e-16
vn 1.00000000 0.0000000e+0 -3.1487216e-16
vn 4.9436360e-17 0.84699778 0.53159643
vn 4.9436360e-17 0.84699778 0.53159643
vn 1.00000000 0.0000000e+0 -1.5743608e-16
vn 4.0821120e-17 0.74632735 0.66557907
vn 1.2246468e-16 1.00000000 8.1643120e-17
vn 1.00000000 0.0000000e+0 -1.5743608e-16
vn 1.00000000 0.0000000e+0 -1.5743608e-16
vn -2.0816682e-16 -1.00000000 3.8549411e-17
vn 0.0000000e+0 0.0000000e+0 -1.00000000
vn 1.00000000 0.0000000e+0 -1.5743608e-16
vn 1.00000000 0.0000000e+0 -3.1487216e-16
vn 1.6328448e-16 0.74632735 -0.66557907
vn 0.0000000e+0 0.0000000e+0 -1.00000000
vn 1.00000000 0.0000000e+0 -3.1487216e-16
vn 1.4027525e-16 0.84699778 -0.53159643
vn 1.4027525e-16 0.84699778 -0.53159643
vn -1.00000000 0.0000000e+0 4.5986943e-16
vn 9.1997605e-17 1.00000000 -1.2016967e-16
vn 9.1997605e-17 1.00000000 -1.2016967e-16
vn -1.00000000 0.0000000e+0 4.5986943e-16
vn 4.9436360e-17 0.84699778 0.53159643
vn 4.9436360e-17 0.84699778 0.53159643
vn -1.00000000 0.0000000e+0 4.5986943e-16
vn 0.0000000e+0 0.0000000e+0 1.00000000
vn 4.0821120e-17 0.74632735 0.66557907
vn -1.00000000 0.0000000e+0 2.2993472e-16
vn -2.0816682e-16 -1.00000000 3.8549411e-17
vn 0.0000000e+0 0.0000000e+0 1.00000000
vn -1.00000000 0.0000000e+0 2.2993472e-16
vn -1.00000000 0.0000000e+0 2.2993472e-16
vn 1.6328448e-16 0.74632735 -0.66557907
vn 1.2246468e-16 1.00000000 8.1643120e-17
vn -1.00000000 0.0000000e+0 2.2993472e-16
vn -1.00000000 0.0000000e+0 4.5986943e-16
vn 1.4027525e-16 0.84699778 -0.53159643
vn 1.4027525e-16 0.84699778 -0.53159643
vn 1.00000000 0.0000000e+0 -3.1487216e-16
vn 9.1997605e-17 1.00000000 -1.2016967e-16
vn 9.1997605e-17 1.00000000 -1.2016967e-16
vn 1.00000000 0.0000000e+0 -3.1487216e-16
vn 4.9436360e-17 0.84699778 0.53159643
vn 4.9436360e-17 0.84699778 0.53159643
vn 1.00000000 0.0000000e+0 -3.1487216e-16
vn 0.0000000e+0 0.0000000e+0 1.00000000
vn 4.0821120e-17 0.74632735 0.66557907
vn 1.00000000 0.0000000e+0 -1.5743608e-16
vn -2.0816682e-16 -1.00000000 3.8549411e-17
vn 0.0000000e+0 0.0000000e+0 1.00000000
vn 1.00000000 0.0000000e+0 -1.5743608e-16
vn 1.00000000 0.0000000e+0 -1.5743608e-16
vn 1.6328448e-16 0.74632735 -0.66557907
vn 1.2246468e-16 1.00000000 8.1643120e-17
vn 1.00000000 0.0000000e+0 -1.5743608e-16
vn 1.00000000 0.0000000e+0 -3.1487216e-16
vn 1.4027525e-16 0.84699778 -0.53159643
vn 1.4027525e-16 0.84699778 -0.53159643
vn 1.00000000 0.0000000e+0 4.5986943e-16
vn -9.1997605e-17 1.00000000 -1.2016967e-16
vn -9.1997605e-17 1.00000000 -1.2016967e-16
vn 1.00000000 0.0000000e+0 4.5986943e-16
vn -4.9436360e-17 0.84699778 0.53159643
vn -4.9436360e-17 0.84699778 0.53159643
vn 1.00000000 0.0000000e+0 2.2993472e-16
vn -4.0821120e-17 0.74632735 0.66557907
vn -1.2246468e-16 1.00000000 8.1643120e-17
vn 1.00000000 0.0000000e+0 2.2993472e-16
vn 1.00000000 0.0000000e+0 2.2993472e-16
vn 2.0816682e-16 -1.00000000 3.8549411e-17
vn 0.0000000e+0 0.0000000e+0 -1.00000000
vn 1.00000000 0.0000000e+0 2.2993472e-16
vn 1.00000000 0.0000000e+0 4.5986943e-16
vn -1.6328448e-16 0.74632735 -0.66557907
vn 0.0000000e+0 0.0000000e+0 -1.00000000
vn 1.00000000 0.0000000e+0 4.5986943e-16
vn -1.4027525e-16 0.84699778 -0.53159643
vn -1.4027525e-16 0.84699778 -0.53159643
vn -1.00000000 0.0000000e+0 -3.1487216e-16
vn -9.1997605e-17 1.00000000 -1.2016967e-16
vn -9.1997605e-17 1.00000000 -1.2016967e-16
vn -1.00000000 0.0000000e+0 -3.1487216e-16
vn -4.9436360e-17 0.84699778 0.53159643
vn -4.9436360e-17 0.84699778 0.53159643
vn -1.00000000 0.0000000e+0 -1.5743608e-16
vn -4.0821120e-17 0.74632735 0.66557907
vn -1.2246468e-16 1.00000000 8.1643120e-17
vn -1.00000000 0.0000000e+0 -1.5743608e-16
vn -1.00000000 0.0000000e+0 -1.5743608e-16
vn 2.0816682e-16 -1.00000000 3.8549411e-17
vn 0.0000000e+0 0.0000000e+0 -1.00000000
vn -1.00000000 0.0000000e+0 -1.5743608e-16
vn -1.00000000 0.0000000e+0 -3.1487216e-16
vn -1.6328448e-16 0.74632735 -0.66557907
vn 0.0000000e+0 0.0000000e+0 -1.00000000
vn -1.00000000 0.0000000e+0 -3.1487216e-16
vn -1.4027525e-16 0.84699778 -0.53159643
vn -1.4027525e-16 0.84699778 -0.53159643
vn 1.00000000 0.0000000e+0 4.5986943e-16
vn -9.1997605e-17 1.00000000 -1.2016967e-16
vn -9.1997605e-17 1.00000000 -1.2016967e-16
vn 1.00000000 0.0000000e+0 4.5986943e-16
vn -4.9436360e-17 0.84699778 0.53159643
vn -4.9436360e-17 0.84699778 0.53159643
vn 1.00000000 0.0000000e+0 4.5986943e-16
vn 0.0000000e+0 0.0000000e+0 1.00000000
vn -4.0821120e-17 0.74632735 0.66557907
vn 1.00000000 0.0000000e+0 2.2993472e-16
vn 2.0816682e-16 -1.00000000 3.8549411e-17
vn 0.0000000e+0 0.0000000e+0 1.00000000
vn 1.00000000 0.0000000e+0 2.2993472e-16
vn 1.00000000 0.0000000e+0 2.2993472e-16
vn -1.6328448e-16 0.74632735 -0.66557907
vn -1.2246468e-16 1.00000000 8.1643120e-17
vn 1.00000000 0.0000000e+0 2.2993472e-16
vn 1.00000000 0.0000000e+0 4.5986943e-16
vn -1.4027525e-16 0.84699778 -0.53159643
vn -1.4027525e-16 0.84699778 -0.53159643
vn -1.00000000 0.0000000e+0 -3.1487216e-16
vn -9.1997605e-17 1.00000000 -1.2016967e-16
vn -9.1997605e-17 1.00000000 -1.2016967e-16
vn -1.00000000 0.0000000e+0 -3.1487216e-16
vn -4.9436360e-17 0.84699778 0.53159643
vn -4.9436360e-17 0.84699778 0.53159643
vn -1.00000000 0.0000000e+0 -3.1487216e-16
vn 0.0000000e+0 0.0000000e+0 1.00000000
vn -4.0821120e-17 0.74632735 0.66557907
vn -1.00000000 0.0000000e+0 -1.5743608e-16
vn 2.0816682e-16 -1.00000000 3.8549411e-17
vn 0.0000000e+0 0.0000000e+0 1.00000000
vn -1.00000000 0.0000000e+0 -1.5743608e-16
vn -1.00000000 0.0000000e+0 -1.5743608e-16
vn -1.6328448e-16 0.74632735 -0.66557907
vn -1.2246468e-16 1.00000000 8.1643120e-17
vn -1.00000000 0.0000000e+0 -1.5743608e-16
vn -1.00000000 0.0000000e+0 -3.1487216e-16
vn -1.4027525e-16 0.84699778 -0.53159643
vn -1.4027525e-16 0.84699778 -0.53159643
g mesh1
usemtl default
s 1
f 1//1 6//18 5//15 4//11 3//7 2//4
f 3//10 4//14 16//53 17//57
f 8//24 9//27 10//31 11//35 12//38 7//21
f 13//41 18//58 17//54 16//50 15//47 14//44
f 20//64 21//67 22//70 23//74 24//78 19//61
f 23//77 22//73 10//34 9//30
f 28//93 34//113 35//117 29//97
f 33//109 47//156 41//136 27//89
f 39//128 45//148 46//152 40//132
s 2
f 1//2 7//22 12//39 6//19
f 2//6 8//26 7//23 1//3
f 3//8 9//28 8//25 2//5
f 6//20 12//40 11//36 5//16
f 10//32 22//71 16//51 4//12
f 13//42 19//62 24//79 18//59
f 14//46 20//66 19//63 13//43
f 15//49 21//69 20//65 14//45
f 18//60 24//80 23//75 17//55
f 25//83 31//103 32//106 26//86
f 26//85 32//105 33//108 27//88
f 28//92 40//131 46//151 34//112
f 29//96 35//116 36//120 30//100
f 30//99 36//119 31//102 25//82
f 37//123 43//143 44//146 38//126
f 38//125 44//145 45//149 39//129
f 41//135 47//155 48//160 42//140
f 42//139 48//159 43//142 37//122
s 3
f 3//9 17//56 23//76 9//29
f 5//17 11//37 10//33 4//13
f 16//52 22//72 21//68 15//48
f 26//84 27//87 28//91 29//95 30//98 25//81
f 31//101 36//118 35//115 34//111 33//107 32//104
f 33//110 34//114 46//153 47//157
f 38//124 39//127 40//130 41//134 42//138 37//121
f 41//137 40//133 28//94 27//90
f 43//141 48//158 47//154 46//150 45//147 44//144
