# Exported from Wings 3D 1.5.4
mtllib prop_m_avionics_s0_1_arm.mtl
o mesh1
#64 vertices, 88 faces
v 8.7500000e-2 1.8750000e-2 0.0000000e+0
v 8.7500000e-2 1.3258252e-2 1.3258252e-2
v 8.7500000e-2 1.1593233e-18 1.8750000e-2
v 8.7500000e-2 -1.3258252e-2 1.3258252e-2
v 8.7500000e-2 -1.8750000e-2 0.0000000e+0
v 8.7500000e-2 -1.3258252e-2 -1.3258252e-2
v 8.7500000e-2 1.3258252e-2 -1.3258252e-2
v 1.0000000e-1 1.8750000e-2 0.0000000e+0
v 1.0000000e-1 1.3258252e-2 1.3258252e-2
v 1.0000000e-1 -1.8183532e-18 1.8750000e-2
v 1.0000000e-1 -1.3258252e-2 1.3258252e-2
v 1.0000000e-1 -1.8750000e-2 0.0000000e+0
v 1.0000000e-1 -1.3258252e-2 -1.3258252e-2
v 1.0000000e-1 1.3258252e-2 -1.3258252e-2
v 8.7500000e-2 -4.3368087e-19 0.0000000e+0
v 0.10000000 -2.6020852e-18 0.0000000e+0
v 8.7500000e-2 1.8750000e-2 -7.5000000e-2
v 8.7500000e-2 1.3258252e-2 -6.1741748e-2
v 8.7500000e-2 -1.3258252e-2 -6.1741748e-2
v 8.7500000e-2 -1.8750000e-2 -7.5000000e-2
v 8.7500000e-2 -1.3258252e-2 -8.8258252e-2
v 8.7500000e-2 -4.4552979e-18 -9.3750000e-2
v 8.7500000e-2 1.3258252e-2 -8.8258252e-2
v 1.0000000e-1 1.8750000e-2 -7.5000000e-2
v 1.0000000e-1 1.3258252e-2 -6.1741748e-2
v 1.0000000e-1 -1.3258252e-2 -6.1741748e-2
v 1.0000000e-1 -1.8750000e-2 -7.5000000e-2
v 1.0000000e-1 -1.3258252e-2 -8.8258252e-2
v 1.0000000e-1 -7.4329743e-18 -9.3750000e-2
v 1.0000000e-1 1.3258252e-2 -8.8258252e-2
v 8.7500000e-2 -2.1684043e-19 -7.5000000e-2
v 0.10000000 -2.8189256e-18 -7.5000000e-2
v -8.7500000e-2 1.8750000e-2 0.0000000e+0
v -8.7500000e-2 1.3258252e-2 1.3258252e-2
v -8.7500000e-2 1.1593233e-18 1.8750000e-2
v -8.7500000e-2 -1.3258252e-2 1.3258252e-2
v -8.7500000e-2 -1.8750000e-2 0.0000000e+0
v -8.7500000e-2 -1.3258252e-2 -1.3258252e-2
v -8.7500000e-2 1.3258252e-2 -1.3258252e-2
v -1.0000000e-1 1.8750000e-2 0.0000000e+0
v -1.0000000e-1 1.3258252e-2 1.3258252e-2
v -1.0000000e-1 -1.8183532e-18 1.8750000e-2
v -1.0000000e-1 -1.3258252e-2 1.3258252e-2
v -1.0000000e-1 -1.8750000e-2 0.0000000e+0
v -1.0000000e-1 -1.3258252e-2 -1.3258252e-2
v -1.0000000e-1 1.3258252e-2 -1.3258252e-2
v -8.7500000e-2 -4.3368087e-19 0.0000000e+0
v -0.10000000 -2.6020852e-18 0.0000000e+0
v -8.7500000e-2 1.8750000e-2 -7.5000000e-2
v -8.7500000e-2 1.3258252e-2 -6.1741748e-2
v -8.7500000e-2 -1.3258252e-2 -6.1741748e-2
v -8.7500000e-2 -1.8750000e-2 -7.5000000e-2
v -8.7500000e-2 -1.3258252e-2 -8.8258252e-2
v -8.7500000e-2 -4.4552979e-18 -9.3750000e-2
v -8.7500000e-2 1.3258252e-2 -8.8258252e-2
v -1.0000000e-1 1.8750000e-2 -7.5000000e-2
v -1.0000000e-1 1.3258252e-2 -6.1741748e-2
v -1.0000000e-1 -1.3258252e-2 -6.1741748e-2
v -1.0000000e-1 -1.8750000e-2 -7.5000000e-2
v -1.0000000e-1 -1.3258252e-2 -8.8258252e-2
v -1.0000000e-1 -7.4329743e-18 -9.3750000e-2
v -1.0000000e-1 1.3258252e-2 -8.8258252e-2
v -8.7500000e-2 -2.1684043e-19 -7.5000000e-2
v -0.10000000 -2.8189256e-18 -7.5000000e-2
vn -1.00000000 1.4086802e-32 -6.1938437e-17
vn 1.00000000 -5.6347208e-32 1.2387687e-16
vn -1.00000000 0.0000000e+0 6.1938437e-17
vn 1.00000000 -6.7616649e-31 -1.2387687e-16
vn 1.00000000 1.4086802e-32 -6.1938437e-17
vn -1.00000000 -5.6347208e-32 1.2387687e-16
vn 1.00000000 0.0000000e+0 6.1938437e-17
vn -1.00000000 -6.7616649e-31 -1.2387687e-16
vn 1.6355130e-16 1.00000000 -1.2016967e-16
vn 1.6355130e-16 1.00000000 -1.2016967e-16
vn -1.00000000 0.0000000e+0 1.4791142e-31
vn -1.00000000 0.0000000e+0 1.4791142e-31
vn 1.8399521e-16 0.70710678 0.70710678
vn 1.8399521e-16 0.70710678 0.70710678
vn -1.00000000 -2.1806840e-16 -5.2336415e-16
vn -1.00000000 -2.1806840e-16 -5.2336415e-16
vn 2.0443912e-17 -3.0042419e-17 1.00000000
vn 2.0443912e-17 -3.0042419e-17 1.00000000
vn -1.00000000 4.9303807e-32 -7.4014868e-16
vn -1.00000000 4.9303807e-32 -7.4014868e-16
vn -1.2266347e-16 -0.70710678 0.70710678
vn -1.2266347e-16 -0.70710678 0.70710678
vn -1.00000000 2.1806840e-16 -5.2336415e-16
vn -1.00000000 2.1806840e-16 -5.2336415e-16
vn -1.6355130e-16 -1.00000000 1.2016967e-16
vn -1.6355130e-16 -1.00000000 1.2016967e-16
vn -1.00000000 0.0000000e+0 -1.4791142e-31
vn -1.00000000 0.0000000e+0 -1.4791142e-31
vn -1.8887712e-16 -0.92387953 -0.38268343
vn -1.00000000 0.0000000e+0 4.5110264e-16
vn -1.00000000 0.0000000e+0 4.5110264e-16
vn -1.00000000 0.0000000e+0 4.5110264e-16
vn -3.4694470e-16 -1.00000000 -8.9449175e-17
vn 1.1332627e-16 0.92387953 -0.38268343
vn -1.00000000 0.0000000e+0 4.5110264e-16
vn -1.00000000 0.0000000e+0 4.5110264e-16
vn -1.00000000 0.0000000e+0 4.5110264e-16
vn 3.4694470e-16 1.00000000 8.9449175e-17
vn 1.6355130e-16 1.00000000 -1.2016967e-16
vn 1.6355130e-16 1.00000000 -1.2016967e-16
vn 1.00000000 1.7445472e-15 -2.9582284e-31
vn 1.00000000 1.7445472e-15 -2.9582284e-31
vn 1.8399521e-16 0.70710678 0.70710678
vn 1.8399521e-16 0.70710678 0.70710678
vn 1.00000000 8.7227359e-16 1.0467283e-15
vn 1.00000000 8.7227359e-16 1.0467283e-15
vn 2.0443912e-17 -3.0042419e-17 1.00000000
vn 2.0443912e-17 -3.0042419e-17 1.00000000
vn 1.00000000 0.0000000e+0 1.4802974e-15
vn 1.00000000 0.0000000e+0 1.4802974e-15
vn -1.2266347e-16 -0.70710678 0.70710678
vn -1.2266347e-16 -0.70710678 0.70710678
vn 1.00000000 -8.7227359e-16 1.0467283e-15
vn 1.00000000 -8.7227359e-16 1.0467283e-15
vn -1.6355130e-16 -1.00000000 1.2016967e-16
vn -1.6355130e-16 -1.00000000 1.2016967e-16
vn 1.00000000 -1.7445472e-15 3.9443045e-31
vn 1.00000000 -1.7445472e-15 3.9443045e-31
vn -1.8887712e-16 -0.92387953 -0.38268343
vn 1.00000000 -5.8151573e-16 -9.0220529e-16
vn -3.4694470e-16 -1.00000000 -8.9449175e-17
vn 1.00000000 -5.8151573e-16 -9.0220529e-16
vn 1.00000000 -5.8151573e-16 -9.0220529e-16
vn 1.1332627e-16 0.92387953 -0.38268343
vn 1.00000000 5.8151573e-16 -9.0220529e-16
vn 3.4694470e-16 1.00000000 8.9449175e-17
vn 1.00000000 5.8151573e-16 -9.0220529e-16
vn 1.00000000 5.8151573e-16 -9.0220529e-16
vn 1.6355130e-16 1.00000000 -1.2016967e-16
vn 1.6355130e-16 1.00000000 -1.2016967e-16
vn -1.00000000 0.0000000e+0 3.4512665e-31
vn -1.00000000 0.0000000e+0 3.4512665e-31
vn 1.8887712e-16 0.92387953 0.38268343
vn -1.00000000 0.0000000e+0 -4.5110264e-16
vn -1.00000000 0.0000000e+0 -4.5110264e-16
vn 3.4694470e-16 1.00000000 8.9449175e-17
vn -1.00000000 0.0000000e+0 -4.5110264e-16
vn -1.1332627e-16 -0.92387953 0.38268343
vn -1.00000000 0.0000000e+0 -4.5110264e-16
vn -1.00000000 0.0000000e+0 -4.5110264e-16
vn -3.4694470e-16 -1.00000000 -8.9449175e-17
vn -1.00000000 0.0000000e+0 -4.5110264e-16
vn -1.6355130e-16 -1.00000000 1.2016967e-16
vn -1.6355130e-16 -1.00000000 1.2016967e-16
vn -1.00000000 0.0000000e+0 -9.8607613e-32
vn -1.00000000 0.0000000e+0 -9.8607613e-32
vn -1.6355130e-16 -0.70710678 -0.70710678
vn -1.6355130e-16 -0.70710678 -0.70710678
vn -1.00000000 6.5420519e-16 5.2336415e-16
vn -1.00000000 6.5420519e-16 5.2336415e-16
vn -2.0443912e-17 -9.0127256e-17 -1.00000000
vn -2.0443912e-17 -9.0127256e-17 -1.00000000
vn -1.00000000 0.0000000e+0 7.4014868e-16
vn -1.00000000 0.0000000e+0 7.4014868e-16
vn 1.0221956e-16 0.70710678 -0.70710678
vn 1.0221956e-16 0.70710678 -0.70710678
vn -1.00000000 -6.5420519e-16 5.2336415e-16
vn -1.00000000 -6.5420519e-16 5.2336415e-16
vn 1.6355130e-16 1.00000000 -1.2016967e-16
vn 1.6355130e-16 1.00000000 -1.2016967e-16
vn 1.00000000 1.7445472e-15 -4.4373426e-31
vn 1.00000000 1.7445472e-15 -4.4373426e-31
vn 1.8887712e-16 0.92387953 0.38268343
vn 1.00000000 5.8151573e-16 9.0220529e-16
vn 1.00000000 5.8151573e-16 9.0220529e-16
vn 3.4694470e-16 1.00000000 8.9449175e-17
vn 1.00000000 5.8151573e-16 9.0220529e-16
vn -1.1332627e-16 -0.92387953 0.38268343
vn 1.00000000 -5.8151573e-16 9.0220529e-16
vn 1.00000000 -5.8151573e-16 9.0220529e-16
vn -3.4694470e-16 -1.00000000 -8.9449175e-17
vn 1.00000000 -5.8151573e-16 9.0220529e-16
vn -1.6355130e-16 -1.00000000 1.2016967e-16
vn -1.6355130e-16 -1.00000000 1.2016967e-16
vn 1.00000000 -1.7445472e-15 -2.4651903e-31
vn 1.00000000 -1.7445472e-15 -2.4651903e-31
vn -1.6355130e-16 -0.70710678 -0.70710678
vn -1.6355130e-16 -0.70710678 -0.70710678
vn 1.00000000 -4.3613679e-16 -1.0467283e-15
vn 1.00000000 -4.3613679e-16 -1.0467283e-15
vn -2.0443912e-17 -9.0127256e-17 -1.00000000
vn -2.0443912e-17 -9.0127256e-17 -1.00000000
vn 1.00000000 -1.5284180e-30 -1.4802974e-15
vn 1.00000000 -1.5284180e-30 -1.4802974e-15
vn 1.0221956e-16 0.70710678 -0.70710678
vn 1.0221956e-16 0.70710678 -0.70710678
vn 1.00000000 4.3613679e-16 -1.0467283e-15
vn 1.00000000 4.3613679e-16 -1.0467283e-15
vn -1.6355130e-16 1.00000000 -1.2016967e-16
vn -1.6355130e-16 1.00000000 -1.2016967e-16
vn 1.00000000 0.0000000e+0 1.4791142e-31
vn 1.00000000 0.0000000e+0 1.4791142e-31
vn -1.8399521e-16 0.70710678 0.70710678
vn -1.8399521e-16 0.70710678 0.70710678
vn 1.00000000 -2.1806840e-16 -5.2336415e-16
vn 1.00000000 -2.1806840e-16 -5.2336415e-16
vn -2.0443912e-17 -3.0042419e-17 1.00000000
vn -2.0443912e-17 -3.0042419e-17 1.00000000
vn 1.00000000 4.9303807e-32 -7.4014868e-16
vn 1.00000000 4.9303807e-32 -7.4014868e-16
vn 1.2266347e-16 -0.70710678 0.70710678
vn 1.2266347e-16 -0.70710678 0.70710678
vn 1.00000000 2.1806840e-16 -5.2336415e-16
vn 1.00000000 2.1806840e-16 -5.2336415e-16
vn 1.6355130e-16 -1.00000000 1.2016967e-16
vn 1.6355130e-16 -1.00000000 1.2016967e-16
vn 1.00000000 0.0000000e+0 -1.4791142e-31
vn 1.00000000 0.0000000e+0 -1.4791142e-31
vn 1.8887712e-16 -0.92387953 -0.38268343
vn 1.00000000 0.0000000e+0 4.5110264e-16
vn 1.00000000 0.0000000e+0 4.5110264e-16
vn 1.00000000 0.0000000e+0 4.5110264e-16
vn 3.4694470e-16 -1.00000000 -8.9449175e-17
vn -1.1332627e-16 0.92387953 -0.38268343
vn 1.00000000 0.0000000e+0 4.5110264e-16
vn 1.00000000 0.0000000e+0 4.5110264e-16
vn 1.00000000 0.0000000e+0 4.5110264e-16
vn -3.4694470e-16 1.00000000 8.9449175e-17
vn -1.6355130e-16 1.00000000 -1.2016967e-16
vn -1.6355130e-16 1.00000000 -1.2016967e-16
vn -1.00000000 1.7445472e-15 -2.9582284e-31
vn -1.00000000 1.7445472e-15 -2.9582284e-31
vn -1.8399521e-16 0.70710678 0.70710678
vn -1.8399521e-16 0.70710678 0.70710678
vn -1.00000000 8.7227359e-16 1.0467283e-15
vn -1.00000000 8.7227359e-16 1.0467283e-15
vn -2.0443912e-17 -3.0042419e-17 1.00000000
vn -2.0443912e-17 -3.0042419e-17 1.00000000
vn -1.00000000 0.0000000e+0 1.4802974e-15
vn -1.00000000 0.0000000e+0 1.4802974e-15
vn 1.2266347e-16 -0.70710678 0.70710678
vn 1.2266347e-16 -0.70710678 0.70710678
vn -1.00000000 -8.7227359e-16 1.0467283e-15
vn -1.00000000 -8.7227359e-16 1.0467283e-15
vn 1.6355130e-16 -1.00000000 1.2016967e-16
vn 1.6355130e-16 -1.00000000 1.2016967e-16
vn -1.00000000 -1.7445472e-15 3.9443045e-31
vn -1.00000000 -1.7445472e-15 3.9443045e-31
vn 1.8887712e-16 -0.92387953 -0.38268343
vn -1.00000000 -5.8151573e-16 -9.0220529e-16
vn 3.4694470e-16 -1.00000000 -8.9449175e-17
vn -1.00000000 -5.8151573e-16 -9.0220529e-16
vn -1.00000000 -5.8151573e-16 -9.0220529e-16
vn -1.1332627e-16 0.92387953 -0.38268343
vn -1.00000000 5.8151573e-16 -9.0220529e-16
vn -3.4694470e-16 1.00000000 8.9449175e-17
vn -1.00000000 5.8151573e-16 -9.0220529e-16
vn -1.00000000 5.8151573e-16 -9.0220529e-16
vn -1.6355130e-16 1.00000000 -1.2016967e-16
vn -1.6355130e-16 1.00000000 -1.2016967e-16
vn 1.00000000 0.0000000e+0 3.4512665e-31
vn 1.00000000 0.0000000e+0 3.4512665e-31
vn -1.8887712e-16 0.92387953 0.38268343
vn 1.00000000 0.0000000e+0 -4.5110264e-16
vn 1.00000000 0.0000000e+0 -4.5110264e-16
vn -3.4694470e-16 1.00000000 8.9449175e-17
vn 1.00000000 0.0000000e+0 -4.5110264e-16
vn 1.1332627e-16 -0.92387953 0.38268343
vn 1.00000000 0.0000000e+0 -4.5110264e-16
vn 1.00000000 0.0000000e+0 -4.5110264e-16
vn 3.4694470e-16 -1.00000000 -8.9449175e-17
vn 1.00000000 0.0000000e+0 -4.5110264e-16
vn 1.6355130e-16 -1.00000000 1.2016967e-16
vn 1.6355130e-16 -1.00000000 1.2016967e-16
vn 1.00000000 0.0000000e+0 -9.8607613e-32
vn 1.00000000 0.0000000e+0 -9.8607613e-32
vn 1.6355130e-16 -0.70710678 -0.70710678
vn 1.6355130e-16 -0.70710678 -0.70710678
vn 1.00000000 6.5420519e-16 5.2336415e-16
vn 1.00000000 6.5420519e-16 5.2336415e-16
vn 2.0443912e-17 -9.0127256e-17 -1.00000000
vn 2.0443912e-17 -9.0127256e-17 -1.00000000
vn 1.00000000 0.0000000e+0 7.4014868e-16
vn 1.00000000 0.0000000e+0 7.4014868e-16
vn -1.0221956e-16 0.70710678 -0.70710678
vn -1.0221956e-16 0.70710678 -0.70710678
vn 1.00000000 -6.5420519e-16 5.2336415e-16
vn 1.00000000 -6.5420519e-16 5.2336415e-16
vn -1.6355130e-16 1.00000000 -1.2016967e-16
vn -1.6355130e-16 1.00000000 -1.2016967e-16
vn -1.00000000 1.7445472e-15 -4.4373426e-31
vn -1.00000000 1.7445472e-15 -4.4373426e-31
vn -1.8887712e-16 0.92387953 0.38268343
vn -1.00000000 5.8151573e-16 9.0220529e-16
vn -1.00000000 5.8151573e-16 9.0220529e-16
vn -3.4694470e-16 1.00000000 8.9449175e-17
vn -1.00000000 5.8151573e-16 9.0220529e-16
vn 1.1332627e-16 -0.92387953 0.38268343
vn -1.00000000 -5.8151573e-16 9.0220529e-16
vn -1.00000000 -5.8151573e-16 9.0220529e-16
vn 3.4694470e-16 -1.00000000 -8.9449175e-17
vn -1.00000000 -5.8151573e-16 9.0220529e-16
vn 1.6355130e-16 -1.00000000 1.2016967e-16
vn 1.6355130e-16 -1.00000000 1.2016967e-16
vn -1.00000000 -1.7445472e-15 -2.4651903e-31
vn -1.00000000 -1.7445472e-15 -2.4651903e-31
vn 1.6355130e-16 -0.70710678 -0.70710678
vn 1.6355130e-16 -0.70710678 -0.70710678
vn -1.00000000 -4.3613679e-16 -1.0467283e-15
vn -1.00000000 -4.3613679e-16 -1.0467283e-15
vn 2.0443912e-17 -9.0127256e-17 -1.00000000
vn 2.0443912e-17 -9.0127256e-17 -1.00000000
vn -1.00000000 -1.5284180e-30 -1.4802974e-15
vn -1.00000000 -1.5284180e-30 -1.4802974e-15
vn -1.0221956e-16 0.70710678 -0.70710678
vn -1.0221956e-16 0.70710678 -0.70710678
vn -1.00000000 4.3613679e-16 -1.0467283e-15
vn -1.00000000 4.3613679e-16 -1.0467283e-15
g mesh1
usemtl default
s 1
f 6//33 19//81 26//111 13//61
f 14//66 25//106 18//76 7//38
f 39//158 50//196 57//226 46//186
f 45//181 58//231 51//201 38//153
s 2
f 1//9 8//39 14//64 7//34
f 2//14 9//44 8//40 1//10
f 3//18 10//48 9//43 2//13
f 4//22 11//52 10//47 3//17
f 5//26 12//56 11//51 4//21
f 6//29 13//59 12//55 5//25
f 17//69 24//99 30//125 23//95
f 18//73 25//103 24//100 17//70
f 20//84 27//114 26//108 19//78
f 21//88 28//118 27//113 20//83
f 22//92 29//122 28//117 21//87
f 23//96 30//126 29//121 22//91
f 33//130 40//160 41//164 34//134
f 34//133 41//163 42//168 35//138
f 35//137 42//167 43//172 36//142
f 36//141 43//171 44//176 37//146
f 37//145 44//175 45//179 38//149
f 39//154 46//184 40//159 33//129
f 49//190 56//220 57//223 50//193
f 51//198 58//228 59//234 52//204
f 52//203 59//233 60//238 53//208
f 53//207 60//237 61//242 54//212
f 54//211 61//241 62//246 55//216
f 55//215 62//245 56//219 49//189
s 3
f 1//11 15//1 2//15
f 2//16 15//1 3//20
f 3//19 15//1 4//24
f 4//23 15//1 5//28
f 5//27 15//1 6//30
f 7//36 6//31 15//1
f 7//35 15//1 1//12
f 8//42 16//2 14//65
f 9//45 16//2 8//41
f 10//49 16//2 9//46
f 11//53 16//2 10//50
f 12//57 16//2 11//54
f 13//63 14//68 16//2
f 13//60 16//2 12//58
f 17//71 31//3 18//74
f 18//75 19//80 6//32 7//37
f 19//79 31//3 20//86
f 20//85 31//3 21//90
f 21//89 31//3 22//94
f 22//93 31//3 23//98
f 23//97 31//3 17//72
f 24//102 32//4 30//128
f 25//105 26//110 32//4
f 25//104 32//4 24//101
f 26//112 25//107 14//67 13//62
f 27//115 32//4 26//109
f 28//119 32//4 27//116
f 29//123 32//4 28//120
f 30//127 32//4 29//124
f 31//3 19//82 18//77
f 33//132 47//5 39//155
f 34//135 47//5 33//131
f 35//140 47//5 34//136
f 36//144 47//5 35//139
f 37//148 47//5 36//143
f 38//150 47//5 37//147
f 39//157 38//152 51//200 50//195
f 40//161 48//6 41//165
f 41//166 48//6 42//169
f 42//170 48//6 43//173
f 43//174 48//6 44//177
f 44//178 48//6 45//180
f 45//182 46//187 57//227 58//232
f 46//185 48//6 40//162
f 47//5 38//151 39//156
f 48//6 46//188 45//183
f 49//192 63//7 55//217
f 50//197 51//202 63//7
f 50//194 63//7 49//191
f 52//206 63//7 51//199
f 53//210 63//7 52//205
f 54//214 63//7 53//209
f 55//218 63//7 54//213
f 56//221 64//8 57//224
f 58//229 64//8 59//235
f 59//236 64//8 60//239
f 60//240 64//8 61//243
f 61//244 64//8 62//247
f 62//248 64//8 56//222
f 64//8 58//230 57//225
