# Exported from Wings 3D 1.5.4
mtllib base_extended.mtl
o 1
#70 vertices, 57 faces
v -0.15000000 -5.6250000e-2 -6.2500000e-2
v -0.15000000 -6.1741748e-2 -4.9241748e-2
v -0.15000000 -7.5000000e-2 -4.3750000e-2
v -0.15000000 -8.8258252e-2 -4.9241748e-2
v -0.15000000 -9.3750000e-2 -6.2500000e-2
v -0.15000000 -8.8258252e-2 -7.5758252e-2
v -0.15000000 -7.5000000e-2 -8.1250000e-2
v -0.15000000 -6.1741748e-2 -7.5758252e-2
v 0.15000000 -5.6250000e-2 -6.2500000e-2
v 0.15000000 -6.1741748e-2 -4.9241748e-2
v 0.15000000 -7.5000000e-2 -4.3750000e-2
v 0.15000000 -8.8258252e-2 -4.9241748e-2
v 0.15000000 -9.3750000e-2 -6.2500000e-2
v 0.15000000 -8.8258252e-2 -7.5758252e-2
v 0.15000000 -7.5000000e-2 -8.1250000e-2
v 0.15000000 -6.1741748e-2 -7.5758252e-2
v -2.5000000e-2 -5.0000000e-2 -6.2500000e-2
v -2.5000000e-2 -0.10000000 -6.2500000e-2
v -2.5000000e-2 -9.2677670e-2 -8.0177670e-2
v -2.5000000e-2 -7.5000000e-2 -8.7500000e-2
v -2.5000000e-2 -5.7322330e-2 -8.0177670e-2
v 2.5000000e-2 -5.0000000e-2 -6.2500000e-2
v 2.5000000e-2 -0.10000000 -6.2500000e-2
v 2.5000000e-2 -9.2677670e-2 -8.0177670e-2
v 2.5000000e-2 -7.5000000e-2 -8.7500000e-2
v 2.5000000e-2 -5.7322330e-2 -8.0177670e-2
v -2.5000000e-2 -0.10000000 3.7500000e-2
v 2.5000000e-2 -0.10000000 3.7500000e-2
v -2.5000000e-2 -5.0000000e-2 3.7500000e-2
v 2.5000000e-2 -5.0000000e-2 3.7500000e-2
v -5.5511151e-17 -6.1741748e-2 -7.5758252e-2
v -5.5511151e-17 -7.5000000e-2 -8.1250000e-2
v -5.5511151e-17 -8.8258252e-2 -7.5758252e-2
v -5.5511151e-17 -9.3750000e-2 -6.2500000e-2
v -5.5511151e-17 -8.8258252e-2 -4.9241748e-2
v -5.5511151e-17 -7.5000000e-2 -4.3750000e-2
v -5.5511151e-17 -6.1741748e-2 -4.9241748e-2
v -5.5511151e-17 -5.6250000e-2 -6.2500000e-2
v -2.5000000e-2 0.10000000 -0.11250000
v -2.5000000e-2 5.0000000e-2 -0.11250000
v -2.5000000e-2 5.7322330e-2 -0.13017767
v -2.5000000e-2 7.5000000e-2 -0.13750000
v -2.5000000e-2 9.2677670e-2 -0.13017767
v 2.5000000e-2 0.10000000 -0.11250000
v 2.5000000e-2 5.0000000e-2 -0.11250000
v 2.5000000e-2 5.7322330e-2 -0.13017767
v 2.5000000e-2 7.5000000e-2 -0.13750000
v 2.5000000e-2 9.2677670e-2 -0.13017767
v -2.5000000e-2 5.0000000e-2 3.7500000e-2
v 2.5000000e-2 5.0000000e-2 3.7500000e-2
v -2.5000000e-2 0.10000000 3.7500000e-2
v 2.5000000e-2 0.10000000 3.7500000e-2
v -1.2500000e-2 0.10000000 -0.11250000
v 1.2500000e-2 0.10000000 -0.11250000
v -1.2500000e-2 5.0000000e-2 -0.11250000
v 1.2500000e-2 5.0000000e-2 -0.11250000
v -1.2500000e-2 5.7322330e-2 -0.13017767
v 1.2500000e-2 5.7322330e-2 -0.13017767
v -1.2500000e-2 7.5000000e-2 -0.13750000
v 1.2500000e-2 7.5000000e-2 -0.13750000
v -1.2500000e-2 9.2677670e-2 -0.13017767
v 1.2500000e-2 9.2677670e-2 -0.13017767
v 2.5000000e-2 0.10000000 -8.7500000e-2
v 2.5000000e-2 5.0000000e-2 -8.7500000e-2
v -2.5000000e-2 5.0000000e-2 -8.7500000e-2
v -2.5000000e-2 0.10000000 -8.7500000e-2
v -1.2500000e-2 0.10000000 -8.7500000e-2
v 1.2500000e-2 0.10000000 -8.7500000e-2
v 1.2500000e-2 5.0000000e-2 -8.7500000e-2
v -1.2500000e-2 5.0000000e-2 -8.7500000e-2
vt 4.0777142e-2 0.73603592
vt 4.0777142e-2 0.81315729
vt 4.0777142e-2 0.82802471
vt 4.0777142e-2 0.84289213
vt 4.0777142e-2 0.85775956
vt 4.0777142e-2 0.87262698
vt 4.0777142e-2 0.95096535
vt 7.9946329e-2 0.73603592
vt 7.9946329e-2 0.81315729
vt 7.9946329e-2 0.82802471
vt 7.9946329e-2 0.84289213
vt 7.9946329e-2 0.85775956
vt 7.9946329e-2 0.87262698
vt 7.9946329e-2 0.95096535
vt 9.9713813e-2 0.74512854
vt 9.9713813e-2 0.82282943
vt 9.9713813e-2 0.86167988
vt 9.9713813e-2 0.93938077
vt 0.10540333 0.73139283
vt 0.10540333 0.95311648
vt 0.11913904 0.72570332
vt 0.11913904 0.95880599
vt 0.13287474 0.73139283
vt 0.13287474 0.95311648
vt 0.13856426 0.74512854
vt 0.13856426 0.82282943
vt 0.13856426 0.86167988
vt 0.13856426 0.93938077
vt 0.21901804 0.84199273
vt 0.21901804 0.95897104
vt 0.23016861 0.84199273
vt 0.23016861 0.95897104
vt 0.24131917 0.84199273
vt 0.24131917 0.95897104
vt 0.25246974 0.84199273
vt 0.25246974 0.95897104
vt 0.26362031 0.84199273
vt 0.26362031 0.95897104
vt 0.27477087 0.84199273
vt 0.27477087 0.95897104
vt 0.28592144 0.84199273
vt 0.28592144 0.95897104
vt 0.29707201 0.84199273
vt 0.29707201 0.95897104
vt 0.30822257 0.84199273
vt 0.30822257 0.95897104
vt 0.40149184 0.43506485
vt 0.40149184 0.44385722
vt 0.40149184 0.46644647
vt 0.40149184 0.47450288
vt 0.41649024 0.43506485
vt 0.41649024 0.44385722
vt 0.41649024 0.46644647
vt 0.41649024 0.47450288
vt 0.43148864 0.43506485
vt 0.43148864 0.44385722
vt 0.43148864 0.46644647
vt 0.43148864 0.47450288
vt 0.45108500 0.43506485
vt 0.45108500 0.44385722
vt 0.45108500 0.46644647
vt 0.45108500 0.47450288
vt 0.50987406 0.43506485
vt 0.50987406 0.47450288
vt 0.51313593 0.45484252
vt 0.51887557 0.44098581
vt 0.51887557 0.46869924
vt 0.53273229 0.43524617
vt 0.53273229 0.47443888
vt 0.55232864 0.43524617
vt 0.55232864 0.47443888
vt 0.61111770 0.43524617
vt 0.61111770 0.47443888
vt 0.65031041 0.43524617
vt 0.65031041 0.47443888
vt 0.70909947 0.43524617
vt 0.70909947 0.47443888
vt 0.72869583 0.43524617
vt 0.72869583 0.47443888
vt 0.74255254 0.44098581
vt 0.74255254 0.46869924
vt 0.74829218 0.45484252
vt 0.78902044 0.45628182
vt 0.79476008 0.44242510
vt 0.79476008 0.47013853
vt 0.80861679 0.43668546
vt 0.80861679 0.47587817
vt 0.82821315 0.43668546
vt 0.82821315 0.47587817
vt 0.84780950 0.43668546
vt 0.84780950 0.47587817
vt 0.86740586 0.43668546
vt 0.86740586 0.47587817
vt 0.88126257 0.44242510
vt 0.88126257 0.47013853
vt 0.88700221 0.45628182
vn 0.0000000e+0 1.00000000 0.0000000e+0
vn 0.0000000e+0 0.70710678 0.70710678
vn 0.0000000e+0 0.0000000e+0 1.00000000
vn 0.0000000e+0 -0.70710678 0.70710678
vn 0.0000000e+0 -1.00000000 0.0000000e+0
vn 0.0000000e+0 -0.70710678 -0.70710678
vn 0.0000000e+0 0.0000000e+0 -1.00000000
vn 0.0000000e+0 0.70710678 -0.70710678
vn 0.0000000e+0 1.00000000 0.0000000e+0
vn 0.0000000e+0 0.70710678 0.70710678
vn 0.0000000e+0 0.0000000e+0 1.00000000
vn 0.0000000e+0 -0.70710678 0.70710678
vn 0.0000000e+0 -1.00000000 0.0000000e+0
vn 0.0000000e+0 -0.70710678 -0.70710678
vn 0.0000000e+0 0.0000000e+0 -1.00000000
vn 0.0000000e+0 0.70710678 -0.70710678
vn 0.0000000e+0 0.70710678 -0.70710678
vn 0.0000000e+0 0.0000000e+0 -1.00000000
vn 0.0000000e+0 -0.70710678 -0.70710678
vn 0.0000000e+0 -1.00000000 0.0000000e+0
vn 0.0000000e+0 -0.70710678 0.70710678
vn 0.0000000e+0 0.0000000e+0 1.00000000
vn 0.0000000e+0 0.70710678 0.70710678
vn 0.0000000e+0 1.00000000 0.0000000e+0
vn -1.00000000 0.0000000e+0 0.0000000e+0
vn -1.00000000 0.0000000e+0 0.0000000e+0
vn 0.0000000e+0 0.98078528 -0.19509031
vn 0.0000000e+0 0.98078528 -0.19509031
vn -1.00000000 0.0000000e+0 0.0000000e+0
vn -1.00000000 0.0000000e+0 0.0000000e+0
vn 0.0000000e+0 -0.98078528 -0.19509031
vn 0.0000000e+0 -0.98078528 -0.19509031
vn -1.00000000 0.0000000e+0 0.0000000e+0
vn 0.0000000e+0 -0.70710678 -0.70710678
vn 0.0000000e+0 -0.70710678 -0.70710678
vn -1.00000000 0.0000000e+0 0.0000000e+0
vn 0.0000000e+0 9.0127254e-17 -1.00000000
vn 0.0000000e+0 9.0127254e-17 -1.00000000
vn -1.00000000 0.0000000e+0 0.0000000e+0
vn 0.0000000e+0 0.70710678 -0.70710678
vn 0.0000000e+0 0.70710678 -0.70710678
vn 1.00000000 0.0000000e+0 0.0000000e+0
vn 1.00000000 0.0000000e+0 0.0000000e+0
vn 0.0000000e+0 0.98078528 -0.19509031
vn 0.0000000e+0 0.98078528 -0.19509031
vn 1.00000000 0.0000000e+0 0.0000000e+0
vn 1.00000000 0.0000000e+0 0.0000000e+0
vn 0.0000000e+0 -0.98078528 -0.19509031
vn 0.0000000e+0 -0.98078528 -0.19509031
vn 1.00000000 0.0000000e+0 0.0000000e+0
vn 0.0000000e+0 -0.70710678 -0.70710678
vn 0.0000000e+0 -0.70710678 -0.70710678
vn 1.00000000 0.0000000e+0 0.0000000e+0
vn 0.0000000e+0 9.0127254e-17 -1.00000000
vn 0.0000000e+0 9.0127254e-17 -1.00000000
vn 1.00000000 0.0000000e+0 0.0000000e+0
vn 0.0000000e+0 0.70710678 -0.70710678
vn 0.0000000e+0 0.70710678 -0.70710678
vn -1.00000000 0.0000000e+0 0.0000000e+0
vn 0.0000000e+0 0.0000000e+0 1.00000000
vn 0.0000000e+0 -1.00000000 0.0000000e+0
vn 1.00000000 0.0000000e+0 0.0000000e+0
vn 0.0000000e+0 0.0000000e+0 1.00000000
vn 0.0000000e+0 -1.00000000 0.0000000e+0
vn -1.00000000 0.0000000e+0 0.0000000e+0
vn 0.0000000e+0 0.0000000e+0 1.00000000
vn 0.0000000e+0 1.00000000 0.0000000e+0
vn 1.00000000 0.0000000e+0 0.0000000e+0
vn 0.0000000e+0 0.0000000e+0 1.00000000
vn 0.0000000e+0 1.00000000 0.0000000e+0
vn -1.00000000 0.0000000e+0 0.0000000e+0
vn -1.00000000 0.0000000e+0 0.0000000e+0
vn 0.0000000e+0 0.98078528 -0.19509031
vn 0.0000000e+0 0.98078528 -0.19509031
vn -1.00000000 0.0000000e+0 0.0000000e+0
vn -1.00000000 0.0000000e+0 0.0000000e+0
vn 0.0000000e+0 -0.98078528 -0.19509031
vn 0.0000000e+0 -0.98078528 -0.19509031
vn -1.00000000 0.0000000e+0 0.0000000e+0
vn 0.0000000e+0 -0.70710678 -0.70710678
vn 0.0000000e+0 -0.70710678 -0.70710678
vn -1.00000000 0.0000000e+0 0.0000000e+0
vn 0.0000000e+0 -9.0127254e-17 -1.00000000
vn 0.0000000e+0 -9.0127254e-17 -1.00000000
vn -1.00000000 0.0000000e+0 0.0000000e+0
vn 0.0000000e+0 0.70710678 -0.70710678
vn 0.0000000e+0 0.70710678 -0.70710678
vn 1.00000000 0.0000000e+0 0.0000000e+0
vn 1.00000000 0.0000000e+0 0.0000000e+0
vn 0.0000000e+0 0.98078528 -0.19509031
vn 0.0000000e+0 0.98078528 -0.19509031
vn 1.00000000 0.0000000e+0 0.0000000e+0
vn 1.00000000 0.0000000e+0 0.0000000e+0
vn 0.0000000e+0 -0.98078528 -0.19509031
vn 0.0000000e+0 -0.98078528 -0.19509031
vn 1.00000000 0.0000000e+0 0.0000000e+0
vn 0.0000000e+0 -0.70710678 -0.70710678
vn 0.0000000e+0 -0.70710678 -0.70710678
vn 1.00000000 0.0000000e+0 0.0000000e+0
vn 0.0000000e+0 -9.0127254e-17 -1.00000000
vn 0.0000000e+0 -9.0127254e-17 -1.00000000
vn 1.00000000 0.0000000e+0 0.0000000e+0
vn 0.0000000e+0 0.70710678 -0.70710678
vn 0.0000000e+0 0.70710678 -0.70710678
vn 0.0000000e+0 0.0000000e+0 1.00000000
vn -1.00000000 0.0000000e+0 0.0000000e+0
vn 0.0000000e+0 -1.00000000 0.0000000e+0
vn 0.0000000e+0 -1.00000000 0.0000000e+0
vn 0.0000000e+0 0.0000000e+0 1.00000000
vn 1.00000000 0.0000000e+0 0.0000000e+0
vn 0.0000000e+0 -1.00000000 0.0000000e+0
vn 0.0000000e+0 -1.00000000 0.0000000e+0
vn 0.0000000e+0 0.0000000e+0 1.00000000
vn -1.00000000 0.0000000e+0 0.0000000e+0
vn 0.0000000e+0 1.00000000 0.0000000e+0
vn 0.0000000e+0 1.00000000 0.0000000e+0
vn 0.0000000e+0 0.0000000e+0 1.00000000
vn 1.00000000 0.0000000e+0 0.0000000e+0
vn 0.0000000e+0 1.00000000 0.0000000e+0
vn 0.0000000e+0 1.00000000 0.0000000e+0
vn 1.00000000 0.0000000e+0 0.0000000e+0
vn 1.00000000 0.0000000e+0 0.0000000e+0
vn 0.0000000e+0 0.98078528 -0.19509031
vn 0.0000000e+0 0.98078528 -0.19509031
vn -1.00000000 0.0000000e+0 0.0000000e+0
vn -1.00000000 0.0000000e+0 0.0000000e+0
vn 0.0000000e+0 0.98078528 -0.19509031
vn 0.0000000e+0 0.98078528 -0.19509031
vn 1.00000000 0.0000000e+0 0.0000000e+0
vn 1.00000000 0.0000000e+0 0.0000000e+0
vn 0.0000000e+0 -0.98078528 -0.19509031
vn 0.0000000e+0 -0.98078528 -0.19509031
vn -1.00000000 0.0000000e+0 0.0000000e+0
vn -1.00000000 0.0000000e+0 0.0000000e+0
vn 0.0000000e+0 -0.98078528 -0.19509031
vn 0.0000000e+0 -0.98078528 -0.19509031
vn 1.00000000 0.0000000e+0 0.0000000e+0
vn 0.0000000e+0 -0.70710678 -0.70710678
vn 0.0000000e+0 -0.70710678 -0.70710678
vn -1.00000000 0.0000000e+0 0.0000000e+0
vn 0.0000000e+0 -0.70710678 -0.70710678
vn 0.0000000e+0 -0.70710678 -0.70710678
vn 1.00000000 0.0000000e+0 0.0000000e+0
vn 0.0000000e+0 -9.0127254e-17 -1.00000000
vn 0.0000000e+0 -9.0127254e-17 -1.00000000
vn -1.00000000 0.0000000e+0 0.0000000e+0
vn 0.0000000e+0 -9.0127254e-17 -1.00000000
vn 0.0000000e+0 -9.0127254e-17 -1.00000000
vn 1.00000000 0.0000000e+0 0.0000000e+0
vn 0.0000000e+0 0.70710678 -0.70710678
vn 0.0000000e+0 0.70710678 -0.70710678
vn -1.00000000 0.0000000e+0 0.0000000e+0
vn 0.0000000e+0 0.70710678 -0.70710678
vn 0.0000000e+0 0.70710678 -0.70710678
vn 1.00000000 0.0000000e+0 0.0000000e+0
vn 1.00000000 0.0000000e+0 0.0000000e+0
vn 0.0000000e+0 1.00000000 0.0000000e+0
vn 0.0000000e+0 1.00000000 0.0000000e+0
vn 1.00000000 0.0000000e+0 0.0000000e+0
vn 1.00000000 0.0000000e+0 0.0000000e+0
vn 0.0000000e+0 -1.00000000 0.0000000e+0
vn 0.0000000e+0 -1.00000000 0.0000000e+0
vn -1.00000000 0.0000000e+0 0.0000000e+0
vn -1.00000000 0.0000000e+0 0.0000000e+0
vn 0.0000000e+0 -1.00000000 0.0000000e+0
vn 0.0000000e+0 -1.00000000 0.0000000e+0
vn -1.00000000 0.0000000e+0 0.0000000e+0
vn -1.00000000 0.0000000e+0 0.0000000e+0
vn 0.0000000e+0 1.00000000 0.0000000e+0
vn 0.0000000e+0 1.00000000 0.0000000e+0
vn 0.0000000e+0 0.0000000e+0 -1.00000000
vn 1.00000000 0.0000000e+0 0.0000000e+0
vn 0.0000000e+0 1.00000000 0.0000000e+0
vn 0.0000000e+0 1.00000000 0.0000000e+0
vn 0.0000000e+0 1.00000000 0.0000000e+0
vn 0.0000000e+0 0.0000000e+0 -1.00000000
vn -1.00000000 0.0000000e+0 0.0000000e+0
vn 0.0000000e+0 1.00000000 0.0000000e+0
vn 0.0000000e+0 1.00000000 0.0000000e+0
vn 0.0000000e+0 1.00000000 0.0000000e+0
vn 0.0000000e+0 0.0000000e+0 -1.00000000
vn -1.00000000 0.0000000e+0 0.0000000e+0
vn 0.0000000e+0 -1.00000000 0.0000000e+0
vn 0.0000000e+0 -1.00000000 0.0000000e+0
vn 0.0000000e+0 -1.00000000 0.0000000e+0
vn 0.0000000e+0 0.0000000e+0 -1.00000000
vn 1.00000000 0.0000000e+0 0.0000000e+0
vn 0.0000000e+0 -1.00000000 0.0000000e+0
vn 0.0000000e+0 -1.00000000 0.0000000e+0
vn 0.0000000e+0 -1.00000000 0.0000000e+0
g 1_1_auv
usemtl 1_auv
s 1
f 1/33/1 38/34/24 31/36/17 8/35/8
f 2/31/2 37/32/23 38/34/24 1/33/1
f 3/29/3 36/30/22 37/32/23 2/31/2
f 4/43/4 35/44/21 36/46/22 3/45/3
f 5/41/5 34/42/20 35/44/21 4/43/4
f 6/39/6 33/40/19 34/42/20 5/41/5
f 7/37/7 32/38/18 33/40/19 6/39/6
f 8/35/8 31/36/17 32/38/18 7/37/7
f 9/33/9 38/34/24 37/32/23 10/31/10
f 10/31/10 37/32/23 36/30/22 11/29/11
f 11/45/11 36/46/22 35/44/21 12/43/12
f 12/43/12 35/44/21 34/42/20 13/41/13
f 13/41/13 34/42/20 33/40/19 14/39/14
f 14/39/14 33/40/19 32/38/18 15/37/15
f 15/37/15 32/38/18 31/36/17 16/35/16
f 16/35/16 31/36/17 38/34/24 9/33/9
f 17/15/26 21/19/39 20/21/36 19/23/33 18/25/30
f 18/25/29 27/26/59 29/16/65 17/15/25
f 22/18/43 30/17/68 28/27/62 23/28/47
f 23/28/46 24/24/50 25/22/53 26/20/56 22/18/42
f 50/74/109 52/75/117 51/73/113 49/72/105
f 53/93/122 67/91/172 70/90/187 55/92/130
f 54/87/126 62/85/152 60/83/146 58/84/140 56/86/134
f 55/92/129 57/94/137 59/96/143 61/95/149 53/93/121
f 56/86/133 69/88/182 68/89/177 54/87/125
s 2
f 17/13/27 22/6/44 26/5/57 21/12/40
f 17/13/28 29/14/67 30/7/70 22/6/45
f 19/10/34 24/3/51 23/2/48 18/9/31
f 20/11/37 25/4/54 24/3/52 19/10/35
f 21/12/41 26/5/58 25/4/55 20/11/38
f 23/2/49 28/1/64 27/8/61 18/9/32
f 39/69/72 43/67/85 42/65/82 41/66/79 40/68/76
f 40/68/75 65/70/163 66/71/167 39/69/71
f 44/79/89 63/77/155 64/76/159 45/78/93
f 45/78/92 46/80/96 47/82/99 48/81/102 44/79/88
f 50/74/110 64/76/160 63/77/156 52/75/118
f 51/73/114 66/71/168 65/70/164 49/72/106
f 68/89/176 69/88/181 70/90/186 67/91/171
s 3
f 28/27/63 30/17/69 29/16/66 27/26/60
f 39/55/73 53/56/123 61/52/150 43/51/86
f 39/55/74 66/59/169 67/60/173 53/56/124
f 41/51/80 57/52/138 55/56/131 40/55/77
f 42/47/83 59/48/144 57/52/139 41/51/81
f 43/51/87 61/52/151 59/48/145 42/47/84
f 45/58/94 56/57/135 58/53/141 46/54/97
f 45/58/95 64/62/162 69/61/185 56/57/136
f 46/54/98 58/53/142 60/49/147 47/50/100
f 47/50/101 60/49/148 62/53/153 48/54/103
f 48/54/104 62/53/154 54/57/127 44/58/90
f 49/63/107 70/60/188 69/61/183 50/64/111
f 50/64/112 69/61/184 64/62/161
f 51/63/115 67/60/174 66/59/170
f 52/64/119 68/61/178 67/60/175 51/63/116
f 54/57/128 68/61/179 63/62/157 44/58/91
f 55/56/132 70/60/189 65/59/165 40/55/78
f 63/62/158 68/61/180 52/64/120
f 65/59/166 70/60/190 49/63/108
