# Exported from Wings 3D 1.5.4
mtllib lbase.mtl
o 1
#70 vertices, 57 faces
v -0.15000000 -5.6250000e-2 -6.2500000e-2
v -0.15000000 -6.1741748e-2 -4.9241748e-2
v -0.15000000 -7.5000000e-2 -4.3750000e-2
v -0.15000000 -8.8258252e-2 -4.9241748e-2
v -0.15000000 -9.3750000e-2 -6.2500000e-2
v -0.15000000 -8.8258252e-2 -7.5758252e-2
v -0.15000000 -7.5000000e-2 -8.1250000e-2
v -0.15000000 -6.1741748e-2 -7.5758252e-2
v 0.15000000 -5.6250000e-2 -6.2500000e-2
v 0.15000000 -6.1741748e-2 -4.9241748e-2
v 0.15000000 -7.5000000e-2 -4.3750000e-2
v 0.15000000 -8.8258252e-2 -4.9241748e-2
v 0.15000000 -9.3750000e-2 -6.2500000e-2
v 0.15000000 -8.8258252e-2 -7.5758252e-2
v 0.15000000 -7.5000000e-2 -8.1250000e-2
v 0.15000000 -6.1741748e-2 -7.5758252e-2
v -2.5000000e-2 -5.0000000e-2 -6.2500000e-2
v -2.5000000e-2 -0.10000000 -6.2500000e-2
v -2.5000000e-2 -9.2677670e-2 -8.0177670e-2
v -2.5000000e-2 -7.5000000e-2 -8.7500000e-2
v -2.5000000e-2 -5.7322330e-2 -8.0177670e-2
v 2.5000000e-2 -5.0000000e-2 -6.2500000e-2
v 2.5000000e-2 -0.10000000 -6.2500000e-2
v 2.5000000e-2 -9.2677670e-2 -8.0177670e-2
v 2.5000000e-2 -7.5000000e-2 -8.7500000e-2
v 2.5000000e-2 -5.7322330e-2 -8.0177670e-2
v -2.5000000e-2 -1.0000000e-1 3.7500000e-2
v 2.5000000e-2 -1.0000000e-1 3.7500000e-2
v -2.5000000e-2 -5.0000000e-2 3.7500000e-2
v 2.5000000e-2 -5.0000000e-2 3.7500000e-2
v -5.5511151e-17 -6.1741748e-2 -7.5758252e-2
v -5.5511151e-17 -7.5000000e-2 -8.1250000e-2
v -5.5511151e-17 -8.8258252e-2 -7.5758252e-2
v -5.5511151e-17 -9.3750000e-2 -6.2500000e-2
v -5.5511151e-17 -8.8258252e-2 -4.9241748e-2
v -5.5511151e-17 -7.5000000e-2 -4.3750000e-2
v -5.5511151e-17 -6.1741748e-2 -4.9241748e-2
v -5.5511151e-17 -5.6250000e-2 -6.2500000e-2
v -2.5000000e-2 1.0000000e-1 -6.2500000e-2
v -2.5000000e-2 5.0000000e-2 -6.2500000e-2
v -2.5000000e-2 5.7322330e-2 -8.0177670e-2
v -2.5000000e-2 7.5000000e-2 -8.7500000e-2
v -2.5000000e-2 9.2677670e-2 -8.0177670e-2
v 2.5000000e-2 1.0000000e-1 -6.2500000e-2
v 2.5000000e-2 5.0000000e-2 -6.2500000e-2
v 2.5000000e-2 5.7322330e-2 -8.0177670e-2
v 2.5000000e-2 7.5000000e-2 -8.7500000e-2
v 2.5000000e-2 9.2677670e-2 -8.0177670e-2
v -2.5000000e-2 5.0000000e-2 3.7500000e-2
v 2.5000000e-2 5.0000000e-2 3.7500000e-2
v -2.5000000e-2 0.10000000 3.7500000e-2
v 2.5000000e-2 0.10000000 3.7500000e-2
v -1.2500000e-2 1.0000000e-1 -6.2500000e-2
v 1.2500000e-2 1.0000000e-1 -6.2500000e-2
v -1.2500000e-2 5.0000000e-2 -6.2500000e-2
v 1.2500000e-2 5.0000000e-2 -6.2500000e-2
v -1.2500000e-2 5.7322330e-2 -8.0177670e-2
v 1.2500000e-2 5.7322330e-2 -8.0177670e-2
v -1.2500000e-2 7.5000000e-2 -8.7500000e-2
v 1.2500000e-2 7.5000000e-2 -8.7500000e-2
v -1.2500000e-2 9.2677670e-2 -8.0177670e-2
v 1.2500000e-2 9.2677670e-2 -8.0177670e-2
v 2.5000000e-2 0.10000000 -3.7500000e-2
v 2.5000000e-2 5.0000000e-2 -3.7500000e-2
v -2.5000000e-2 5.0000000e-2 -3.7500000e-2
v -2.5000000e-2 1.0000000e-1 -3.7500000e-2
v -1.2500000e-2 1.0000000e-1 -3.7500000e-2
v 1.2500000e-2 1.0000000e-1 -3.7500000e-2
v 1.2500000e-2 5.0000000e-2 -3.7500000e-2
v -1.2500000e-2 5.0000000e-2 -3.7500000e-2
vt 4.0777142e-2 0.82802471
vt 4.0777142e-2 0.84289213
vt 4.0777142e-2 0.73603592
vt 4.0777142e-2 0.81315729
vt 4.0777142e-2 0.85775956
vt 4.0777142e-2 0.87262698
vt 4.0777142e-2 0.95096535
vt 7.9946329e-2 0.73603592
vt 7.9946329e-2 0.81315729
vt 7.9946329e-2 0.82802471
vt 7.9946329e-2 0.84289213
vt 7.9946329e-2 0.85775956
vt 7.9946329e-2 0.87262698
vt 7.9946329e-2 0.95096535
vt 9.9713813e-2 0.82282943
vt 9.9713813e-2 0.86167988
vt 9.9713813e-2 0.93938077
vt 9.9713813e-2 0.74512854
vt 0.10540333 0.95311648
vt 0.10540333 0.73139283
vt 0.11913904 0.72570332
vt 0.11913904 0.95880599
vt 0.13287474 0.95311648
vt 0.13287474 0.73139283
vt 0.13856426 0.74512854
vt 0.13856426 0.82282943
vt 0.13856426 0.86167988
vt 0.13856426 0.93938077
vt 0.21901804 0.84199273
vt 0.21901804 0.95897104
vt 0.21901804 0.95897104
vt 0.21901804 0.84199273
vt 0.23016861 0.84199273
vt 0.23016861 0.95897104
vt 0.23016861 0.95897104
vt 0.23016861 0.84199273
vt 0.24131917 0.84199273
vt 0.24131917 0.95897104
vt 0.24131917 0.95897104
vt 0.24131917 0.84199273
vt 0.25246974 0.84199273
vt 0.25246974 0.95897104
vt 0.25246974 0.95897104
vt 0.25246974 0.84199273
vt 0.26362031 0.84199273
vt 0.26362031 0.95897104
vt 0.26362031 0.84199273
vt 0.26362031 0.95897104
vt 0.27477087 0.84199273
vt 0.27477087 0.95897104
vt 0.27477087 0.84199273
vt 0.27477087 0.95897104
vt 0.28592144 0.84199273
vt 0.28592144 0.95897104
vt 0.28592144 0.84199273
vt 0.28592144 0.95897104
vt 0.29707201 0.84199273
vt 0.29707201 0.95897104
vt 0.29707201 0.84199273
vt 0.29707201 0.95897104
vt 0.30822257 0.95897104
vt 0.30822257 0.84199273
vt 0.30822257 0.95897104
vt 0.40149184 0.46644647
vt 0.40149184 0.47450288
vt 0.40149184 0.43506485
vt 0.40149184 0.44385722
vt 0.40149184 0.47450288
vt 0.40149184 0.46644647
vt 0.40149184 0.43506485
vt 0.40149184 0.44385722
vt 0.41649024 0.43506485
vt 0.41649024 0.46644647
vt 0.41649024 0.44385722
vt 0.41649024 0.47450288
vt 0.41649024 0.46644647
vt 0.41649024 0.44385722
vt 0.41649024 0.47450288
vt 0.41649024 0.43506485
vt 0.43148864 0.46644647
vt 0.43148864 0.43506485
vt 0.43148864 0.47450288
vt 0.43148864 0.46644647
vt 0.43148864 0.44385722
vt 0.43148864 0.47450288
vt 0.43148864 0.43506485
vt 0.43148864 0.44385722
vt 0.45108500 0.43506485
vt 0.45108500 0.44385722
vt 0.45108500 0.46644647
vt 0.45108500 0.44385722
vt 0.45108500 0.46644647
vt 0.45108500 0.47450288
vt 0.45108500 0.47450288
vt 0.45108500 0.43506485
vt 0.50987406 0.47450288
vt 0.50987406 0.43506485
vt 0.50987406 0.47450288
vt 0.50987406 0.43506485
vt 0.51313593 0.45484252
vt 0.51887557 0.44098581
vt 0.51887557 0.46869924
vt 0.53273229 0.43524617
vt 0.53273229 0.47443888
vt 0.55232864 0.47443888
vt 0.55232864 0.43524617
vt 0.61111770 0.43524617
vt 0.61111770 0.47443888
vt 0.65031041 0.43524617
vt 0.65031041 0.47443888
vt 0.70909947 0.47443888
vt 0.70909947 0.43524617
vt 0.72869583 0.47443888
vt 0.72869583 0.43524617
vt 0.74255254 0.44098581
vt 0.74255254 0.46869924
vt 0.74829218 0.45484252
vt 0.78902044 0.45628182
vt 0.79476008 0.44242510
vt 0.79476008 0.47013853
vt 0.80861679 0.43668546
vt 0.80861679 0.47587817
vt 0.82821315 0.43668546
vt 0.82821315 0.47587817
vt 0.84780950 0.43668546
vt 0.84780950 0.47587817
vt 0.86740586 0.43668546
vt 0.86740586 0.47587817
vt 0.88126257 0.44242510
vt 0.88126257 0.47013853
vt 0.88700221 0.45628182
vn 0.0000000e+0 1.00000000 0.0000000e+0
vn 0.0000000e+0 0.70710678 0.70710678
vn -1.0221956e-17 -2.4033935e-16 1.00000000
vn -3.4073187e-17 -0.70710678 0.70710678
vn -2.3851231e-17 -1.00000000 6.9097563e-16
vn 0.0000000e+0 -0.70710678 -0.70710678
vn 0.0000000e+0 0.0000000e+0 -1.00000000
vn 0.0000000e+0 0.70710678 -0.70710678
vn 0.0000000e+0 1.00000000 0.0000000e+0
vn 0.0000000e+0 0.70710678 0.70710678
vn -8.5182968e-18 -9.0127256e-17 1.00000000
vn -3.0665868e-17 -0.70710678 0.70710678
vn -2.2147572e-17 -1.00000000 2.7038177e-16
vn 0.0000000e+0 -0.70710678 -0.70710678
vn 0.0000000e+0 0.0000000e+0 -1.00000000
vn 0.0000000e+0 0.70710678 -0.70710678
vn 0.0000000e+0 0.70710678 -0.70710678
vn 0.0000000e+0 0.0000000e+0 -1.00000000
vn 0.0000000e+0 -0.70710678 -0.70710678
vn -2.2999401e-17 -1.00000000 4.8067870e-16
vn -3.2369528e-17 -0.70710678 0.70710678
vn -9.3701264e-18 -1.6523330e-16 1.00000000
vn 0.0000000e+0 0.70710678 0.70710678
vn 0.0000000e+0 1.00000000 0.0000000e+0
vn -1.00000000 -2.2271828e-16 1.0110709e-16
vn -3.4076663e-16 0.98078528 -0.19509032
vn -3.4076663e-16 0.98078528 -0.19509032
vn -1.00000000 -2.2271828e-16 1.0110709e-16
vn -1.00000000 -2.2271828e-16 1.0110709e-16
vn -1.0832481e-16 -0.98078528 -0.19509032
vn -1.00000000 -2.2271828e-16 1.0110709e-16
vn -1.0832481e-16 -0.98078528 -0.19509032
vn -1.00000000 -3.0665868e-16 2.3690866e-16
vn -3.9098982e-16 -0.70710678 -0.70710678
vn -3.9098982e-16 -0.70710678 -0.70710678
vn -1.00000000 -3.0665868e-16 2.3690866e-16
vn -4.3698862e-16 0.0000000e+0 -1.00000000
vn -4.3698862e-16 0.0000000e+0 -1.00000000
vn -1.00000000 -3.0665868e-16 2.3690866e-16
vn -2.2232755e-16 0.70710678 -0.70710678
vn -2.2232755e-16 0.70710678 -0.70710678
vn -3.4076663e-16 0.98078528 -0.19509032
vn 1.00000000 2.3603691e-16 -5.0553547e-17
vn -3.4076663e-16 0.98078528 -0.19509032
vn 1.00000000 2.3603691e-16 -5.0553547e-17
vn -1.0832481e-16 -0.98078528 -0.19509032
vn 1.00000000 2.3603691e-16 -5.0553547e-17
vn -1.0832481e-16 -0.98078528 -0.19509032
vn 1.00000000 2.3603691e-16 -5.0553547e-17
vn -3.9098982e-16 -0.70710678 -0.70710678
vn -3.9098982e-16 -0.70710678 -0.70710678
vn 1.00000000 3.6799042e-16 -1.5314880e-16
vn -4.3698862e-16 0.0000000e+0 -1.00000000
vn -4.3698862e-16 0.0000000e+0 -1.00000000
vn 1.00000000 3.6799042e-16 -1.5314880e-16
vn -2.2232755e-16 0.70710678 -0.70710678
vn -2.2232755e-16 0.70710678 -0.70710678
vn 1.00000000 3.6799042e-16 -1.5314880e-16
vn -1.00000000 -1.3877788e-16 -3.4694470e-17
vn 1.5407440e-31 -1.00000000 5.5511151e-16
vn 0.0000000e+0 0.0000000e+0 1.00000000
vn 1.5407440e-31 -1.00000000 5.5511151e-16
vn 1.00000000 1.0408341e-16 5.2041704e-17
vn 0.0000000e+0 0.0000000e+0 1.00000000
vn -5.5511151e-16 1.00000000 -8.3266727e-16
vn -1.00000000 -1.3877788e-16 -3.4694470e-17
vn 0.0000000e+0 0.0000000e+0 1.00000000
vn -5.5511151e-16 1.00000000 -8.3266727e-16
vn 1.00000000 1.0408341e-16 5.2041704e-17
vn 0.0000000e+0 0.0000000e+0 1.00000000
vn -1.00000000 -2.7475998e-16 1.4370920e-17
vn -9.6452665e-16 0.98078528 -0.19509032
vn -1.00000000 -2.7475998e-16 1.4370920e-17
vn -9.6452665e-16 0.98078528 -0.19509032
vn -1.00000000 -2.7475998e-16 1.4370920e-17
vn -2.3109293e-16 -0.98078528 -0.19509032
vn -1.00000000 -2.7475998e-16 1.4370920e-17
vn -2.3109293e-16 -0.98078528 -0.19509032
vn -1.00000000 -3.0665868e-16 2.3690866e-16
vn -7.9731258e-16 -0.70710678 -0.70710678
vn -7.9731258e-16 -0.70710678 -0.70710678
vn -1.00000000 -3.0665868e-16 2.3690866e-16
vn -8.5864431e-16 -9.0127256e-17 -1.00000000
vn -8.5864431e-16 -9.0127256e-17 -1.00000000
vn -1.00000000 -3.0665868e-16 2.3690866e-16
vn -4.2932216e-16 0.70710678 -0.70710678
vn -4.2932216e-16 0.70710678 -0.70710678
vn 1.00000000 2.7073138e-16 2.7509010e-17
vn 1.00000000 2.7073138e-16 2.7509010e-17
vn -9.6452665e-16 0.98078528 -0.19509032
vn -9.6452665e-16 0.98078528 -0.19509032
vn 1.00000000 2.7073138e-16 2.7509010e-17
vn 1.00000000 2.7073138e-16 2.7509010e-17
vn -2.3109293e-16 -0.98078528 -0.19509032
vn -2.3109293e-16 -0.98078528 -0.19509032
vn 1.00000000 3.6799042e-16 -1.5314880e-16
vn -7.9731258e-16 -0.70710678 -0.70710678
vn -7.9731258e-16 -0.70710678 -0.70710678
vn 1.00000000 3.6799042e-16 -1.5314880e-16
vn -8.8931018e-16 1.8025451e-16 -1.00000000
vn -8.8931018e-16 1.8025451e-16 -1.00000000
vn 1.00000000 3.6799042e-16 -1.5314880e-16
vn -4.5998803e-16 0.70710678 -0.70710678
vn -4.5998803e-16 0.70710678 -0.70710678
vn 0.0000000e+0 0.0000000e+0 1.00000000
vn -1.00000000 -1.0408341e-16 2.3129646e-17
vn 0.0000000e+0 -1.00000000 6.0137081e-16
vn 0.0000000e+0 -1.00000000 6.0137081e-16
vn 0.0000000e+0 0.0000000e+0 1.00000000
vn 1.00000000 6.9388939e-17 -4.1728482e-32
vn 0.0000000e+0 -1.00000000 6.2450045e-16
vn 0.0000000e+0 -1.00000000 6.2450045e-16
vn 0.0000000e+0 0.0000000e+0 1.00000000
vn -1.00000000 -1.0408341e-16 2.3129646e-17
vn -7.4014868e-16 1.00000000 -1.2027416e-15
vn -7.4014868e-16 1.00000000 -1.2027416e-15
vn 0.0000000e+0 0.0000000e+0 1.00000000
vn -7.4014868e-16 1.00000000 -7.8640798e-16
vn 1.00000000 6.9388939e-17 -4.1728482e-32
vn -7.4014868e-16 1.00000000 -7.8640798e-16
vn -9.6452665e-16 0.98078528 -0.19509032
vn -9.6452665e-16 0.98078528 -0.19509032
vn 1.00000000 3.1409947e-16 -8.0167129e-17
vn 1.00000000 3.1409947e-16 -8.0167129e-17
vn -9.6452665e-16 0.98078528 -0.19509032
vn -9.6452665e-16 0.98078528 -0.19509032
vn -1.00000000 -2.9009292e-16 9.7514364e-17
vn -1.00000000 -2.9009292e-16 9.7514364e-17
vn -2.3109293e-16 -0.98078528 -0.19509032
vn -2.3109293e-16 -0.98078528 -0.19509032
vn 1.00000000 3.1409947e-16 -8.0167129e-17
vn 1.00000000 3.1409947e-16 -8.0167129e-17
vn -2.3109293e-16 -0.98078528 -0.19509032
vn -2.3109293e-16 -0.98078528 -0.19509032
vn -1.00000000 -2.9009292e-16 9.7514364e-17
vn -1.00000000 -2.9009292e-16 9.7514364e-17
vn -7.9731258e-16 -0.70710678 -0.70710678
vn -7.9731258e-16 -0.70710678 -0.70710678
vn 1.00000000 3.6799042e-16 -1.9502873e-16
vn -7.9731258e-16 -0.70710678 -0.70710678
vn -7.9731258e-16 -0.70710678 -0.70710678
vn -1.00000000 -3.3732455e-16 1.9502873e-16
vn -8.5864431e-16 -9.0127256e-17 -1.00000000
vn -8.5864431e-16 -9.0127256e-17 -1.00000000
vn 1.00000000 3.6799042e-16 -1.9502873e-16
vn -8.8931018e-16 1.8025451e-16 -1.00000000
vn -8.8931018e-16 1.8025451e-16 -1.00000000
vn -1.00000000 -3.3732455e-16 1.9502873e-16
vn -4.2932216e-16 0.70710678 -0.70710678
vn -4.2932216e-16 0.70710678 -0.70710678
vn 1.00000000 3.6799042e-16 -1.9502873e-16
vn -4.5998803e-16 0.70710678 -0.70710678
vn -4.5998803e-16 0.70710678 -0.70710678
vn -1.00000000 -3.3732455e-16 1.9502873e-16
vn 1.00000000 1.2143064e-16 1.0408341e-16
vn -1.3877788e-15 1.00000000 -7.4014868e-16
vn 1.00000000 1.2143064e-16 1.0408341e-16
vn -1.3877788e-15 1.00000000 -7.4014868e-16
vn 1.00000000 1.2143064e-16 1.0408341e-16
vn 1.00000000 1.2143064e-16 1.0408341e-16
vn 7.7037198e-32 -1.00000000 4.3946328e-16
vn 7.7037198e-32 -1.00000000 4.3946328e-16
vn -1.00000000 -1.7347235e-16 -9.2518585e-17
vn -1.00000000 -1.7347235e-16 -9.2518585e-17
vn 7.7037198e-32 -1.00000000 4.1633363e-16
vn 7.7037198e-32 -1.00000000 4.1633363e-16
vn -1.00000000 -1.7347235e-16 -9.2518585e-17
vn -1.00000000 -1.7347235e-16 -9.2518585e-17
vn -1.3877788e-15 1.00000000 -8.7892656e-16
vn -1.3877788e-15 1.00000000 -8.7892656e-16
vn -1.0485440e-15 1.00000000 -8.9434633e-16
vn -1.0485440e-15 1.00000000 -8.9434633e-16
vn -1.0485440e-15 1.00000000 -8.9434633e-16
vn 1.00000000 2.6020852e-16 3.4694470e-17
vn 1.3877788e-16 6.9388939e-17 -1.00000000
vn -1.0485440e-15 1.00000000 -8.0182774e-16
vn -1.0485440e-15 1.00000000 -8.0182774e-16
vn -1.0485440e-15 1.00000000 -8.0182774e-16
vn 1.3877788e-16 6.9388939e-17 -1.00000000
vn -1.00000000 -2.4286129e-16 1.5407440e-31
vn 5.1358132e-32 -1.00000000 5.0885222e-16
vn 5.1358132e-32 -1.00000000 5.0885222e-16
vn 5.1358132e-32 -1.00000000 5.0885222e-16
vn 1.3877788e-16 6.9388939e-17 -1.00000000
vn -1.00000000 -2.4286129e-16 1.5407440e-31
vn 5.1358132e-32 -1.00000000 4.9343246e-16
vn 5.1358132e-32 -1.00000000 4.9343246e-16
vn 5.1358132e-32 -1.00000000 4.9343246e-16
vn 1.00000000 2.6020852e-16 3.4694470e-17
vn 1.3877788e-16 6.9388939e-17 -1.00000000
g 1_1_auv
usemtl 1_auv
s 1
f 1/40/1 38/38/24 31/42/17 8/44/8
f 2/36/2 37/34/23 38/38/24 1/40/1
f 3/32/3 36/30/22 37/34/23 2/36/2
f 4/59/4 35/58/21 36/61/22 3/62/3
f 5/55/5 34/54/20 35/58/21 4/59/4
f 6/51/6 33/50/19 34/54/20 5/55/5
f 7/47/7 32/46/18 33/50/19 6/51/6
f 8/44/8 31/42/17 32/46/18 7/47/7
f 9/37/9 38/39/24 37/35/23 10/33/10
f 10/33/10 37/35/23 36/31/22 11/29/11
f 11/62/11 36/63/22 35/60/21 12/57/12
f 12/57/12 35/60/21 34/56/20 13/53/13
f 13/53/13 34/56/20 33/52/19 14/49/14
f 14/49/14 33/52/19 32/48/18 15/45/15
f 15/45/15 32/48/18 31/43/17 16/41/16
f 16/41/16 31/43/17 38/39/24 9/37/9
f 18/25/31 27/26/59 29/15/66 17/18/28
f 21/20/39 20/21/36 19/24/33 18/25/29 17/18/25
f 22/17/43 23/28/47 24/23/52 25/22/55 26/19/58
f 22/17/45 30/16/69 28/27/63 23/28/49
f 50/109/109 52/110/117 51/108/113 49/107/105
f 68/124/179 69/123/184 70/125/190 67/126/175
s 2
f 28/27/64 30/16/70 29/15/67 27/26/61
f 40/103/77 65/106/163 66/105/167 39/104/73
f 43/102/85 42/100/82 41/101/79 40/103/75 39/104/71
f 44/113/88 45/114/92 46/115/96 47/117/99 48/116/102
f 44/113/89 63/111/155 64/112/159 45/114/93
f 50/109/110 64/112/160 63/111/157 52/110/119
f 51/108/114 66/105/168 65/106/164 49/107/106
f 54/122/127 56/121/135 69/123/185 68/124/180
f 56/121/136 54/122/128 62/120/154 60/118/148 58/119/142
f 59/131/145 61/130/151 53/128/124 55/127/132 57/129/139
f 67/126/174 70/125/189 55/127/131 53/128/123
s 3
f 17/13/26 22/6/42 26/5/56 21/12/40
f 17/13/27 29/14/65 30/7/68 22/6/44
f 19/10/35 24/1/51 23/4/46 18/9/30
f 20/11/38 25/2/54 24/1/50 19/10/34
f 21/12/41 26/5/57 25/2/53 20/11/37
f 23/4/48 28/3/62 27/8/60 18/9/32
f 39/86/72 53/87/121 61/77/149 43/79/86
f 39/86/74 66/95/169 67/91/171 53/87/122
f 41/72/81 57/74/138 55/84/129 40/81/76
f 42/66/84 59/67/144 57/74/137 41/72/80
f 43/79/87 61/77/150 59/71/143 42/70/83
f 45/82/94 56/80/133 58/73/141 46/75/98
f 46/75/97 58/73/140 60/64/147 47/65/101
f 47/68/100 60/69/146 62/76/153 48/78/104
f 48/78/103 62/76/152 54/83/125 44/85/90
f 49/99/108 70/89/188 69/92/182 50/96/111
f 50/96/112 69/92/183 64/93/162
f 51/97/116 67/91/173 66/95/170
f 52/98/120 68/90/178 67/91/172 51/97/115
f 54/83/126 68/90/177 63/94/158 44/85/91
f 55/84/130 70/89/187 65/88/166 40/81/78
f 63/94/156 68/90/176 52/98/118
f 64/93/161 69/92/181 56/80/134 45/82/95
f 65/88/165 70/89/186 49/99/107
