# Exported from Wings 3D 1.5.4
mtllib ls2.mtl
o s1
#46 vertices, 38 faces
v -1.2500000e-2 1.8750000e-2 -2.2204460e-16
v -1.2500000e-2 1.3258252e-2 1.3258252e-2
v -1.2500000e-2 2.3592239e-16 1.8750000e-2
v -1.2500000e-2 -1.3258252e-2 1.3258252e-2
v -1.2500000e-2 -1.8750000e-2 -2.2204460e-16
v -1.2500000e-2 -1.3258252e-2 -1.3258252e-2
v -1.2500000e-2 2.2204460e-16 -1.8750000e-2
v -1.2500000e-2 1.3258252e-2 -1.3258252e-2
v 1.2500000e-2 1.8750000e-2 -2.2204460e-16
v 1.2500000e-2 1.3258252e-2 1.3258252e-2
v 1.2500000e-2 2.3592239e-16 1.8750000e-2
v 1.2500000e-2 -1.3258252e-2 1.3258252e-2
v 1.2500000e-2 -1.8750000e-2 -2.2204460e-16
v 1.2500000e-2 -1.3258252e-2 -1.3258252e-2
v 1.2500000e-2 2.2204460e-16 -1.8750000e-2
v 1.2500000e-2 1.3258252e-2 -1.3258252e-2
v 6.2500000e-3 2.5000000e-2 0.0000000e+0
v 6.2500000e-3 1.7677670e-2 -1.7677670e-2
v 6.2500000e-3 -2.7755576e-17 -2.5000000e-2
v 6.2500000e-3 -1.7677670e-2 -1.7677670e-2
v 6.2500000e-3 -2.5000000e-2 0.0000000e+0
v -6.2500000e-3 2.5000000e-2 0.0000000e+0
v -6.2500000e-3 1.7677670e-2 -1.7677670e-2
v -6.2500000e-3 -2.7755576e-17 -2.5000000e-2
v -6.2500000e-3 -1.7677670e-2 -1.7677670e-2
v -6.2500000e-3 -2.5000000e-2 0.0000000e+0
v 6.2500000e-3 -2.5000000e-2 2.5000000e-2
v 6.2500000e-3 2.5000000e-2 2.5000000e-2
v -6.2500000e-3 2.5000000e-2 2.5000000e-2
v -6.2500000e-3 -2.5000000e-2 2.5000000e-2
v -1.8750000e-2 1.1102230e-16 7.5000000e-2
v -1.3258252e-2 -1.3258252e-2 7.5000000e-2
v -1.5959456e-16 -1.8750000e-2 7.5000000e-2
v 1.3258252e-2 -1.3258252e-2 7.5000000e-2
v 1.8750000e-2 1.1102230e-16 7.5000000e-2
v 1.3258252e-2 1.3258252e-2 7.5000000e-2
v -1.5959456e-16 1.8750000e-2 7.5000000e-2
v -1.3258252e-2 1.3258252e-2 7.5000000e-2
v -1.3258252e-2 1.3258252e-2 0.37500000
v -1.8750000e-2 1.1102230e-16 0.37500000
v -1.3258252e-2 -1.3258252e-2 0.37500000
v -6.8295871e-16 -1.8750000e-2 0.37500000
v 1.3258252e-2 -1.3258252e-2 0.37500000
v 1.8750000e-2 1.1102230e-16 0.37500000
v 1.3258252e-2 1.3258252e-2 0.37500000
v -6.8295871e-16 1.8750000e-2 0.37500000
vt 0.35813669 8.7782983e-2
vt 0.35813669 6.8184539e-2
vt 0.35837378 0.12801250
vt 0.35837378 0.36238750
vt 0.36938669 6.8184539e-2
vt 0.36938669 8.7782983e-2
vt 0.36958521 0.12801250
vt 0.36958521 0.36238750
vt 0.38063669 6.8184539e-2
vt 0.38063669 8.7782983e-2
vt 0.38079664 0.12801250
vt 0.38079664 0.36238750
vt 0.39188669 6.8184539e-2
vt 0.39188669 8.7782983e-2
vt 0.39200807 0.12801250
vt 0.39200807 0.36238750
vt 0.40313669 6.8184539e-2
vt 0.40313669 8.7782983e-2
vt 0.40321949 0.36238750
vt 0.40321949 0.12801250
vt 0.41438669 6.8184539e-2
vt 0.41438669 8.7782983e-2
vt 0.41443092 0.12801250
vt 0.41443092 0.36238750
vt 0.42563669 6.8184539e-2
vt 0.42563669 8.7782983e-2
vt 0.42564235 0.12801250
vt 0.42564235 0.36238750
vt 0.43685378 0.12801250
vt 0.43685378 0.36238750
vt 0.43688669 6.8184539e-2
vt 0.43688669 8.7782983e-2
vt 0.44806521 0.12801250
vt 0.44806521 0.36238750
vt 0.44813669 6.8184539e-2
vt 0.44813669 8.7782983e-2
vt 0.73231756 0.27502619
vt 0.73231756 0.27502619
vt 0.73231756 0.31264576
vt 0.73231756 0.31264576
vt 0.73231756 0.33201755
vt 0.73231756 0.33201755
vt 0.73231756 0.34684408
vt 0.73231756 0.34684408
vt 0.73231756 0.36167061
vt 0.73231756 0.36167061
vt 0.73855141 0.27502619
vt 0.73855141 0.27502619
vt 0.74478526 0.27502619
vt 0.74478526 0.27502619
vt 0.74478526 0.31264576
vt 0.74478526 0.31264576
vt 0.74478526 0.33201755
vt 0.74478526 0.33201755
vt 0.74478526 0.34684408
vt 0.74478526 0.34684408
vt 0.74478526 0.36167061
vt 0.74478526 0.36167061
vt 0.74663815 0.27490737
vt 0.74663815 0.31257731
vt 0.74663815 0.33194911
vt 0.74672183 0.27489706
vt 0.74672183 0.31256700
vt 0.74672183 0.33193879
vt 0.75219795 0.34564703
vt 0.75228164 0.34563672
vt 0.76589588 0.35132090
vt 0.76597956 0.35131059
vt 0.76605058 0.27490737
vt 0.76613426 0.27489706
vt 0.77959380 0.34564703
vt 0.77967749 0.34563672
vt 0.78525674 0.27490737
vt 0.78525674 0.31257731
vt 0.78525674 0.33194911
vt 0.78534042 0.27489706
vt 0.78534042 0.31256700
vt 0.78534042 0.33193879
vn 0.0000000e+0 1.00000000 -2.4033935e-16
vn 0.0000000e+0 0.70710678 0.70710678
vn 0.0000000e+0 9.0127256e-17 1.00000000
vn 0.0000000e+0 -0.70710678 0.70710678
vn 0.0000000e+0 -1.00000000 4.5063628e-16
vn 0.0000000e+0 -0.70710678 -0.70710678
vn 0.0000000e+0 0.0000000e+0 -1.00000000
vn 0.0000000e+0 0.70710678 -0.70710678
vn 0.0000000e+0 1.00000000 -2.4033935e-16
vn 0.0000000e+0 0.70710678 0.70710678
vn 0.0000000e+0 9.0127256e-17 1.00000000
vn 0.0000000e+0 -0.70710678 0.70710678
vn 0.0000000e+0 -1.00000000 4.5063628e-16
vn 0.0000000e+0 -0.70710678 -0.70710678
vn 0.0000000e+0 0.0000000e+0 -1.00000000
vn 0.0000000e+0 0.70710678 -0.70710678
vn -0.99762945 2.2559261e-16 -6.8814873e-2
vn -1.1848821e-17 -0.99545006 9.5284745e-2
vn 0.99762945 7.1239770e-17 -6.8814873e-2
vn 2.1327878e-16 0.99545006 9.5284745e-2
vn -0.70710678 0.70710678 -1.2317457e-15
vn -1.00000000 3.6050902e-16 -1.7411399e-15
vn -0.70710678 -0.70710678 -1.2325975e-15
vn 0.0000000e+0 -1.00000000 0.0000000e+0
vn 0.70710678 -0.70710678 1.2317457e-15
vn 1.00000000 4.2059386e-16 1.7402880e-15
vn 0.70710678 0.70710678 1.2317457e-15
vn 0.0000000e+0 1.00000000 0.0000000e+0
vn 1.00000000 -4.0788570e-16 1.0051183e-15
vn 1.6519327e-15 0.98078528 -0.19509032
vn 1.00000000 -4.0788570e-16 1.0051183e-15
vn 1.6519327e-15 0.98078528 -0.19509032
vn 1.00000000 -2.6065988e-16 2.0102366e-15
vn 5.5198563e-16 0.70710678 -0.70710678
vn 5.5198563e-16 0.70710678 -0.70710678
vn 1.00000000 -2.6065988e-16 2.0102366e-15
vn 0.0000000e+0 -2.7038177e-16 -1.00000000
vn 0.0000000e+0 -2.7038177e-16 -1.00000000
vn 1.00000000 -2.6065988e-16 2.0102366e-15
vn 0.0000000e+0 -0.70710678 -0.70710678
vn 0.0000000e+0 -0.70710678 -0.70710678
vn 1.00000000 -4.0788570e-16 1.0051183e-15
vn 0.0000000e+0 -0.98078528 -0.19509032
vn 1.00000000 -4.0788570e-16 1.0051183e-15
vn 0.0000000e+0 -0.98078528 -0.19509032
vn -1.00000000 6.1488031e-16 -5.3130099e-16
vn 1.6519327e-15 0.98078528 -0.19509032
vn 1.6519327e-15 0.98078528 -0.19509032
vn -1.00000000 6.1488031e-16 -5.3130099e-16
vn -1.00000000 6.7464910e-16 -1.0626020e-15
vn 5.5198563e-16 0.70710678 -0.70710678
vn 5.5198563e-16 0.70710678 -0.70710678
vn -1.00000000 6.7464910e-16 -1.0626020e-15
vn 0.0000000e+0 -2.7038177e-16 -1.00000000
vn 0.0000000e+0 -2.7038177e-16 -1.00000000
vn -1.00000000 6.7464910e-16 -1.0626020e-15
vn 0.0000000e+0 -0.70710678 -0.70710678
vn 0.0000000e+0 -0.70710678 -0.70710678
vn -1.00000000 6.1488031e-16 -5.3130099e-16
vn 0.0000000e+0 -0.98078528 -0.19509032
vn -1.00000000 6.1488031e-16 -5.3130099e-16
vn 0.0000000e+0 -0.98078528 -0.19509032
vn 0.98677917 -0.13041448 -9.6223319e-2
vn 0.12835812 -0.98697916 9.6934679e-2
vn 0.98677917 -0.13041448 -9.6223319e-2
vn 0.12835812 -0.98697916 9.6934679e-2
vn 0.98677917 -0.13041448 -9.6223319e-2
vn 0.12835812 -0.98697916 9.6934679e-2
vn 0.98677917 0.13041448 -9.6223319e-2
vn 0.12835812 0.98697916 9.6934679e-2
vn 0.12835812 0.98697916 9.6934679e-2
vn 0.98677917 0.13041448 -9.6223319e-2
vn 0.12835812 0.98697916 9.6934679e-2
vn 0.98677917 0.13041448 -9.6223319e-2
vn -0.12835812 0.98697916 9.6934679e-2
vn -0.98677917 0.13041448 -9.6223319e-2
vn -0.98677917 0.13041448 -9.6223319e-2
vn -0.12835812 0.98697916 9.6934679e-2
vn -0.12835812 0.98697916 9.6934679e-2
vn -0.98677917 0.13041448 -9.6223319e-2
vn -0.98677917 -0.13041448 -9.6223319e-2
vn -0.12835812 -0.98697916 9.6934679e-2
vn -0.98677917 -0.13041448 -9.6223319e-2
vn -0.12835812 -0.98697916 9.6934679e-2
vn -0.98677917 -0.13041448 -9.6223319e-2
vn -0.12835812 -0.98697916 9.6934679e-2
vn -0.70762379 -0.70581847 3.2997800e-2
vn -0.70762379 -0.70581847 3.2997800e-2
vn -0.70762379 -0.70581847 3.2997800e-2
vn -0.70762379 -0.70581847 3.2997800e-2
vn 0.70762379 -0.70581847 3.2997800e-2
vn 0.70762379 -0.70581847 3.2997800e-2
vn 0.70762379 -0.70581847 3.2997800e-2
vn 0.70762379 -0.70581847 3.2997800e-2
vn 0.70762379 0.70581847 3.2997800e-2
vn 0.70762379 0.70581847 3.2997800e-2
vn 0.70762379 0.70581847 3.2997800e-2
vn 0.70762379 0.70581847 3.2997800e-2
vn -0.70762379 0.70581847 3.2997800e-2
vn -0.70762379 0.70581847 3.2997800e-2
vn -0.70762379 0.70581847 3.2997800e-2
vn -0.70762379 0.70581847 3.2997800e-2
g s1_1_auv
usemtl 1_auv
s 1
f 1/26/1 9/25/9 16/31/16 8/32/8
f 2/22/2 10/21/10 9/25/9 1/26/1
f 3/18/3 11/17/11 10/21/10 2/22/2
f 4/14/4 12/13/12 11/17/11 3/18/3
f 5/10/5 13/9/13 12/13/12 4/14/4
f 6/6/6 14/5/14 13/9/13 5/10/5
f 7/1/7 15/2/15 14/5/14 6/6/6
f 8/32/8 16/31/16 15/35/15 7/36/7
f 17/61/29 21/75/42 20/71/39 19/67/36 18/65/33
f 17/61/31 28/60/69 27/74/63 21/75/44
f 18/44/35 23/56/52 22/53/47 17/41/30
f 19/46/38 24/58/55 23/56/51 18/44/34
f 20/43/41 25/55/58 24/57/54 19/45/37
f 21/42/43 26/54/60 25/55/57 20/43/40
f 21/42/45 27/39/64 30/51/82 26/54/62
f 22/53/48 29/52/75 28/40/70 17/41/32
f 23/72/50 24/68/53 25/66/56 26/64/59 22/78/46
f 26/64/61 30/63/81 29/77/76 22/78/49
f 27/39/68 33/47/18 30/51/86
f 28/60/74 35/69/19 27/74/67
f 29/52/79 37/48/20 28/40/73
f 30/63/85 31/70/17 29/77/80
f 31/70/17 30/63/83 32/62/87
f 31/12/17 40/11/22 39/15/21 38/16/101
f 32/49/88 30/51/84 33/47/18
f 32/8/89 41/7/23 40/11/22 31/12/17
f 33/47/18 27/39/66 34/37/92
f 33/4/18 42/3/24 41/7/23 32/8/90
f 34/73/91 27/74/65 35/69/19
f 34/30/93 43/29/25 42/33/24 33/34/18
f 35/69/19 28/60/72 36/59/96
f 35/28/19 44/27/26 43/29/25 34/30/94
f 36/38/95 28/40/71 37/48/20
f 36/24/97 45/23/27 44/27/26 35/28/19
f 37/48/20 29/52/78 38/50/100
f 37/19/20 46/20/28 45/23/27 36/24/98
f 38/76/99 29/77/77 31/70/17
f 38/16/102 39/15/21 46/20/28 37/19/20
