# Exported from Wings 3D 1.5.4
mtllib 4mv_sensor_magnetometer_srf_1_rotator.mtl
o mesh1
#92 vertices, 80 faces
v 1.8750000e-2 3.1250000e-2 0.0000000e+0
v 1.3258252e-2 3.1250000e-2 1.3258252e-2
v -5.3322211e-17 3.1250000e-2 1.8750000e-2
v -1.3258252e-2 3.1250000e-2 1.3258252e-2
v -1.8750000e-2 3.1250000e-2 2.2962127e-18
v 1.8750000e-2 1.8750000e-2 -1.0221956e-18
v 1.3258252e-2 1.8750000e-2 1.3258252e-2
v -5.3322211e-17 1.8750000e-2 1.8750000e-2
v -1.3258252e-2 1.8750000e-2 1.3258252e-2
v -1.8750000e-2 1.8750000e-2 1.2740171e-18
v 1.8750000e-2 1.8750000e-2 -1.8750000e-2
v -1.8750000e-2 1.8750000e-2 -1.8750000e-2
v 1.8750000e-2 3.1250000e-2 -3.1250000e-2
v -1.8750000e-2 3.1250000e-2 -3.1250000e-2
v -1.8750000e-2 -1.8750000e-2 -3.1250000e-2
v 1.8750000e-2 -1.8750000e-2 -3.1250000e-2
v 1.8750000e-2 -1.8750000e-2 -1.8750000e-2
v -1.8750000e-2 -1.8750000e-2 -1.8750000e-2
v 9.3750000e-3 7.0473141e-18 -3.1250000e-2
v 6.6291261e-3 -6.6291261e-3 -3.1250000e-2
v -5.4850362e-17 -9.3750000e-3 -3.1250000e-2
v -6.6291261e-3 -6.6291261e-3 -3.1250000e-2
v -9.3750000e-3 5.8992077e-18 -3.1250000e-2
v -6.6291261e-3 6.6291261e-3 -3.1250000e-2
v -5.7146575e-17 9.3750000e-3 -3.1250000e-2
v 6.6291261e-3 6.6291261e-3 -3.1250000e-2
v 9.3750000e-3 -3.0938596e-17 -0.48750000
v 6.6291261e-3 -6.6291261e-3 -0.48750000
v -5.4850362e-17 -9.3750000e-3 -0.48750000
v -6.6291261e-3 -6.6291261e-3 -0.48750000
v -9.3750000e-3 -3.2086702e-17 -0.48750000
v -6.6291261e-3 6.6291261e-3 -0.48750000
v -5.7146575e-17 9.3750000e-3 -0.48750000
v 6.6291261e-3 6.6291261e-3 -0.48750000
v 6.2500000e-3 1.7153797e-17 -0.48750000
v 4.4194174e-3 -4.4194174e-3 -0.48750000
v -5.4636944e-17 -6.2500000e-3 -0.48750000
v -4.4194174e-3 -4.4194174e-3 -0.48750000
v -6.2500000e-3 1.6388393e-17 -0.48750000
v -4.4194174e-3 4.4194174e-3 -0.48750000
v -5.6167753e-17 6.2500000e-3 -0.48750000
v 4.4194174e-3 4.4194174e-3 -0.48750000
v 4.4194174e-3 4.4194174e-3 -0.56417468
v -3.6020890e-17 6.2500000e-3 -0.56417468
v -4.4194174e-3 4.4194174e-3 -0.56417468
v -6.2500000e-3 1.5815421e-17 -0.56417468
v -4.4194174e-3 -4.4194174e-3 -0.56417468
v -3.4490082e-17 -6.2500000e-3 -0.56417468
v 4.4194174e-3 -4.4194174e-3 -0.56417468
v 6.2500000e-3 1.6580825e-17 -0.56417468
v 1.5625000e-2 5.8221330e-17 -0.56668671
v 1.1048543e-2 -1.1048543e-2 -0.56668671
v 9.5675531e-19 -1.5625000e-2 -0.56668671
v -1.1048543e-2 -1.1048543e-2 -0.56668671
v -1.5625000e-2 5.6307820e-17 -0.56668671
v -1.1048543e-2 1.1048543e-2 -0.56668671
v -2.8702659e-18 1.5625000e-2 -0.56668671
v 1.1048543e-2 1.1048543e-2 -0.56668671
v 2.7063294e-2 5.7520937e-17 -0.57812500
v 1.9136639e-2 -1.9136639e-2 -0.57812500
v 1.6571488e-18 -2.7063294e-2 -0.57812500
v -1.9136639e-2 -1.9136639e-2 -0.57812500
v -2.7063294e-2 5.4206639e-17 -0.57812500
v -1.9136639e-2 1.9136639e-2 -0.57812500
v -4.9714464e-18 2.7063294e-2 -0.57812500
v 1.9136639e-2 1.9136639e-2 -0.57812500
v 3.1250000e-2 5.6564182e-17 -0.59375000
v 2.2097087e-2 -2.2097087e-2 -0.59375000
v 1.9135106e-18 -3.1250000e-2 -0.59375000
v -2.2097087e-2 -2.2097087e-2 -0.59375000
v -3.1250000e-2 5.2737160e-17 -0.59375000
v -2.2097087e-2 2.2097087e-2 -0.59375000
v -5.7405319e-18 3.1250000e-2 -0.59375000
v 2.2097087e-2 2.2097087e-2 -0.59375000
v 2.7063294e-2 5.5607426e-17 -0.60937500
v 1.9136639e-2 -1.9136639e-2 -0.60937500
v 1.6571488e-18 -2.7063294e-2 -0.60937500
v -1.9136639e-2 -1.9136639e-2 -0.60937500
v -2.7063294e-2 5.2293129e-17 -0.60937500
v -1.9136639e-2 1.9136639e-2 -0.60937500
v -4.9714464e-18 2.7063294e-2 -0.60937500
v 1.9136639e-2 1.9136639e-2 -0.60937500
v 1.5625000e-2 5.4907033e-17 -0.62081329
v 1.1048543e-2 -1.1048543e-2 -0.62081329
v 9.5675531e-19 -1.5625000e-2 -0.62081329
v -1.1048543e-2 -1.1048543e-2 -0.62081329
v -1.5625000e-2 5.2993522e-17 -0.62081329
v -1.1048543e-2 1.1048543e-2 -0.62081329
v -2.8702659e-18 1.5625000e-2 -0.62081329
v 1.1048543e-2 1.1048543e-2 -0.62081329
v 0.0000000e+0 5.8477692e-17 -0.56250000
v 0.0000000e+0 5.4650671e-17 -0.62500000
vt 0.70695158 0.59064132
vt 0.70695158 0.59657676
vt 0.71319099 0.59064132
vt 0.71319099 0.59657676
vt 0.71943040 0.59064132
vt 0.71943040 0.59657676
vt 0.72758257 0.59064132
vt 0.72758257 0.57509376
vt 0.73333172 0.57509376
vt 0.73333172 0.59657676
vt 0.73336185 0.55292853
vt 0.73336185 0.54477635
vt 0.73336185 0.56923288
vt 0.73336185 0.57522654
vt 0.73336185 0.59670953
vt 0.73336185 0.60999377
vt 0.73543521 0.53901189
vt 0.73543521 0.61575823
vt 0.74119967 0.53662417
vt 0.74119967 0.61814595
vt 0.74696413 0.53901189
vt 0.74696413 0.61575823
vt 0.74915802 0.57520676
vt 0.74915802 0.59668976
vt 0.74923542 0.54477635
vt 0.74923542 0.55292853
vt 0.74923542 0.56923288
vt 0.74923542 0.57522654
vt 0.74923542 0.59670953
vt 0.74923542 0.60999377
vt 0.75470924 0.57520676
vt 0.75470924 0.59075432
vt 0.76286141 0.59075432
vt 0.76286141 0.59668976
vt 0.76910082 0.59668976
vt 0.76910082 0.59075432
vt 0.77534023 0.59075432
vt 0.77534023 0.59668976
vt 0.81589306 0.41441429
vt 0.81589306 0.61821874
vt 0.81594089 0.41166998
vt 0.81901276 0.41441429
vt 0.81901276 0.61821874
vt 0.81957745 0.41158219
vt 0.81957745 0.41175778
vt 0.82213247 0.41441429
vt 0.82213247 0.61821874
vt 0.82525217 0.41441429
vt 0.82525217 0.61821874
vt 0.82835689 0.41154582
vt 0.82835689 0.41179414
vt 0.82837187 0.41441429
vt 0.82837187 0.61821874
vt 0.83149158 0.41441429
vt 0.83149158 0.61821874
vt 0.83461128 0.41441429
vt 0.83461128 0.61821874
vt 0.83713633 0.41158219
vt 0.83713633 0.41175778
vt 0.83773098 0.41441429
vt 0.83773098 0.61821874
vt 0.84077289 0.41166998
vt 0.84085069 0.41441429
vt 0.84085069 0.61821874
vt 0.88092376 9.1814410e-2
vt 0.88092376 9.3683779e-2
vt 0.88092376 9.5553149e-2
vt 0.88092376 9.7422519e-2
vt 0.88092376 9.9291888e-2
vt 0.88092376 0.10116126
vt 0.88092376 0.10303063
vt 0.88092376 0.10490000
vt 0.88092376 0.10676937
vt 0.91088760 9.1814410e-2
vt 0.91088760 9.3683779e-2
vt 0.91088760 9.5553149e-2
vt 0.91088760 9.7422519e-2
vt 0.91088760 9.9291888e-2
vt 0.91088760 0.10116126
vt 0.91088760 0.10303063
vt 0.91088760 0.10490000
vt 0.91088760 0.10676937
vt 0.92324050 9.8102953e-2
vt 0.92324050 9.8102953e-2
vt 0.92881197 9.3334761e-2
vt 0.92881197 0.10287114
vt 0.92881197 9.3334761e-2
vt 0.92881197 9.3334761e-2
vt 0.92881197 0.10287114
vt 0.92881197 0.10287114
vt 0.93009613 9.8102953e-2
vt 0.93009613 9.8102953e-2
vt 0.93502026 9.0282870e-2
vt 0.93502026 0.10592304
vt 0.93502026 9.0282870e-2
vt 0.93502026 9.0282870e-2
vt 0.93502026 0.10592304
vt 0.93502026 0.10592304
vt 0.93605520 9.8102953e-2
vt 0.93605520 9.8102953e-2
vt 0.94162025 8.9233638e-2
vt 0.94162025 9.8102953e-2
vt 0.94162025 0.10697227
vt 0.94162025 8.9233638e-2
vt 0.94162025 9.8102953e-2
vt 0.94162025 0.10697227
vt 0.94718530 9.8102953e-2
vt 0.94718530 9.8102953e-2
vt 0.94822024 9.0282870e-2
vt 0.94822024 0.10592304
vt 0.94822024 9.0282870e-2
vt 0.94822024 9.0282870e-2
vt 0.94822024 0.10592304
vt 0.95314437 9.8102953e-2
vt 0.95442853 9.3334761e-2
vt 0.95442853 0.10287114
vt 0.95442853 9.3334761e-2
vt 0.95442853 9.3334761e-2
vt 0.95442853 0.10287114
vt 0.96000000 9.8102953e-2
vn 1.00000000 3.0042419e-17 -2.8005359e-19
vn 0.70710678 -0.70710678 5.8811254e-17
vn 9.0127256e-17 -1.00000000 8.3736024e-17
vn -0.70710678 -0.70710678 5.9371362e-17
vn -1.00000000 -1.5021209e-16 0.0000000e+0
vn -0.70710678 0.70710678 -5.9371362e-17
vn -2.1029693e-16 1.00000000 -8.3736024e-17
vn 0.70710678 0.70710678 -5.9091308e-17
vn 0.70710678 0.70710678 1.7622699e-16
vn -1.5021209e-16 1.00000000 -1.1248531e-17
vn -0.70710678 0.70710678 -1.9247486e-16
vn -1.00000000 -1.8025451e-16 -2.5996605e-16
vn -0.70710678 -0.70710678 -1.7622699e-16
vn 0.0000000e+0 -1.00000000 9.9986943e-18
vn 0.70710678 -0.70710678 1.9122503e-16
vn 1.00000000 9.0127256e-17 2.5996605e-16
vn 0.49588308 5.8822060e-17 0.86838930
vn 0.35064229 -0.35064229 0.86838930
vn 1.4705515e-17 -0.49588308 0.86838930
vn -0.35064229 -0.35064229 0.86838930
vn -0.49588308 -2.2058273e-16 0.86838930
vn -0.35064229 0.35064229 0.86838930
vn -1.2940853e-15 0.49588308 0.86838930
vn 0.35064229 0.35064229 0.86838930
vn 0.86380037 6.0873854e-17 0.50383422
vn 0.61079910 -0.61079910 0.50383422
vn 4.5655391e-17 -0.86380037 0.50383422
vn -0.61079910 -0.61079910 0.50383422
vn -0.86380037 -1.3696617e-16 0.50383422
vn -0.61079910 0.61079910 0.50383422
vn -1.0652924e-16 0.86380037 0.50383422
vn 0.61079910 0.61079910 0.50383422
vn 1.00000000 1.5474634e-17 1.9265919e-15
vn 0.70710678 -0.70710678 1.8801680e-15
vn 6.1898534e-17 -1.00000000 1.8182694e-15
vn -0.70710678 -0.70710678 1.8801680e-15
vn -1.00000000 -2.1664487e-16 1.9188546e-15
vn -0.70710678 0.70710678 1.9188546e-15
vn -1.7022097e-16 1.00000000 1.9420665e-15
vn 0.70710678 0.70710678 1.9575411e-15
vn 0.86380037 -3.0436927e-17 -0.50383422
vn 0.61079910 -0.61079910 -0.50383422
vn 7.6092318e-17 -0.86380037 -0.50383422
vn -0.61079910 -0.61079910 -0.50383422
vn -0.86380037 -2.4349542e-16 -0.50383422
vn -0.61079910 0.61079910 -0.50383422
vn -1.5218464e-16 0.86380037 -0.50383422
vn 0.61079910 0.61079910 -0.50383422
vn 0.49588308 4.4116545e-17 -0.86838930
vn 0.35064229 -0.35064229 -0.86838930
vn -1.2205578e-15 -0.49588308 -0.86838930
vn -0.35064229 -0.35064229 -0.86838930
vn -0.49588308 -1.3234964e-16 -0.86838930
vn -0.35064229 0.35064229 -0.86838930
vn 1.2058522e-15 0.49588308 -0.86838930
vn 0.35064229 0.35064229 -0.86838930
vn -6.1411100e-16 -1.7881467e-16 1.00000000
vn -1.1848730e-15 3.9736594e-17 -1.00000000
vn 0.98078528 -1.9257744e-17 0.19509032
vn 0.0000000e+0 1.00000000 5.4517099e-17
vn 0.98078528 -1.9257744e-17 0.19509032
vn 0.0000000e+0 1.00000000 5.4517099e-17
vn 0.70710678 -4.0887824e-17 0.70710678
vn 0.70710678 -4.0887824e-17 0.70710678
vn 0.0000000e+0 1.00000000 1.0903420e-16
vn 6.0084837e-17 -6.1331737e-17 1.00000000
vn 6.0084837e-17 -6.1331737e-17 1.00000000
vn 0.0000000e+0 1.00000000 1.0903420e-16
vn -0.70710678 -6.1331737e-17 0.70710678
vn -0.70710678 -6.1331737e-17 0.70710678
vn 0.0000000e+0 1.00000000 1.0903420e-16
vn -0.98078528 -1.9257744e-17 0.19509032
vn 0.0000000e+0 1.00000000 5.4517099e-17
vn -0.98078528 -1.9257744e-17 0.19509032
vn 0.0000000e+0 1.00000000 5.4517099e-17
vn 0.0000000e+0 -1.00000000 -2.7258550e-17
vn 0.98078528 -1.9257744e-17 0.19509032
vn 0.98078528 -1.9257744e-17 0.19509032
vn 0.0000000e+0 -1.00000000 -2.7258550e-17
vn 0.0000000e+0 -1.00000000 -5.4517099e-17
vn 0.70710678 -4.0887824e-17 0.70710678
vn 0.70710678 -4.0887824e-17 0.70710678
vn 0.0000000e+0 -1.00000000 -5.4517099e-17
vn 6.0084837e-17 -6.1331737e-17 1.00000000
vn 6.0084837e-17 -6.1331737e-17 1.00000000
vn 0.0000000e+0 -1.00000000 -5.4517099e-17
vn -0.70710678 -6.1331737e-17 0.70710678
vn -0.70710678 -6.1331737e-17 0.70710678
vn 0.0000000e+0 -1.00000000 -2.7258550e-17
vn -0.98078528 -1.9257744e-17 0.19509032
vn 0.0000000e+0 -1.00000000 -2.7258550e-17
vn -0.98078528 -1.9257744e-17 0.19509032
vn 1.00000000 0.0000000e+0 0.0000000e+0
vn 0.0000000e+0 -1.00000000 0.0000000e+0
vn 0.0000000e+0 -2.7755576e-16 1.00000000
vn 1.00000000 0.0000000e+0 0.0000000e+0
vn 0.0000000e+0 -1.00000000 0.0000000e+0
vn -1.00000000 0.0000000e+0 0.0000000e+0
vn 0.0000000e+0 -2.7755576e-16 1.00000000
vn -1.00000000 0.0000000e+0 0.0000000e+0
vn 1.00000000 0.0000000e+0 0.0000000e+0
vn 0.0000000e+0 1.00000000 0.0000000e+0
vn -4.6259293e-17 3.1225023e-16 -1.00000000
vn 1.00000000 0.0000000e+0 0.0000000e+0
vn -1.00000000 0.0000000e+0 0.0000000e+0
vn 0.0000000e+0 1.00000000 0.0000000e+0
vn -4.6259293e-17 3.1225023e-16 -1.00000000
vn -1.00000000 0.0000000e+0 0.0000000e+0
vn 0.0000000e+0 -1.00000000 -2.7755576e-16
vn -4.6259293e-17 3.1225023e-16 -1.00000000
vn -1.00000000 0.0000000e+0 0.0000000e+0
vn 0.0000000e+0 -1.00000000 -2.7755576e-16
vn -4.6259293e-17 3.1225023e-16 -1.00000000
vn 1.00000000 0.0000000e+0 0.0000000e+0
vn 0.0000000e+0 -1.00000000 -2.7755576e-16
vn 0.0000000e+0 -2.7755576e-16 1.00000000
vn 1.00000000 0.0000000e+0 0.0000000e+0
vn 0.0000000e+0 -1.00000000 -2.7755576e-16
vn 0.0000000e+0 -2.7755576e-16 1.00000000
vn -1.00000000 0.0000000e+0 0.0000000e+0
vn 1.7445472e-15 0.0000000e+0 -1.00000000
vn 1.00000000 3.0042419e-17 -2.8005359e-19
vn 1.00000000 3.0042419e-17 -2.8005359e-19
vn 1.7445472e-15 0.0000000e+0 -1.00000000
vn 0.70710678 -0.70710678 5.8811254e-17
vn 0.70710678 -0.70710678 5.8811254e-17
vn 1.7445472e-15 0.0000000e+0 -1.00000000
vn 9.0127256e-17 -1.00000000 8.3736024e-17
vn 9.0127256e-17 -1.00000000 8.3736024e-17
vn 1.7445472e-15 0.0000000e+0 -1.00000000
vn -0.70710678 -0.70710678 5.9371362e-17
vn -0.70710678 -0.70710678 5.9371362e-17
vn 1.7445472e-15 0.0000000e+0 -1.00000000
vn -1.00000000 -1.5021209e-16 0.0000000e+0
vn -1.00000000 -1.5021209e-16 0.0000000e+0
vn 1.7445472e-15 0.0000000e+0 -1.00000000
vn -0.70710678 0.70710678 -5.9371362e-17
vn -0.70710678 0.70710678 -5.9371362e-17
vn 1.7445472e-15 0.0000000e+0 -1.00000000
vn -2.1029693e-16 1.00000000 -8.3736024e-17
vn -2.1029693e-16 1.00000000 -8.3736024e-17
vn 1.7445472e-15 0.0000000e+0 -1.00000000
vn 0.70710678 0.70710678 -5.9091308e-17
vn 0.70710678 0.70710678 -5.9091308e-17
vn 1.00000000 9.0127256e-17 2.5996605e-16
vn 1.00000000 9.0127256e-17 2.5996605e-16
vn 0.70710678 -0.70710678 1.9122503e-16
vn 0.70710678 -0.70710678 1.9122503e-16
vn 0.0000000e+0 -1.00000000 9.9986943e-18
vn 0.0000000e+0 -1.00000000 9.9986943e-18
vn -0.70710678 -0.70710678 -1.7622699e-16
vn -0.70710678 -0.70710678 -1.7622699e-16
vn -1.00000000 -1.8025451e-16 -2.5996605e-16
vn -1.00000000 -1.8025451e-16 -2.5996605e-16
vn -0.70710678 0.70710678 -1.9247486e-16
vn -0.70710678 0.70710678 -1.9247486e-16
vn -1.5021209e-16 1.00000000 -1.1248531e-17
vn -1.5021209e-16 1.00000000 -1.1248531e-17
vn 0.70710678 0.70710678 1.7622699e-16
vn 0.70710678 0.70710678 1.7622699e-16
g mesh1_mesh1_auv
usemtl mesh1_auv
s 1
f 7/17/80 8/19/83 9/21/86 10/25/89 6/12/76
f 10/25/91 12/26/97 11/11/94 6/12/79
f 13/15/103 16/14/113 15/28/110 14/29/107
f 28/44/124 29/50/127 30/58/130 31/62/133 32/59/136 33/51/139 34/45/142 27/41/121
f 35/71/145 50/80/16 43/81/9 42/72/159
f 36/70/148 49/79/15 50/80/16 35/71/146
f 37/69/150 48/78/14 49/79/15 36/70/147
f 38/68/152 47/77/13 48/78/14 37/69/149
f 39/67/154 46/76/12 47/77/13 38/68/151
f 40/66/156 45/75/11 46/76/12 39/67/153
f 41/65/158 44/74/10 45/75/11 40/66/155
f 42/72/160 43/81/9 44/82/10 41/73/157
f 51/92/17 59/100/25 66/98/32 58/90/24
f 51/92/17 91/84/57 52/88/18
f 52/88/18 60/96/26 59/100/25 51/92/17
f 52/85/18 91/83/57 53/91/19
f 53/91/19 61/99/27 60/93/26 52/85/18
f 53/91/19 91/83/57 54/86/20
f 54/86/20 62/94/28 61/99/27 53/91/19
f 54/89/20 91/84/57 55/92/21
f 55/92/21 63/100/29 62/97/28 54/89/20
f 55/92/21 91/84/57 56/87/22
f 56/87/22 64/95/30 63/100/29 55/92/21
f 56/85/22 91/83/57 57/91/23
f 57/91/23 65/99/31 64/93/30 56/85/22
f 57/91/23 91/83/57 58/86/24
f 58/86/24 66/94/32 65/99/31 57/91/23
f 58/90/24 91/84/57 51/92/17
f 59/100/25 67/105/33 74/106/40 66/98/32
f 60/96/26 68/104/34 67/105/33 59/100/25
f 61/99/27 69/102/35 68/101/34 60/93/26
f 62/94/28 70/103/36 69/102/35 61/99/27
f 63/100/29 71/105/37 70/103/36 62/97/28
f 64/95/30 72/104/38 71/105/37 63/100/29
f 65/99/31 73/102/39 72/101/38 64/93/30
f 66/94/32 74/103/40 73/102/39 65/99/31
f 67/105/33 75/108/41 82/113/48 74/106/40
f 68/104/34 76/112/42 75/108/41 67/105/33
f 69/102/35 77/107/43 76/109/42 68/101/34
f 70/103/36 78/110/44 77/107/43 69/102/35
f 71/105/37 79/108/45 78/110/44 70/103/36
f 72/104/38 80/111/46 79/108/45 71/105/37
f 73/102/39 81/107/47 80/109/46 72/101/38
f 74/103/40 82/110/48 81/107/47 73/102/39
f 75/108/41 83/114/49 90/119/56 82/113/48
f 76/112/42 84/118/50 83/114/49 75/108/41
f 77/107/43 85/114/51 84/115/50 76/109/42
f 78/110/44 86/116/52 85/114/51 77/107/43
f 79/108/45 87/114/53 86/119/52 78/110/44
f 80/111/46 88/117/54 87/114/53 79/108/45
f 81/107/47 89/114/55 88/115/54 80/109/46
f 82/110/48 90/116/56 89/114/55 81/107/47
f 83/114/49 92/120/58 90/119/56
f 84/118/50 92/120/58 83/114/49
f 85/114/51 92/120/58 84/115/50
f 86/116/52 92/120/58 85/114/51
f 87/114/53 92/120/58 86/119/52
f 88/117/54 92/120/58 87/114/53
f 89/114/55 92/120/58 88/115/54
f 90/116/56 92/120/58 89/114/55
s 2
f 2/4/64 7/3/82 6/5/77 1/6/59
f 3/2/67 8/1/85 7/3/81 2/4/63
f 4/35/70 9/36/88 8/37/84 3/38/66
f 5/34/72 10/33/90 9/36/87 4/35/69
f 5/34/74 14/24/105 12/32/98 10/33/92
f 6/5/78 11/7/93 13/10/101 1/6/61
f 16/9/114 13/10/104 11/7/96 17/8/117
f 18/31/120 12/32/100 14/24/108 15/23/111
f 19/47/1 27/46/122 34/48/143 26/49/8
f 20/43/2 28/42/126 27/46/123 19/47/1
f 21/40/3 29/39/129 28/42/125 20/43/2
f 22/61/4 30/60/132 29/63/128 21/64/3
f 23/57/5 31/56/135 30/60/131 22/61/4
f 24/55/6 32/54/138 31/56/134 23/57/5
f 25/53/7 33/52/141 32/54/137 24/55/6
f 26/49/8 34/48/144 33/52/140 25/53/7
s 3
f 1/16/60 5/30/73 4/22/71 3/20/68 2/18/65
f 1/16/62 13/15/102 14/29/106 5/30/75
f 16/14/112 17/13/115 18/27/118 15/28/109
s 4
f 12/26/99 18/27/119 17/13/116 11/11/95
