# Exported from Wings 3D 1.5.4
mtllib 4mv_sensor_magnetometer_srf_1_base.mtl
o mesh1
#32 vertices, 26 faces
v -2.5000000e-2 1.8750000e-2 -9.3750000e-2
v -2.5000000e-2 -1.8750000e-2 -9.3750000e-2
v -2.5000000e-2 -1.3258252e-2 -0.10700825
v -2.5000000e-2 3.3108409e-17 -0.11250000
v -2.5000000e-2 1.3258252e-2 -0.10700825
v 2.5000000e-2 1.8750000e-2 -9.3750000e-2
v 2.5000000e-2 -1.8750000e-2 -9.3750000e-2
v 2.5000000e-2 -1.3258252e-2 -0.10700825
v 2.5000000e-2 3.0379968e-17 -0.11250000
v 2.5000000e-2 1.3258252e-2 -0.10700825
v 2.5000000e-2 1.8750000e-2 -7.5000000e-2
v -2.5000000e-2 1.8750000e-2 -7.5000000e-2
v -2.5000000e-2 -1.8750000e-2 -7.5000000e-2
v 2.5000000e-2 -1.8750000e-2 -7.5000000e-2
v 2.5000000e-2 1.8750000e-2 3.7500000e-2
v -2.5000000e-2 1.8750000e-2 3.7500000e-2
v -2.5000000e-2 -1.8750000e-2 3.7500000e-2
v 2.5000000e-2 -1.8750000e-2 3.7500000e-2
v -1.2500000e-2 -1.8750000e-2 -7.5000000e-2
v 1.2500000e-2 -1.8750000e-2 -7.5000000e-2
v 1.2500000e-2 1.8750000e-2 -7.5000000e-2
v -1.2500000e-2 1.8750000e-2 -7.5000000e-2
v -1.2500000e-2 1.3258252e-2 -0.10700825
v 1.2500000e-2 1.3258252e-2 -0.10700825
v -1.2500000e-2 3.2268752e-17 -0.11250000
v 1.2500000e-2 3.1651854e-17 -0.11250000
v -1.2500000e-2 -1.3258252e-2 -0.10700825
v 1.2500000e-2 -1.3258252e-2 -0.10700825
v -1.2500000e-2 -1.8750000e-2 -9.3750000e-2
v 1.2500000e-2 -1.8750000e-2 -9.3750000e-2
v 1.2500000e-2 1.8750000e-2 -9.3750000e-2
v -1.2500000e-2 1.8750000e-2 -9.3750000e-2
vt 0.71195233 0.36513125
vt 0.71195233 0.37245183
vt 0.71195233 0.41675607
vt 0.71195233 0.43632241
vt 0.71195233 0.47982035
vt 0.71195233 0.48714093
vt 0.71486919 0.49231737
vt 0.71486919 0.35995482
vt 0.72004562 0.35781067
vt 0.72004562 0.49446151
vt 0.72522205 0.49231737
vt 0.72522205 0.35995482
vt 0.72736620 0.36513125
vt 0.72736620 0.37245183
vt 0.72736620 0.41675607
vt 0.72736620 0.43632241
vt 0.72736620 0.47982035
vt 0.72736620 0.48714093
vt 0.74717274 0.41493023
vt 0.74717274 0.42053316
vt 0.74717274 0.36368617
vt 0.74717274 0.48858602
vt 0.74717274 0.40760965
vt 0.74717274 0.42613609
vt 0.74717274 0.44466253
vt 0.74717274 0.43734195
vt 0.74717274 0.43173902
vt 0.74989333 0.31199379
vt 0.74989333 0.31931437
vt 0.74989333 0.32907515
vt 0.74989333 0.33639573
vt 0.75203748 0.30681736
vt 0.75203748 0.34157216
vt 0.75205313 0.43734195
vt 0.75205313 0.43173902
vt 0.75205313 0.44466253
vt 0.75205313 0.40760965
vt 0.75205313 0.42053316
vt 0.75205313 0.41493023
vt 0.75205313 0.42613609
vt 0.75721392 0.30467321
vt 0.75721392 0.34371631
vt 0.76181390 0.42053316
vt 0.76181390 0.43173902
vt 0.76181390 0.43734195
vt 0.76181390 0.40760965
vt 0.76181390 0.41493023
vt 0.76181390 0.44466253
vt 0.76181390 0.42613609
vt 0.76239035 0.30681736
vt 0.76239035 0.34157216
vt 0.76453450 0.31199379
vt 0.76453450 0.31931437
vt 0.76453450 0.32907515
vt 0.76453450 0.33639573
vt 0.76669429 0.36368617
vt 0.76669429 0.43173902
vt 0.76669429 0.42053316
vt 0.76669429 0.41493023
vt 0.76669429 0.40760965
vt 0.76669429 0.43734195
vt 0.76669429 0.42613609
vt 0.76669429 0.48858602
vt 0.76669429 0.44466253
vn 1.9257744e-17 0.98078528 -0.19509032
vn -1.00000000 0.0000000e+0 0.0000000e+0
vn 1.9257744e-17 0.98078528 -0.19509032
vn -1.00000000 0.0000000e+0 0.0000000e+0
vn 0.0000000e+0 -0.98078528 -0.19509032
vn -1.00000000 0.0000000e+0 0.0000000e+0
vn 0.0000000e+0 -0.98078528 -0.19509032
vn -1.00000000 0.0000000e+0 0.0000000e+0
vn 0.0000000e+0 -0.70710678 -0.70710678
vn 0.0000000e+0 -0.70710678 -0.70710678
vn -1.00000000 0.0000000e+0 0.0000000e+0
vn 2.0443912e-17 -6.0084837e-17 -1.00000000
vn 2.0443912e-17 -6.0084837e-17 -1.00000000
vn -1.00000000 0.0000000e+0 0.0000000e+0
vn 4.0887824e-17 0.70710678 -0.70710678
vn 4.0887824e-17 0.70710678 -0.70710678
vn -1.00000000 0.0000000e+0 0.0000000e+0
vn 1.00000000 -1.4703568e-16 1.1167981e-16
vn 3.8515488e-17 0.98078528 -0.19509032
vn 3.8515488e-17 0.98078528 -0.19509032
vn 1.00000000 -1.4703568e-16 1.1167981e-16
vn 1.00000000 -1.4703568e-16 1.1167981e-16
vn 0.0000000e+0 -0.98078528 -0.19509032
vn 0.0000000e+0 -0.98078528 -0.19509032
vn 1.00000000 -1.4703568e-16 1.1167981e-16
vn 0.0000000e+0 -0.70710678 -0.70710678
vn 0.0000000e+0 -0.70710678 -0.70710678
vn 1.00000000 -1.0903420e-16 2.2335962e-16
vn 2.0443912e-17 -9.0127256e-17 -1.00000000
vn 2.0443912e-17 -9.0127256e-17 -1.00000000
vn 1.00000000 -1.0903420e-16 2.2335962e-16
vn 6.1331737e-17 0.70710678 -0.70710678
vn 6.1331737e-17 0.70710678 -0.70710678
vn 1.00000000 -1.0903420e-16 2.2335962e-16
vn 1.00000000 -1.8503717e-16 0.0000000e+0
vn 0.0000000e+0 1.00000000 -2.4093382e-18
vn 0.0000000e+0 1.00000000 -2.4093382e-18
vn 1.00000000 -1.8503717e-16 0.0000000e+0
vn 0.0000000e+0 1.00000000 -2.4093382e-18
vn -1.00000000 0.0000000e+0 0.0000000e+0
vn 0.0000000e+0 1.00000000 -2.4093382e-18
vn -1.00000000 0.0000000e+0 0.0000000e+0
vn 0.0000000e+0 -1.00000000 -7.2280145e-18
vn -1.00000000 0.0000000e+0 0.0000000e+0
vn 0.0000000e+0 -1.00000000 -7.2280145e-18
vn -1.00000000 0.0000000e+0 0.0000000e+0
vn 1.00000000 -1.8503717e-16 0.0000000e+0
vn 0.0000000e+0 -1.00000000 -7.2280145e-18
vn 1.00000000 -1.8503717e-16 0.0000000e+0
vn 0.0000000e+0 -1.00000000 -7.2280145e-18
vn 0.0000000e+0 0.0000000e+0 1.00000000
vn 0.0000000e+0 1.00000000 -4.8186763e-18
vn 1.00000000 -1.8503717e-16 0.0000000e+0
vn 0.0000000e+0 0.0000000e+0 1.00000000
vn 0.0000000e+0 1.00000000 -4.8186763e-18
vn -1.00000000 0.0000000e+0 0.0000000e+0
vn 0.0000000e+0 0.0000000e+0 1.00000000
vn -1.00000000 0.0000000e+0 0.0000000e+0
vn 0.0000000e+0 -1.00000000 -1.4456029e-17
vn 0.0000000e+0 0.0000000e+0 1.00000000
vn 0.0000000e+0 -1.00000000 -1.4456029e-17
vn 1.00000000 -1.8503717e-16 0.0000000e+0
vn 0.0000000e+0 -1.00000000 -7.2280145e-18
vn 0.0000000e+0 -1.00000000 -7.2280145e-18
vn 1.00000000 0.0000000e+0 0.0000000e+0
vn 0.0000000e+0 0.0000000e+0 -1.00000000
vn 0.0000000e+0 -1.00000000 -7.2280145e-18
vn 0.0000000e+0 -1.00000000 -7.2280145e-18
vn 0.0000000e+0 0.0000000e+0 -1.00000000
vn -1.00000000 0.0000000e+0 0.0000000e+0
vn 0.0000000e+0 1.00000000 -2.4093382e-18
vn 0.0000000e+0 1.00000000 -2.4093382e-18
vn 0.0000000e+0 0.0000000e+0 -1.00000000
vn -1.00000000 0.0000000e+0 0.0000000e+0
vn 0.0000000e+0 1.00000000 -2.4093382e-18
vn 0.0000000e+0 1.00000000 -2.4093382e-18
vn 1.00000000 0.0000000e+0 0.0000000e+0
vn 0.0000000e+0 0.0000000e+0 -1.00000000
vn 4.0887824e-17 0.70710678 -0.70710678
vn 4.0887824e-17 0.70710678 -0.70710678
vn 1.00000000 0.0000000e+0 0.0000000e+0
vn 6.1331737e-17 0.70710678 -0.70710678
vn 6.1331737e-17 0.70710678 -0.70710678
vn -1.00000000 0.0000000e+0 0.0000000e+0
vn 2.0443912e-17 -6.0084837e-17 -1.00000000
vn 2.0443912e-17 -6.0084837e-17 -1.00000000
vn 1.00000000 0.0000000e+0 0.0000000e+0
vn 2.0443912e-17 -9.0127256e-17 -1.00000000
vn 2.0443912e-17 -9.0127256e-17 -1.00000000
vn -1.00000000 0.0000000e+0 0.0000000e+0
vn 0.0000000e+0 -0.70710678 -0.70710678
vn 0.0000000e+0 -0.70710678 -0.70710678
vn 1.00000000 0.0000000e+0 0.0000000e+0
vn 0.0000000e+0 -0.70710678 -0.70710678
vn 0.0000000e+0 -0.70710678 -0.70710678
vn -1.00000000 0.0000000e+0 0.0000000e+0
vn 0.0000000e+0 -0.98078528 -0.19509032
vn 0.0000000e+0 -0.98078528 -0.19509032
vn 1.00000000 0.0000000e+0 0.0000000e+0
vn 1.00000000 0.0000000e+0 0.0000000e+0
vn 0.0000000e+0 -0.98078528 -0.19509032
vn 0.0000000e+0 -0.98078528 -0.19509032
vn -1.00000000 0.0000000e+0 0.0000000e+0
vn -1.00000000 0.0000000e+0 0.0000000e+0
vn 3.8515488e-17 0.98078528 -0.19509032
vn 3.8515488e-17 0.98078528 -0.19509032
vn -1.00000000 0.0000000e+0 0.0000000e+0
vn -1.00000000 0.0000000e+0 0.0000000e+0
vn 1.9257744e-17 0.98078528 -0.19509032
vn 1.9257744e-17 0.98078528 -0.19509032
vn 1.00000000 0.0000000e+0 0.0000000e+0
vn 1.00000000 0.0000000e+0 0.0000000e+0
g mesh1_mesh1_auv
usemtl mesh1_auv
s 1
f 16/3/54 17/15/57 18/16/60 15/4/51
f 21/29/73 20/53/69 19/54/66 22/30/78
s 2
f 5/8/17 4/9/14 3/12/11 2/13/6 1/1/2
f 6/6/21 7/18/25 8/11/28 9/10/31 10/7/34
f 11/5/35 14/17/47 7/18/22 6/6/18
f 11/5/38 15/4/53 18/16/62 14/17/49
f 12/2/42 1/1/4 2/13/8 13/14/46
f 13/14/44 17/15/58 16/3/56 12/2/40
f 20/53/70 21/29/74 31/28/107 30/52/103
f 22/30/77 19/54/65 29/55/99 32/31/111
f 30/52/104 31/28/108 24/32/84 26/41/90 28/50/96
f 32/31/112 29/55/100 27/51/93 25/42/87 23/33/81
s 3
f 1/61/3 12/64/41 22/48/76 32/45/110
f 1/61/1 32/45/109 23/44/79 5/57/15
f 3/58/10 27/43/92 29/47/97 2/59/5
f 4/62/13 25/49/86 27/43/91 3/58/9
f 5/57/16 23/44/80 25/49/85 4/62/12
f 6/26/19 31/34/105 21/36/71 11/25/36
f 7/19/23 30/39/101 28/38/95 8/20/27
f 8/20/26 28/38/94 26/40/89 9/24/30
f 9/24/29 26/40/88 24/35/83 10/27/33
f 10/27/32 24/35/82 31/34/106 6/26/20
f 12/64/39 16/63/55 15/22/52 11/25/37 21/36/72 22/48/75
f 14/23/48 18/21/61 17/56/59 13/60/45 19/46/64 20/37/67
f 20/37/68 30/39/102 7/19/24 14/23/50
f 29/47/98 19/46/63 13/60/43 2/59/7
