# Exported from Wings 3D 1.5.4
mtllib 4mv_sensor_magnetometer_srf_1_hinge.mtl
o mesh1
#56 vertices, 46 faces
v -2.5000000e-2 1.8750000e-2 -6.2500000e-2
v -2.5000000e-2 -1.8750000e-2 -6.2500000e-2
v -2.5000000e-2 -1.3258252e-2 -7.5758252e-2
v -2.5000000e-2 3.3108409e-17 -8.1250000e-2
v -2.5000000e-2 1.3258252e-2 -7.5758252e-2
v 2.5000000e-2 1.8750000e-2 -6.2500000e-2
v 2.5000000e-2 -1.8750000e-2 -6.2500000e-2
v 2.5000000e-2 -1.3258252e-2 -7.5758252e-2
v 2.5000000e-2 3.0379968e-17 -8.1250000e-2
v 2.5000000e-2 1.3258252e-2 -7.5758252e-2
v 2.5000000e-2 1.8750000e-2 -4.3750000e-2
v -2.5000000e-2 1.8750000e-2 -4.3750000e-2
v -2.5000000e-2 -1.8750000e-2 -4.3750000e-2
v 2.5000000e-2 -1.8750000e-2 -4.3750000e-2
v -1.2500000e-2 -1.8750000e-2 -4.3750000e-2
v 1.2500000e-2 -1.8750000e-2 -4.3750000e-2
v 1.2500000e-2 1.8750000e-2 -4.3750000e-2
v -1.2500000e-2 1.8750000e-2 -4.3750000e-2
v -1.2500000e-2 1.3258252e-2 -7.5758252e-2
v 1.2500000e-2 1.3258252e-2 -7.5758252e-2
v -1.2500000e-2 3.2268752e-17 -8.1250000e-2
v 1.2500000e-2 3.1651854e-17 -8.1250000e-2
v -1.2500000e-2 -1.3258252e-2 -7.5758252e-2
v 1.2500000e-2 -1.3258252e-2 -7.5758252e-2
v -1.2500000e-2 -1.8750000e-2 -6.2500000e-2
v 1.2500000e-2 -1.8750000e-2 -6.2500000e-2
v 1.2500000e-2 1.8750000e-2 -6.2500000e-2
v -1.2500000e-2 1.8750000e-2 -6.2500000e-2
v -2.5000000e-2 1.8750000e-2 0.0000000e+0
v -2.5000000e-2 -1.8750000e-2 0.0000000e+0
v -2.5000000e-2 -1.3258252e-2 1.3258252e-2
v -2.5000000e-2 3.3108409e-17 1.8750000e-2
v -2.5000000e-2 1.3258252e-2 1.3258252e-2
v 2.5000000e-2 1.8750000e-2 0.0000000e+0
v 2.5000000e-2 -1.8750000e-2 0.0000000e+0
v 2.5000000e-2 -1.3258252e-2 1.3258252e-2
v 2.5000000e-2 3.0379968e-17 1.8750000e-2
v 2.5000000e-2 1.3258252e-2 1.3258252e-2
v 2.5000000e-2 1.8750000e-2 -1.8750000e-2
v -2.5000000e-2 1.8750000e-2 -1.8750000e-2
v -2.5000000e-2 -1.8750000e-2 -1.8750000e-2
v 2.5000000e-2 -1.8750000e-2 -1.8750000e-2
v -1.2500000e-2 -1.8750000e-2 -1.8750000e-2
v 1.2500000e-2 -1.8750000e-2 -1.8750000e-2
v 1.2500000e-2 1.8750000e-2 -1.8750000e-2
v -1.2500000e-2 1.8750000e-2 -1.8750000e-2
v -1.2500000e-2 1.3258252e-2 1.3258252e-2
v 1.2500000e-2 1.3258252e-2 1.3258252e-2
v -1.2500000e-2 3.2268752e-17 1.8750000e-2
v 1.2500000e-2 3.1651854e-17 1.8750000e-2
v -1.2500000e-2 -1.3258252e-2 1.3258252e-2
v 1.2500000e-2 -1.3258252e-2 1.3258252e-2
v -1.2500000e-2 -1.8750000e-2 0.0000000e+0
v 1.2500000e-2 -1.8750000e-2 0.0000000e+0
v 1.2500000e-2 1.8750000e-2 0.0000000e+0
v -1.2500000e-2 1.8750000e-2 0.0000000e+0
vt 0.71195233 0.36513125
vt 0.71195233 0.37245183
vt 0.71195233 0.47982035
vt 0.71195233 0.48714093
vt 0.71486919 0.49231737
vt 0.71486919 0.35995482
vt 0.72004562 0.35781067
vt 0.72004562 0.49446151
vt 0.72522205 0.49231737
vt 0.72522205 0.35995482
vt 0.72736620 0.36513125
vt 0.72736620 0.37245183
vt 0.72736620 0.47982035
vt 0.72736620 0.48714093
vt 0.74989333 0.31199379
vt 0.74989333 0.31931437
vt 0.74989333 0.32907515
vt 0.74989333 0.33639573
vt 0.75203748 0.30681736
vt 0.75203748 0.34157216
vt 0.75721392 0.30467321
vt 0.75721392 0.34371631
vt 0.76239035 0.30681736
vt 0.76239035 0.34157216
vt 0.76453450 0.31199379
vt 0.76453450 0.31931437
vt 0.76453450 0.32907515
vt 0.76453450 0.33639573
vt 0.81923096 0.32278872
vt 0.81923096 0.33400459
vt 0.81923096 0.30985367
vt 0.81923096 0.34693964
vt 0.81923096 0.33961252
vt 0.81923096 0.37525212
vt 0.81923096 0.36964419
vt 0.81923096 0.36403626
vt 0.81923096 0.29275706
vt 0.81923096 0.28714912
vt 0.81923096 0.35670914
vt 0.81923096 0.32839666
vt 0.81923096 0.28154119
vt 0.81923096 0.31718079
vt 0.81923096 0.30008417
vt 0.82327837 0.37525212
vt 0.82327837 0.34693964
vt 0.82327837 0.32278872
vt 0.82327837 0.36403626
vt 0.82327837 0.29275706
vt 0.82327837 0.36964419
vt 0.82327837 0.30985367
vt 0.82327837 0.28714912
vt 0.82327837 0.28154119
vt 0.82327837 0.33400459
vt 0.82327837 0.35670914
vt 0.82327837 0.30008417
vt 0.82327837 0.31718079
vt 0.82327837 0.33961252
vt 0.82327837 0.32839666
vt 0.83488955 0.32278872
vt 0.83488955 0.37525212
vt 0.83488955 0.35670914
vt 0.83488955 0.34693964
vt 0.83488955 0.33400459
vt 0.83488955 0.28154119
vt 0.83488955 0.36964419
vt 0.83488955 0.30985367
vt 0.83488955 0.29275706
vt 0.83488955 0.30008417
vt 0.83488955 0.36403626
vt 0.83488955 0.28714912
vt 0.83488955 0.31718079
vt 0.83488955 0.33961252
vt 0.83488955 0.32839666
vt 0.83878307 0.32278872
vt 0.83878307 0.35670914
vt 0.83878307 0.30985367
vt 0.83878307 0.36964419
vt 0.83878307 0.36403626
vt 0.83878307 0.37525212
vt 0.83878307 0.33961252
vt 0.83878307 0.30008417
vt 0.83878307 0.32839666
vt 0.83878307 0.28154119
vt 0.83878307 0.29275706
vt 0.83878307 0.31718079
vt 0.83878307 0.34693964
vt 0.83878307 0.28714912
vt 0.83878307 0.33400459
vn 1.9257744e-17 0.98078528 -0.19509032
vn -1.00000000 0.0000000e+0 0.0000000e+0
vn 1.9257744e-17 0.98078528 -0.19509032
vn -1.00000000 0.0000000e+0 0.0000000e+0
vn 0.0000000e+0 -0.98078528 -0.19509032
vn -1.00000000 0.0000000e+0 0.0000000e+0
vn 0.0000000e+0 -0.98078528 -0.19509032
vn -1.00000000 0.0000000e+0 0.0000000e+0
vn 0.0000000e+0 -0.70710678 -0.70710678
vn 0.0000000e+0 -0.70710678 -0.70710678
vn -1.00000000 0.0000000e+0 0.0000000e+0
vn 2.0443912e-17 -9.0127256e-17 -1.00000000
vn 2.0443912e-17 -9.0127256e-17 -1.00000000
vn -1.00000000 0.0000000e+0 0.0000000e+0
vn 4.0887824e-17 0.70710678 -0.70710678
vn 4.0887824e-17 0.70710678 -0.70710678
vn -1.00000000 0.0000000e+0 0.0000000e+0
vn 1.00000000 -1.4703568e-16 1.1167981e-16
vn 3.8515488e-17 0.98078528 -0.19509032
vn 3.8515488e-17 0.98078528 -0.19509032
vn 1.00000000 -1.4703568e-16 1.1167981e-16
vn 1.00000000 -1.4703568e-16 1.1167981e-16
vn 0.0000000e+0 -0.98078528 -0.19509032
vn 0.0000000e+0 -0.98078528 -0.19509032
vn 1.00000000 -1.4703568e-16 1.1167981e-16
vn 0.0000000e+0 -0.70710678 -0.70710678
vn 0.0000000e+0 -0.70710678 -0.70710678
vn 1.00000000 -1.0903420e-16 2.2335962e-16
vn 2.0443912e-17 -6.0084837e-17 -1.00000000
vn 2.0443912e-17 -6.0084837e-17 -1.00000000
vn 1.00000000 -1.0903420e-16 2.2335962e-16
vn 6.1331737e-17 0.70710678 -0.70710678
vn 6.1331737e-17 0.70710678 -0.70710678
vn 1.00000000 -1.0903420e-16 2.2335962e-16
vn 1.00000000 -1.8503717e-16 0.0000000e+0
vn 0.0000000e+0 1.00000000 2.1684043e-17
vn 0.0000000e+0 1.00000000 2.1684043e-17
vn 1.00000000 -1.8503717e-16 0.0000000e+0
vn 0.0000000e+0 1.00000000 2.1684043e-17
vn -1.00000000 0.0000000e+0 0.0000000e+0
vn 0.0000000e+0 1.00000000 2.1684043e-17
vn -1.00000000 0.0000000e+0 0.0000000e+0
vn 0.0000000e+0 -1.00000000 -2.1684043e-17
vn -1.00000000 0.0000000e+0 0.0000000e+0
vn 0.0000000e+0 -1.00000000 -2.1684043e-17
vn -1.00000000 0.0000000e+0 0.0000000e+0
vn 1.00000000 -1.8503717e-16 0.0000000e+0
vn 0.0000000e+0 -1.00000000 -2.1684043e-17
vn 1.00000000 -1.8503717e-16 0.0000000e+0
vn 0.0000000e+0 -1.00000000 -2.1684043e-17
vn 0.0000000e+0 -1.00000000 -2.1684043e-17
vn 0.0000000e+0 -1.00000000 -2.1684043e-17
vn 1.00000000 0.0000000e+0 0.0000000e+0
vn 0.0000000e+0 0.0000000e+0 -1.00000000
vn 0.0000000e+0 -1.00000000 -2.1684043e-17
vn 0.0000000e+0 -1.00000000 -2.1684043e-17
vn 0.0000000e+0 0.0000000e+0 -1.00000000
vn -1.00000000 0.0000000e+0 0.0000000e+0
vn 0.0000000e+0 1.00000000 2.1684043e-17
vn 0.0000000e+0 1.00000000 2.1684043e-17
vn 0.0000000e+0 0.0000000e+0 -1.00000000
vn -1.00000000 0.0000000e+0 0.0000000e+0
vn 0.0000000e+0 1.00000000 2.1684043e-17
vn 0.0000000e+0 1.00000000 2.1684043e-17
vn 1.00000000 0.0000000e+0 0.0000000e+0
vn 0.0000000e+0 0.0000000e+0 -1.00000000
vn 4.0887824e-17 0.70710678 -0.70710678
vn 4.0887824e-17 0.70710678 -0.70710678
vn 1.00000000 0.0000000e+0 0.0000000e+0
vn 6.1331737e-17 0.70710678 -0.70710678
vn 6.1331737e-17 0.70710678 -0.70710678
vn -1.00000000 0.0000000e+0 0.0000000e+0
vn 2.0443912e-17 -9.0127256e-17 -1.00000000
vn 2.0443912e-17 -9.0127256e-17 -1.00000000
vn 1.00000000 0.0000000e+0 0.0000000e+0
vn 2.0443912e-17 -6.0084837e-17 -1.00000000
vn 2.0443912e-17 -6.0084837e-17 -1.00000000
vn -1.00000000 0.0000000e+0 0.0000000e+0
vn 0.0000000e+0 -0.70710678 -0.70710678
vn 0.0000000e+0 -0.70710678 -0.70710678
vn 1.00000000 0.0000000e+0 0.0000000e+0
vn 0.0000000e+0 -0.70710678 -0.70710678
vn 0.0000000e+0 -0.70710678 -0.70710678
vn -1.00000000 0.0000000e+0 0.0000000e+0
vn 0.0000000e+0 -0.98078528 -0.19509032
vn 0.0000000e+0 -0.98078528 -0.19509032
vn 1.00000000 0.0000000e+0 0.0000000e+0
vn 1.00000000 0.0000000e+0 0.0000000e+0
vn 0.0000000e+0 -0.98078528 -0.19509032
vn 0.0000000e+0 -0.98078528 -0.19509032
vn -1.00000000 0.0000000e+0 0.0000000e+0
vn -1.00000000 0.0000000e+0 0.0000000e+0
vn 3.8515488e-17 0.98078528 -0.19509032
vn 3.8515488e-17 0.98078528 -0.19509032
vn -1.00000000 0.0000000e+0 0.0000000e+0
vn -1.00000000 0.0000000e+0 0.0000000e+0
vn 1.9257744e-17 0.98078528 -0.19509032
vn 1.9257744e-17 0.98078528 -0.19509032
vn 1.00000000 0.0000000e+0 0.0000000e+0
vn 1.00000000 0.0000000e+0 0.0000000e+0
vn 1.9257744e-17 0.98078528 0.19509032
vn -1.00000000 0.0000000e+0 0.0000000e+0
vn 1.9257744e-17 0.98078528 0.19509032
vn -1.00000000 0.0000000e+0 0.0000000e+0
vn 0.0000000e+0 -0.98078528 0.19509032
vn -1.00000000 0.0000000e+0 0.0000000e+0
vn 0.0000000e+0 -0.98078528 0.19509032
vn -1.00000000 0.0000000e+0 0.0000000e+0
vn 0.0000000e+0 -0.70710678 0.70710678
vn 0.0000000e+0 -0.70710678 0.70710678
vn -1.00000000 0.0000000e+0 0.0000000e+0
vn 2.0443912e-17 -9.0127256e-17 1.00000000
vn 2.0443912e-17 -9.0127256e-17 1.00000000
vn -1.00000000 0.0000000e+0 0.0000000e+0
vn 4.0887824e-17 0.70710678 0.70710678
vn 4.0887824e-17 0.70710678 0.70710678
vn -1.00000000 0.0000000e+0 0.0000000e+0
vn 1.00000000 -1.4703568e-16 -1.1167981e-16
vn 3.8515488e-17 0.98078528 0.19509032
vn 3.8515488e-17 0.98078528 0.19509032
vn 1.00000000 -1.4703568e-16 -1.1167981e-16
vn 1.00000000 -1.4703568e-16 -1.1167981e-16
vn 0.0000000e+0 -0.98078528 0.19509032
vn 0.0000000e+0 -0.98078528 0.19509032
vn 1.00000000 -1.4703568e-16 -1.1167981e-16
vn 0.0000000e+0 -0.70710678 0.70710678
vn 0.0000000e+0 -0.70710678 0.70710678
vn 1.00000000 -1.0903420e-16 -2.2335962e-16
vn 2.0443912e-17 -6.0084837e-17 1.00000000
vn 2.0443912e-17 -6.0084837e-17 1.00000000
vn 1.00000000 -1.0903420e-16 -2.2335962e-16
vn 6.1331737e-17 0.70710678 0.70710678
vn 6.1331737e-17 0.70710678 0.70710678
vn 1.00000000 -1.0903420e-16 -2.2335962e-16
vn 0.0000000e+0 1.00000000 2.1684043e-17
vn 1.00000000 -1.8503717e-16 0.0000000e+0
vn 1.00000000 -1.8503717e-16 0.0000000e+0
vn 0.0000000e+0 1.00000000 2.1684043e-17
vn 0.0000000e+0 1.00000000 2.1684043e-17
vn -1.00000000 0.0000000e+0 0.0000000e+0
vn 0.0000000e+0 1.00000000 2.1684043e-17
vn -1.00000000 0.0000000e+0 0.0000000e+0
vn -1.00000000 0.0000000e+0 0.0000000e+0
vn 0.0000000e+0 -1.00000000 -2.1684043e-17
vn 0.0000000e+0 -1.00000000 -2.1684043e-17
vn -1.00000000 0.0000000e+0 0.0000000e+0
vn 0.0000000e+0 -1.00000000 -2.1684043e-17
vn 1.00000000 -1.8503717e-16 0.0000000e+0
vn 1.00000000 -1.8503717e-16 0.0000000e+0
vn 0.0000000e+0 -1.00000000 -2.1684043e-17
vn 0.0000000e+0 -1.00000000 -2.1684043e-17
vn 0.0000000e+0 -1.00000000 -2.1684043e-17
vn 1.00000000 0.0000000e+0 0.0000000e+0
vn 0.0000000e+0 0.0000000e+0 1.00000000
vn 0.0000000e+0 -1.00000000 -2.1684043e-17
vn 0.0000000e+0 -1.00000000 -2.1684043e-17
vn 0.0000000e+0 0.0000000e+0 1.00000000
vn -1.00000000 0.0000000e+0 0.0000000e+0
vn 0.0000000e+0 1.00000000 2.1684043e-17
vn 0.0000000e+0 1.00000000 2.1684043e-17
vn 0.0000000e+0 0.0000000e+0 1.00000000
vn -1.00000000 0.0000000e+0 0.0000000e+0
vn 0.0000000e+0 1.00000000 2.1684043e-17
vn 0.0000000e+0 1.00000000 2.1684043e-17
vn 1.00000000 0.0000000e+0 0.0000000e+0
vn 0.0000000e+0 0.0000000e+0 1.00000000
vn 4.0887824e-17 0.70710678 0.70710678
vn 4.0887824e-17 0.70710678 0.70710678
vn 1.00000000 0.0000000e+0 0.0000000e+0
vn 6.1331737e-17 0.70710678 0.70710678
vn 6.1331737e-17 0.70710678 0.70710678
vn -1.00000000 0.0000000e+0 0.0000000e+0
vn 2.0443912e-17 -9.0127256e-17 1.00000000
vn 2.0443912e-17 -9.0127256e-17 1.00000000
vn 1.00000000 0.0000000e+0 0.0000000e+0
vn 2.0443912e-17 -6.0084837e-17 1.00000000
vn 2.0443912e-17 -6.0084837e-17 1.00000000
vn -1.00000000 0.0000000e+0 0.0000000e+0
vn 0.0000000e+0 -0.70710678 0.70710678
vn 0.0000000e+0 -0.70710678 0.70710678
vn 1.00000000 0.0000000e+0 0.0000000e+0
vn 0.0000000e+0 -0.70710678 0.70710678
vn 0.0000000e+0 -0.70710678 0.70710678
vn -1.00000000 0.0000000e+0 0.0000000e+0
vn 0.0000000e+0 -0.98078528 0.19509032
vn 0.0000000e+0 -0.98078528 0.19509032
vn 1.00000000 0.0000000e+0 0.0000000e+0
vn 1.00000000 0.0000000e+0 0.0000000e+0
vn 0.0000000e+0 -0.98078528 0.19509032
vn 0.0000000e+0 -0.98078528 0.19509032
vn -1.00000000 0.0000000e+0 0.0000000e+0
vn -1.00000000 0.0000000e+0 0.0000000e+0
vn 3.8515488e-17 0.98078528 0.19509032
vn 3.8515488e-17 0.98078528 0.19509032
vn -1.00000000 0.0000000e+0 0.0000000e+0
vn -1.00000000 0.0000000e+0 0.0000000e+0
vn 1.9257744e-17 0.98078528 0.19509032
vn 1.9257744e-17 0.98078528 0.19509032
vn 1.00000000 0.0000000e+0 0.0000000e+0
vn 1.00000000 0.0000000e+0 0.0000000e+0
g mesh1_mesh1_auv
usemtl mesh1_auv
s 1
f 5/6/17 4/7/14 3/10/11 2/11/6 1/1/2
f 6/4/21 7/14/25 8/9/28 9/8/31 10/5/34
f 11/3/35 14/13/47 7/14/22 6/4/18
f 11/3/38 39/3/136 42/13/148 14/13/49
f 12/2/42 1/1/4 2/11/8 13/12/46
f 13/12/44 41/12/143 40/2/140 12/2/40
f 17/16/61 16/26/57 15/27/54 18/17/66
f 29/1/102 30/11/106 31/10/111 32/7/114 33/6/117
f 34/4/118 35/14/122 42/13/149 39/3/137
f 38/5/134 37/8/131 36/9/128 35/14/125 34/4/121
f 41/12/146 30/11/108 29/1/104 40/2/142
f 47/20/169 49/22/175 51/24/181 53/28/188 56/18/200
f 52/23/184 50/21/178 48/19/172 55/15/196 54/25/192
f 54/25/191 55/15/195 45/16/162 44/26/158
f 56/18/199 53/28/187 43/27/153 46/17/165
s 2
f 16/26/58 17/16/62 27/15/95 26/25/91
f 18/17/65 15/27/53 25/28/87 28/18/99
f 26/25/92 27/15/96 20/19/72 22/21/78 24/23/84
f 28/18/100 25/28/88 23/24/81 21/22/75 19/20/69
f 46/17/166 43/27/154 44/26/157 45/16/161
s 3
f 1/36/3 12/39/41 18/54/64 28/47/98
f 1/36/1 28/47/97 19/49/67 5/35/15
f 3/38/10 23/51/80 25/48/85 2/37/5
f 4/41/13 21/52/74 23/51/79 3/38/9
f 5/35/16 19/49/68 21/44/73 4/34/12
f 6/78/19 27/69/93 17/61/59 11/75/36
f 7/84/23 26/67/89 24/70/83 8/87/27
f 8/87/26 24/70/82 22/64/77 9/83/30
f 9/79/29 22/60/76 20/65/71 10/77/33
f 10/77/32 20/65/70 27/69/94 6/78/20
f 12/39/39 40/32/139 46/45/163 45/62/159 39/86/135 11/75/37 17/61/60 18/54/63
f 14/81/48 42/76/147 44/66/155 43/50/151 41/31/144 13/43/45 15/55/52 16/68/55
f 16/68/56 26/67/90 7/84/24 14/81/50
f 25/48/86 15/55/51 13/43/43 2/37/7
f 30/42/107 41/31/145 43/50/152 53/56/186
f 30/42/105 53/56/185 51/46/180 31/29/110
f 31/29/109 51/46/179 49/58/174 32/40/113
f 32/40/112 49/58/173 47/53/168 33/30/116
f 33/30/115 47/53/167 56/57/197 29/33/101
f 34/80/120 55/72/194 48/63/170 38/88/132
f 36/74/127 52/59/183 54/71/189 35/85/123
f 37/82/130 50/73/177 52/59/182 36/74/126
f 38/88/133 48/63/171 50/73/176 37/82/129
f 39/86/138 45/62/160 55/72/193 34/80/119
f 42/76/150 35/85/124 54/71/190 44/66/156
f 56/57/198 46/45/164 40/32/141 29/33/103
