# Exported from Wings 3D 1.5.4
mtllib 1f_avionics_s0_1_collider.mtl
o collider
#60 vertices, 38 faces
v 0.62500000 5.5511151e-17 -0.16746825
v 0.62500000 5.5511151e-17 0.16746825
v 0.45753175 5.5511151e-17 0.45753175
v 0.16746825 5.5511151e-17 0.62500000
v -0.16746825 5.5511151e-17 0.62500000
v -0.45753175 5.5511151e-17 0.45753175
v -0.62500000 5.5511151e-17 0.16746825
v -0.62500000 5.5511151e-17 -0.16746825
v -0.45753175 5.5511151e-17 -0.45753175
v -0.16746825 5.5511151e-17 -0.62500000
v 0.16746825 5.5511151e-17 -0.62500000
v 0.45753175 5.5511151e-17 -0.45753175
v 0.62500000 -5.0000000e-2 -0.16746825
v 0.62500000 -5.0000000e-2 0.16746825
v 0.45753175 -5.0000000e-2 0.45753175
v 0.16746825 -5.0000000e-2 0.62500000
v -0.16746825 -5.0000000e-2 0.62500000
v -0.45753175 -5.0000000e-2 0.45753175
v -0.62500000 -5.0000000e-2 0.16746825
v -0.62500000 -5.0000000e-2 -0.16746825
v -0.45753175 -5.0000000e-2 -0.45753175
v -0.16746825 -5.0000000e-2 -0.62500000
v 0.16746825 -5.0000000e-2 -0.62500000
v 0.45753175 -5.0000000e-2 -0.45753175
v 0.43750000 -0.20000000 -0.11722777
v 0.43750000 -0.20000000 0.11722777
v 0.32027223 -0.20000000 0.32027223
v 0.11722777 -0.20000000 0.43750000
v -0.11722777 -0.20000000 0.43750000
v -0.32027223 -0.20000000 0.32027223
v -0.43750000 -0.20000000 0.11722777
v -0.43750000 -0.20000000 -0.11722777
v -0.32027223 -0.20000000 -0.32027223
v -0.11722777 -0.20000000 -0.43750000
v 0.11722777 -0.20000000 -0.43750000
v 0.32027223 -0.20000000 -0.32027223
v 0.62500000 5.0000000e-2 -0.16746825
v 0.62500000 5.0000000e-2 0.16746825
v 0.45753175 5.0000000e-2 0.45753175
v 0.16746825 5.0000000e-2 0.62500000
v -0.16746825 5.0000000e-2 0.62500000
v -0.45753175 5.0000000e-2 0.45753175
v -0.62500000 5.0000000e-2 0.16746825
v -0.62500000 5.0000000e-2 -0.16746825
v -0.45753175 5.0000000e-2 -0.45753175
v -0.16746825 5.0000000e-2 -0.62500000
v 0.16746825 5.0000000e-2 -0.62500000
v 0.45753175 5.0000000e-2 -0.45753175
v 0.43750000 0.20000000 -0.11722777
v 0.43750000 0.20000000 0.11722777
v 0.32027223 0.20000000 0.32027223
v 0.11722777 0.20000000 0.43750000
v -0.11722777 0.20000000 0.43750000
v -0.32027223 0.20000000 0.32027223
v -0.43750000 0.20000000 0.11722777
v -0.43750000 0.20000000 -0.11722777
v -0.32027223 0.20000000 -0.32027223
v -0.11722777 0.20000000 -0.43750000
v 0.11722777 0.20000000 -0.43750000
v 0.32027223 0.20000000 -0.32027223
vn 1.00000000 0.0000000e+0 0.0000000e+0
vn 0.86602539 0.0000000e+0 -0.50000002
vn 1.00000000 0.0000000e+0 0.0000000e+0
vn 0.86602539 0.0000000e+0 0.50000002
vn 0.50000002 0.0000000e+0 0.86602539
vn 0.86602539 0.0000000e+0 0.50000002
vn 0.0000000e+0 0.0000000e+0 1.00000000
vn 0.50000002 0.0000000e+0 0.86602539
vn 0.0000000e+0 0.0000000e+0 1.00000000
vn -0.50000002 0.0000000e+0 0.86602539
vn -0.86602539 0.0000000e+0 0.50000002
vn -0.50000002 0.0000000e+0 0.86602539
vn -0.86602539 0.0000000e+0 0.50000002
vn -1.00000000 0.0000000e+0 0.0000000e+0
vn -1.00000000 0.0000000e+0 0.0000000e+0
vn -0.86602539 0.0000000e+0 -0.50000002
vn -0.50000002 0.0000000e+0 -0.86602539
vn -0.86602539 0.0000000e+0 -0.50000002
vn -0.50000002 0.0000000e+0 -0.86602539
vn 0.0000000e+0 0.0000000e+0 -1.00000000
vn 0.50000002 0.0000000e+0 -0.86602539
vn 0.0000000e+0 0.0000000e+0 -1.00000000
vn 0.50000002 0.0000000e+0 -0.86602539
vn 0.86602539 0.0000000e+0 -0.50000002
vn 1.00000000 0.0000000e+0 0.0000000e+0
vn 0.54100178 -0.78086880 -0.31234753
vn 0.62469505 -0.78086881 0.0000000e+0
vn 0.86602539 0.0000000e+0 -0.50000002
vn 1.00000000 0.0000000e+0 0.0000000e+0
vn 0.54100178 -0.78086880 0.31234753
vn 0.62469505 -0.78086881 0.0000000e+0
vn 0.86602539 0.0000000e+0 0.50000002
vn 0.54100178 -0.78086880 0.31234753
vn 0.50000002 0.0000000e+0 0.86602539
vn 0.86602539 0.0000000e+0 0.50000002
vn 0.31234753 -0.78086880 0.54100178
vn 0.0000000e+0 0.0000000e+0 1.00000000
vn 0.50000002 0.0000000e+0 0.86602539
vn 0.0000000e+0 -0.78086881 0.62469505
vn 0.31234753 -0.78086880 0.54100178
vn 0.0000000e+0 0.0000000e+0 1.00000000
vn -0.31234753 -0.78086880 0.54100178
vn -0.50000002 0.0000000e+0 0.86602539
vn 0.0000000e+0 -0.78086881 0.62469505
vn -0.86602539 0.0000000e+0 0.50000002
vn -0.31234753 -0.78086880 0.54100178
vn -0.50000002 0.0000000e+0 0.86602539
vn -0.54100178 -0.78086880 0.31234753
vn -0.86602539 0.0000000e+0 0.50000002
vn -1.00000000 0.0000000e+0 0.0000000e+0
vn -0.54100178 -0.78086880 0.31234753
vn -0.62469505 -0.78086881 0.0000000e+0
vn -0.54100178 -0.78086880 -0.31234753
vn -1.00000000 0.0000000e+0 0.0000000e+0
vn -0.86602539 0.0000000e+0 -0.50000002
vn -0.62469505 -0.78086881 0.0000000e+0
vn -0.54100178 -0.78086880 -0.31234753
vn -0.50000002 0.0000000e+0 -0.86602539
vn -0.86602539 0.0000000e+0 -0.50000002
vn -0.31234753 -0.78086880 -0.54100178
vn 0.0000000e+0 -0.78086881 -0.62469505
vn -0.50000002 0.0000000e+0 -0.86602539
vn 0.0000000e+0 0.0000000e+0 -1.00000000
vn -0.31234753 -0.78086880 -0.54100178
vn 0.50000002 0.0000000e+0 -0.86602539
vn 0.0000000e+0 -0.78086881 -0.62469505
vn 0.31234753 -0.78086880 -0.54100178
vn 0.0000000e+0 0.0000000e+0 -1.00000000
vn 0.50000002 0.0000000e+0 -0.86602539
vn 0.54100178 -0.78086880 -0.31234753
vn 0.31234753 -0.78086880 -0.54100178
vn 0.86602539 0.0000000e+0 -0.50000002
vn 0.54100178 -0.78086880 -0.31234753
vn 0.62469505 -0.78086881 0.0000000e+0
vn 0.0000000e+0 -1.00000000 -5.6372908e-18
vn 0.54100178 -0.78086880 0.31234753
vn 0.62469505 -0.78086881 0.0000000e+0
vn 0.0000000e+0 -1.00000000 -5.6372908e-18
vn 0.54100178 -0.78086880 0.31234753
vn 0.31234753 -0.78086880 0.54100178
vn 0.0000000e+0 -1.00000000 -5.6372908e-18
vn 0.0000000e+0 -0.78086881 0.62469505
vn 0.31234753 -0.78086880 0.54100178
vn 0.0000000e+0 -1.00000000 -5.6372908e-18
vn -0.31234753 -0.78086880 0.54100178
vn 0.0000000e+0 -0.78086881 0.62469505
vn 0.0000000e+0 -1.00000000 -5.6372908e-18
vn -0.31234753 -0.78086880 0.54100178
vn -0.54100178 -0.78086880 0.31234753
vn 0.0000000e+0 -1.00000000 -5.6372908e-18
vn -0.54100178 -0.78086880 0.31234753
vn -0.62469505 -0.78086881 0.0000000e+0
vn 0.0000000e+0 -1.00000000 -5.6372908e-18
vn -0.54100178 -0.78086880 -0.31234753
vn -0.62469505 -0.78086881 0.0000000e+0
vn 0.0000000e+0 -1.00000000 -5.6372908e-18
vn -0.54100178 -0.78086880 -0.31234753
vn -0.31234753 -0.78086880 -0.54100178
vn 0.0000000e+0 -1.00000000 -5.6372908e-18
vn 0.0000000e+0 -0.78086881 -0.62469505
vn -0.31234753 -0.78086880 -0.54100178
vn 0.0000000e+0 -1.00000000 -5.6372908e-18
vn 0.0000000e+0 -0.78086881 -0.62469505
vn 0.31234753 -0.78086880 -0.54100178
vn 0.0000000e+0 -1.00000000 -5.6372908e-18
vn 0.54100178 -0.78086880 -0.31234753
vn 0.31234753 -0.78086880 -0.54100178
vn 0.0000000e+0 -1.00000000 -5.6372908e-18
vn 1.00000000 0.0000000e+0 0.0000000e+0
vn 0.54100178 0.78086880 -0.31234753
vn 0.86602539 0.0000000e+0 -0.50000002
vn 0.62469505 0.78086881 0.0000000e+0
vn 1.00000000 0.0000000e+0 0.0000000e+0
vn 0.86602539 0.0000000e+0 0.50000002
vn 0.54100178 0.78086880 0.31234753
vn 0.62469505 0.78086881 0.0000000e+0
vn 0.50000002 0.0000000e+0 0.86602539
vn 0.86602539 0.0000000e+0 0.50000002
vn 0.54100178 0.78086880 0.31234753
vn 0.31234753 0.78086880 0.54100178
vn 0.0000000e+0 0.0000000e+0 1.00000000
vn 0.50000002 0.0000000e+0 0.86602539
vn 0.0000000e+0 0.78086881 0.62469505
vn 0.31234753 0.78086880 0.54100178
vn 0.0000000e+0 0.0000000e+0 1.00000000
vn -0.50000002 0.0000000e+0 0.86602539
vn -0.31234753 0.78086880 0.54100178
vn 0.0000000e+0 0.78086881 0.62469505
vn -0.86602539 0.0000000e+0 0.50000002
vn -0.50000002 0.0000000e+0 0.86602539
vn -0.31234753 0.78086880 0.54100178
vn -0.54100178 0.78086880 0.31234753
vn -0.86602539 0.0000000e+0 0.50000002
vn -1.00000000 0.0000000e+0 0.0000000e+0
vn -0.54100178 0.78086880 0.31234753
vn -0.62469505 0.78086881 0.0000000e+0
vn -1.00000000 0.0000000e+0 0.0000000e+0
vn -0.86602539 0.0000000e+0 -0.50000002
vn -0.54100178 0.78086880 -0.31234753
vn -0.62469505 0.78086881 0.0000000e+0
vn -0.50000002 0.0000000e+0 -0.86602539
vn -0.86602539 0.0000000e+0 -0.50000002
vn -0.54100178 0.78086880 -0.31234753
vn -0.31234753 0.78086880 -0.54100178
vn -0.50000002 0.0000000e+0 -0.86602539
vn 0.0000000e+0 0.0000000e+0 -1.00000000
vn 0.0000000e+0 0.78086881 -0.62469505
vn -0.31234753 0.78086880 -0.54100178
vn 0.50000002 0.0000000e+0 -0.86602539
vn 0.0000000e+0 0.0000000e+0 -1.00000000
vn 0.0000000e+0 0.78086881 -0.62469505
vn 0.31234753 0.78086880 -0.54100178
vn 0.50000002 0.0000000e+0 -0.86602539
vn 0.54100178 0.78086880 -0.31234753
vn 0.86602539 0.0000000e+0 -0.50000002
vn 0.31234753 0.78086880 -0.54100178
vn 0.54100178 0.78086880 -0.31234753
vn 0.62469505 0.78086881 0.0000000e+0
vn 0.0000000e+0 1.00000000 -5.6372908e-18
vn 0.54100178 0.78086880 0.31234753
vn 0.62469505 0.78086881 0.0000000e+0
vn 0.0000000e+0 1.00000000 -5.6372908e-18
vn 0.54100178 0.78086880 0.31234753
vn 0.31234753 0.78086880 0.54100178
vn 0.0000000e+0 1.00000000 -5.6372908e-18
vn 0.0000000e+0 0.78086881 0.62469505
vn 0.31234753 0.78086880 0.54100178
vn 0.0000000e+0 1.00000000 -5.6372908e-18
vn -0.31234753 0.78086880 0.54100178
vn 0.0000000e+0 0.78086881 0.62469505
vn 0.0000000e+0 1.00000000 -5.6372908e-18
vn -0.31234753 0.78086880 0.54100178
vn -0.54100178 0.78086880 0.31234753
vn 0.0000000e+0 1.00000000 -5.6372908e-18
vn -0.54100178 0.78086880 0.31234753
vn -0.62469505 0.78086881 0.0000000e+0
vn 0.0000000e+0 1.00000000 -5.6372908e-18
vn -0.54100178 0.78086880 -0.31234753
vn -0.62469505 0.78086881 0.0000000e+0
vn 0.0000000e+0 1.00000000 -5.6372908e-18
vn -0.54100178 0.78086880 -0.31234753
vn -0.31234753 0.78086880 -0.54100178
vn 0.0000000e+0 1.00000000 -5.6372908e-18
vn 0.0000000e+0 0.78086881 -0.62469505
vn -0.31234753 0.78086880 -0.54100178
vn 0.0000000e+0 1.00000000 -5.6372908e-18
vn 0.0000000e+0 0.78086881 -0.62469505
vn 0.31234753 0.78086880 -0.54100178
vn 0.0000000e+0 1.00000000 -5.6372908e-18
vn 0.54100178 0.78086880 -0.31234753
vn 0.31234753 0.78086880 -0.54100178
vn 0.0000000e+0 1.00000000 -5.6372908e-18
g collider_default2
usemtl default2
s 1
f 3//5 39//117 40//122 4//8 16//38 15//34
f 6//11 42//129 43//133 7//13 19//49 18//45
f 10//20 46//146 47//150 11//22 23//68 22//63
f 13//26 25//73 36//106 24//70
f 15//33 27//79 26//76 14//30
f 18//46 30//88 29//85 17//42
f 20//56 32//95 31//92 19//52
f 22//64 34//101 33//98 21//60
f 37//112 49//158 50//161 38//116
f 40//123 52//166 53//170 41//128
f 44//139 56//178 57//181 45//143
f 47//152 59//188 60//191 48//156
s 2
f 1//1 37//109 38//113 2//3 14//29 13//25
f 5//10 41//126 42//130 6//12 18//47 17//43
f 8//16 44//138 45//142 9//18 21//59 20//55
f 11//21 47//149 48//153 12//23 24//69 23//65
f 26//78 27//81 28//84 29//87 30//90 31//93 32//96 33//99 34//102 35//105 36//108 25//75
f 49//159 60//192 59//189 58//186 57//183 56//180 55//177 54//174 53//171 52//168 51//165 50//162
s 3
f 2//4 38//114 39//118 3//6 15//35 14//32
f 13//28 24//72 12//24 48//155 37//111 1//2
f 14//31 26//77 25//74 13//27
f 17//44 29//86 28//82 16//39
f 19//51 31//91 30//89 18//48
f 21//57 33//97 32//94 20//53
f 24//71 36//107 35//104 23//67
f 39//120 51//164 52//167 40//124
f 41//127 53//169 54//172 42//131
f 43//136 55//176 56//179 44//140
f 45//144 57//182 58//185 46//148
s 4
f 4//7 40//121 41//125 5//9 17//41 16//37
f 7//14 43//134 44//137 8//15 20//54 19//50
f 9//17 45//141 46//145 10//19 22//62 21//58
f 16//40 28//83 27//80 15//36
f 23//66 35//103 34//100 22//61
f 38//115 50//160 51//163 39//119
f 42//132 54//173 55//175 43//135
f 46//147 58//184 59//187 47//151
f 48//154 60//190 49//157 37//110
