# Exported from Wings 3D 1.5.4
mtllib 1f_antenna_s0_1_collider.mtl
o collider
#24 vertices, 14 faces
v 6.2500000e-2 -6.8961727e-18 -4.8750000e-2
v 5.4126588e-2 -3.1250000e-2 -4.8750000e-2
v 3.1250000e-2 -5.4126588e-2 -4.8750000e-2
v -7.2051503e-17 -6.2500000e-2 -4.8750000e-2
v -3.1250000e-2 -5.4126588e-2 -4.8750000e-2
v -5.4126588e-2 -3.1250000e-2 -4.8750000e-2
v -6.2500000e-2 -1.4550215e-17 -4.8750000e-2
v -5.4126588e-2 3.1250000e-2 -4.8750000e-2
v -3.1250000e-2 5.4126588e-2 -4.8750000e-2
v -8.7359588e-17 6.2500000e-2 -4.8750000e-2
v 3.1250000e-2 5.4126588e-2 -4.8750000e-2
v 5.4126588e-2 3.1250000e-2 -4.8750000e-2
v 0.28750000 -1.1992382e-17 -0.16750000
v 0.24898230 -0.14375000 -0.16750000
v 0.14375000 -0.24898230 -0.16750000
v -4.8315194e-17 -0.28750000 -0.16750000
v -0.14375000 -0.24898230 -0.16750000
v -0.24898230 -0.14375000 -0.16750000
v -0.28750000 -4.7200977e-17 -0.16750000
v -0.24898230 0.14375000 -0.16750000
v -0.14375000 0.24898230 -0.16750000
v -1.1873239e-16 0.28750000 -0.16750000
v 0.14375000 0.24898230 -0.16750000
v 0.24898230 0.14375000 -0.16750000
vn -3.7007434e-17 6.9056812e-17 1.00000000
vn 0.46315040 0.12410078 0.87754812
vn 0.46315040 -0.12410078 0.87754812
vn -3.7007434e-17 6.9056812e-17 1.00000000
vn 0.33904962 -0.33904962 0.87754812
vn 0.46315040 -0.12410078 0.87754812
vn -3.7007434e-17 6.9056812e-17 1.00000000
vn 0.12410078 -0.46315040 0.87754812
vn 0.33904962 -0.33904962 0.87754812
vn -3.7007434e-17 6.9056812e-17 1.00000000
vn -0.12410078 -0.46315040 0.87754812
vn 0.12410078 -0.46315040 0.87754812
vn -3.7007434e-17 6.9056812e-17 1.00000000
vn -0.33904962 -0.33904962 0.87754812
vn -0.12410078 -0.46315040 0.87754812
vn -3.7007434e-17 6.9056812e-17 1.00000000
vn -0.46315040 -0.12410078 0.87754812
vn -0.33904962 -0.33904962 0.87754812
vn -3.7007434e-17 6.9056812e-17 1.00000000
vn -0.46315040 0.12410078 0.87754812
vn -0.46315040 -0.12410078 0.87754812
vn -3.7007434e-17 6.9056812e-17 1.00000000
vn -0.33904962 0.33904962 0.87754812
vn -0.46315040 0.12410078 0.87754812
vn -3.7007434e-17 6.9056812e-17 1.00000000
vn -0.12410078 0.46315040 0.87754812
vn -0.33904962 0.33904962 0.87754812
vn -3.7007434e-17 6.9056812e-17 1.00000000
vn 0.12410078 0.46315040 0.87754812
vn -0.12410078 0.46315040 0.87754812
vn -3.7007434e-17 6.9056812e-17 1.00000000
vn 0.33904962 0.33904962 0.87754812
vn 0.12410078 0.46315040 0.87754812
vn -3.7007434e-17 6.9056812e-17 1.00000000
vn 0.46315040 0.12410078 0.87754812
vn 0.33904962 0.33904962 0.87754812
vn -5.5965874e-17 0.0000000e+0 -1.00000000
vn 0.46315040 0.12410078 0.87754812
vn 0.46315040 -0.12410078 0.87754812
vn -5.5965874e-17 0.0000000e+0 -1.00000000
vn 0.33904962 -0.33904962 0.87754812
vn 0.46315040 -0.12410078 0.87754812
vn -5.5965874e-17 0.0000000e+0 -1.00000000
vn 0.12410078 -0.46315040 0.87754812
vn 0.33904962 -0.33904962 0.87754812
vn -5.5965874e-17 0.0000000e+0 -1.00000000
vn -0.12410078 -0.46315040 0.87754812
vn 0.12410078 -0.46315040 0.87754812
vn -5.5965874e-17 0.0000000e+0 -1.00000000
vn -0.33904962 -0.33904962 0.87754812
vn -0.12410078 -0.46315040 0.87754812
vn -5.5965874e-17 0.0000000e+0 -1.00000000
vn -0.46315040 -0.12410078 0.87754812
vn -0.33904962 -0.33904962 0.87754812
vn -5.5965874e-17 0.0000000e+0 -1.00000000
vn -0.46315040 0.12410078 0.87754812
vn -0.46315040 -0.12410078 0.87754812
vn -5.5965874e-17 0.0000000e+0 -1.00000000
vn -0.33904962 0.33904962 0.87754812
vn -0.46315040 0.12410078 0.87754812
vn -5.5965874e-17 0.0000000e+0 -1.00000000
vn -0.12410078 0.46315040 0.87754812
vn -0.33904962 0.33904962 0.87754812
vn -5.5965874e-17 0.0000000e+0 -1.00000000
vn 0.12410078 0.46315040 0.87754812
vn -0.12410078 0.46315040 0.87754812
vn -5.5965874e-17 0.0000000e+0 -1.00000000
vn 0.33904962 0.33904962 0.87754812
vn 0.12410078 0.46315040 0.87754812
vn -5.5965874e-17 0.0000000e+0 -1.00000000
vn 0.46315040 0.12410078 0.87754812
vn 0.33904962 0.33904962 0.87754812
g collider_default
usemtl default
s 1
f 1//2 13//38 24//71 12//35
f 3//9 15//45 14//41 2//5
f 5//15 17//51 16//47 4//11
f 8//24 20//60 19//56 7//20
f 10//30 22//66 21//62 9//26
s 2
f 2//6 14//42 13//39 1//3
f 4//12 16//48 15//44 3//8
f 6//18 18//54 17//50 5//14
f 9//27 21//63 20//59 8//23
f 11//33 23//69 22//65 10//29
s 3
f 1//1 12//34 11//31 10//28 9//25 8//22 7//19 6//16 5//13 4//10 3//7 2//4
f 14//40 15//43 16//46 17//49 18//52 19//55 20//58 21//61 22//64 23//67 24//70 13//37
s 4
f 7//21 19//57 18//53 6//17
f 12//36 24//72 23//68 11//32
