# Exported from Wings 3D 1.5.4
mtllib 4mv_avionics_s0_1_collider_split.mtl
o collider2
#12 vertices, 8 faces
v 0.62500000 -0.12500000 -0.16746825
v 0.62500000 -0.12500000 0.16746825
v 0.62500000 -0.22500000 -0.16746825
v 0.62500000 -0.22500000 0.16746825
v 0.43750000 -0.37500000 -0.11722777
v 0.43750000 -0.37500000 0.11722777
v 0.31250000 -0.37500000 -8.3734121e-2
v 0.31250000 -0.37500000 8.3734121e-2
v 0.31250000 0.0000000e+0 -8.3734121e-2
v 0.31250000 0.0000000e+0 8.3734121e-2
v 0.54687500 0.0000000e+0 0.14653472
v 0.54687500 0.0000000e+0 -0.14653472
vn 1.00000000 0.0000000e+0 0.0000000e+0
vn 0.84799830 0.52999894 0.0000000e+0
vn -0.25881906 -4.9928572e-9 -0.96592582
vn 1.00000000 0.0000000e+0 0.0000000e+0
vn 0.84799830 0.52999894 0.0000000e+0
vn -0.25881906 -4.9928572e-9 0.96592582
vn 1.00000000 0.0000000e+0 0.0000000e+0
vn 0.62469505 -0.78086881 0.0000000e+0
vn -0.25881906 -4.9928572e-9 -0.96592582
vn 1.00000000 0.0000000e+0 0.0000000e+0
vn 0.62469505 -0.78086881 0.0000000e+0
vn -0.25881906 -4.9928572e-9 0.96592582
vn 0.62469505 -0.78086881 0.0000000e+0
vn 0.0000000e+0 -1.00000000 0.0000000e+0
vn -0.25881906 -4.9928572e-9 -0.96592582
vn 0.62469505 -0.78086881 0.0000000e+0
vn 0.0000000e+0 -1.00000000 0.0000000e+0
vn -0.25881906 -4.9928572e-9 0.96592582
vn 0.0000000e+0 -1.00000000 0.0000000e+0
vn -1.00000000 0.0000000e+0 0.0000000e+0
vn -0.25881906 -4.9928572e-9 -0.96592582
vn 0.0000000e+0 -1.00000000 0.0000000e+0
vn -1.00000000 0.0000000e+0 0.0000000e+0
vn -0.25881906 -4.9928572e-9 0.96592582
vn -1.00000000 0.0000000e+0 0.0000000e+0
vn -0.25881906 -4.9928572e-9 -0.96592582
vn 0.0000000e+0 1.00000000 0.0000000e+0
vn -1.00000000 0.0000000e+0 0.0000000e+0
vn 0.0000000e+0 1.00000000 0.0000000e+0
vn -0.25881906 -4.9928572e-9 0.96592582
vn 0.84799830 0.52999894 0.0000000e+0
vn 0.0000000e+0 1.00000000 0.0000000e+0
vn -0.25881906 -4.9928572e-9 0.96592582
vn 0.84799830 0.52999894 0.0000000e+0
vn -0.25881906 -4.9928572e-9 -0.96592582
vn 0.0000000e+0 1.00000000 0.0000000e+0
g collider2_default2
usemtl default2
s 1
f 2//6 11//33 10//30 8//24 6//18 4//12
f 3//9 5//15 7//21 9//26 12//35 1//3
s 2
f 2//4 4//10 3//7 1//1
f 6//17 8//22 7//19 5//14
f 10//29 11//32 12//36 9//27
s 3
f 1//2 12//34 11//31 2//5
f 4//11 6//16 5//13 3//8
f 8//23 10//28 9//25 7//20
o collider1
#24 vertices, 14 faces
v 0.31250000 0.37500000 -8.3734123e-2
v 0.31250000 0.37500000 8.3734123e-2
v 0.22876588 0.37500000 0.22876588
v 8.3734123e-2 0.37500000 0.31250000
v -8.3734123e-2 0.37500000 0.31250000
v -0.22876588 0.37500000 0.22876588
v -0.31250000 0.37500000 8.3734123e-2
v -0.31250000 0.37500000 -8.3734123e-2
v -0.22876588 0.37500000 -0.22876588
v -8.3734123e-2 0.37500000 -0.31250000
v 8.3734123e-2 0.37500000 -0.31250000
v 0.22876588 0.37500000 -0.22876588
v 0.40034028 0.0000000e+0 -0.40034028
v 0.14653472 0.0000000e+0 -0.54687500
v -0.14653472 0.0000000e+0 -0.54687500
v -0.40034028 0.0000000e+0 -0.40034028
v -0.54687500 0.0000000e+0 -0.14653472
v -0.54687500 0.0000000e+0 0.14653472
v -0.40034028 0.0000000e+0 0.40034028
v -0.14653472 0.0000000e+0 0.54687500
v 0.14653472 0.0000000e+0 0.54687500
v 0.40034028 0.0000000e+0 0.40034028
v 0.54687500 0.0000000e+0 0.14653472
v 0.54687500 0.0000000e+0 -0.14653472
vn 0.73438807 0.52999894 -0.42399916
vn 0.84799830 0.52999894 0.0000000e+0
vn 0.0000000e+0 1.00000000 4.4196359e-17
vn 0.73438807 0.52999894 0.42399916
vn 0.84799830 0.52999894 0.0000000e+0
vn 0.0000000e+0 1.00000000 4.4196359e-17
vn 0.73438807 0.52999894 0.42399916
vn 0.0000000e+0 1.00000000 4.4196359e-17
vn 0.42399916 0.52999894 0.73438807
vn 0.0000000e+0 0.52999894 0.84799830
vn 0.0000000e+0 1.00000000 4.4196359e-17
vn 0.42399916 0.52999894 0.73438807
vn -0.42399916 0.52999894 0.73438807
vn 0.0000000e+0 0.52999894 0.84799830
vn 0.0000000e+0 1.00000000 4.4196359e-17
vn -0.42399916 0.52999894 0.73438807
vn -0.73438807 0.52999894 0.42399916
vn 0.0000000e+0 1.00000000 4.4196359e-17
vn -0.84799830 0.52999894 0.0000000e+0
vn -0.73438807 0.52999894 0.42399916
vn 0.0000000e+0 1.00000000 4.4196359e-17
vn -0.84799830 0.52999894 0.0000000e+0
vn -0.73438807 0.52999894 -0.42399916
vn 0.0000000e+0 1.00000000 4.4196359e-17
vn -0.42399916 0.52999894 -0.73438807
vn -0.73438807 0.52999894 -0.42399916
vn 0.0000000e+0 1.00000000 4.4196359e-17
vn -0.42399916 0.52999894 -0.73438807
vn 0.0000000e+0 0.52999894 -0.84799830
vn 0.0000000e+0 1.00000000 4.4196359e-17
vn 0.0000000e+0 0.52999894 -0.84799830
vn 0.0000000e+0 1.00000000 4.4196359e-17
vn 0.42399916 0.52999894 -0.73438807
vn 0.73438807 0.52999894 -0.42399916
vn 0.0000000e+0 1.00000000 4.4196359e-17
vn 0.42399916 0.52999894 -0.73438807
vn 0.73438807 0.52999894 -0.42399916
vn 0.42399916 0.52999894 -0.73438807
vn 0.0000000e+0 -1.00000000 0.0000000e+0
vn 0.0000000e+0 0.52999894 -0.84799830
vn 0.42399916 0.52999894 -0.73438807
vn 0.0000000e+0 -1.00000000 0.0000000e+0
vn -0.42399916 0.52999894 -0.73438807
vn 0.0000000e+0 0.52999894 -0.84799830
vn 0.0000000e+0 -1.00000000 0.0000000e+0
vn -0.42399916 0.52999894 -0.73438807
vn -0.73438807 0.52999894 -0.42399916
vn 0.0000000e+0 -1.00000000 0.0000000e+0
vn -0.84799830 0.52999894 0.0000000e+0
vn -0.73438807 0.52999894 -0.42399916
vn 0.0000000e+0 -1.00000000 0.0000000e+0
vn -0.84799830 0.52999894 0.0000000e+0
vn -0.73438807 0.52999894 0.42399916
vn 0.0000000e+0 -1.00000000 0.0000000e+0
vn -0.42399916 0.52999894 0.73438807
vn -0.73438807 0.52999894 0.42399916
vn 0.0000000e+0 -1.00000000 0.0000000e+0
vn -0.42399916 0.52999894 0.73438807
vn 0.0000000e+0 0.52999894 0.84799830
vn 0.0000000e+0 -1.00000000 0.0000000e+0
vn 0.0000000e+0 0.52999894 0.84799830
vn 0.42399916 0.52999894 0.73438807
vn 0.0000000e+0 -1.00000000 0.0000000e+0
vn 0.73438807 0.52999894 0.42399916
vn 0.42399916 0.52999894 0.73438807
vn 0.0000000e+0 -1.00000000 0.0000000e+0
vn 0.73438807 0.52999894 0.42399916
vn 0.84799830 0.52999894 0.0000000e+0
vn 0.0000000e+0 -1.00000000 0.0000000e+0
vn 0.73438807 0.52999894 -0.42399916
vn 0.84799830 0.52999894 0.0000000e+0
vn 0.0000000e+0 -1.00000000 0.0000000e+0
g collider1_default2
usemtl default2
s 1
f 14//41 35//104 36//107 13//38
f 17//50 32//95 33//97 16//46
f 20//58 29//85 30//88 19//55
f 22//64 27//79 28//82 21//61
f 24//72 25//74 26//77 23//69
s 2
f 13//37 36//106 25//73 24//70
f 15//43 34//100 35//103 14//40
f 18//52 31//91 32//94 17//49
f 21//62 28//83 29//86 20//59
f 23//67 26//76 27//80 22//65
s 3
f 13//39 24//71 23//68 22//66 21//63 20//60 19//57 18//54 17//51 16//47 15//44 14//42
f 36//108 35//105 34//102 33//99 32//96 31//93 30//90 29//87 28//84 27//81 26//78 25//75
s 4
f 16//48 33//98 34//101 15//45
f 19//56 30//89 31//92 18//53
