# Exported from Wings 3D 1.5.4
mtllib 4mv_avionics_s0_1_collider.mtl
o collider
#48 vertices, 38 faces
v 0.31250000 0.37500000 -8.3734123e-2
v 0.31250000 0.37500000 8.3734123e-2
v 0.22876588 0.37500000 0.22876588
v 8.3734123e-2 0.37500000 0.31250000
v -8.3734123e-2 0.37500000 0.31250000
v -0.22876588 0.37500000 0.22876588
v -0.31250000 0.37500000 8.3734123e-2
v -0.31250000 0.37500000 -8.3734123e-2
v -0.22876588 0.37500000 -0.22876588
v -8.3734123e-2 0.37500000 -0.31250000
v 8.3734123e-2 0.37500000 -0.31250000
v 0.22876588 0.37500000 -0.22876588
v 0.62500000 -0.12500000 -0.16746825
v 0.62500000 -0.12500000 0.16746825
v 0.45753175 -0.12500000 0.45753175
v 0.16746825 -0.12500000 0.62500000
v -0.16746825 -0.12500000 0.62500000
v -0.45753175 -0.12500000 0.45753175
v -0.62500000 -0.12500000 0.16746825
v -0.62500000 -0.12500000 -0.16746825
v -0.45753175 -0.12500000 -0.45753175
v -0.16746825 -0.12500000 -0.62500000
v 0.16746825 -0.12500000 -0.62500000
v 0.45753175 -0.12500000 -0.45753175
v 0.62500000 -0.22500000 -0.16746825
v 0.62500000 -0.22500000 0.16746825
v 0.45753175 -0.22500000 0.45753175
v 0.16746825 -0.22500000 0.62500000
v -0.16746825 -0.22500000 0.62500000
v -0.45753175 -0.22500000 0.45753175
v -0.62500000 -0.22500000 0.16746825
v -0.62500000 -0.22500000 -0.16746825
v -0.45753175 -0.22500000 -0.45753175
v -0.16746825 -0.22500000 -0.62500000
v 0.16746825 -0.22500000 -0.62500000
v 0.45753175 -0.22500000 -0.45753175
v 0.43750000 -0.37500000 -0.11722777
v 0.43750000 -0.37500000 0.11722777
v 0.32027223 -0.37500000 0.32027223
v 0.11722777 -0.37500000 0.43750000
v -0.11722777 -0.37500000 0.43750000
v -0.32027223 -0.37500000 0.32027223
v -0.43750000 -0.37500000 0.11722777
v -0.43750000 -0.37500000 -0.11722777
v -0.32027223 -0.37500000 -0.32027223
v -0.11722777 -0.37500000 -0.43750000
v 0.11722777 -0.37500000 -0.43750000
v 0.32027223 -0.37500000 -0.32027223
vn 0.0000000e+0 1.00000000 2.2098180e-17
vn 0.73438807 0.52999894 -0.42399915
vn 0.84799830 0.52999894 0.0000000e+0
vn 0.0000000e+0 1.00000000 2.2098180e-17
vn 0.73438807 0.52999894 0.42399915
vn 0.84799830 0.52999894 0.0000000e+0
vn 0.0000000e+0 1.00000000 2.2098180e-17
vn 0.42399915 0.52999894 0.73438807
vn 0.73438807 0.52999894 0.42399915
vn 0.0000000e+0 1.00000000 2.2098180e-17
vn -2.8108829e-16 0.52999894 0.84799830
vn 0.42399915 0.52999894 0.73438807
vn 0.0000000e+0 1.00000000 2.2098180e-17
vn -0.42399915 0.52999894 0.73438807
vn -2.8108829e-16 0.52999894 0.84799830
vn 0.0000000e+0 1.00000000 2.2098180e-17
vn -0.73438807 0.52999894 0.42399915
vn -0.42399915 0.52999894 0.73438807
vn 0.0000000e+0 1.00000000 2.2098180e-17
vn -0.84799830 0.52999894 0.0000000e+0
vn -0.73438807 0.52999894 0.42399915
vn 0.0000000e+0 1.00000000 2.2098180e-17
vn -0.73438807 0.52999894 -0.42399915
vn -0.84799830 0.52999894 0.0000000e+0
vn 0.0000000e+0 1.00000000 2.2098180e-17
vn -0.42399915 0.52999894 -0.73438807
vn -0.73438807 0.52999894 -0.42399915
vn 0.0000000e+0 1.00000000 2.2098180e-17
vn 0.0000000e+0 0.52999894 -0.84799830
vn -0.42399915 0.52999894 -0.73438807
vn 0.0000000e+0 1.00000000 2.2098180e-17
vn 0.42399915 0.52999894 -0.73438807
vn 0.0000000e+0 0.52999894 -0.84799830
vn 0.0000000e+0 1.00000000 2.2098180e-17
vn 0.73438807 0.52999894 -0.42399915
vn 0.42399915 0.52999894 -0.73438807
vn 0.73438807 0.52999894 -0.42399915
vn 0.84799830 0.52999894 0.0000000e+0
vn 1.00000000 0.0000000e+0 0.0000000e+0
vn 0.86602540 0.0000000e+0 -0.50000000
vn 0.73438807 0.52999894 0.42399915
vn 0.84799830 0.52999894 0.0000000e+0
vn 1.00000000 0.0000000e+0 0.0000000e+0
vn 0.86602540 0.0000000e+0 0.50000000
vn 0.42399915 0.52999894 0.73438807
vn 0.73438807 0.52999894 0.42399915
vn 0.86602540 0.0000000e+0 0.50000000
vn 0.50000000 0.0000000e+0 0.86602540
vn -2.8108829e-16 0.52999894 0.84799830
vn 0.42399915 0.52999894 0.73438807
vn 0.50000000 0.0000000e+0 0.86602540
vn -3.3147270e-16 0.0000000e+0 1.00000000
vn -0.42399915 0.52999894 0.73438807
vn -2.8108829e-16 0.52999894 0.84799830
vn -3.3147270e-16 0.0000000e+0 1.00000000
vn -0.50000000 0.0000000e+0 0.86602540
vn -0.73438807 0.52999894 0.42399915
vn -0.42399915 0.52999894 0.73438807
vn -0.50000000 0.0000000e+0 0.86602540
vn -0.86602540 0.0000000e+0 0.50000000
vn -0.84799830 0.52999894 0.0000000e+0
vn -0.73438807 0.52999894 0.42399915
vn -0.86602540 0.0000000e+0 0.50000000
vn -1.00000000 0.0000000e+0 0.0000000e+0
vn -0.73438807 0.52999894 -0.42399915
vn -0.84799830 0.52999894 0.0000000e+0
vn -1.00000000 0.0000000e+0 0.0000000e+0
vn -0.86602540 0.0000000e+0 -0.50000000
vn -0.42399915 0.52999894 -0.73438807
vn -0.73438807 0.52999894 -0.42399915
vn -0.86602540 0.0000000e+0 -0.50000000
vn -0.50000000 0.0000000e+0 -0.86602540
vn 0.0000000e+0 0.52999894 -0.84799830
vn -0.42399915 0.52999894 -0.73438807
vn -0.50000000 0.0000000e+0 -0.86602540
vn 0.0000000e+0 0.0000000e+0 -1.00000000
vn 0.42399915 0.52999894 -0.73438807
vn 0.0000000e+0 0.52999894 -0.84799830
vn 0.0000000e+0 0.0000000e+0 -1.00000000
vn 0.50000000 0.0000000e+0 -0.86602540
vn 0.73438807 0.52999894 -0.42399915
vn 0.42399915 0.52999894 -0.73438807
vn 0.50000000 0.0000000e+0 -0.86602540
vn 0.86602540 0.0000000e+0 -0.50000000
vn 1.00000000 0.0000000e+0 0.0000000e+0
vn 0.86602540 0.0000000e+0 -0.50000000
vn 0.62469505 -0.78086881 0.0000000e+0
vn 0.54100178 -0.78086881 -0.31234752
vn 1.00000000 0.0000000e+0 0.0000000e+0
vn 0.86602540 0.0000000e+0 0.50000000
vn 0.62469505 -0.78086881 0.0000000e+0
vn 0.54100178 -0.78086881 0.31234752
vn 0.86602540 0.0000000e+0 0.50000000
vn 0.50000000 0.0000000e+0 0.86602540
vn 0.54100178 -0.78086881 0.31234752
vn 0.31234752 -0.78086881 0.54100178
vn 0.50000000 0.0000000e+0 0.86602540
vn -3.3147270e-16 0.0000000e+0 1.00000000
vn 0.31234752 -0.78086881 0.54100178
vn -2.2838532e-16 -0.78086881 0.62469505
vn -3.3147270e-16 0.0000000e+0 1.00000000
vn -0.50000000 0.0000000e+0 0.86602540
vn -2.2838532e-16 -0.78086881 0.62469505
vn -0.31234752 -0.78086881 0.54100178
vn -0.50000000 0.0000000e+0 0.86602540
vn -0.86602540 0.0000000e+0 0.50000000
vn -0.31234752 -0.78086881 0.54100178
vn -0.54100178 -0.78086881 0.31234752
vn -0.86602540 0.0000000e+0 0.50000000
vn -1.00000000 0.0000000e+0 0.0000000e+0
vn -0.54100178 -0.78086881 0.31234752
vn -0.62469505 -0.78086881 0.0000000e+0
vn -1.00000000 0.0000000e+0 0.0000000e+0
vn -0.86602540 0.0000000e+0 -0.50000000
vn -0.62469505 -0.78086881 0.0000000e+0
vn -0.54100178 -0.78086881 -0.31234752
vn -0.86602540 0.0000000e+0 -0.50000000
vn -0.50000000 0.0000000e+0 -0.86602540
vn -0.54100178 -0.78086881 -0.31234752
vn -0.31234752 -0.78086881 -0.54100178
vn -0.50000000 0.0000000e+0 -0.86602540
vn 0.0000000e+0 0.0000000e+0 -1.00000000
vn -0.31234752 -0.78086881 -0.54100178
vn 0.0000000e+0 -0.78086881 -0.62469505
vn 0.0000000e+0 0.0000000e+0 -1.00000000
vn 0.50000000 0.0000000e+0 -0.86602540
vn 0.0000000e+0 -0.78086881 -0.62469505
vn 0.31234752 -0.78086881 -0.54100178
vn 0.50000000 0.0000000e+0 -0.86602540
vn 0.86602540 0.0000000e+0 -0.50000000
vn 0.31234752 -0.78086881 -0.54100178
vn 0.54100178 -0.78086881 -0.31234752
vn 0.0000000e+0 -1.00000000 -3.3823745e-17
vn 0.62469505 -0.78086881 0.0000000e+0
vn 0.54100178 -0.78086881 -0.31234752
vn 0.0000000e+0 -1.00000000 -3.3823745e-17
vn 0.62469505 -0.78086881 0.0000000e+0
vn 0.54100178 -0.78086881 0.31234752
vn 0.0000000e+0 -1.00000000 -3.3823745e-17
vn 0.54100178 -0.78086881 0.31234752
vn 0.31234752 -0.78086881 0.54100178
vn 0.0000000e+0 -1.00000000 -3.3823745e-17
vn 0.31234752 -0.78086881 0.54100178
vn -2.2838532e-16 -0.78086881 0.62469505
vn 0.0000000e+0 -1.00000000 -3.3823745e-17
vn -2.2838532e-16 -0.78086881 0.62469505
vn -0.31234752 -0.78086881 0.54100178
vn 0.0000000e+0 -1.00000000 -3.3823745e-17
vn -0.31234752 -0.78086881 0.54100178
vn -0.54100178 -0.78086881 0.31234752
vn 0.0000000e+0 -1.00000000 -3.3823745e-17
vn -0.54100178 -0.78086881 0.31234752
vn -0.62469505 -0.78086881 0.0000000e+0
vn 0.0000000e+0 -1.00000000 -3.3823745e-17
vn -0.62469505 -0.78086881 0.0000000e+0
vn -0.54100178 -0.78086881 -0.31234752
vn 0.0000000e+0 -1.00000000 -3.3823745e-17
vn -0.54100178 -0.78086881 -0.31234752
vn -0.31234752 -0.78086881 -0.54100178
vn 0.0000000e+0 -1.00000000 -3.3823745e-17
vn -0.31234752 -0.78086881 -0.54100178
vn 0.0000000e+0 -0.78086881 -0.62469505
vn 0.0000000e+0 -1.00000000 -3.3823745e-17
vn 0.0000000e+0 -0.78086881 -0.62469505
vn 0.31234752 -0.78086881 -0.54100178
vn 0.0000000e+0 -1.00000000 -3.3823745e-17
vn 0.31234752 -0.78086881 -0.54100178
vn 0.54100178 -0.78086881 -0.31234752
g collider
usemtl default
s 1
f 1//2 13//37 24//81 12//35
f 3//9 15//46 14//41 2//5
f 6//18 18//58 17//53 5//14
f 8//24 20//66 19//61 7//20
f 10//30 22//74 21//69 9//26
f 14//43 26//89 25//85 13//39
f 17//55 29//101 28//98 16//52
f 19//63 31//109 30//106 18//60
f 24//83 36//129 35//126 23//80
f 25//88 37//135 48//168 36//132
f 27//95 39//140 38//138 26//92
f 30//107 42//149 41//147 29//104
f 33//119 45//158 44//156 32//116
f 35//127 47//164 46//162 34//124
s 2
f 2//6 14//42 13//38 1//3
f 5//15 17//54 16//49 4//11
f 7//21 19//62 18//57 6//17
f 9//27 21//70 20//65 8//23
f 11//33 23//78 22//73 10//29
f 13//40 25//86 36//130 24//84
f 16//51 28//97 27//94 15//48
f 18//59 30//105 29//102 17//56
f 20//67 32//113 31//110 19//64
f 22//75 34//121 33//118 21//72
f 26//91 38//137 37//134 25//87
f 29//103 41//146 40//144 28//100
f 31//111 43//152 42//150 30//108
f 36//131 48//167 47//165 35//128
s 3
f 1//1 12//34 11//31 10//28 9//25 8//22 7//19 6//16 5//13 4//10 3//7 2//4
f 15//47 27//93 26//90 14//44
f 21//71 33//117 32//114 20//68
f 23//79 35//125 34//122 22//76
f 28//99 40//143 39//141 27//96
f 32//115 44//155 43//153 31//112
f 34//123 46//161 45//159 33//120
s 4
f 4//12 16//50 15//45 3//8
f 12//36 24//82 23//77 11//32
f 38//136 39//139 40//142 41//145 42//148 43//151 44//154 45//157 46//160 47//163 48//166 37//133
