# Exported from Wings 3D 1.5.4
mtllib 1mv_high_gain_antenna_srf_1_base.mtl
o mesh1
#69 vertices, 72 faces
v 3.7500000e-2 1.7981839e-17 3.7500000e-2
v 2.6516504e-2 -2.6516504e-2 3.7500000e-2
v -5.1133270e-17 -3.7500000e-2 3.7500000e-2
v -2.6516504e-2 -2.6516504e-2 3.7500000e-2
v -3.7500000e-2 1.3389413e-17 3.7500000e-2
v -2.6516504e-2 2.6516504e-2 3.7500000e-2
v -6.0318121e-17 3.7500000e-2 3.7500000e-2
v 2.6516504e-2 2.6516504e-2 3.7500000e-2
v 3.7500000e-2 1.3389413e-17 -3.7500000e-2
v 2.6516504e-2 -2.6516504e-2 -3.7500000e-2
v -5.1133270e-17 -3.7500000e-2 -3.7500000e-2
v -2.6516504e-2 -2.6516504e-2 -3.7500000e-2
v -3.7500000e-2 8.7969878e-18 -3.7500000e-2
v -2.6516504e-2 2.6516504e-2 -3.7500000e-2
v -6.0318121e-17 3.7500000e-2 -3.7500000e-2
v 2.6516504e-2 2.6516504e-2 -3.7500000e-2
v -5.4210109e-17 2.0028645e-17 3.7500000e-2
v -5.5077470e-17 1.3010426e-17 -3.7500000e-2
v 1.8750000e-2 1.3618339e-17 -0.18750000
v 1.3258252e-2 -1.3258252e-2 -0.18750000
v -5.3105370e-17 -1.8750000e-2 -0.18750000
v -1.3258252e-2 -1.3258252e-2 -0.18750000
v -1.8750000e-2 1.1322126e-17 -0.18750000
v -1.3258252e-2 1.3258252e-2 -0.18750000
v -5.7697796e-17 1.8750000e-2 -0.18750000
v 1.3258252e-2 1.3258252e-2 -0.18750000
v 1.8750000e-2 1.2750977e-17 -0.31250000
v 1.3258252e-2 -1.3258252e-2 -0.31250000
v 1.9721000e-18 -1.8750000e-2 -0.31250000
v -1.3258252e-2 -1.3258252e-2 -0.31250000
v -1.8750000e-2 1.0454764e-17 -0.31250000
v -1.3258252e-2 1.3258252e-2 -0.31250000
v -2.6203255e-18 1.8750000e-2 -0.31250000
v 1.3258252e-2 1.3258252e-2 -0.31250000
v 4.3368087e-19 1.3010426e-17 -0.31250000
v 3.7500000e-2 1.1765018e-17 -0.16250000
v 2.6516504e-2 -2.6516504e-2 -0.16250000
v -5.1133270e-17 -3.7500000e-2 -0.16250000
v -2.6516504e-2 -2.6516504e-2 -0.16250000
v -3.7500000e-2 7.1725922e-18 -0.16250000
v -2.6516504e-2 2.6516504e-2 -0.16250000
v -6.0318121e-17 3.7500000e-2 -0.16250000
v 2.6516504e-2 2.6516504e-2 -0.16250000
v 3.7500000e-2 7.1390884e-18 -0.18750000
v 2.6516504e-2 -2.6516504e-2 -0.18750000
v -5.1133270e-17 -3.7500000e-2 -0.18750000
v -2.6516504e-2 -2.6516504e-2 -0.18750000
v -3.7500000e-2 2.5466629e-18 -0.18750000
v -2.6516504e-2 2.6516504e-2 -0.18750000
v -6.0318121e-17 3.7500000e-2 -0.18750000
v 2.6516504e-2 2.6516504e-2 -0.18750000
v -5.5511151e-17 5.2041704e-18 -0.18750000
v -5.5511151e-17 1.2746330e-17 -0.16250000
v 1.8750000e-2 1.3618339e-17 -3.7500000e-2
v 1.3258252e-2 -1.3258252e-2 -3.7500000e-2
v -5.3105370e-17 -1.8750000e-2 -3.7500000e-2
v -1.3258252e-2 -1.3258252e-2 -3.7500000e-2
v -1.8750000e-2 1.1322126e-17 -3.7500000e-2
v -1.3258252e-2 1.3258252e-2 -3.7500000e-2
v -5.7697796e-17 1.8750000e-2 -3.7500000e-2
v 1.3258252e-2 1.3258252e-2 -3.7500000e-2
v 1.8750000e-2 1.2750977e-17 -0.16250000
v 1.3258252e-2 -1.3258252e-2 -0.16250000
v -5.3105370e-17 -1.8750000e-2 -0.16250000
v -1.3258252e-2 -1.3258252e-2 -0.16250000
v -1.8750000e-2 1.0454764e-17 -0.16250000
v -1.3258252e-2 1.3258252e-2 -0.16250000
v -5.7697796e-17 1.8750000e-2 -0.16250000
v 1.3258252e-2 1.3258252e-2 -0.16250000
vt 8.1836610e-2 0.28085816
vt 8.1836610e-2 0.30028648
vt 8.1836646e-2 0.76192363
vt 8.1836646e-2 0.82020406
vt 0.10413971 0.76192334
vt 0.10413971 0.82020435
vt 0.10414130 0.28085816
vt 0.10414130 0.30028648
vt 0.12644574 0.76192022
vt 0.12644574 0.82020748
vt 0.12644599 0.10647416
vt 0.12644599 0.20361575
vt 0.12644599 0.28085816
vt 0.12644599 0.30028648
vt 0.12644599 0.48076264
vt 0.12644599 0.57790423
vt 0.13759833 0.10647416
vt 0.13759833 0.20361575
vt 0.13759833 0.48076264
vt 0.13759833 0.57790423
vt 0.14191288 0.68927989
vt 0.14191288 0.37073354
vt 0.14191288 0.89085752
vt 0.14875067 0.10647416
vt 0.14875067 0.20361575
vt 0.14875067 0.28085816
vt 0.14875067 0.30028648
vt 0.14875067 0.57790423
vt 0.14875067 0.48076264
vt 0.14875588 0.76191937
vt 0.14875588 0.82020832
vt 0.15044852 0.66867304
vt 0.15044852 0.70988673
vt 0.15044852 0.35012670
vt 0.15044852 0.39134039
vt 0.15044852 0.87025068
vt 0.15044852 0.91146437
vt 0.15990302 0.10647416
vt 0.15990302 0.20361575
vt 0.15990302 0.48076264
vt 0.15990302 0.57790423
vt 0.17105536 0.66013741
vt 0.17105536 0.68927989
vt 0.17105536 0.71842236
vt 0.17105536 0.28085816
vt 0.17105536 0.30028648
vt 0.17105536 0.34159107
vt 0.17105536 0.37073354
vt 0.17105536 0.39987602
vt 0.17105536 0.76192136
vt 0.17105536 0.82020633
vt 0.17105536 0.86171504
vt 0.17105536 0.89085752
vt 0.17105536 0.92000000
vt 0.17105536 0.10647416
vt 0.17105536 0.20361575
vt 0.17105536 0.48076264
vt 0.17105536 0.57790423
vt 0.18220770 0.10647416
vt 0.18220770 0.20361575
vt 0.18220770 0.48076264
vt 0.18220770 0.57790423
vt 0.19166220 0.66867304
vt 0.19166220 0.70988673
vt 0.19166220 0.35012670
vt 0.19166220 0.39134039
vt 0.19166220 0.87025068
vt 0.19166220 0.91146437
vt 0.19335484 0.76191937
vt 0.19335484 0.82020832
vt 0.19336005 0.28085816
vt 0.19336005 0.10647416
vt 0.19336005 0.20361575
vt 0.19336005 0.30028648
vt 0.19336005 0.48076264
vt 0.19336005 0.57790423
vt 0.20019784 0.68927989
vt 0.20019784 0.37073354
vt 0.20019784 0.89085752
vt 0.20451239 0.10647416
vt 0.20451239 0.20361575
vt 0.20451239 0.48076264
vt 0.20451239 0.57790423
vt 0.21566474 0.10647416
vt 0.21566474 0.20361575
vt 0.21566474 0.28085816
vt 0.21566474 0.30028648
vt 0.21566474 0.48076264
vt 0.21566474 0.57790423
vt 0.21566498 0.76192022
vt 0.21566498 0.82020748
vt 0.23796942 0.28085816
vt 0.23796942 0.30028648
vt 0.23797101 0.76192334
vt 0.23797101 0.82020435
vt 0.26027407 0.76192363
vt 0.26027407 0.82020406
vt 0.26027411 0.28085816
vt 0.26027411 0.30028648
vt 0.34047563 0.90542876
vt 0.34130548 0.78108763
vt 0.34474345 0.89512534
vt 0.34474345 0.91573218
vt 0.34984111 0.76048078
vt 0.34984111 0.80169447
vt 0.35504687 0.89085752
vt 0.35504687 0.90542876
vt 0.35504687 0.92000000
vt 0.36535029 0.89512534
vt 0.36535029 0.91573218
vt 0.36961811 0.90542876
vt 0.37044796 0.75194515
vt 0.37044796 0.78108763
vt 0.37044796 0.81023011
vt 0.39105480 0.76048078
vt 0.39105480 0.80169447
vt 0.39959044 0.78108763
vn 1.3629275e-17 4.6259293e-17 1.00000000
vn -1.8488927e-32 -4.6259293e-17 -1.00000000
vn -8.7227359e-16 2.4651903e-32 -1.00000000
vn -2.1806840e-16 -1.8503717e-16 -1.00000000
vn -1.2325952e-31 1.8503717e-16 1.00000000
vn 1.00000000 9.0127256e-17 2.0443912e-18
vn 0.70710678 -0.70710678 2.0443912e-18
vn 9.0127256e-17 -1.00000000 0.0000000e+0
vn -0.70710678 -0.70710678 2.0443912e-18
vn -1.00000000 -2.1029693e-16 2.0443912e-18
vn -0.70710678 0.70710678 0.0000000e+0
vn -9.0127256e-17 1.00000000 0.0000000e+0
vn 0.70710678 0.70710678 0.0000000e+0
vn 1.00000000 3.0042419e-17 5.0030677e-33
vn 1.00000000 3.0042419e-17 5.0030677e-33
vn -4.3613679e-16 0.0000000e+0 1.00000000
vn -4.3613679e-16 0.0000000e+0 1.00000000
vn 0.70710678 -0.70710678 6.1331737e-17
vn 0.70710678 -0.70710678 6.1331737e-17
vn -5.4517099e-17 1.3084104e-16 1.00000000
vn -5.4517099e-17 1.3084104e-16 1.00000000
vn 3.0042419e-17 -1.00000000 1.0903420e-16
vn 3.0042419e-17 -1.00000000 1.0903420e-16
vn -1.0903420e-16 1.8503717e-16 1.00000000
vn -1.0903420e-16 1.8503717e-16 1.00000000
vn -0.70710678 -0.70710678 8.1775649e-17
vn -0.70710678 -0.70710678 8.1775649e-17
vn 1.6355130e-16 1.3084104e-16 1.00000000
vn 1.6355130e-16 1.3084104e-16 1.00000000
vn -1.00000000 -1.5021209e-16 6.8146374e-18
vn -1.00000000 -1.5021209e-16 6.8146374e-18
vn 4.3613679e-16 4.3140831e-32 1.00000000
vn 4.3613679e-16 4.3140831e-32 1.00000000
vn -0.70710678 0.70710678 -6.1331737e-17
vn -0.70710678 0.70710678 -6.1331737e-17
vn 3.8161969e-16 -3.8322453e-17 1.00000000
vn 3.8161969e-16 -3.8322453e-17 1.00000000
vn -1.8025451e-16 1.00000000 -1.0221956e-16
vn -1.8025451e-16 1.00000000 -1.0221956e-16
vn 1.6355130e-16 -8.2107332e-48 1.00000000
vn 1.6355130e-16 -8.2107332e-48 1.00000000
vn 0.70710678 0.70710678 -6.8146374e-17
vn 0.70710678 0.70710678 -6.8146374e-17
vn -4.3613679e-16 -3.8322453e-17 1.00000000
vn -4.3613679e-16 -3.8322453e-17 1.00000000
vn 1.00000000 3.0042419e-17 5.0030677e-33
vn 1.00000000 3.0042419e-17 5.0030677e-33
vn 0.0000000e+0 0.0000000e+0 -1.00000000
vn 0.0000000e+0 0.0000000e+0 -1.00000000
vn 0.70710678 -0.70710678 6.1331737e-17
vn 0.70710678 -0.70710678 6.1331737e-17
vn 0.0000000e+0 -9.2518585e-17 -1.00000000
vn 0.0000000e+0 -9.2518585e-17 -1.00000000
vn 3.0042419e-17 -1.00000000 1.0903420e-16
vn 3.0042419e-17 -1.00000000 1.0903420e-16
vn 1.6355130e-16 -1.8503717e-16 -1.00000000
vn 1.6355130e-16 -1.8503717e-16 -1.00000000
vn -0.70710678 -0.70710678 8.1775649e-17
vn -0.70710678 -0.70710678 8.1775649e-17
vn 1.6355130e-16 -9.2518585e-17 -1.00000000
vn 1.6355130e-16 -9.2518585e-17 -1.00000000
vn -1.00000000 -1.5021209e-16 6.8146374e-18
vn -1.00000000 -1.5021209e-16 6.8146374e-18
vn 0.0000000e+0 0.0000000e+0 -1.00000000
vn 0.0000000e+0 0.0000000e+0 -1.00000000
vn -0.70710678 0.70710678 -6.1331737e-17
vn -0.70710678 0.70710678 -6.1331737e-17
vn -1.6355130e-16 0.0000000e+0 -1.00000000
vn -1.6355130e-16 0.0000000e+0 -1.00000000
vn -1.8025451e-16 1.00000000 -1.0221956e-16
vn -1.8025451e-16 1.00000000 -1.0221956e-16
vn -1.6355130e-16 0.0000000e+0 -1.00000000
vn -1.6355130e-16 0.0000000e+0 -1.00000000
vn 0.70710678 0.70710678 -6.8146374e-17
vn 0.70710678 0.70710678 -6.8146374e-17
vn 0.0000000e+0 0.0000000e+0 -1.00000000
vn 0.0000000e+0 0.0000000e+0 -1.00000000
vn 1.00000000 0.0000000e+0 4.4363290e-16
vn 1.00000000 0.0000000e+0 4.4363290e-16
vn 0.70710678 -0.70710678 3.1483625e-16
vn 0.70710678 -0.70710678 3.1483625e-16
vn 9.0127256e-17 -1.00000000 -1.3341514e-32
vn 9.0127256e-17 -1.00000000 -1.3341514e-32
vn -0.70710678 -0.70710678 -3.1279186e-16
vn -0.70710678 -0.70710678 -3.1279186e-16
vn -1.00000000 -1.8025451e-16 -4.4567729e-16
vn -1.00000000 -1.8025451e-16 -4.4567729e-16
vn -0.70710678 0.70710678 -3.1483625e-16
vn -0.70710678 0.70710678 -3.1483625e-16
vn -1.2016967e-16 1.00000000 0.0000000e+0
vn -1.2016967e-16 1.00000000 0.0000000e+0
vn 0.70710678 0.70710678 3.1074747e-16
vn 0.70710678 0.70710678 3.1074747e-16
vn 1.00000000 0.0000000e+0 4.4363290e-16
vn 1.00000000 0.0000000e+0 4.4363290e-16
vn -6.9781887e-15 -9.8607613e-32 -1.00000000
vn -6.9781887e-15 -9.8607613e-32 -1.00000000
vn 0.70710678 -0.70710678 3.1483625e-16
vn 0.70710678 -0.70710678 3.1483625e-16
vn -2.6168208e-15 2.0934566e-15 -1.00000000
vn -2.6168208e-15 2.0934566e-15 -1.00000000
vn 9.0127256e-17 -1.00000000 -1.3341514e-32
vn 9.0127256e-17 -1.00000000 -1.3341514e-32
vn 2.6168208e-15 2.9605947e-15 -1.00000000
vn 2.6168208e-15 2.9605947e-15 -1.00000000
vn -0.70710678 -0.70710678 -3.1279186e-16
vn -0.70710678 -0.70710678 -3.1279186e-16
vn 1.7445472e-15 2.0934566e-15 -1.00000000
vn 1.7445472e-15 2.0934566e-15 -1.00000000
vn -1.00000000 -1.8025451e-16 -4.4567729e-16
vn -1.00000000 -1.8025451e-16 -4.4567729e-16
vn 3.4890944e-15 8.8746852e-31 -1.00000000
vn 3.4890944e-15 8.8746852e-31 -1.00000000
vn -0.70710678 0.70710678 -3.1483625e-16
vn -0.70710678 0.70710678 -3.1483625e-16
vn 5.2336415e-15 -2.0934566e-15 -1.00000000
vn 5.2336415e-15 -2.0934566e-15 -1.00000000
vn -1.2016967e-16 1.00000000 0.0000000e+0
vn -1.2016967e-16 1.00000000 0.0000000e+0
vn -2.6168208e-15 -2.9605947e-15 -1.00000000
vn -2.6168208e-15 -2.9605947e-15 -1.00000000
vn 0.70710678 0.70710678 3.1074747e-16
vn 0.70710678 0.70710678 3.1074747e-16
vn -7.8504623e-15 -2.0934566e-15 -1.00000000
vn -7.8504623e-15 -2.0934566e-15 -1.00000000
vn 1.00000000 0.0000000e+0 2.0012271e-32
vn 1.00000000 0.0000000e+0 2.0012271e-32
vn -3.9443045e-31 0.0000000e+0 1.00000000
vn -3.9443045e-31 0.0000000e+0 1.00000000
vn 0.70710678 -0.70710678 1.4310739e-16
vn 0.70710678 -0.70710678 1.4310739e-16
vn -6.5420519e-16 3.7007434e-16 1.00000000
vn -6.5420519e-16 3.7007434e-16 1.00000000
vn 1.2016967e-16 -1.00000000 2.0443912e-16
vn 1.2016967e-16 -1.00000000 2.0443912e-16
vn 2.1806840e-16 7.4014868e-16 1.00000000
vn 2.1806840e-16 7.4014868e-16 1.00000000
vn -0.70710678 -0.70710678 1.2266347e-16
vn -0.70710678 -0.70710678 1.2266347e-16
vn 0.0000000e+0 3.7007434e-16 1.00000000
vn 0.0000000e+0 3.7007434e-16 1.00000000
vn -1.00000000 -1.8025451e-16 -2.0443912e-17
vn -1.00000000 -1.8025451e-16 -2.0443912e-17
vn 0.0000000e+0 0.0000000e+0 1.00000000
vn 0.0000000e+0 0.0000000e+0 1.00000000
vn -0.70710678 0.70710678 -1.4310739e-16
vn -0.70710678 0.70710678 -1.4310739e-16
vn -2.1806840e-16 0.0000000e+0 1.00000000
vn -2.1806840e-16 0.0000000e+0 1.00000000
vn -1.2016967e-16 1.00000000 -2.2488303e-16
vn -1.2016967e-16 1.00000000 -2.2488303e-16
vn -2.1806840e-16 0.0000000e+0 1.00000000
vn -2.1806840e-16 0.0000000e+0 1.00000000
vn 0.70710678 0.70710678 -1.6355130e-16
vn 0.70710678 0.70710678 -1.6355130e-16
vn 8.7227359e-16 0.0000000e+0 1.00000000
vn 8.7227359e-16 0.0000000e+0 1.00000000
vn 1.00000000 0.0000000e+0 2.0012271e-32
vn 1.00000000 0.0000000e+0 2.0012271e-32
vn -5.9164568e-31 0.0000000e+0 -1.00000000
vn -5.9164568e-31 0.0000000e+0 -1.00000000
vn 0.70710678 -0.70710678 1.4310739e-16
vn 0.70710678 -0.70710678 1.4310739e-16
vn -8.7227359e-16 -8.9343849e-16 -1.00000000
vn -8.7227359e-16 -8.9343849e-16 -1.00000000
vn 1.2016967e-16 -1.00000000 2.0443912e-16
vn 1.2016967e-16 -1.00000000 2.0443912e-16
vn -8.7227359e-16 -1.4802974e-15 -1.00000000
vn -8.7227359e-16 -1.4802974e-15 -1.00000000
vn -0.70710678 -0.70710678 1.2266347e-16
vn -0.70710678 -0.70710678 1.2266347e-16
vn -3.9443045e-31 -8.9343849e-16 -1.00000000
vn -3.9443045e-31 -8.9343849e-16 -1.00000000
vn -1.00000000 -1.8025451e-16 -2.0443912e-17
vn -1.00000000 -1.8025451e-16 -2.0443912e-17
vn 0.0000000e+0 -1.4791142e-31 -1.00000000
vn 0.0000000e+0 -1.4791142e-31 -1.00000000
vn -0.70710678 0.70710678 -1.4310739e-16
vn -0.70710678 0.70710678 -1.4310739e-16
vn 0.0000000e+0 5.2336415e-16 -1.00000000
vn 0.0000000e+0 5.2336415e-16 -1.00000000
vn -1.2016967e-16 1.00000000 -2.2488303e-16
vn -1.2016967e-16 1.00000000 -2.2488303e-16
vn -3.9443045e-31 7.4014868e-16 -1.00000000
vn -3.9443045e-31 7.4014868e-16 -1.00000000
vn 0.70710678 0.70710678 -1.6355130e-16
vn 0.70710678 0.70710678 -1.6355130e-16
vn -7.8886091e-31 5.2336415e-16 -1.00000000
vn -7.8886091e-31 5.2336415e-16 -1.00000000
vn 1.00000000 9.0127256e-17 2.0443912e-18
vn 1.00000000 9.0127256e-17 2.0443912e-18
vn 0.70710678 -0.70710678 2.0443912e-18
vn 0.70710678 -0.70710678 2.0443912e-18
vn 9.0127256e-17 -1.00000000 0.0000000e+0
vn 9.0127256e-17 -1.00000000 0.0000000e+0
vn -0.70710678 -0.70710678 2.0443912e-18
vn -0.70710678 -0.70710678 2.0443912e-18
vn -1.00000000 -2.1029693e-16 2.0443912e-18
vn -1.00000000 -2.1029693e-16 2.0443912e-18
vn -0.70710678 0.70710678 0.0000000e+0
vn -0.70710678 0.70710678 0.0000000e+0
vn -9.0127256e-17 1.00000000 0.0000000e+0
vn -9.0127256e-17 1.00000000 0.0000000e+0
vn 0.70710678 0.70710678 0.0000000e+0
vn 0.70710678 0.70710678 0.0000000e+0
g mesh1
usemtl mesh1_auv
s 1
f 1/10/14 9/9/46 16/30/74 8/31/42
f 2/6/19 10/5/51 9/9/47 1/10/15
f 3/4/23 11/3/55 10/5/50 2/6/18
f 4/95/27 12/94/59 11/96/54 3/97/22
f 5/91/31 13/90/63 12/94/58 4/95/26
f 6/70/35 14/69/67 13/90/62 5/91/30
f 7/51/39 15/50/71 14/69/66 6/70/34
f 8/31/43 16/30/75 15/50/70 7/51/38
f 27/100/97 35/107/3 34/103/125
f 28/102/100 35/107/3 27/100/96
f 29/106/104 35/107/3 28/102/101
f 30/109/108 35/107/3 29/106/105
f 31/111/112 35/107/3 30/109/109
f 32/110/116 35/107/3 31/111/113
f 33/108/120 35/107/3 32/110/117
f 34/103/124 35/107/3 33/108/121
f 36/78/128 53/48/5 37/65/132
f 37/65/133 53/48/5 38/47/137
f 38/47/136 53/48/5 39/34/141
f 39/34/140 53/48/5 40/22/145
f 40/22/144 53/48/5 41/35/149
f 41/35/148 53/48/5 42/49/153
f 42/49/152 53/48/5 43/66/157
f 43/66/156 53/48/5 36/78/129
f 44/101/161 52/113/4 51/105/189
f 45/104/164 52/113/4 44/101/160
f 46/112/168 52/113/4 45/104/165
f 47/115/172 52/113/4 46/112/169
f 48/117/176 52/113/4 47/115/173
f 49/116/180 52/113/4 48/117/177
f 50/114/184 52/113/4 49/116/181
f 51/105/188 52/113/4 50/114/185
s 2
f 1/79/16 17/53/1 2/67/20
f 2/67/21 17/53/1 3/52/25
f 3/52/24 17/53/1 4/36/29
f 4/36/28 17/53/1 5/23/33
f 5/23/32 17/53/1 6/37/37
f 6/37/36 17/53/1 7/54/41
f 7/54/40 17/53/1 8/68/45
f 8/68/44 17/53/1 1/79/17
f 9/21/49 18/43/2 16/33/77
f 10/32/52 18/43/2 9/21/48
f 11/42/56 18/43/2 10/32/53
f 12/63/60 18/43/2 11/42/57
f 13/77/64 18/43/2 12/63/61
f 14/64/68 18/43/2 13/77/65
f 15/44/72 18/43/2 14/64/69
f 16/33/76 18/43/2 15/44/73
f 19/25/79 27/24/95 34/38/123 26/39/93
f 20/18/80 28/17/98 27/24/94 19/25/78
f 21/12/82 29/11/102 28/17/99 20/18/81
f 22/81/84 30/80/106 29/84/103 21/85/83
f 23/73/86 31/72/110 30/80/107 22/81/85
f 24/60/88 32/59/114 31/72/111 23/73/87
f 25/56/90 33/55/118 32/59/115 24/60/89
f 26/39/92 34/38/122 33/55/119 25/56/91
f 36/14/127 44/13/159 51/26/187 43/27/155
f 37/8/130 45/7/162 44/13/158 36/14/126
f 38/2/134 46/1/166 45/7/163 37/8/131
f 39/93/138 47/92/170 46/98/167 38/99/135
f 40/87/142 48/86/174 47/92/171 39/93/139
f 41/74/146 49/71/178 48/86/175 40/87/143
f 42/46/150 50/45/182 49/71/179 41/74/147
f 43/27/154 51/26/186 50/45/183 42/46/151
f 54/28/191 62/29/6 69/40/13 61/41/205
f 55/20/192 63/19/7 62/29/6 54/28/190
f 56/16/194 64/15/8 63/19/7 55/20/193
f 57/83/196 65/82/9 64/88/8 56/89/195
f 58/76/198 66/75/10 65/82/9 57/83/197
f 59/62/200 67/61/11 66/75/10 58/76/199
f 60/58/202 68/57/12 67/61/11 59/62/201
f 61/41/204 69/40/13 68/57/12 60/58/203
