# Exported from Wings 3D 1.5.4
mtllib 1mv_high_gain_antenna_srf_1_collider.mtl
o collider
#26 vertices, 36 faces
v 0.15500000 5.5976136e-17 -8.6967470e-19
v 0.13423394 -7.7500000e-2 -8.6967470e-19
v 7.7500000e-2 -0.13423394 -8.6967470e-19
v -7.5644590e-17 -0.15500000 -8.6967470e-19
v -7.7500000e-2 -0.13423394 -8.6967470e-19
v -0.13423394 -7.7500000e-2 -8.6967470e-19
v -0.15500000 3.6994111e-17 -8.6967470e-19
v -0.13423394 7.7500000e-2 -8.6967470e-19
v -7.7500000e-2 0.13423394 -8.6967470e-19
v -1.1360864e-16 0.15500000 -4.3113661e-18
v 7.7500000e-2 0.13423394 -8.6967470e-19
v 0.13423394 7.7500000e-2 -8.6967470e-19
v 0.62500000 -1.9532542e-17 -0.20000000
v 0.54126588 -0.31250000 -0.20000000
v 0.31250000 -0.54126588 -0.20000000
v 3.5757430e-18 -0.62500000 -0.20000000
v -0.31250000 -0.54126588 -0.20000000
v -0.54126588 -0.31250000 -0.20000000
v -0.62500000 -9.6072966e-17 -0.20000000
v -0.54126588 0.31250000 -0.20000000
v -0.31250000 0.54126588 -0.20000000
v -1.4950511e-16 0.62500000 -0.20000000
v 0.31250000 0.54126588 -0.20000000
v 0.54126588 0.31250000 -0.20000000
v -1.0177044e-16 4.8300699e-17 -1.1564823e-18
v -9.7144515e-17 -3.2381505e-17 -0.20000000
vn 0.38941776 0.10434417 0.91513174
vn 0.38941776 -0.10434417 0.91513174
vn -1.8503717e-18 4.9580560e-19 1.00000000
vn -1.8503717e-18 -4.9580560e-19 1.00000000
vn 0.28507359 -0.28507359 0.91513174
vn 0.38941776 -0.10434417 0.91513174
vn -1.8503717e-18 4.9580560e-19 1.00000000
vn -1.3545661e-18 1.3545661e-18 1.00000000
vn 0.10434417 -0.38941776 0.91513174
vn 0.28507359 -0.28507359 0.91513174
vn -4.9580560e-19 1.8503717e-18 1.00000000
vn -1.3545661e-18 1.3545661e-18 1.00000000
vn -0.10434417 -0.38941776 0.91513174
vn 0.10434417 -0.38941776 0.91513174
vn 4.9580560e-19 1.8503717e-18 1.00000000
vn -4.9580560e-19 1.8503717e-18 1.00000000
vn -0.28507359 -0.28507359 0.91513174
vn -0.10434417 -0.38941776 0.91513174
vn 1.3545661e-18 1.3545661e-18 1.00000000
vn 4.9580560e-19 1.8503717e-18 1.00000000
vn -0.38941776 -0.10434417 0.91513174
vn -0.28507359 -0.28507359 0.91513174
vn 1.8503717e-18 4.9580560e-19 1.00000000
vn 1.3545661e-18 1.3545661e-18 1.00000000
vn -0.38941776 0.10434417 0.91513174
vn -0.38941776 -0.10434417 0.91513174
vn 1.8503717e-18 -4.9580560e-19 1.00000000
vn 1.8503717e-18 4.9580560e-19 1.00000000
vn -0.28507359 0.28507359 0.91513174
vn -0.38941776 0.10434417 0.91513174
vn 1.3545661e-18 -1.3545661e-18 1.00000000
vn 1.8503717e-18 -4.9580560e-19 1.00000000
vn -0.10434417 0.38941776 0.91513174
vn -0.28507359 0.28507359 0.91513174
vn 3.8955059e-17 2.0354089e-17 1.00000000
vn 1.3545661e-18 -1.3545661e-18 1.00000000
vn 0.10434417 0.38941776 0.91513174
vn -0.10434417 0.38941776 0.91513174
vn -3.8955059e-17 2.0354089e-17 1.00000000
vn 3.8955059e-17 2.0354089e-17 1.00000000
vn 0.28507359 0.28507359 0.91513174
vn 0.10434417 0.38941776 0.91513174
vn -1.3545661e-18 -1.3545661e-18 1.00000000
vn -3.8955059e-17 2.0354089e-17 1.00000000
vn 0.38941776 0.10434417 0.91513174
vn 0.28507359 0.28507359 0.91513174
vn -1.8503717e-18 -4.9580560e-19 1.00000000
vn -1.3545661e-18 -1.3545661e-18 1.00000000
vn 0.38941776 0.10434417 0.91513174
vn 0.38941776 -0.10434417 0.91513174
vn -7.1054274e-17 1.1899335e-17 -1.00000000
vn 1.4210855e-16 -1.1899335e-17 -1.00000000
vn 0.28507359 -0.28507359 0.91513174
vn 0.38941776 -0.10434417 0.91513174
vn -7.1054274e-17 1.1899335e-17 -1.00000000
vn 1.4210855e-16 3.2509586e-17 -1.00000000
vn 0.10434417 -0.38941776 0.91513174
vn 0.28507359 -0.28507359 0.91513174
vn 1.4210855e-16 3.2509586e-17 -1.00000000
vn -1.0658141e-16 4.4408921e-17 -1.00000000
vn -0.10434417 -0.38941776 0.91513174
vn 0.10434417 -0.38941776 0.91513174
vn -1.0658141e-16 4.4408921e-17 -1.00000000
vn 3.5527137e-17 4.4408921e-17 -1.00000000
vn -0.28507359 -0.28507359 0.91513174
vn -0.10434417 -0.38941776 0.91513174
vn 3.5527137e-17 4.4408921e-17 -1.00000000
vn -1.4210855e-16 3.2509586e-17 -1.00000000
vn -0.38941776 -0.10434417 0.91513174
vn -0.28507359 -0.28507359 0.91513174
vn -1.4210855e-16 3.2509586e-17 -1.00000000
vn 1.4210855e-16 1.1899335e-17 -1.00000000
vn -0.38941776 0.10434417 0.91513174
vn -0.38941776 -0.10434417 0.91513174
vn 1.4210855e-16 1.1899335e-17 -1.00000000
vn -7.1054274e-17 -1.1899335e-17 -1.00000000
vn -0.28507359 0.28507359 0.91513174
vn -0.38941776 0.10434417 0.91513174
vn -7.1054274e-17 -1.1899335e-17 -1.00000000
vn 1.4210855e-16 -3.2509586e-17 -1.00000000
vn -0.10434417 0.38941776 0.91513174
vn -0.28507359 0.28507359 0.91513174
vn 1.4210855e-16 -3.2509586e-17 -1.00000000
vn 0.0000000e+0 -4.4408921e-17 -1.00000000
vn 0.10434417 0.38941776 0.91513174
vn -0.10434417 0.38941776 0.91513174
vn 0.0000000e+0 -4.4408921e-17 -1.00000000
vn 3.5527137e-17 -4.4408921e-17 -1.00000000
vn 0.28507359 0.28507359 0.91513174
vn 0.10434417 0.38941776 0.91513174
vn 3.5527137e-17 -4.4408921e-17 -1.00000000
vn -1.4210855e-16 -3.2509586e-17 -1.00000000
vn 0.38941776 0.10434417 0.91513174
vn 0.28507359 0.28507359 0.91513174
vn -1.4210855e-16 -3.2509586e-17 -1.00000000
vn 1.4210855e-16 -1.1899335e-17 -1.00000000
vn -1.8503717e-18 4.9580560e-19 1.00000000
vn -1.8503717e-18 -4.9580560e-19 1.00000000
vn -1.3545661e-18 -1.3545661e-18 1.00000000
vn -3.8955059e-17 2.0354089e-17 1.00000000
vn 3.8955059e-17 2.0354089e-17 1.00000000
vn 1.3545661e-18 -1.3545661e-18 1.00000000
vn 1.8503717e-18 -4.9580560e-19 1.00000000
vn 1.8503717e-18 4.9580560e-19 1.00000000
vn 1.3545661e-18 1.3545661e-18 1.00000000
vn 4.9580560e-19 1.8503717e-18 1.00000000
vn -4.9580560e-19 1.8503717e-18 1.00000000
vn -1.3545661e-18 1.3545661e-18 1.00000000
vn -7.1054274e-17 1.1899335e-17 -1.00000000
vn 1.4210855e-16 3.2509586e-17 -1.00000000
vn -1.0658141e-16 4.4408921e-17 -1.00000000
vn 3.5527137e-17 4.4408921e-17 -1.00000000
vn -1.4210855e-16 3.2509586e-17 -1.00000000
vn 1.4210855e-16 1.1899335e-17 -1.00000000
vn -7.1054274e-17 -1.1899335e-17 -1.00000000
vn 1.4210855e-16 -3.2509586e-17 -1.00000000
vn 0.0000000e+0 -4.4408921e-17 -1.00000000
vn 3.5527137e-17 -4.4408921e-17 -1.00000000
vn -1.4210855e-16 -3.2509586e-17 -1.00000000
vn 1.4210855e-16 -1.1899335e-17 -1.00000000
g collider
usemtl default
s 1
f 1//1 13//49 24//93 12//45
f 1//3 25//97 2//7
f 3//10 15//58 14//53 2//5
f 3//11 25//107 4//16
f 5//19 25//105 6//24
f 7//26 19//74 18//69 6//21
f 8//31 25//102 9//36
f 11//42 23//90 22//85 10//37
f 11//43 25//99 12//48
f 14//55 26//109 13//51
f 17//67 26//112 16//64
f 20//79 26//115 19//76
f 22//87 26//117 21//84
f 24//95 26//119 23//92
s 2
f 2//6 14//54 13//50 1//2
f 2//8 25//108 3//12
f 4//14 16//62 15//57 3//9
f 4//15 25//106 5//20
f 6//22 18//70 17//65 5//17
f 6//23 25//104 7//28
f 8//30 20//78 19//73 7//25
f 10//38 22//86 21//81 9//33
f 10//39 25//100 11//44
f 12//46 24//94 23//89 11//41
f 12//47 25//98 1//4
f 13//52 26//120 24//96
f 15//59 26//110 14//56
f 19//75 26//114 18//72
f 21//83 26//116 20//80
f 23//91 26//118 22//88
s 3
f 5//18 17//66 16//61 4//13
f 7//27 25//103 8//32
f 9//34 21//82 20//77 8//29
f 9//35 25//101 10//40
f 16//63 26//111 15//60
f 18//71 26//113 17//68
