# Exported from Wings 3D 1.5.4
mtllib 1mv_high_gain_antenna_srf_1_collector.mtl
o mesh1
#50 vertices, 56 faces
v 1.2500000e-2 2.9621237e-16 -0.26250000
v 8.8388348e-3 8.8388348e-3 -0.26250000
v 2.8143594e-16 1.2500000e-2 -0.26250000
v -8.8388348e-3 8.8388348e-3 -0.26250000
v -1.2500000e-2 3.2012396e-16 -0.26250000
v -8.8388348e-3 -8.8388348e-3 -0.26250000
v 2.5599354e-16 -1.2500000e-2 -0.26250000
v 8.8388348e-3 -8.8388348e-3 -0.26250000
v 1.2500000e-2 1.8200337e-18 1.6653345e-16
v 8.8388348e-3 8.8388348e-3 1.6653345e-16
v 1.2866526e-17 1.2500000e-2 1.6653345e-16
v -8.8388348e-3 8.8388348e-3 1.6653345e-16
v -1.2500000e-2 2.5731627e-17 1.6653345e-16
v -8.8388348e-3 -8.8388348e-3 1.6653345e-16
v -1.2575875e-17 -1.2500000e-2 1.6653345e-16
v 8.8388348e-3 -8.8388348e-3 1.6653345e-16
v 7.5000000e-2 1.6283290e-16 -0.27500000
v 6.9290965e-2 2.8701257e-2 -0.27500000
v 5.3033009e-2 5.3033009e-2 -0.27500000
v 2.8701257e-2 6.9290965e-2 -0.27500000
v 5.1367283e-16 7.5000000e-2 -0.27500000
v -2.8701257e-2 6.9290965e-2 -0.27500000
v -5.3033009e-2 5.3033009e-2 -0.27500000
v -6.9290965e-2 2.8701257e-2 -0.27500000
v -7.5000000e-2 4.6641009e-16 -0.27500000
v -6.9290965e-2 -2.8701257e-2 -0.27500000
v -5.3033009e-2 -5.3033009e-2 -0.27500000
v -2.8701257e-2 -6.9290965e-2 -0.27500000
v 1.8076390e-16 -7.5000000e-2 -0.27500000
v 2.8701257e-2 -6.9290965e-2 -0.27500000
v 5.3033009e-2 -5.3033009e-2 -0.27500000
v 6.9290965e-2 -2.8701257e-2 -0.27500000
v 7.5000000e-2 1.6304933e-16 -0.26250000
v 6.9290965e-2 2.8701257e-2 -0.26250000
v 5.3033009e-2 5.3033009e-2 -0.26250000
v 2.8701257e-2 6.9290965e-2 -0.26250000
v 4.2431365e-16 7.5000000e-2 -0.26250000
v -2.8701257e-2 6.9290965e-2 -0.26250000
v -5.3033009e-2 5.3033009e-2 -0.26250000
v -6.9290965e-2 2.8701257e-2 -0.26250000
v -7.5000000e-2 4.6662651e-16 -0.26250000
v -6.9290965e-2 -2.8701257e-2 -0.26250000
v -5.3033009e-2 -5.3033009e-2 -0.26250000
v -2.8701257e-2 -6.9290965e-2 -0.26250000
v 1.1155161e-16 -7.5000000e-2 -0.26250000
v 2.8701257e-2 -6.9290965e-2 -0.26250000
v 5.3033009e-2 -5.3033009e-2 -0.26250000
v 6.9290965e-2 -2.8701257e-2 -0.26250000
v 3.9534110e-16 2.9123430e-16 -0.27500000
v 2.6974950e-16 3.0747974e-16 -0.26250000
vt 0.34108199 0.46562380
vt 0.34108199 0.66986218
vt 0.34852567 0.46562380
vt 0.34852567 0.66986218
vt 0.35596935 0.46562380
vt 0.35596935 0.66986218
vt 0.36341303 0.46562380
vt 0.36341303 0.66986218
vt 0.37085671 0.46562380
vt 0.37085671 0.66986218
vt 0.37830039 0.46562380
vt 0.37830039 0.66986218
vt 0.38574407 0.46562380
vt 0.38574407 0.66986218
vt 0.39318775 0.46562380
vt 0.39318775 0.66986218
vt 0.40063143 0.46562380
vt 0.40063143 0.66986218
vt 0.48171787 0.85686901
vt 0.48615979 0.87920006
vt 0.48615979 0.83453797
vt 0.49880931 0.89813140
vt 0.49880931 0.81560663
vt 0.51774065 0.91078092
vt 0.51774065 0.80295711
vt 0.54007169 0.91522284
vt 0.54007169 0.85686901
vt 0.54007169 0.79851519
vt 0.56240273 0.91078092
vt 0.56240273 0.80295711
vt 0.58133407 0.89813140
vt 0.58133407 0.81560663
vt 0.59398359 0.87920006
vt 0.59398359 0.83453797
vt 0.59842551 0.85686901
vt 0.63912194 0.90146868
vt 0.63912194 0.81039455
vt 0.63912194 0.83316308
vt 0.63912194 0.87870015
vt 0.63912194 0.90146868
vt 0.63912194 0.83316308
vt 0.63912194 0.83316308
vt 0.63912194 0.85593162
vt 0.63912194 0.85593162
vt 0.63912194 0.85593162
vt 0.63912194 0.87870015
vt 0.63912194 0.87870015
vt 0.63912194 0.87870015
vt 0.63912194 0.90146868
vt 0.63912194 0.81039455
vt 0.63912194 0.83316308
vt 0.63912194 0.85593162
vt 0.63912194 0.90146868
vt 0.65857322 0.90146868
vt 0.65857322 0.81039455
vt 0.65857322 0.87870015
vt 0.65857322 0.81039455
vt 0.65857322 0.83316308
vt 0.65857322 0.83316308
vt 0.65857322 0.85593162
vt 0.65857322 0.85593162
vt 0.65857322 0.87870015
vt 0.65857322 0.87870015
vt 0.65857322 0.90146868
vt 0.65857322 0.81039455
vt 0.65857322 0.83316308
vt 0.65857322 0.85593162
vt 0.65857322 0.90146868
vt 0.73978127 0.85727146
vt 0.74422319 0.83494042
vt 0.74422319 0.87960250
vt 0.75687271 0.81600908
vt 0.75687271 0.89853384
vt 0.77580405 0.80335956
vt 0.77580405 0.91118336
vt 0.79813509 0.79891764
vt 0.79813509 0.85727146
vt 0.79813509 0.91562528
vt 0.82046613 0.80335956
vt 0.82046613 0.91118336
vt 0.83939747 0.81600908
vt 0.83939747 0.89853384
vt 0.85204699 0.83494042
vt 0.85204699 0.87960250
vt 0.85648891 0.85727146
vn 1.00000000 -1.0815271e-15 1.0185449e-15
vn 0.70710678 0.70710678 1.5128495e-15
vn 9.0127256e-16 1.00000000 1.1207645e-15
vn -0.70710678 0.70710678 7.1553693e-17
vn -1.00000000 1.1115695e-15 -1.0185449e-15
vn -0.70710678 -0.70710678 -1.5128495e-15
vn -9.3131498e-16 -1.00000000 -1.1207645e-15
vn 0.70710678 -0.70710678 -7.1553693e-17
vn 1.00000000 -1.0815271e-15 1.0185449e-15
vn 0.70710678 0.70710678 1.5128495e-15
vn 9.0127256e-16 1.00000000 1.1207645e-15
vn -0.70710678 0.70710678 7.1553693e-17
vn -1.00000000 1.1115695e-15 -1.0185449e-15
vn -0.70710678 -0.70710678 -1.5128495e-15
vn -9.3131498e-16 -1.00000000 -1.1207645e-15
vn 0.70710678 -0.70710678 -7.1553693e-17
vn 2.3294845e-15 -5.2262035e-30 -1.00000000
vn -2.2539336e-15 4.9272992e-30 1.00000000
vn 4.8352543e-15 -1.2818990e-29 -1.00000000
vn 4.8352543e-15 -1.2818990e-29 -1.00000000
vn 1.00000000 -2.6035392e-15 1.3976907e-15
vn 1.00000000 -2.6035392e-15 1.3976907e-15
vn 4.0293786e-15 1.6994558e-15 -1.00000000
vn 4.0293786e-15 1.6994558e-15 -1.00000000
vn 0.92387953 0.38268343 3.0031462e-15
vn 0.92387953 0.38268343 3.0031462e-15
vn 4.4323164e-15 1.7725685e-15 -1.00000000
vn 4.4323164e-15 1.7725685e-15 -1.00000000
vn 0.70710678 0.70710678 3.2864619e-15
vn 0.70710678 0.70710678 3.2864619e-15
vn 2.2161582e-15 1.9950842e-15 -1.00000000
vn 2.2161582e-15 1.9950842e-15 -1.00000000
vn 0.38268343 0.92387953 2.0209852e-15
vn 0.38268343 0.92387953 2.0209852e-15
vn 2.1154238e-15 2.9605947e-15 -1.00000000
vn 2.1154238e-15 2.9605947e-15 -1.00000000
vn 2.0092531e-15 1.00000000 -1.8887712e-17
vn 2.0092531e-15 1.00000000 -1.8887712e-17
vn 2.3168927e-15 2.1077651e-15 -1.00000000
vn 2.3168927e-15 2.1077651e-15 -1.00000000
vn -0.38268343 0.92387953 -2.3043009e-15
vn -0.38268343 0.92387953 -2.3043009e-15
vn -4.9303807e-31 2.4143447e-15 -1.00000000
vn -4.9303807e-31 2.4143447e-15 -1.00000000
vn -0.70710678 0.70710678 -3.4375636e-15
vn -0.70710678 0.70710678 -3.4375636e-15
vn 1.2088136e-15 1.7868770e-15 -1.00000000
vn 1.2088136e-15 1.7868770e-15 -1.00000000
vn -0.92387953 0.38268343 -3.1542479e-15
vn -0.92387953 0.38268343 -3.1542479e-15
vn 8.0587571e-16 0.0000000e+0 -1.00000000
vn 8.0587571e-16 0.0000000e+0 -1.00000000
vn -1.00000000 1.7121100e-15 -3.3053496e-15
vn -1.00000000 1.7121100e-15 -3.3053496e-15
vn 4.0293786e-16 -1.7868770e-15 -1.00000000
vn 4.0293786e-16 -1.7868770e-15 -1.00000000
vn -0.92387953 -0.38268343 -3.8153178e-15
vn -0.92387953 -0.38268343 -3.8153178e-15
vn -8.0587571e-16 -2.4143447e-15 -1.00000000
vn -8.0587571e-16 -2.4143447e-15 -1.00000000
vn -0.70710678 -0.70710678 -3.2864619e-15
vn -0.70710678 -0.70710678 -3.2864619e-15
vn 1.5110170e-15 -2.1077651e-15 -1.00000000
vn 1.5110170e-15 -2.1077651e-15 -1.00000000
vn -0.38268343 -0.92387953 -1.9454343e-15
vn -0.38268343 -0.92387953 -1.9454343e-15
vn 3.2235029e-15 -2.9605947e-15 -1.00000000
vn 3.2235029e-15 -2.9605947e-15 -1.00000000
vn -2.1931988e-15 -1.00000000 -3.0161835e-31
vn -2.1931988e-15 -1.00000000 -3.0161835e-31
vn 2.5183616e-15 -1.9950842e-15 -1.00000000
vn 2.5183616e-15 -1.9950842e-15 -1.00000000
vn 0.38268343 -0.92387953 1.9832098e-15
vn 0.38268343 -0.92387953 1.9832098e-15
vn 4.0293786e-15 -1.7725685e-15 -1.00000000
vn 4.0293786e-15 -1.7725685e-15 -1.00000000
vn 0.70710678 -0.70710678 2.6065043e-15
vn 0.70710678 -0.70710678 2.6065043e-15
vn 4.4323164e-15 -1.6994558e-15 -1.00000000
vn 4.4323164e-15 -1.6994558e-15 -1.00000000
vn 0.92387953 -0.38268343 1.4543538e-15
vn 0.92387953 -0.38268343 1.4543538e-15
vn -1.2088136e-15 3.3773108e-30 1.00000000
vn -1.2088136e-15 3.3773108e-30 1.00000000
vn 1.00000000 -2.6035392e-15 1.3976907e-15
vn 1.00000000 -2.6035392e-15 1.3976907e-15
vn -2.8205650e-15 1.2203917e-15 1.00000000
vn -2.8205650e-15 1.2203917e-15 1.00000000
vn 0.92387953 0.38268343 3.0031462e-15
vn 0.92387953 0.38268343 3.0031462e-15
vn -2.0146893e-15 1.3676164e-15 1.00000000
vn -2.0146893e-15 1.3676164e-15 1.00000000
vn 0.70710678 0.70710678 3.2864619e-15
vn 0.70710678 0.70710678 3.2864619e-15
vn -1.7124859e-15 7.4014868e-16 1.00000000
vn -1.7124859e-15 7.4014868e-16 1.00000000
vn 0.38268343 0.92387953 2.0209852e-15
vn 0.38268343 0.92387953 2.0209852e-15
vn -1.1080791e-15 1.4802974e-15 1.00000000
vn -1.1080791e-15 1.4802974e-15 1.00000000
vn 2.0092531e-15 1.00000000 -1.8887712e-17
vn 2.0092531e-15 1.00000000 -1.8887712e-17
vn -2.6190961e-15 6.2746776e-16 1.00000000
vn -2.6190961e-15 6.2746776e-16 1.00000000
vn -0.38268343 0.92387953 -2.3043009e-15
vn -0.38268343 0.92387953 -2.3043009e-15
vn -3.6264407e-15 7.2584017e-16 1.00000000
vn -3.6264407e-15 7.2584017e-16 1.00000000
vn -0.70710678 0.70710678 -3.4375636e-15
vn -0.70710678 0.70710678 -3.4375636e-15
vn -2.4176271e-15 1.1329706e-15 1.00000000
vn -2.4176271e-15 1.1329706e-15 1.00000000
vn -0.92387953 0.38268343 -3.1542479e-15
vn -0.92387953 0.38268343 -3.1542479e-15
vn -3.2235029e-15 5.7192416e-30 1.00000000
vn -3.2235029e-15 5.7192416e-30 1.00000000
vn -1.00000000 1.7121100e-15 -3.3053496e-15
vn -1.00000000 1.7121100e-15 -3.3053496e-15
vn -2.8205650e-15 -1.1329706e-15 1.00000000
vn -2.8205650e-15 -1.1329706e-15 1.00000000
vn -0.92387953 -0.38268343 -3.8153178e-15
vn -0.92387953 -0.38268343 -3.8153178e-15
vn -3.6264407e-15 -7.2584017e-16 1.00000000
vn -3.6264407e-15 -7.2584017e-16 1.00000000
vn -0.70710678 -0.70710678 -3.2864619e-15
vn -0.70710678 -0.70710678 -3.2864619e-15
vn -2.2161582e-15 -6.2746776e-16 1.00000000
vn -2.2161582e-15 -6.2746776e-16 1.00000000
vn -0.38268343 -0.92387953 -1.9454343e-15
vn -0.38268343 -0.92387953 -1.9454343e-15
vn -2.4176271e-15 -1.4802974e-15 1.00000000
vn -2.4176271e-15 -1.4802974e-15 1.00000000
vn -2.1931988e-15 -1.00000000 -3.0161835e-31
vn -2.1931988e-15 -1.00000000 -3.0161835e-31
vn -2.2161582e-15 -7.4014868e-16 1.00000000
vn -2.2161582e-15 -7.4014868e-16 1.00000000
vn 0.38268343 -0.92387953 1.9832098e-15
vn 0.38268343 -0.92387953 1.9832098e-15
vn -8.0587571e-16 -1.3676164e-15 1.00000000
vn -8.0587571e-16 -1.3676164e-15 1.00000000
vn 0.70710678 -0.70710678 2.6065043e-15
vn 0.70710678 -0.70710678 2.6065043e-15
vn -1.2088136e-15 -1.2203917e-15 1.00000000
vn -1.2088136e-15 -1.2203917e-15 1.00000000
vn 0.92387953 -0.38268343 1.4543538e-15
vn 0.92387953 -0.38268343 1.4543538e-15
g mesh1
usemtl mesh1_auv
s 1
f 1/14/1 9/13/9 16/15/16 8/16/8
f 2/12/2 10/11/10 9/13/9 1/14/1
f 3/10/3 11/9/11 10/11/10 2/12/2
f 4/8/4 12/7/12 11/9/11 3/10/3
f 5/6/5 13/5/13 12/7/12 4/8/4
f 6/4/6 14/3/14 13/5/13 5/6/5
f 7/2/7 15/1/15 14/3/14 6/4/6
f 8/16/8 16/15/16 15/17/15 7/18/7
f 17/19/19 49/27/17 18/20/23
f 18/20/24 49/27/17 19/22/28
f 19/22/27 49/27/17 20/24/32
f 20/24/31 49/27/17 21/26/36
f 21/26/35 49/27/17 22/29/40
f 22/29/39 49/27/17 23/31/44
f 23/31/43 49/27/17 24/33/48
f 24/33/47 49/27/17 25/35/52
f 25/35/51 49/27/17 26/34/56
f 26/34/55 49/27/17 27/32/60
f 27/32/59 49/27/17 28/30/64
f 28/30/63 49/27/17 29/28/68
f 29/28/67 49/27/17 30/25/72
f 30/25/71 49/27/17 31/23/76
f 31/23/75 49/27/17 32/21/80
f 32/21/79 49/27/17 17/19/20
f 33/85/84 50/77/18 48/83/144
f 34/84/87 50/77/18 33/85/83
f 35/82/91 50/77/18 34/84/88
f 36/80/95 50/77/18 35/82/92
f 37/78/99 50/77/18 36/80/96
f 38/75/103 50/77/18 37/78/100
f 39/73/107 50/77/18 38/75/104
f 40/71/111 50/77/18 39/73/108
f 41/69/115 50/77/18 40/71/112
f 42/70/119 50/77/18 41/69/116
f 43/72/123 50/77/18 42/70/120
f 44/74/127 50/77/18 43/72/124
f 45/76/131 50/77/18 44/74/128
f 46/79/135 50/77/18 45/76/132
f 47/81/139 50/77/18 46/79/136
f 48/83/143 50/77/18 47/81/140
s 2
f 17/50/21 33/65/85 48/66/145 32/51/81
f 18/58/26 34/38/90 33/37/86 17/55/22
f 19/60/30 35/44/94 34/38/89 18/58/25
f 20/63/34 36/47/98 35/44/93 19/60/29
f 21/64/38 37/49/102 36/47/97 20/63/33
f 22/48/42 38/63/106 37/68/101 21/53/37
f 23/45/46 39/61/110 38/63/105 22/48/41
f 24/42/50 40/59/114 39/61/109 23/45/45
f 25/37/54 41/57/118 40/59/113 24/42/49
f 26/46/58 42/62/122 41/64/117 25/40/53
f 27/43/62 43/60/126 42/62/121 26/46/57
f 28/41/66 44/66/130 43/60/125 27/43/61
f 29/50/70 45/57/134 44/66/129 28/41/65
f 30/39/74 46/56/138 45/54/133 29/36/69
f 31/52/78 47/67/142 46/56/137 30/39/73
f 32/51/82 48/66/146 47/67/141 31/52/77
