# Exported from Wings 3D 1.5.4
mtllib 1f_solar_srf_1_base.mtl
o base1
#58 vertices, 56 faces
v -0.16250000 -1.8750000e-2 3.7500000e-2
v -0.16250000 1.8750000e-2 3.7500000e-2
v -0.15000000 -1.8750000e-2 -3.7500000e-2
v -0.15000000 1.8750000e-2 -3.7500000e-2
v -0.16250000 6.8383826e-18 -7.5000000e-2
v -0.16250000 1.3258252e-2 -6.9508250e-2
v -0.16250000 1.8750000e-2 -5.6250000e-2
v -0.16250000 -1.8750000e-2 -5.6250000e-2
v -0.16250000 -1.3258250e-2 -6.9508250e-2
v -0.15000000 7.6037868e-18 -7.5000000e-2
v -0.15000000 1.3258252e-2 -6.9508250e-2
v -0.15000000 1.8750000e-2 -5.6250000e-2
v -0.15000000 -1.8750000e-2 -5.6250000e-2
v -0.15000000 -1.3258250e-2 -6.9508250e-2
v -0.11250000 -1.8750000e-2 3.7500000e-2
v -0.11250000 1.8750000e-2 3.7500000e-2
v -0.12500000 -1.8750000e-2 -3.7500000e-2
v -0.12500000 1.8750000e-2 -3.7500000e-2
v -0.12500000 9.1345953e-18 -7.5000000e-2
v -0.12500000 1.3258252e-2 -6.9508250e-2
v -0.12500000 1.8750000e-2 -5.6250000e-2
v -0.12500000 -1.8750000e-2 -5.6250000e-2
v -0.12500000 -1.3258250e-2 -6.9508250e-2
v -0.11250000 9.8999996e-18 -7.5000000e-2
v -0.11250000 1.3258252e-2 -6.9508250e-2
v -0.11250000 1.8750000e-2 -5.6250000e-2
v -0.11250000 -1.8750000e-2 -5.6250000e-2
v -0.11250000 -1.3258250e-2 -6.9508250e-2
v -0.16250000 4.5421698e-18 -5.6250000e-2
v 0.11250000 -1.8750000e-2 3.7500000e-2
v 0.11250000 1.8750000e-2 3.7500000e-2
v 0.12500000 -1.8750000e-2 -3.7500000e-2
v 0.12500000 1.8750000e-2 -3.7500000e-2
v 0.11250000 4.2046978e-17 -7.5000000e-2
v 0.11250000 1.3258252e-2 -6.9508250e-2
v 0.11250000 1.8750000e-2 -5.6250000e-2
v 0.11250000 -1.8750000e-2 -5.6250000e-2
v 0.11250000 -1.3258250e-2 -6.9508250e-2
v 0.12500000 4.2812382e-17 -7.5000000e-2
v 0.12500000 1.3258252e-2 -6.9508250e-2
v 0.12500000 1.8750000e-2 -5.6250000e-2
v 0.12500000 -1.8750000e-2 -5.6250000e-2
v 0.12500000 -1.3258250e-2 -6.9508250e-2
v 0.16250000 -1.8750000e-2 3.7500000e-2
v 0.16250000 1.8750000e-2 3.7500000e-2
v 0.15000000 -1.8750000e-2 -3.7500000e-2
v 0.15000000 1.8750000e-2 -3.7500000e-2
v 0.15000000 4.4343191e-17 -7.5000000e-2
v 0.15000000 1.3258252e-2 -6.9508250e-2
v 0.15000000 1.8750000e-2 -5.6250000e-2
v 0.15000000 -1.8750000e-2 -5.6250000e-2
v 0.15000000 -1.3258250e-2 -6.9508250e-2
v 0.16250000 4.5108595e-17 -7.5000000e-2
v 0.16250000 1.3258252e-2 -6.9508250e-2
v 0.16250000 1.8750000e-2 -5.6250000e-2
v 0.16250000 -1.8750000e-2 -5.6250000e-2
v 0.16250000 -1.3258250e-2 -6.9508250e-2
v 0.11250000 3.9750765e-17 -5.6250000e-2
vt 2.0328513e-2 0.48883782
vt 2.0328513e-2 0.50712533
vt 2.0328513e-2 0.53516618
vt 2.0328513e-2 0.51687867
vt 2.1399770e-2 0.48625158
vt 2.1399770e-2 0.53775242
vt 2.3986015e-2 0.48883782
vt 2.3986015e-2 0.48518032
vt 2.3986015e-2 0.53882368
vt 2.6572258e-2 0.48625158
vt 2.6572258e-2 0.53775242
vt 2.7643516e-2 0.48883782
vt 2.7643516e-2 0.50712533
vt 2.7643516e-2 0.51687867
vt 2.7643516e-2 0.53516618
vt 3.8582710e-2 0.50617369
vt 3.8582710e-2 0.50617369
vt 3.8582711e-2 0.51177235
vt 3.8582711e-2 0.51177235
vt 3.8582711e-2 0.48788618
vt 3.8582711e-2 0.48788618
vt 3.8582711e-2 0.53565852
vt 3.8582711e-2 0.53565852
vt 3.8582711e-2 0.51457168
vt 3.8582711e-2 0.51457168
vt 3.8582712e-2 0.50897302
vt 3.8582712e-2 0.50897302
vt 3.8582712e-2 0.51737101
vt 3.8582712e-2 0.51737101
vt 4.0443986e-2 0.50617369
vt 4.0443986e-2 0.50617369
vt 4.0443986e-2 0.50251619
vt 4.0443986e-2 0.50251619
vt 4.0443987e-2 0.51457168
vt 4.0443987e-2 0.51457168
vt 4.0443987e-2 0.51177235
vt 4.0443987e-2 0.51177235
vt 4.0443987e-2 0.52102852
vt 4.0443987e-2 0.52102852
vt 4.0443987e-2 0.50897302
vt 4.0443987e-2 0.50897302
vt 4.0443988e-2 0.51737101
vt 4.0443988e-2 0.51737101
vt 4.5123610e-2 0.51737101
vt 4.5123610e-2 0.51737101
vt 4.5123610e-2 0.52102852
vt 4.5123610e-2 0.52102852
vt 4.5123611e-2 0.50897302
vt 4.5123611e-2 0.50897302
vt 4.5123611e-2 0.51177235
vt 4.5123611e-2 0.51177235
vt 4.5123611e-2 0.50251619
vt 4.5123611e-2 0.50251619
vt 4.5123612e-2 0.51457168
vt 4.5123612e-2 0.51457168
vt 4.5123612e-2 0.50617369
vt 4.5123612e-2 0.50617369
vt 4.7561945e-2 0.51737101
vt 4.7561945e-2 0.51737101
vt 4.7561945e-2 0.51177235
vt 4.7561945e-2 0.51177235
vt 4.7561946e-2 0.48788618
vt 4.7561946e-2 0.53565852
vt 4.7561946e-2 0.48788618
vt 4.7561946e-2 0.53565852
vt 4.7561946e-2 0.50897302
vt 4.7561946e-2 0.50897302
vt 4.7561946e-2 0.51457168
vt 4.7561946e-2 0.51457168
vt 4.7561946e-2 0.50617369
vt 4.7561946e-2 0.50617369
vt 5.7717014e-2 0.51786821
vt 5.7717014e-2 0.51421071
vt 5.7717014e-2 0.50933404
vt 5.7717014e-2 0.50567654
vt 5.7717028e-2 0.51786821
vt 5.7717028e-2 0.50567653
vt 5.7717028e-2 0.51421070
vt 5.7717028e-2 0.50933404
vt 5.8788272e-2 0.52045445
vt 5.8788272e-2 0.50309029
vt 5.8788285e-2 0.52045445
vt 5.8788286e-2 0.50309029
vt 6.1374515e-2 0.52152571
vt 6.1374515e-2 0.50201903
vt 6.1374529e-2 0.52152571
vt 6.1374529e-2 0.50201903
vt 6.3960760e-2 0.52045445
vt 6.3960760e-2 0.50309029
vt 6.3960773e-2 0.50309029
vt 6.3960773e-2 0.52045445
vt 6.5032017e-2 0.50567654
vt 6.5032017e-2 0.51786821
vt 6.5032017e-2 0.50933404
vt 6.5032017e-2 0.51421071
vt 6.5032031e-2 0.50567653
vt 6.5032031e-2 0.51786821
vt 6.5032031e-2 0.51421070
vt 6.5032031e-2 0.50933404
vn -1.00000000 1.0903421e-16 0.0000000e+0
vn -1.00000000 0.0000000e+0 0.0000000e+0
vn 0.0000000e+0 0.0000000e+0 1.00000000
vn -1.00000000 0.0000000e+0 0.0000000e+0
vn 1.2952602e-16 -1.00000000 -1.1564823e-16
vn 1.2952602e-16 -1.00000000 -1.1564823e-16
vn 0.0000000e+0 0.0000000e+0 1.00000000
vn -1.00000000 0.0000000e+0 0.0000000e+0
vn -1.2952602e-16 1.00000000 1.1564823e-16
vn -1.2952602e-16 1.00000000 1.1564823e-16
vn 1.00000000 0.0000000e+0 0.0000000e+0
vn 0.0000000e+0 0.0000000e+0 -1.00000000
vn 8.6350680e-17 -1.00000000 -7.7098821e-17
vn 8.6350680e-17 -1.00000000 -7.7098821e-17
vn 8.6350680e-17 -1.00000000 -7.7098821e-17
vn 1.00000000 0.0000000e+0 0.0000000e+0
vn 0.0000000e+0 0.0000000e+0 -1.00000000
vn -8.6350680e-17 1.00000000 7.7098821e-17
vn -8.6350680e-17 1.00000000 7.7098821e-17
vn -8.6350680e-17 1.00000000 7.7098821e-17
vn -1.00000000 2.1806842e-16 0.0000000e+0
vn 0.0000000e+0 -2.6666678e-8 -1.00000000
vn 0.0000000e+0 -2.6666678e-8 -1.00000000
vn -1.00000000 2.1806842e-16 0.0000000e+0
vn 0.0000000e+0 0.70710681 -0.70710675
vn 0.0000000e+0 0.70710681 -0.70710675
vn -1.00000000 1.0903421e-16 0.0000000e+0
vn -1.00000000 1.0903421e-16 0.0000000e+0
vn -5.6474677e-17 0.99154343 -0.12977529
vn -5.6474677e-17 0.99154343 -0.12977529
vn -5.6474677e-17 0.99154343 -0.12977529
vn -1.00000000 1.0903421e-16 0.0000000e+0
vn -1.00000000 1.0903421e-16 0.0000000e+0
vn 5.6474678e-17 -0.99154343 -0.12977533
vn 5.6474678e-17 -0.99154343 -0.12977533
vn 5.6474678e-17 -0.99154343 -0.12977533
vn -1.00000000 2.1806842e-16 0.0000000e+0
vn 0.0000000e+0 -0.70710678 -0.70710678
vn 0.0000000e+0 -0.70710678 -0.70710678
vn 1.00000000 0.0000000e+0 0.0000000e+0
vn 0.0000000e+0 -2.6666678e-8 -1.00000000
vn 0.0000000e+0 -2.6666678e-8 -1.00000000
vn 1.00000000 0.0000000e+0 0.0000000e+0
vn 0.0000000e+0 0.70710681 -0.70710675
vn 0.0000000e+0 0.70710681 -0.70710675
vn 1.00000000 0.0000000e+0 0.0000000e+0
vn 1.00000000 0.0000000e+0 0.0000000e+0
vn 0.0000000e+0 0.98078527 -0.19509035
vn 0.0000000e+0 0.98078527 -0.19509035
vn 1.00000000 0.0000000e+0 0.0000000e+0
vn 1.00000000 0.0000000e+0 0.0000000e+0
vn 0.0000000e+0 -0.98078526 -0.19509042
vn 0.0000000e+0 -0.98078526 -0.19509042
vn 1.00000000 0.0000000e+0 0.0000000e+0
vn 0.0000000e+0 -0.70710678 -0.70710678
vn 0.0000000e+0 -0.70710678 -0.70710678
vn 0.0000000e+0 0.0000000e+0 1.00000000
vn 1.00000000 0.0000000e+0 0.0000000e+0
vn -3.7007434e-17 -1.00000000 -1.3877788e-16
vn -3.7007434e-17 -1.00000000 -1.3877788e-16
vn 0.0000000e+0 0.0000000e+0 1.00000000
vn 1.00000000 0.0000000e+0 0.0000000e+0
vn 3.7007434e-17 1.00000000 1.3877788e-16
vn 3.7007434e-17 1.00000000 1.3877788e-16
vn -1.00000000 0.0000000e+0 0.0000000e+0
vn 0.0000000e+0 0.0000000e+0 -1.00000000
vn -2.4671623e-17 -1.00000000 -9.2518585e-17
vn -2.4671623e-17 -1.00000000 -9.2518585e-17
vn -2.4671623e-17 -1.00000000 -9.2518585e-17
vn -1.00000000 0.0000000e+0 0.0000000e+0
vn 0.0000000e+0 0.0000000e+0 -1.00000000
vn 2.4671623e-17 1.00000000 9.2518585e-17
vn 2.4671623e-17 1.00000000 9.2518585e-17
vn 2.4671623e-17 1.00000000 9.2518585e-17
vn -1.00000000 -4.3613685e-16 0.0000000e+0
vn 2.6323185e-24 -2.6666678e-8 -1.00000000
vn 2.6323185e-24 -2.6666678e-8 -1.00000000
vn -1.00000000 -4.3613685e-16 0.0000000e+0
vn -4.0887824e-17 0.70710681 -0.70710675
vn -4.0887824e-17 0.70710681 -0.70710675
vn -1.00000000 -2.1806842e-16 0.0000000e+0
vn -1.00000000 -2.1806842e-16 0.0000000e+0
vn -1.9257747e-17 0.98078527 -0.19509035
vn -1.9257747e-17 0.98078527 -0.19509035
vn -1.00000000 -2.1806842e-16 0.0000000e+0
vn -1.00000000 -2.1806842e-16 0.0000000e+0
vn 1.9257746e-17 -0.98078526 -0.19509042
vn 1.9257746e-17 -0.98078526 -0.19509042
vn -1.00000000 -4.3613685e-16 0.0000000e+0
vn 4.0887824e-17 -0.70710678 -0.70710678
vn 4.0887824e-17 -0.70710678 -0.70710678
vn 1.00000000 0.0000000e+0 0.0000000e+0
vn 2.6323185e-24 -2.6666678e-8 -1.00000000
vn 2.6323185e-24 -2.6666678e-8 -1.00000000
vn 1.00000000 0.0000000e+0 0.0000000e+0
vn -4.0887824e-17 0.70710681 -0.70710675
vn -4.0887824e-17 0.70710681 -0.70710675
vn 1.00000000 0.0000000e+0 0.0000000e+0
vn 1.00000000 0.0000000e+0 0.0000000e+0
vn 4.3664307e-17 0.99154343 -0.12977529
vn 4.3664307e-17 0.99154343 -0.12977529
vn 4.3664307e-17 0.99154343 -0.12977529
vn 1.00000000 0.0000000e+0 0.0000000e+0
vn 1.00000000 0.0000000e+0 0.0000000e+0
vn -4.3664308e-17 -0.99154343 -0.12977533
vn -4.3664308e-17 -0.99154343 -0.12977533
vn -4.3664308e-17 -0.99154343 -0.12977533
vn 1.00000000 0.0000000e+0 0.0000000e+0
vn 4.0887824e-17 -0.70710678 -0.70710678
vn 4.0887824e-17 -0.70710678 -0.70710678
vn 0.0000000e+0 0.0000000e+0 1.00000000
vn -1.00000000 0.0000000e+0 0.0000000e+0
vn 1.2952602e-16 -1.00000000 -1.1564823e-16
vn 1.2952602e-16 -1.00000000 -1.1564823e-16
vn 0.0000000e+0 0.0000000e+0 1.00000000
vn -1.00000000 0.0000000e+0 0.0000000e+0
vn -1.2952602e-16 1.00000000 1.1564823e-16
vn -1.2952602e-16 1.00000000 1.1564823e-16
vn 1.00000000 0.0000000e+0 0.0000000e+0
vn 0.0000000e+0 0.0000000e+0 -1.00000000
vn 8.6350680e-17 -1.00000000 -7.7098821e-17
vn 8.6350680e-17 -1.00000000 -7.7098821e-17
vn 8.6350680e-17 -1.00000000 -7.7098821e-17
vn 1.00000000 0.0000000e+0 0.0000000e+0
vn 0.0000000e+0 0.0000000e+0 -1.00000000
vn -8.6350680e-17 1.00000000 7.7098821e-17
vn -8.6350680e-17 1.00000000 7.7098821e-17
vn -8.6350680e-17 1.00000000 7.7098821e-17
vn -1.00000000 0.0000000e+0 0.0000000e+0
vn 2.6323185e-24 -2.6666678e-8 -1.00000000
vn 2.6323185e-24 -2.6666678e-8 -1.00000000
vn -1.00000000 0.0000000e+0 0.0000000e+0
vn -6.1331739e-17 0.70710681 -0.70710675
vn -6.1331739e-17 0.70710681 -0.70710675
vn -1.00000000 0.0000000e+0 0.0000000e+0
vn -1.00000000 0.0000000e+0 0.0000000e+0
vn -8.2095418e-17 0.99154343 -0.12977529
vn -8.2095418e-17 0.99154343 -0.12977529
vn -8.2095418e-17 0.99154343 -0.12977529
vn -1.00000000 0.0000000e+0 0.0000000e+0
vn -1.00000000 0.0000000e+0 0.0000000e+0
vn 8.2095417e-17 -0.99154343 -0.12977533
vn 8.2095417e-17 -0.99154343 -0.12977533
vn 8.2095417e-17 -0.99154343 -0.12977533
vn -1.00000000 0.0000000e+0 0.0000000e+0
vn 6.1331737e-17 -0.70710678 -0.70710678
vn 6.1331737e-17 -0.70710678 -0.70710678
vn 1.00000000 0.0000000e+0 0.0000000e+0
vn 2.6323185e-24 -2.6666678e-8 -1.00000000
vn 2.6323185e-24 -2.6666678e-8 -1.00000000
vn 1.00000000 0.0000000e+0 0.0000000e+0
vn -6.1331739e-17 0.70710681 -0.70710675
vn -6.1331739e-17 0.70710681 -0.70710675
vn 1.00000000 0.0000000e+0 0.0000000e+0
vn 1.00000000 0.0000000e+0 0.0000000e+0
vn -3.8515494e-17 0.98078527 -0.19509035
vn -3.8515494e-17 0.98078527 -0.19509035
vn 1.00000000 0.0000000e+0 0.0000000e+0
vn 1.00000000 0.0000000e+0 0.0000000e+0
vn 3.8515492e-17 -0.98078526 -0.19509042
vn 3.8515492e-17 -0.98078526 -0.19509042
vn 1.00000000 0.0000000e+0 0.0000000e+0
vn 6.1331737e-17 -0.70710678 -0.70710678
vn 6.1331737e-17 -0.70710678 -0.70710678
vn 0.0000000e+0 0.0000000e+0 1.00000000
vn 1.00000000 0.0000000e+0 0.0000000e+0
vn -3.7007434e-17 -1.00000000 -1.3877788e-16
vn -3.7007434e-17 -1.00000000 -1.3877788e-16
vn 0.0000000e+0 0.0000000e+0 1.00000000
vn 1.00000000 0.0000000e+0 0.0000000e+0
vn 3.7007434e-17 1.00000000 1.6190752e-16
vn 3.7007434e-17 1.00000000 1.6190752e-16
vn -1.00000000 0.0000000e+0 0.0000000e+0
vn 0.0000000e+0 0.0000000e+0 -1.00000000
vn -2.4671623e-17 -1.00000000 -9.2518585e-17
vn -2.4671623e-17 -1.00000000 -9.2518585e-17
vn -2.4671623e-17 -1.00000000 -9.2518585e-17
vn -1.00000000 0.0000000e+0 0.0000000e+0
vn 0.0000000e+0 0.0000000e+0 -1.00000000
vn 2.4671623e-17 1.00000000 1.0793835e-16
vn 2.4671623e-17 1.00000000 1.0793835e-16
vn 2.4671623e-17 1.00000000 1.0793835e-16
vn -1.00000000 2.1806842e-16 0.0000000e+0
vn 0.0000000e+0 -2.6666678e-8 -1.00000000
vn 0.0000000e+0 -2.6666678e-8 -1.00000000
vn -1.00000000 2.1806842e-16 0.0000000e+0
vn 0.0000000e+0 0.70710681 -0.70710675
vn 0.0000000e+0 0.70710681 -0.70710675
vn -1.00000000 1.0903421e-16 0.0000000e+0
vn -1.00000000 1.0903421e-16 0.0000000e+0
vn 0.0000000e+0 0.98078527 -0.19509035
vn 0.0000000e+0 0.98078527 -0.19509035
vn -1.00000000 1.0903421e-16 0.0000000e+0
vn -1.00000000 1.0903421e-16 0.0000000e+0
vn 0.0000000e+0 -0.98078526 -0.19509042
vn 0.0000000e+0 -0.98078526 -0.19509042
vn -1.00000000 2.1806842e-16 0.0000000e+0
vn 0.0000000e+0 -0.70710678 -0.70710678
vn 0.0000000e+0 -0.70710678 -0.70710678
vn 1.00000000 0.0000000e+0 0.0000000e+0
vn 0.0000000e+0 -2.6666678e-8 -1.00000000
vn 0.0000000e+0 -2.6666678e-8 -1.00000000
vn 1.00000000 0.0000000e+0 0.0000000e+0
vn 0.0000000e+0 0.70710681 -0.70710675
vn 0.0000000e+0 0.70710681 -0.70710675
vn 1.00000000 0.0000000e+0 0.0000000e+0
vn 1.00000000 0.0000000e+0 0.0000000e+0
vn 5.6474677e-17 0.99154343 -0.12977529
vn 5.6474677e-17 0.99154343 -0.12977529
vn 5.6474677e-17 0.99154343 -0.12977529
vn 1.00000000 0.0000000e+0 0.0000000e+0
vn 1.00000000 0.0000000e+0 0.0000000e+0
vn -5.6474678e-17 -0.99154343 -0.12977533
vn -5.6474678e-17 -0.99154343 -0.12977533
vn -5.6474678e-17 -0.99154343 -0.12977533
vn 1.00000000 0.0000000e+0 0.0000000e+0
vn 0.0000000e+0 -0.70710678 -0.70710678
vn 0.0000000e+0 -0.70710678 -0.70710678
g base1_base1_auv
usemtl base1_auv
s 1
f 1/13/3 15/14/57 16/4/61 2/2/7
f 4/99/17 18/98/71 17/78/66 3/79/12
f 31/2/116 36/1/135 58/7/2 37/12/140 30/13/112
f 32/74/119 42/75/158 41/92/154 33/94/124
f 34/8/129 38/10/145 37/12/141 58/7/2 36/1/136 35/5/132
f 40/89/151 41/92/155 42/75/159 43/81/162 39/85/148
f 44/14/166 56/15/211 55/3/206 45/4/170
f 47/95/178 50/93/189 51/72/193 46/73/173
f 48/84/183 52/80/197 51/72/194 50/93/190 49/88/186
f 54/6/203 55/3/207 56/15/212 57/11/216 53/9/200
s 2
f 2/2/8 7/1/27 29/7/1 8/12/32 1/13/4
f 3/79/11 13/77/50 12/96/46 4/99/16
f 5/8/21 9/10/37 8/12/33 29/7/1 7/1/28 6/5/24
f 11/90/43 12/96/47 13/77/51 14/83/54 10/87/40
f 15/14/58 27/15/103 26/3/98 16/4/62
f 18/98/70 21/97/81 22/76/85 17/78/65
f 19/86/75 23/82/89 22/76/86 21/97/82 20/91/78
f 25/6/95 26/3/99 27/15/104 28/11/108 24/9/92
f 30/13/111 44/14/165 45/4/169 31/2/115
f 33/94/125 47/95/179 46/73/174 32/74/120
s 3
f 1/62/5 8/70/34 3/52/13
f 2/63/9 16/22/63 18/38/72 4/46/18
f 3/52/14 17/32/67 15/20/59 1/62/6
f 4/46/19 7/58/29 2/63/10
f 4/46/20 12/44/48 7/58/30
f 5/60/22 10/50/41 14/48/55 9/66/38
f 6/68/25 11/54/44 10/50/42 5/60/23
f 7/58/31 12/44/49 11/54/45 6/68/26
f 8/70/35 13/56/52 3/52/15
f 9/66/39 14/48/56 13/56/53 8/70/36
f 16/22/64 26/28/100 18/38/73
f 17/32/68 27/16/105 15/20/60
f 18/38/74 26/28/101 21/42/83
f 19/36/76 24/18/93 28/26/109 23/40/90
f 20/34/79 25/24/96 24/18/94 19/36/77
f 21/42/84 26/28/102 25/24/97 20/34/80
f 22/30/87 27/16/106 17/32/69
f 23/40/91 28/26/110 27/16/107 22/30/88
f 30/64/113 37/71/142 32/53/121
f 31/65/117 45/23/171 47/39/180 33/47/126
f 32/53/122 46/33/175 44/21/167 30/64/114
f 33/47/127 36/59/137 31/65/118
f 33/47/128 41/45/156 36/59/138
f 34/61/130 39/51/149 43/49/163 38/67/146
f 35/69/133 40/55/152 39/51/150 34/61/131
f 36/59/139 41/45/157 40/55/153 35/69/134
f 37/71/143 42/57/160 32/53/123
f 38/67/147 43/49/164 42/57/161 37/71/144
f 45/23/172 55/29/208 47/39/181
f 46/33/176 56/17/213 44/21/168
f 47/39/182 55/29/209 50/43/191
f 48/37/184 53/19/201 57/27/217 52/41/198
f 49/35/187 54/25/204 53/19/202 48/37/185
f 50/43/192 55/29/210 54/25/205 49/35/188
f 51/31/195 56/17/214 46/33/177
f 52/41/199 57/27/218 56/17/215 51/31/196
