# Exported from Wings 3D 1.5.4
mtllib 4mv_vl_sensor_densitometer_srf_1_base.mtl
o mesh1
#32 vertices, 26 faces
v -2.5000000e-2 1.8750000e-2 -9.3750000e-2
v -2.5000000e-2 -1.8750000e-2 -9.3750000e-2
v -2.5000000e-2 -1.3258252e-2 -0.10700825
v -2.5000000e-2 3.3108409e-17 -0.11250000
v -2.5000000e-2 1.3258252e-2 -0.10700825
v 2.5000000e-2 1.8750000e-2 -9.3750000e-2
v 2.5000000e-2 -1.8750000e-2 -9.3750000e-2
v 2.5000000e-2 -1.3258252e-2 -0.10700825
v 2.5000000e-2 3.0379968e-17 -0.11250000
v 2.5000000e-2 1.3258252e-2 -0.10700825
v 2.5000000e-2 1.8750000e-2 -7.5000000e-2
v -2.5000000e-2 1.8750000e-2 -7.5000000e-2
v -2.5000000e-2 -1.8750000e-2 -7.5000000e-2
v 2.5000000e-2 -1.8750000e-2 -7.5000000e-2
v 2.5000000e-2 1.8750000e-2 3.7500000e-2
v -2.5000000e-2 1.8750000e-2 3.7500000e-2
v -2.5000000e-2 -1.8750000e-2 3.7500000e-2
v 2.5000000e-2 -1.8750000e-2 3.7500000e-2
v -1.2500000e-2 -1.8750000e-2 -7.5000000e-2
v 1.2500000e-2 -1.8750000e-2 -7.5000000e-2
v 1.2500000e-2 1.8750000e-2 -7.5000000e-2
v -1.2500000e-2 1.8750000e-2 -7.5000000e-2
v -1.2500000e-2 1.3258252e-2 -0.10700825
v 1.2500000e-2 1.3258252e-2 -0.10700825
v -1.2500000e-2 3.2268752e-17 -0.11250000
v 1.2500000e-2 3.1651854e-17 -0.11250000
v -1.2500000e-2 -1.3258252e-2 -0.10700825
v 1.2500000e-2 -1.3258252e-2 -0.10700825
v -1.2500000e-2 -1.8750000e-2 -9.3750000e-2
v 1.2500000e-2 -1.8750000e-2 -9.3750000e-2
v 1.2500000e-2 1.8750000e-2 -9.3750000e-2
v -1.2500000e-2 1.8750000e-2 -9.3750000e-2
vt 4.1391035e-2 0.34779969
vt 4.1391035e-2 0.36244085
vt 4.1391035e-2 0.45104933
vt 4.1391035e-2 0.49018201
vt 4.1391035e-2 0.57717789
vt 4.1391035e-2 0.59181906
vt 4.7224736e-2 0.60217192
vt 4.7224736e-2 0.33744683
vt 5.2995472e-2 0.27518605
vt 5.7283769e-2 0.26483319
vt 5.7283769e-2 0.28553892
vt 5.7577601e-2 0.33315853
vt 5.7577601e-2 0.60646022
vt 6.7636634e-2 0.26054489
vt 6.7636634e-2 0.28982722
vt 6.7930466e-2 0.60217192
vt 6.7930466e-2 0.33744683
vt 7.2218763e-2 0.34779969
vt 7.2218763e-2 0.36244085
vt 7.2218763e-2 0.45104933
vt 7.2218763e-2 0.49018201
vt 7.2218763e-2 0.57717789
vt 7.2218763e-2 0.59181906
vt 8.2277795e-2 0.26054489
vt 8.2277795e-2 0.28982722
vt 0.10179934 0.26054489
vt 0.10179934 0.28982722
vt 0.11107001 0.45945630
vt 0.11107001 0.47066216
vt 0.11107001 0.35696817
vt 0.11107001 0.60676787
vt 0.11107001 0.44346928
vt 0.11107001 0.48186802
vt 0.11107001 0.51797679
vt 0.11107001 0.50427974
vt 0.11107001 0.49307388
vt 0.11644051 0.26054489
vt 0.11644051 0.28982722
vt 0.11974606 0.50427974
vt 0.11974606 0.49307388
vt 0.11974606 0.51797679
vt 0.11974606 0.44346928
vt 0.11974606 0.47066216
vt 0.11974606 0.45945630
vt 0.11974606 0.48186802
vt 0.12679337 0.26483319
vt 0.12679337 0.28553892
vt 0.13108167 0.27518605
vt 0.14209994 0.47066216
vt 0.14209994 0.49307388
vt 0.14209994 0.50427974
vt 0.14209994 0.44346928
vt 0.14209994 0.45945630
vt 0.14209994 0.51797679
vt 0.14209994 0.48186802
vt 0.15011311 0.35696817
vt 0.15011311 0.49307388
vt 0.15011311 0.47066216
vt 0.15011311 0.45945630
vt 0.15011311 0.44346928
vt 0.15011311 0.50427974
vt 0.15011311 0.48186802
vt 0.15011311 0.60676787
vt 0.15011311 0.51797679
vn 1.9257744e-17 0.98078528 -0.19509032
vn -1.00000000 0.0000000e+0 0.0000000e+0
vn 1.9257744e-17 0.98078528 -0.19509032
vn -1.00000000 0.0000000e+0 0.0000000e+0
vn 0.0000000e+0 -0.98078528 -0.19509032
vn -1.00000000 0.0000000e+0 0.0000000e+0
vn 0.0000000e+0 -0.98078528 -0.19509032
vn -1.00000000 0.0000000e+0 0.0000000e+0
vn 0.0000000e+0 -0.70710678 -0.70710678
vn 0.0000000e+0 -0.70710678 -0.70710678
vn -1.00000000 0.0000000e+0 0.0000000e+0
vn 2.0443912e-17 -6.0084837e-17 -1.00000000
vn 2.0443912e-17 -6.0084837e-17 -1.00000000
vn -1.00000000 0.0000000e+0 0.0000000e+0
vn 4.0887824e-17 0.70710678 -0.70710678
vn 4.0887824e-17 0.70710678 -0.70710678
vn -1.00000000 0.0000000e+0 0.0000000e+0
vn 1.00000000 -1.4703568e-16 1.1167981e-16
vn 3.8515488e-17 0.98078528 -0.19509032
vn 3.8515488e-17 0.98078528 -0.19509032
vn 1.00000000 -1.4703568e-16 1.1167981e-16
vn 1.00000000 -1.4703568e-16 1.1167981e-16
vn 0.0000000e+0 -0.98078528 -0.19509032
vn 0.0000000e+0 -0.98078528 -0.19509032
vn 1.00000000 -1.4703568e-16 1.1167981e-16
vn 0.0000000e+0 -0.70710678 -0.70710678
vn 0.0000000e+0 -0.70710678 -0.70710678
vn 1.00000000 -1.0903420e-16 2.2335962e-16
vn 2.0443912e-17 -9.0127256e-17 -1.00000000
vn 2.0443912e-17 -9.0127256e-17 -1.00000000
vn 1.00000000 -1.0903420e-16 2.2335962e-16
vn 6.1331737e-17 0.70710678 -0.70710678
vn 6.1331737e-17 0.70710678 -0.70710678
vn 1.00000000 -1.0903420e-16 2.2335962e-16
vn 1.00000000 -1.8503717e-16 0.0000000e+0
vn 0.0000000e+0 1.00000000 -2.4093382e-18
vn 0.0000000e+0 1.00000000 -2.4093382e-18
vn 1.00000000 -1.8503717e-16 0.0000000e+0
vn 0.0000000e+0 1.00000000 -2.4093382e-18
vn -1.00000000 0.0000000e+0 0.0000000e+0
vn 0.0000000e+0 1.00000000 -2.4093382e-18
vn -1.00000000 0.0000000e+0 0.0000000e+0
vn 0.0000000e+0 -1.00000000 -7.2280145e-18
vn -1.00000000 0.0000000e+0 0.0000000e+0
vn 0.0000000e+0 -1.00000000 -7.2280145e-18
vn -1.00000000 0.0000000e+0 0.0000000e+0
vn 1.00000000 -1.8503717e-16 0.0000000e+0
vn 0.0000000e+0 -1.00000000 -7.2280145e-18
vn 1.00000000 -1.8503717e-16 0.0000000e+0
vn 0.0000000e+0 -1.00000000 -7.2280145e-18
vn 0.0000000e+0 0.0000000e+0 1.00000000
vn 0.0000000e+0 1.00000000 -4.8186763e-18
vn 1.00000000 -1.8503717e-16 0.0000000e+0
vn 0.0000000e+0 0.0000000e+0 1.00000000
vn 0.0000000e+0 1.00000000 -4.8186763e-18
vn -1.00000000 0.0000000e+0 0.0000000e+0
vn 0.0000000e+0 0.0000000e+0 1.00000000
vn -1.00000000 0.0000000e+0 0.0000000e+0
vn 0.0000000e+0 -1.00000000 -1.4456029e-17
vn 0.0000000e+0 0.0000000e+0 1.00000000
vn 0.0000000e+0 -1.00000000 -1.4456029e-17
vn 1.00000000 -1.8503717e-16 0.0000000e+0
vn 0.0000000e+0 -1.00000000 -7.2280145e-18
vn 0.0000000e+0 -1.00000000 -7.2280145e-18
vn 1.00000000 0.0000000e+0 0.0000000e+0
vn 0.0000000e+0 0.0000000e+0 -1.00000000
vn 0.0000000e+0 -1.00000000 -7.2280145e-18
vn 0.0000000e+0 -1.00000000 -7.2280145e-18
vn 0.0000000e+0 0.0000000e+0 -1.00000000
vn -1.00000000 0.0000000e+0 0.0000000e+0
vn 0.0000000e+0 1.00000000 -2.4093382e-18
vn 0.0000000e+0 1.00000000 -2.4093382e-18
vn 0.0000000e+0 0.0000000e+0 -1.00000000
vn -1.00000000 0.0000000e+0 0.0000000e+0
vn 0.0000000e+0 1.00000000 -2.4093382e-18
vn 0.0000000e+0 1.00000000 -2.4093382e-18
vn 1.00000000 0.0000000e+0 0.0000000e+0
vn 0.0000000e+0 0.0000000e+0 -1.00000000
vn 4.0887824e-17 0.70710678 -0.70710678
vn 4.0887824e-17 0.70710678 -0.70710678
vn 1.00000000 0.0000000e+0 0.0000000e+0
vn 6.1331737e-17 0.70710678 -0.70710678
vn 6.1331737e-17 0.70710678 -0.70710678
vn -1.00000000 0.0000000e+0 0.0000000e+0
vn 2.0443912e-17 -6.0084837e-17 -1.00000000
vn 2.0443912e-17 -6.0084837e-17 -1.00000000
vn 1.00000000 0.0000000e+0 0.0000000e+0
vn 2.0443912e-17 -9.0127256e-17 -1.00000000
vn 2.0443912e-17 -9.0127256e-17 -1.00000000
vn -1.00000000 0.0000000e+0 0.0000000e+0
vn 0.0000000e+0 -0.70710678 -0.70710678
vn 0.0000000e+0 -0.70710678 -0.70710678
vn 1.00000000 0.0000000e+0 0.0000000e+0
vn 0.0000000e+0 -0.70710678 -0.70710678
vn 0.0000000e+0 -0.70710678 -0.70710678
vn -1.00000000 0.0000000e+0 0.0000000e+0
vn 0.0000000e+0 -0.98078528 -0.19509032
vn 0.0000000e+0 -0.98078528 -0.19509032
vn 1.00000000 0.0000000e+0 0.0000000e+0
vn 1.00000000 0.0000000e+0 0.0000000e+0
vn 0.0000000e+0 -0.98078528 -0.19509032
vn 0.0000000e+0 -0.98078528 -0.19509032
vn -1.00000000 0.0000000e+0 0.0000000e+0
vn -1.00000000 0.0000000e+0 0.0000000e+0
vn 3.8515488e-17 0.98078528 -0.19509032
vn 3.8515488e-17 0.98078528 -0.19509032
vn -1.00000000 0.0000000e+0 0.0000000e+0
vn -1.00000000 0.0000000e+0 0.0000000e+0
vn 1.9257744e-17 0.98078528 -0.19509032
vn 1.9257744e-17 0.98078528 -0.19509032
vn 1.00000000 0.0000000e+0 0.0000000e+0
vn 1.00000000 0.0000000e+0 0.0000000e+0
g mesh1_mesh1_auv
usemtl mesh1_auv
s 1
f 16/3/54 17/20/57 18/21/60 15/4/51
f 21/26/73 20/27/69 19/25/66 22/24/78
s 2
f 5/8/17 4/12/14 3/17/11 2/18/6 1/1/2
f 6/6/21 7/23/25 8/16/28 9/13/31 10/7/34
f 11/5/35 14/22/47 7/23/22 6/6/18
f 11/5/38 15/4/53 18/21/62 14/22/49
f 12/2/42 1/1/4 2/18/8 13/19/46
f 13/19/44 17/20/58 16/3/56 12/2/40
f 20/27/70 21/26/74 31/37/107 30/38/103
f 22/24/77 19/25/65 29/15/99 32/14/111
f 30/38/104 31/37/108 24/46/84 26/48/90 28/47/96
f 32/14/112 29/15/100 27/11/93 25/9/87 23/10/81
s 3
f 1/61/3 12/64/41 22/54/76 32/51/110
f 1/61/1 32/51/109 23/50/79 5/57/15
f 3/58/10 27/49/92 29/53/97 2/59/5
f 4/62/13 25/55/86 27/49/91 3/58/9
f 5/57/16 23/50/80 25/55/85 4/62/12
f 6/35/19 31/39/105 21/41/71 11/34/36
f 7/28/23 30/44/101 28/43/95 8/29/27
f 8/29/26 28/43/94 26/45/89 9/33/30
f 9/33/29 26/45/88 24/40/83 10/36/33
f 10/36/32 24/40/82 31/39/106 6/35/20
f 12/64/39 16/63/55 15/31/52 11/34/37 21/41/72 22/54/75
f 14/32/48 18/30/61 17/56/59 13/60/45 19/52/64 20/42/67
f 20/42/68 30/44/102 7/28/24 14/32/50
f 29/53/98 19/52/63 13/60/43 2/59/7
