# Exported from Wings 3D 1.5.4
mtllib 4mv_vl_sensor_visible_light_camera_srf_1_compact.mtl
o mesh1
#62 vertices, 52 faces
v 2.5000000e-2 1.7599293e-17 0.0000000e+0
v 1.7677670e-2 -1.7677670e-2 0.0000000e+0
v -5.2660592e-17 -2.5000000e-2 0.0000000e+0
v -1.7677670e-2 -1.7677670e-2 0.0000000e+0
v -2.5000000e-2 1.4537676e-17 0.0000000e+0
v -1.7677670e-2 1.7677670e-2 0.0000000e+0
v -5.8783826e-17 2.5000000e-2 -6.9388939e-18
v 1.7677670e-2 1.7677670e-2 0.0000000e+0
v 2.5000000e-2 1.4537676e-17 -3.7500000e-2
v 1.7677670e-2 -1.7677670e-2 -3.7500000e-2
v -5.2660592e-17 -2.5000000e-2 -3.7500000e-2
v -1.7677670e-2 -1.7677670e-2 -3.7500000e-2
v -2.5000000e-2 1.1476059e-17 -3.7500000e-2
v -1.7677670e-2 1.7677670e-2 -3.7500000e-2
v -5.8783826e-17 2.5000000e-2 -3.7500000e-2
v 1.7677670e-2 1.7677670e-2 -3.7500000e-2
v -5.5579180e-17 1.8682966e-17 -6.9388939e-18
v 5.0000000e-2 2.2073355e-17 -3.7500000e-2
v -5.0000000e-2 3.6837736e-18 -3.7500000e-2
v -4.3301270e-2 2.5000000e-2 -3.7500000e-2
v -2.5000000e-2 4.3301270e-2 -3.7500000e-2
v -6.6203247e-17 5.0000000e-2 -3.7500000e-2
v 2.5000000e-2 4.3301270e-2 -3.7500000e-2
v 4.3301270e-2 2.5000000e-2 -3.7500000e-2
v 5.0000000e-2 -5.0000000e-2 -3.7500000e-2
v -5.0000000e-2 -5.0000000e-2 -3.7500000e-2
v 5.0000000e-2 1.4154255e-17 -0.12500000
v 3.7500000e-2 1.0724257e-17 -0.13750000
v -3.7500000e-2 -3.0679290e-18 -0.13750000
v -5.0000000e-2 -4.2353266e-18 -0.12500000
v -4.3301270e-2 2.5000000e-2 -0.12500000
v -2.5000000e-2 4.3301270e-2 -0.12500000
v -5.5777110e-17 5.0000000e-2 -0.12500000
v 2.5000000e-2 4.3301270e-2 -0.12500000
v 4.3301270e-2 2.5000000e-2 -0.12500000
v 5.0000000e-2 -5.0000000e-2 -0.12500000
v -5.0000000e-2 -5.0000000e-2 -0.12500000
v 3.7500000e-2 -5.0000000e-2 -0.13750000
v -3.7500000e-2 -5.0000000e-2 -0.13750000
v -3.2094077e-2 1.8529524e-2 -0.13750000
v -1.8529524e-2 3.2094077e-2 -0.13750000
v -4.6106869e-17 3.7059048e-2 -0.13750000
v 1.8529524e-2 3.2094077e-2 -0.13750000
v 3.2094077e-2 1.8529524e-2 -0.13750000
v 4.3301270e-2 2.5000000e-2 -0.11250000
v 4.3301270e-2 2.5000000e-2 -5.0000000e-2
v 2.5000000e-2 4.3301270e-2 -0.11250000
v 2.5000000e-2 4.3301270e-2 -5.0000000e-2
v -5.8011282e-17 5.0000000e-2 -0.11250000
v -6.3969074e-17 5.0000000e-2 -5.0000000e-2
v -2.5000000e-2 4.3301270e-2 -0.11250000
v -2.5000000e-2 4.3301270e-2 -5.0000000e-2
v -4.3301270e-2 2.5000000e-2 -0.11250000
v -4.3301270e-2 2.5000000e-2 -5.0000000e-2
v -5.0000000e-2 -2.5383766e-18 -0.11250000
v -5.0000000e-2 1.9868236e-18 -5.0000000e-2
v 5.0000000e-2 1.5851205e-17 -0.11250000
v 5.0000000e-2 2.0376405e-17 -5.0000000e-2
v -5.0000000e-2 -3.7500000e-2 -5.0000000e-2
v 5.0000000e-2 -3.7500000e-2 -5.0000000e-2
v -5.0000000e-2 -3.7500000e-2 -0.11250000
v 5.0000000e-2 -3.7500000e-2 -0.11250000
vt 4.0000000e-2 0.95029176
vt 4.0000000e-2 0.84350113
vt 4.0000000e-2 0.88233409
vt 4.5202630e-2 0.82408465
vt 4.9708239e-2 0.96000000
vt 5.9416478e-2 0.80987080
vt 7.8832956e-2 0.80466817
vt 9.8249434e-2 0.80987080
vt 0.10795767 0.96000000
vt 0.11246328 0.82408465
vt 0.11766591 0.84350113
vt 0.11766591 0.88233409
vt 0.11766591 0.95029176
vt 0.19714574 0.86106854
vt 0.19714574 0.86106854
vt 0.19714574 0.94010433
vt 0.19714574 0.89990150
vt 0.19714574 0.96020575
vt 0.19714574 0.92000292
vt 0.19714574 0.96020575
vt 0.19714574 0.94010433
vt 0.19714574 0.89990150
vt 0.19714574 0.92000292
vt 0.19774235 0.69739165
vt 0.19811959 0.73667822
vt 0.20399577 0.75739716
vt 0.20685398 0.96020575
vt 0.20685398 0.94010433
vt 0.20685398 0.92000292
vt 0.20685398 0.87077678
vt 0.20685398 0.96020575
vt 0.20685398 0.92000292
vt 0.20685398 0.94010433
vt 0.20685398 0.89990150
vt 0.20685398 0.87077678
vt 0.20685398 0.89990150
vt 0.21163225 0.69725828
vt 0.21195082 0.73597141
vt 0.21623384 0.75003458
vt 0.21954786 0.77267967
vt 0.22660544 0.76026051
vt 0.24066679 0.76399364
vt 0.24067344 0.77827622
vt 0.25472466 0.76025974
vt 0.25539517 0.94010433
vt 0.25539517 0.96020575
vt 0.25539517 0.92000292
vt 0.25539517 0.87077678
vt 0.25539517 0.89990150
vt 0.25539517 0.89990150
vt 0.25539517 0.96020575
vt 0.25539517 0.87077678
vt 0.25539517 0.92000292
vt 0.25539517 0.94010433
vt 0.26177259 0.77264901
vt 0.26509783 0.75004865
vt 0.26510341 0.94010433
vt 0.26510341 0.96020575
vt 0.26510341 0.89990150
vt 0.26510341 0.86106854
vt 0.26510341 0.92000292
vt 0.26510341 0.92000292
vt 0.26510341 0.94010433
vt 0.26510341 0.86106854
vt 0.26510341 0.96020575
vt 0.26510341 0.89990150
vt 0.26942949 0.73601364
vt 0.26987645 0.69725828
vt 0.27724477 0.75739407
vt 0.28326175 0.73677954
vt 0.28384983 0.69739350
vt 0.36395662 0.73676721
vt 0.36395662 0.76589193
vt 0.36395662 0.81443312
vt 0.36395662 0.84355784
vt 0.36915925 0.71735073
vt 0.36915925 0.86297432
vt 0.38337310 0.70313688
vt 0.38337310 0.87718816
vt 0.40278958 0.69793425
vt 0.40278958 0.88239079
vt 0.42220606 0.70313688
vt 0.42220606 0.87718816
vt 0.43641990 0.71735073
vt 0.43641990 0.86297432
vt 0.44162253 0.73676721
vt 0.44162253 0.76589193
vt 0.44162253 0.81443312
vt 0.44162253 0.84355784
vt 0.77424832 0.71351994
vt 0.77424832 0.77185049
vt 0.78919922 0.71351994
vt 0.78919922 0.77185049
vt 0.80415012 0.71351994
vt 0.80415012 0.77185049
vt 0.81451763 0.65310388
vt 0.81910102 0.71351994
vt 0.81910102 0.77185049
vt 0.82023909 0.63929105
vt 0.82023909 0.66691671
vt 0.83405192 0.63356959
vt 0.83405192 0.65310388
vt 0.83405192 0.67263817
vt 0.83405192 0.71351994
vt 0.83405192 0.77185049
vt 0.84786475 0.63929105
vt 0.84786475 0.66691671
vt 0.84900282 0.71351994
vt 0.84900282 0.77185049
vt 0.85358621 0.65310388
vt 0.86395372 0.71351994
vt 0.86395372 0.77185049
vt 0.87890462 0.71351994
vt 0.87890462 0.77185049
vt 0.89385552 0.71351994
vt 0.89385552 0.77185049
vn 0.87946522 2.6421262e-17 -0.47596315
vn 0.62187582 -0.62187582 -0.47596315
vn 1.5852757e-16 -0.87946522 -0.47596315
vn -0.62187582 -0.62187582 -0.47596315
vn -0.87946522 -2.1137010e-16 -0.47596315
vn -0.62187582 0.62187582 -0.47596315
vn -5.2842525e-17 0.87946522 -0.47596315
vn 0.62187582 0.62187582 -0.47596315
vn -2.4651903e-32 6.9388939e-17 1.00000000
vn 1.00000000 6.0084837e-17 -1.0221956e-17
vn 1.00000000 6.0084837e-17 -1.0221956e-17
vn -2.7755576e-16 -1.2325952e-32 1.00000000
vn -2.7755576e-16 -1.2325952e-32 1.00000000
vn 0.70710678 -0.70710678 7.1553693e-17
vn 0.70710678 -0.70710678 7.1553693e-17
vn -1.9626156e-16 1.9626156e-16 1.00000000
vn -1.9626156e-16 1.9626156e-16 1.00000000
vn 1.2016967e-16 -1.00000000 1.2266347e-16
vn 1.2016967e-16 -1.00000000 1.2266347e-16
vn -2.4651903e-32 2.7755576e-16 1.00000000
vn -2.4651903e-32 2.7755576e-16 1.00000000
vn -0.70710678 -0.70710678 1.0221956e-16
vn -0.70710678 -0.70710678 1.0221956e-16
vn 1.9626156e-16 1.9626156e-16 1.00000000
vn 1.9626156e-16 1.9626156e-16 1.00000000
vn -1.00000000 -2.1029693e-16 1.0221956e-17
vn -1.00000000 -2.1029693e-16 1.0221956e-17
vn 2.7755576e-16 7.3955710e-32 1.00000000
vn 2.7755576e-16 7.3955710e-32 1.00000000
vn -0.70710678 0.70710678 -9.1997605e-17
vn -0.70710678 0.70710678 -9.1997605e-17
vn 3.3503944e-16 -5.7483679e-17 1.00000000
vn 3.3503944e-16 -5.7483679e-17 1.00000000
vn -1.2016967e-16 1.00000000 -1.6355130e-16
vn -1.2016967e-16 1.00000000 -1.6355130e-16
vn 0.0000000e+0 0.0000000e+0 1.00000000
vn 0.0000000e+0 0.0000000e+0 1.00000000
vn 0.70710678 0.70710678 -1.2266347e-16
vn 0.70710678 0.70710678 -1.2266347e-16
vn -3.3503944e-16 -5.7483679e-17 1.00000000
vn -3.3503944e-16 -5.7483679e-17 1.00000000
vn -1.4166908e-16 1.1254945e-16 1.00000000
vn -1.4166908e-16 1.1254945e-16 1.00000000
vn 0.99144486 0.13052619 4.1348282e-16
vn 0.99144486 0.13052619 4.1348282e-16
vn -1.4166908e-16 1.1254945e-16 1.00000000
vn -1.4166908e-16 1.1254945e-16 1.00000000
vn -0.99144486 0.13052619 -4.5573465e-16
vn -0.99144486 0.13052619 -4.5573465e-16
vn -1.4456029e-16 8.6321015e-17 1.00000000
vn -0.86602540 0.50000000 -6.9388939e-16
vn -0.86602540 0.50000000 -6.9388939e-16
vn -1.4456029e-16 8.6321015e-17 1.00000000
vn -0.50000000 0.86602540 -5.8546917e-16
vn -0.50000000 0.86602540 -5.8546917e-16
vn -1.4456029e-16 8.6321015e-17 1.00000000
vn -6.0342841e-16 1.00000000 -2.8189256e-16
vn -6.0342841e-16 1.00000000 -2.8189256e-16
vn -1.4456029e-16 8.6321015e-17 1.00000000
vn 0.50000000 0.86602540 -4.3368087e-17
vn 0.50000000 0.86602540 -4.3368087e-17
vn -1.4456029e-16 8.6321015e-17 1.00000000
vn 0.86602540 0.50000000 3.0357661e-16
vn 0.86602540 0.50000000 3.0357661e-16
vn 1.7347235e-16 -1.00000000 1.1895247e-16
vn -1.3877788e-16 1.3877788e-16 1.00000000
vn 1.00000000 3.9650822e-17 2.0486258e-16
vn 1.00000000 3.9650822e-17 2.0486258e-16
vn 1.7347235e-16 -1.00000000 1.1895247e-16
vn -1.3877788e-16 1.3877788e-16 1.00000000
vn -1.00000000 -1.7842870e-16 -1.8173294e-16
vn -1.00000000 -1.7842870e-16 -1.8173294e-16
vn 0.99144486 0.13052619 -8.2244793e-17
vn 0.70033757 9.5976264e-2 -0.70733008
vn 0.70033757 9.5976264e-2 -0.70733008
vn 0.99144486 0.13052619 -8.2244793e-17
vn -3.9091901e-17 0.0000000e+0 -1.00000000
vn -3.9091901e-17 0.0000000e+0 -1.00000000
vn 0.70033757 9.5976264e-2 -0.70733008
vn 0.70033757 9.5976264e-2 -0.70733008
vn -3.9091901e-17 0.0000000e+0 -1.00000000
vn -3.9091901e-17 0.0000000e+0 -1.00000000
vn -0.70033757 9.5976264e-2 -0.70733008
vn -0.70033757 9.5976264e-2 -0.70733008
vn -0.99144486 0.13052619 -1.4110482e-16
vn -0.70033757 9.5976264e-2 -0.70733008
vn -0.70033757 9.5976264e-2 -0.70733008
vn -0.99144486 0.13052619 -1.4110482e-16
vn -0.86602540 0.50000000 -2.3852448e-16
vn -0.86602540 0.50000000 -2.3852448e-16
vn -0.60346666 0.35130936 -0.71582800
vn -0.60346666 0.35130936 -0.71582800
vn -0.50000000 0.86602540 -5.4210109e-16
vn -0.50000000 0.86602540 -5.4210109e-16
vn -0.34737330 0.60166820 -0.71925460
vn -0.34737330 0.60166820 -0.71925460
vn -6.3216310e-16 1.00000000 -5.4210109e-16
vn -6.3216310e-16 1.00000000 -5.4210109e-16
vn -4.5171849e-16 0.69474659 -0.71925460
vn -4.5171849e-16 0.69474659 -0.71925460
vn 0.50000000 0.86602540 -3.0357661e-16
vn 0.50000000 0.86602540 -3.0357661e-16
vn 0.34737330 0.60166820 -0.71925460
vn 0.34737330 0.60166820 -0.71925460
vn 0.86602540 0.50000000 -1.3010426e-16
vn 0.86602540 0.50000000 -1.3010426e-16
vn 0.60346666 0.35130936 -0.71582800
vn 0.60346666 0.35130936 -0.71582800
vn 2.2551405e-16 -1.00000000 -1.4234645e-14
vn 0.70710678 9.1997605e-17 -0.70710678
vn 2.2551405e-16 -1.00000000 -1.4234645e-14
vn 1.00000000 7.9301645e-17 6.6084704e-18
vn 1.00000000 7.9301645e-17 6.6084704e-18
vn 2.2551405e-16 -1.00000000 -1.4234645e-14
vn 2.2551405e-16 -1.00000000 -1.4234645e-14
vn -0.70710678 -9.1997605e-17 -0.70710678
vn -1.00000000 -1.7842870e-16 -1.4208211e-16
vn -1.00000000 -1.7842870e-16 -1.4208211e-16
vn 0.0000000e+0 0.0000000e+0 -1.00000000
vn 0.70710678 9.1997605e-17 -0.70710678
vn 2.7755576e-16 -1.00000000 -2.8588243e-14
vn 0.0000000e+0 0.0000000e+0 -1.00000000
vn 2.7755576e-16 -1.00000000 -2.8588243e-14
vn -0.70710678 -9.1997605e-17 -0.70710678
vn -7.8183802e-17 0.0000000e+0 -1.00000000
vn -0.60346666 0.35130936 -0.71582800
vn -0.60346666 0.35130936 -0.71582800
vn -7.8183802e-17 0.0000000e+0 -1.00000000
vn -0.34737330 0.60166820 -0.71925460
vn -0.34737330 0.60166820 -0.71925460
vn -7.8183802e-17 0.0000000e+0 -1.00000000
vn -4.5171849e-16 0.69474659 -0.71925460
vn -4.5171849e-16 0.69474659 -0.71925460
vn -7.8183802e-17 0.0000000e+0 -1.00000000
vn 0.34737330 0.60166820 -0.71925460
vn 0.34737330 0.60166820 -0.71925460
vn -7.8183802e-17 0.0000000e+0 -1.00000000
vn 0.60346666 0.35130936 -0.71582800
vn 0.60346666 0.35130936 -0.71582800
vn 0.86602540 0.50000000 -1.3010426e-16
vn 0.86602540 0.50000000 -1.3010426e-16
vn -2.8912058e-16 0.0000000e+0 1.00000000
vn 0.86602540 0.50000000 3.0357661e-16
vn 0.86602540 0.50000000 3.0357661e-16
vn -1.0842022e-16 0.0000000e+0 -1.00000000
vn 0.50000000 0.86602540 -3.0357661e-16
vn 0.50000000 0.86602540 -3.0357661e-16
vn -2.8912058e-16 0.0000000e+0 1.00000000
vn 0.50000000 0.86602540 -4.3368087e-17
vn 0.50000000 0.86602540 -4.3368087e-17
vn -1.0842022e-16 0.0000000e+0 -1.00000000
vn -6.3216310e-16 1.00000000 -5.4210109e-16
vn -6.3216310e-16 1.00000000 -5.4210109e-16
vn -2.8912058e-16 0.0000000e+0 1.00000000
vn -6.0342841e-16 1.00000000 -2.8189256e-16
vn -6.0342841e-16 1.00000000 -2.8189256e-16
vn -1.0842022e-16 0.0000000e+0 -1.00000000
vn -0.50000000 0.86602540 -5.4210109e-16
vn -0.50000000 0.86602540 -5.4210109e-16
vn -2.8912058e-16 0.0000000e+0 1.00000000
vn -0.50000000 0.86602540 -5.8546917e-16
vn -0.50000000 0.86602540 -5.8546917e-16
vn -1.0842022e-16 0.0000000e+0 -1.00000000
vn -0.86602540 0.50000000 -2.3852448e-16
vn -0.86602540 0.50000000 -2.3852448e-16
vn -2.8912058e-16 0.0000000e+0 1.00000000
vn -0.86602540 0.50000000 -6.9388939e-16
vn -0.86602540 0.50000000 -6.9388939e-16
vn -1.0842022e-16 0.0000000e+0 -1.00000000
vn -0.99144486 0.13052619 -1.4110482e-16
vn -2.8912058e-16 0.0000000e+0 1.00000000
vn -0.99144486 0.13052619 -1.4110482e-16
vn -0.99144486 0.13052619 -4.5573465e-16
vn -1.0842022e-16 0.0000000e+0 -1.00000000
vn -0.99144486 0.13052619 -4.5573465e-16
vn 0.99144486 0.13052619 -8.2244793e-17
vn -2.8912058e-16 0.0000000e+0 1.00000000
vn 0.99144486 0.13052619 -8.2244793e-17
vn 0.99144486 0.13052619 4.1348282e-16
vn -1.0842022e-16 0.0000000e+0 -1.00000000
vn 0.99144486 0.13052619 4.1348282e-16
vn -1.00000000 -1.7842870e-16 -1.8173294e-16
vn 0.0000000e+0 1.00000000 0.0000000e+0
vn -1.0842022e-16 0.0000000e+0 -1.00000000
vn -1.00000000 -1.7842870e-16 -1.8173294e-16
vn 1.00000000 3.9650822e-17 2.0486258e-16
vn 0.0000000e+0 1.00000000 0.0000000e+0
vn -1.0842022e-16 0.0000000e+0 -1.00000000
vn 1.00000000 3.9650822e-17 2.0486258e-16
vn -1.00000000 -1.7842870e-16 -1.4208211e-16
vn 0.0000000e+0 1.00000000 0.0000000e+0
vn -2.8912058e-16 0.0000000e+0 1.00000000
vn -1.00000000 -1.7842870e-16 -1.4208211e-16
vn 1.00000000 7.9301645e-17 6.6084704e-18
vn 0.0000000e+0 1.00000000 0.0000000e+0
vn -2.8912058e-16 0.0000000e+0 1.00000000
vn 1.00000000 7.9301645e-17 6.6084704e-18
g mesh1_mesh1_auv
usemtl mesh1_auv
s 1
f 1/94/10 9/95/1 16/93/8 8/92/38
f 2/97/15 10/98/2 9/95/1 1/94/11
f 3/104/19 11/105/3 10/98/2 2/97/14
f 4/108/23 12/109/4 11/105/3 3/104/18
f 5/111/27 13/112/5 12/109/4 4/108/22
f 6/113/31 14/114/6 13/112/5 5/111/26
f 7/115/35 15/116/7 14/114/6 6/113/30
f 8/92/39 16/93/8 15/91/7 7/90/34
f 10//2 11//3 12//4 13//5 14//6 15//7 16//8 9//1
f 19/11/47 26/12/70 25/3/66 18/2/43
f 24/4/62 23/6/59 22/7/56 21/8/53 20/10/50 19/11/46 18/2/42
f 28/38/78 38/37/119 39/68/122 29/67/82
f 29/67/81 40/56/125 41/44/128 42/42/131 43/41/134 44/39/137 28/38/77
f 48/82/151 46/84/145 58/86/180 60/87/188 59/73/184 56/72/174 54/76/169 52/78/163 50/80/157
f 55/75/171 61/74/192 62/88/196 57/89/177 45/85/142 47/83/148 49/81/154 51/79/160 53/77/166
s 2
f 1/103/12 17/102/9 2/107/16
f 2/107/17 17/102/9 3/110/21
f 3/110/20 17/102/9 4/106/25
f 4/106/24 17/102/9 5/101/29
f 5/101/28 17/102/9 6/99/33
f 6/99/32 17/102/9 7/96/37
f 7/96/36 17/102/9 8/100/41
f 8/100/40 17/102/9 1/103/13
f 27/25/74 36/24/110 38/37/120 28/38/79
f 28/38/80 44/39/139 35/26/108 27/25/75
f 30/70/87 31/69/91 40/56/126 29/67/84
f 31/69/92 32/55/95 41/44/129 40/56/127
f 32/55/96 33/43/99 42/42/132 41/44/130
f 33/43/100 34/40/103 43/41/135 42/42/133
f 34/40/104 35/26/107 44/39/138 43/41/136
f 37/71/116 30/70/86 29/67/83 39/68/124
f 59/73/183 60/87/187 62/88/195 61/74/191
s 3
f 18/17/45 25/14/68 60/30/189 58/34/181
f 18/17/44 58/34/179 46/29/143 24/23/63
f 20/62/52 54/47/168 56/49/173 19/59/48
f 21/57/55 52/45/162 54/47/167 20/62/51
f 22/58/58 50/46/156 52/45/161 21/57/54
f 23/16/61 48/28/150 50/27/155 22/18/57
f 24/23/64 46/29/144 48/28/149 23/16/60
f 26/60/71 59/48/182 61/35/190 37/15/117
f 30/22/88 37/15/118 61/35/193 55/36/172
f 30/22/85 55/36/170 53/32/165 31/19/90
f 31/19/89 53/32/164 51/33/159 32/21/94
f 32/21/93 51/33/158 49/31/153 33/20/98
f 33/65/97 49/51/152 47/54/147 34/63/102
f 34/63/101 47/54/146 45/53/141 35/61/106
f 35/61/105 45/53/140 57/50/176 27/66/73
f 36/64/112 62/52/194 60/30/186 25/14/67
f 56/49/175 59/48/185 26/60/72 19/59/49
f 57/50/178 62/52/197 36/64/113 27/66/76
s 4
f 25/3/65 26/12/69 37/13/114 36/1/109
f 39/9/123 38/5/121 36/1/111 37/13/115
