# Exported from Wings 3D 1.5.4
mtllib 4mv_vl_sensor_visible_light_camera_srf_1.mtl
o lense1
#7 vertices, 6 faces
v -4.0102555e-17 -1.8750000e-2 -6.2500000e-2
v -4.0102555e-17 -1.8750000e-2 -8.7500000e-2
v 1.2500000e-2 -1.5400635e-2 -8.7500000e-2
v 1.2500000e-2 -1.5400635e-2 -6.2500000e-2
v -1.2500000e-2 -1.5400635e-2 -6.2500000e-2
v -1.2500000e-2 -1.5400635e-2 -8.7500000e-2
v -4.0102555e-17 -1.8750000e-2 -7.5000000e-2
vt 0.58401886 0.93534428
vt 0.58401886 0.95844927
vt 0.59574385 0.93534428
vt 0.59574385 0.94534428
vt 0.59574385 0.95844927
vt 0.60676159 0.93534428
vt 0.60676159 0.95844927
vn -4.7891144e-17 -1.00000000 0.0000000e+0
vn -5.7469373e-17 -1.00000000 0.0000000e+0
vn -5.7469373e-17 -1.00000000 0.0000000e+0
vn -8.6204059e-17 -1.00000000 0.0000000e+0
vn -8.6204059e-17 -1.00000000 0.0000000e+0
vn 0.25881905 -0.96592583 0.0000000e+0
vn 0.25881905 -0.96592583 0.0000000e+0
vn 0.25881905 -0.96592583 0.0000000e+0
vn 0.25881905 -0.96592583 0.0000000e+0
vn -0.25881905 -0.96592583 0.0000000e+0
vn -0.25881905 -0.96592583 0.0000000e+0
vn -0.25881905 -0.96592583 0.0000000e+0
vn -0.25881905 -0.96592583 0.0000000e+0
g lense1_lense1_auv
usemtl lense1_auv
s 2
f 1/3/2 5/6/10 7/4/1
f 2/5/4 7/4/1 6/7/12
f 3/2/6 7/4/1 2/5/5
f 4/1/9 7/4/1 3/2/7
f 6/7/13 7/4/1 5/6/11
f 7/4/1 4/1/8 1/3/3
o camera1
#36 vertices, 24 faces
v 2.5000000e-2 1.3848359e-17 -5.0000000e-2
v 2.1650635e-2 -1.2500000e-2 -5.0000000e-2
v 1.2500000e-2 -2.1650635e-2 -5.0000000e-2
v -4.0102555e-17 -2.5000000e-2 -5.0000000e-2
v -1.2500000e-2 -2.1650635e-2 -5.0000000e-2
v -2.1650635e-2 -1.2500000e-2 -5.0000000e-2
v -2.5000000e-2 1.0786742e-17 -5.0000000e-2
v -2.1650635e-2 1.2500000e-2 -5.0000000e-2
v -1.2500000e-2 2.1650635e-2 -5.0000000e-2
v -4.6225789e-17 2.5000000e-2 -5.0000000e-2
v 1.2500000e-2 2.1650635e-2 -5.0000000e-2
v 2.1650635e-2 1.2500000e-2 -5.0000000e-2
v 2.5000000e-2 1.0786742e-17 -1.0000000e-1
v 2.1650635e-2 -1.2500000e-2 -1.0000000e-1
v 1.2500000e-2 -2.1650635e-2 -1.0000000e-1
v -4.0102555e-17 -2.5000000e-2 -1.0000000e-1
v -1.2500000e-2 -2.1650635e-2 -1.0000000e-1
v -2.1650635e-2 -1.2500000e-2 -1.0000000e-1
v -2.5000000e-2 7.7251245e-18 -1.0000000e-1
v -2.1650635e-2 1.2500000e-2 -1.0000000e-1
v -1.2500000e-2 2.1650635e-2 -1.0000000e-1
v -4.6225789e-17 2.5000000e-2 -1.0000000e-1
v 1.2500000e-2 2.1650635e-2 -1.0000000e-1
v 2.1650635e-2 1.2500000e-2 -1.0000000e-1
v -1.2500000e-2 -2.1650635e-2 -6.2500000e-2
v -1.2500000e-2 -2.1650635e-2 -8.7500000e-2
v -4.0102555e-17 -2.5000000e-2 -6.2500000e-2
v -4.0102555e-17 -2.5000000e-2 -8.7500000e-2
v 1.2500000e-2 -2.1650635e-2 -6.2500000e-2
v 1.2500000e-2 -2.1650635e-2 -8.7500000e-2
v -4.0102555e-17 -1.8750000e-2 -6.2500000e-2
v -4.0102555e-17 -1.8750000e-2 -8.7500000e-2
v 1.2500000e-2 -1.5400635e-2 -8.7500000e-2
v 1.2500000e-2 -1.5400635e-2 -6.2500000e-2
v -1.2500000e-2 -1.5400635e-2 -6.2500000e-2
v -1.2500000e-2 -1.5400635e-2 -8.7500000e-2
vt 0.46297071 0.94979818
vt 0.46297071 0.92939453
vt 0.46297071 0.90812147
vt 0.46297071 0.87838542
vt 0.46297071 0.88858724
vt 0.46297071 0.89878906
vt 0.46297071 0.91919271
vt 0.46297071 0.85798177
vt 0.46297071 0.86818359
vt 0.46297071 0.93959635
vt 0.46297071 0.84777995
vt 0.46297071 0.96000000
vt 0.46297071 0.83757812
vt 0.46314738 0.67877755
vt 0.46314738 0.69848596
vt 0.46314738 0.70834016
vt 0.46314738 0.71819436
vt 0.46314738 0.73790277
vt 0.46314738 0.74775698
vt 0.46314738 0.75761118
vt 0.47437877 0.90812147
vt 0.47437877 0.89878906
vt 0.47437877 0.88858724
vt 0.47438571 0.67877755
vt 0.47438571 0.69848596
vt 0.47438571 0.70834016
vt 0.47438571 0.71819436
vt 0.47438571 0.73790277
vt 0.47438571 0.74775698
vt 0.47438571 0.75761118
vt 0.49421694 0.88858724
vt 0.49421694 0.89878906
vt 0.49421694 0.90812147
vt 0.50564544 0.96000000
vt 0.50564544 0.93959635
vt 0.50564544 0.90812147
vt 0.50564544 0.91919271
vt 0.50564544 0.87838542
vt 0.50564544 0.88858724
vt 0.50564544 0.89878906
vt 0.50564544 0.92939453
vt 0.50564544 0.85798177
vt 0.50564544 0.86818359
vt 0.50564544 0.94979818
vt 0.50564544 0.83757813
vt 0.50564544 0.84777995
vn 1.00000000 2.2987749e-16 -2.7105054e-18
vn 0.81811048 -0.57506107 2.4537803e-16
vn 0.50000000 -0.86602540 4.2283885e-16
vn 1.1493875e-16 -1.00000000 1.5178830e-16
vn -0.50000000 -0.86602540 2.4936650e-16
vn -0.81811048 -0.57506107 1.4338716e-16
vn -1.00000000 -3.1608155e-16 5.4210109e-18
vn -0.86602540 0.50000000 -3.5236571e-17
vn -0.50000000 0.86602540 -5.9631119e-17
vn -4.3102029e-16 1.00000000 -8.4025668e-17
vn 0.50000000 0.86602540 -9.4867690e-17
vn 0.86602540 0.50000000 -5.4210109e-17
vn 1.00000000 2.2987749e-16 -2.7105054e-18
vn 0.81811048 -0.57506107 1.3018834e-16
vn 0.50000000 -0.86602540 3.1441863e-16
vn 1.1493875e-16 -1.00000000 2.8189256e-16
vn -0.50000000 -0.86602540 3.1441863e-16
vn -0.81811048 -0.57506107 1.4338716e-16
vn -1.00000000 -3.1608155e-16 5.4210109e-18
vn -0.86602540 0.50000000 -3.5236571e-17
vn -0.50000000 0.86602540 -5.9631119e-17
vn -4.3102029e-16 1.00000000 -8.4025668e-17
vn 0.50000000 0.86602540 -9.4867690e-17
vn 0.86602540 0.50000000 -5.4210109e-17
vn -0.57506107 -0.81811048 1.8478345e-16
vn -0.57506107 -0.81811048 1.8478345e-16
vn 0.0000000e+0 0.0000000e+0 -1.00000000
vn 1.00000000 0.0000000e+0 0.0000000e+0
vn -0.57506107 -0.81811048 1.8478345e-16
vn -0.57506107 -0.81811048 2.2797959e-16
vn 1.00000000 0.0000000e+0 0.0000000e+0
vn 0.0000000e+0 0.0000000e+0 1.00000000
vn -0.57506107 -0.81811048 2.2797959e-16
vn -0.57506107 -0.81811048 2.2797959e-16
vn 1.1493875e-16 -1.00000000 1.5178830e-16
vn 1.1493875e-16 -1.00000000 1.5178830e-16
vn 0.0000000e+0 0.0000000e+0 -1.00000000
vn 0.0000000e+0 0.0000000e+0 -1.00000000
vn 1.1493875e-16 -1.00000000 2.8189256e-16
vn 1.1493875e-16 -1.00000000 2.8189256e-16
vn 0.0000000e+0 0.0000000e+0 1.00000000
vn 0.0000000e+0 0.0000000e+0 1.00000000
vn 0.57506107 -0.81811048 2.9037400e-16
vn 0.57506107 -0.81811048 2.9037400e-16
vn -1.00000000 0.0000000e+0 0.0000000e+0
vn 0.0000000e+0 0.0000000e+0 -1.00000000
vn 0.57506107 -0.81811048 2.9037400e-16
vn 0.57506107 -0.81811048 2.1838045e-16
vn 0.0000000e+0 0.0000000e+0 1.00000000
vn -1.00000000 0.0000000e+0 0.0000000e+0
vn 0.57506107 -0.81811048 2.1838045e-16
vn 0.57506107 -0.81811048 2.1838045e-16
vn 0.0000000e+0 0.0000000e+0 -1.00000000
vn 0.0000000e+0 0.0000000e+0 -1.00000000
vn 0.0000000e+0 0.0000000e+0 1.00000000
vn 0.0000000e+0 0.0000000e+0 1.00000000
vn 0.0000000e+0 0.0000000e+0 1.00000000
vn -1.00000000 0.0000000e+0 0.0000000e+0
vn -1.00000000 0.0000000e+0 0.0000000e+0
vn 0.0000000e+0 0.0000000e+0 -1.00000000
vn 0.0000000e+0 0.0000000e+0 -1.00000000
vn 1.00000000 0.0000000e+0 0.0000000e+0
vn 1.00000000 0.0000000e+0 0.0000000e+0
vn 0.0000000e+0 0.0000000e+0 1.00000000
g camera1_camera1_auv
usemtl camera1_auv
s 1
f 8/50/14 20/16/26 31/15/37 19/49/25
f 9/45/15 21/11/27 20/16/26 8/50/14
f 9/45/15 36/38/60 37/30/64 21/11/27
f 10/46/16 36/38/57 9/45/15
f 11/47/17 34/39/49 36/38/56 10/46/16
f 12/43/18 32/40/39 34/39/48 11/47/17
f 13/44/19 32/40/38 12/43/18
f 14/48/20 26/9/32 25/14/31 13/44/19
f 15/42/21 27/17/33 26/9/32 14/48/20
f 16/51/22 28/8/34 27/17/33 15/42/21
f 17/41/23 29/19/35 28/8/34 16/51/22
f 18/53/24 30/18/36 29/20/35 17/52/23
f 19/49/25 31/15/37 30/18/36 18/53/24
f 21/11/27 37/30/65 22/12/28
f 22/12/28 37/30/61 35/29/53 23/13/29
f 23/13/29 35/29/52 33/28/43 24/10/30
f 24/10/30 33/28/47 25/14/31
f 25/14/31 33/28/46 32/40/42 13/44/19
s 2
f 34/33/51 32/34/40 42/24/74 38/23/67
f 35/36/55 39/26/69 43/25/77 33/35/45
f 37/37/62 40/27/70 39/26/68 35/36/54
f 38/23/66 41/22/73 36/32/59 34/33/50
s 3
f 33/35/44 43/25/76 42/24/75 32/34/41
f 36/32/58 41/22/72 40/21/71 37/31/63
o mesh1
#62 vertices, 53 faces
v 2.5000000e-2 1.7599293e-17 3.7500000e-2
v 1.7677670e-2 -1.7677670e-2 3.7500000e-2
v -5.2660592e-17 -2.5000000e-2 3.7500000e-2
v -1.7677670e-2 -1.7677670e-2 3.7500000e-2
v -2.5000000e-2 1.4537676e-17 3.7500000e-2
v -1.7677670e-2 1.7677670e-2 3.7500000e-2
v -5.8783826e-17 2.5000000e-2 3.7500000e-2
v 1.7677670e-2 1.7677670e-2 3.7500000e-2
v 2.5000000e-2 1.4537676e-17 -3.7500000e-2
v 1.7677670e-2 -1.7677670e-2 -3.7500000e-2
v -5.2660592e-17 -2.5000000e-2 -3.7500000e-2
v -1.7677670e-2 -1.7677670e-2 -3.7500000e-2
v -2.5000000e-2 1.1476059e-17 -3.7500000e-2
v -1.7677670e-2 1.7677670e-2 -3.7500000e-2
v -5.8783826e-17 2.5000000e-2 -3.7500000e-2
v 1.7677670e-2 1.7677670e-2 -3.7500000e-2
v -5.5579180e-17 1.8682966e-17 3.7500000e-2
v 3.7500000e-2 2.4120156e-17 -3.7500000e-2
v 3.2475953e-2 -1.8750000e-2 -3.7500000e-2
v 1.8750000e-2 -3.2475953e-2 -3.7500000e-2
v -4.0556005e-17 -3.7500000e-2 -3.7500000e-2
v -1.8750000e-2 -3.2475953e-2 -3.7500000e-2
v -3.2475953e-2 -1.8750000e-2 -3.7500000e-2
v -3.7500000e-2 3.1726002e-18 -3.7500000e-2
v 3.7500000e-2 2.1518070e-17 -0.11250000
v 3.2475953e-2 -1.8750000e-2 -0.11250000
v 1.8750000e-2 -3.2475953e-2 -0.11250000
v -2.4200875e-17 -3.7500000e-2 -0.11250000
v -1.8750000e-2 -3.2475953e-2 -0.11250000
v -3.2475953e-2 -1.8750000e-2 -0.11250000
v -3.7500000e-2 5.7051501e-19 -0.11250000
v -3.7500000e-2 3.7500000e-2 -3.7500000e-2
v 3.7500000e-2 3.7500000e-2 -3.7500000e-2
v 3.7500000e-2 3.7500000e-2 -0.11250000
v -3.7500000e-2 3.7500000e-2 -0.11250000
v -3.7500000e-2 2.7389194e-18 -5.0000000e-2
v -3.7500000e-2 1.0041959e-18 -0.10000000
v -3.2475953e-2 -1.8750000e-2 -5.0000000e-2
v -3.2475953e-2 -1.8750000e-2 -0.10000000
v -1.8750000e-2 -3.2475953e-2 -5.0000000e-2
v -1.8750000e-2 -3.2475953e-2 -0.10000000
v -3.7830150e-17 -3.7500000e-2 -5.0000000e-2
v -2.6926730e-17 -3.7500000e-2 -0.10000000
v 1.8750000e-2 -3.2475953e-2 -5.0000000e-2
v 1.8750000e-2 -3.2475953e-2 -0.10000000
v 3.2475953e-2 -1.8750000e-2 -5.0000000e-2
v 3.2475953e-2 -1.8750000e-2 -0.10000000
v 3.7500000e-2 2.3686475e-17 -5.0000000e-2
v 3.7500000e-2 2.1951751e-17 -0.10000000
v -3.7500000e-2 2.5000000e-2 -5.0000000e-2
v 3.7500000e-2 2.5000000e-2 -5.0000000e-2
v 3.7500000e-2 2.5000000e-2 -0.10000000
v -3.7500000e-2 2.5000000e-2 -0.10000000
v 2.5000000e-2 -2.4056261e-3 -0.12500000
v -2.5000000e-2 -2.4056261e-3 -0.12500000
v -2.5000000e-2 3.7500000e-2 -0.12500000
v 2.5000000e-2 3.7500000e-2 -0.12500000
v 2.1650635e-2 -1.4905626e-2 -0.12500000
v 1.2500000e-2 -2.4056261e-2 -0.12500000
v -2.4443456e-17 -2.7405626e-2 -0.12500000
v -1.2500000e-2 -2.4056261e-2 -0.12500000
v -2.1650635e-2 -1.4905626e-2 -0.12500000
vt 4.1020513e-2 0.75162954
vt 4.1020513e-2 0.72294450
vt 4.1020513e-2 0.69260942
vt 4.1020513e-2 0.67744188
vt 4.1020513e-2 0.75162954
vt 4.1020513e-2 0.72294450
vt 4.1020513e-2 0.70777696
vt 4.1020513e-2 0.69260942
vt 4.1020513e-2 0.67744188
vt 4.1020513e-2 0.70777696
vt 4.1178792e-2 0.86215468
vt 4.1178792e-2 0.89145612
vt 4.1178792e-2 0.95005900
vt 4.5104440e-2 0.84750396
vt 4.8394578e-2 0.72294450
vt 4.8394578e-2 0.69260942
vt 4.8394578e-2 0.74367534
vt 4.8394578e-2 0.70777696
vt 4.8394578e-2 0.67744188
vt 4.8394578e-2 0.69260942
vt 4.8394578e-2 0.74367534
vt 4.8394578e-2 0.70777696
vt 4.8394578e-2 0.72294450
vt 4.8394578e-2 0.67744188
vt 5.0945938e-2 0.95982614
vt 5.5829511e-2 0.83677889
vt 7.0480230e-2 0.83285324
vt 8.5130949e-2 0.83677889
vt 8.7553809e-2 0.72294450
vt 8.7553809e-2 0.74367534
vt 8.7553809e-2 0.70777696
vt 8.7553809e-2 0.69260942
vt 8.7553809e-2 0.67744188
vt 8.7553809e-2 0.70777696
vt 8.7553809e-2 0.67744188
vt 8.7553809e-2 0.74367534
vt 8.7553809e-2 0.69260942
vt 8.7553809e-2 0.72294450
vt 9.0014522e-2 0.95982614
vt 9.5834344e-2 0.70777696
vt 9.5834344e-2 0.72294450
vt 9.5834344e-2 0.70777696
vt 9.5834344e-2 0.67744188
vt 9.5834344e-2 0.75162954
vt 9.5834344e-2 0.69260942
vt 9.5834344e-2 0.75162954
vt 9.5834344e-2 0.72294450
vt 9.5834344e-2 0.67744188
vt 9.5834344e-2 0.69260942
vt 9.5856019e-2 0.84750396
vt 9.9781667e-2 0.86215468
vt 9.9781667e-2 0.89145612
vt 9.9781667e-2 0.95005900
vt 0.17851674 0.74065861
vt 0.17901479 0.71035418
vt 0.18167376 0.85256139
vt 0.18167376 0.87209569
vt 0.18167376 0.91116427
vt 0.18167376 0.93069856
vt 0.18350532 0.69499607
vt 0.18559941 0.83791068
vt 0.18559941 0.94534928
vt 0.19294727 0.74065861
vt 0.19339599 0.71035418
vt 0.19566401 0.68307839
vt 0.19618753 0.70059405
vt 0.19632448 0.82718561
vt 0.19632448 0.95607435
vt 0.20310340 0.69391807
vt 0.21097520 0.82325996
vt 0.21097520 0.96000000
vt 0.21205557 0.67876885
vt 0.21240152 0.69148473
vt 0.22170488 0.69391710
vt 0.22562592 0.82718561
vt 0.22562592 0.95607435
vt 0.22842825 0.68310787
vt 0.22862884 0.70056429
vt 0.23149284 0.71035418
vt 0.23216392 0.74065861
vt 0.23635099 0.83791068
vt 0.23635099 0.94534928
vt 0.24027664 0.85256139
vt 0.24027664 0.87209569
vt 0.24027664 0.91116427
vt 0.24027664 0.93069856
vt 0.24045992 0.69496318
vt 0.24520163 0.71035418
vt 0.24607629 0.74065861
vt 0.32584153 0.84029206
vt 0.32584153 0.85524296
vt 0.32584153 0.87019386
vt 0.32584153 0.88514476
vt 0.32584153 0.90009566
vt 0.32584153 0.91504656
vt 0.32584153 0.92999746
vt 0.32584153 0.94494836
vt 0.32584153 0.95989925
vt 0.33831932 0.74421228
vt 0.34404078 0.73039945
vt 0.34404078 0.75802511
vt 0.35785361 0.72467799
vt 0.35785361 0.74421228
vt 0.35785361 0.76374657
vt 0.37166644 0.73039945
vt 0.37166644 0.75802511
vt 0.37738790 0.74421228
vt 0.38417208 0.84029206
vt 0.38417208 0.85524296
vt 0.38417208 0.87019386
vt 0.38417208 0.88514476
vt 0.38417208 0.90009566
vt 0.38417208 0.91504656
vt 0.38417208 0.92999746
vt 0.38417208 0.94494836
vt 0.38417208 0.95989925
vn 1.00000000 6.0084837e-17 -5.1109781e-18
vn 0.70710678 -0.70710678 3.5776846e-17
vn 1.2016967e-16 -1.00000000 6.1331737e-17
vn -0.70710678 -0.70710678 5.1109781e-17
vn -1.00000000 -2.1029693e-16 5.1109781e-18
vn -0.70710678 0.70710678 -4.5998803e-17
vn -1.2016967e-16 1.00000000 -8.1775649e-17
vn 0.70710678 0.70710678 -6.1331737e-17
vn 3.0665868e-17 6.9388939e-17 1.00000000
vn 1.00000000 6.0084837e-17 -5.1109781e-18
vn 1.00000000 6.0084837e-17 -5.1109781e-18
vn -4.9065389e-16 -1.2325952e-32 1.00000000
vn -4.9065389e-16 -1.2325952e-32 1.00000000
vn 0.70710678 -0.70710678 3.5776846e-17
vn 0.70710678 -0.70710678 3.5776846e-17
vn -2.4532695e-16 1.9626156e-16 1.00000000
vn -2.4532695e-16 1.9626156e-16 1.00000000
vn 1.2016967e-16 -1.00000000 6.1331737e-17
vn 1.2016967e-16 -1.00000000 6.1331737e-17
vn 0.0000000e+0 2.7755576e-16 1.00000000
vn 0.0000000e+0 2.7755576e-16 1.00000000
vn -0.70710678 -0.70710678 5.1109781e-17
vn -0.70710678 -0.70710678 5.1109781e-17
vn 2.4532695e-16 1.9626156e-16 1.00000000
vn 2.4532695e-16 1.9626156e-16 1.00000000
vn -1.00000000 -2.1029693e-16 5.1109781e-18
vn -1.00000000 -2.1029693e-16 5.1109781e-18
vn 7.3598084e-16 7.3955710e-32 1.00000000
vn 7.3598084e-16 7.3955710e-32 1.00000000
vn -0.70710678 0.70710678 -4.5998803e-17
vn -0.70710678 0.70710678 -4.5998803e-17
vn 3.6799042e-16 -5.7483679e-17 1.00000000
vn 3.6799042e-16 -5.7483679e-17 1.00000000
vn -1.2016967e-16 1.00000000 -8.1775649e-17
vn -1.2016967e-16 1.00000000 -8.1775649e-17
vn -1.2266347e-16 0.0000000e+0 1.00000000
vn -1.2266347e-16 0.0000000e+0 1.00000000
vn 0.70710678 0.70710678 -6.1331737e-17
vn 0.70710678 0.70710678 -6.1331737e-17
vn -2.4532695e-16 -5.7483679e-17 1.00000000
vn -2.4532695e-16 -5.7483679e-17 1.00000000
vn -2.2101662e-16 -5.9917820e-32 1.00000000
vn 0.99144486 -0.13052619 4.3556536e-16
vn -2.2101662e-16 -5.9917820e-32 1.00000000
vn 0.99144486 -0.13052619 4.3556536e-16
vn -2.5699607e-16 -5.1358132e-32 1.00000000
vn 0.86602540 -0.50000000 5.9269719e-16
vn 0.86602540 -0.50000000 5.9269719e-16
vn -2.5699607e-16 -5.1358132e-32 1.00000000
vn 0.50000000 -0.86602540 5.2041704e-16
vn 0.50000000 -0.86602540 5.2041704e-16
vn -2.5699607e-16 -5.1358132e-32 1.00000000
vn 2.0114280e-16 -1.00000000 1.4456029e-16
vn 2.0114280e-16 -1.00000000 1.4456029e-16
vn -2.5699607e-16 -5.1358132e-32 1.00000000
vn -0.50000000 -0.86602540 -2.6020852e-16
vn -0.50000000 -0.86602540 -2.6020852e-16
vn -2.5699607e-16 -5.1358132e-32 1.00000000
vn -0.86602540 -0.50000000 -4.7704896e-16
vn -0.86602540 -0.50000000 -4.7704896e-16
vn -2.2101662e-16 -5.9917820e-32 1.00000000
vn -0.99144486 -0.13052619 -4.3556536e-16
vn -2.2101662e-16 -5.9917820e-32 1.00000000
vn -0.99144486 -0.13052619 -4.3556536e-16
vn 0.99144486 -0.13052619 3.3766899e-16
vn 0.99144486 -0.13052619 3.3766899e-16
vn 0.71301441 -9.5870728e-2 -0.69456408
vn 0.71301441 -9.5870728e-2 -0.69456408
vn 0.86602540 -0.50000000 4.9150498e-16
vn 0.86602540 -0.50000000 4.9150498e-16
vn 0.64067944 -0.37480133 -0.67011478
vn 0.64067944 -0.37480133 -0.67011478
vn 0.50000000 -0.86602540 2.6020852e-16
vn 0.50000000 -0.86602540 2.6020852e-16
vn 0.38200025 -0.66665161 -0.64004019
vn 0.38200025 -0.66665161 -0.64004019
vn 3.4481624e-16 -1.00000000 1.4456029e-16
vn 3.4481624e-16 -1.00000000 1.4456029e-16
vn 5.3869271e-16 -0.77799533 -0.62827006
vn 5.3869271e-16 -0.77799533 -0.62827006
vn -0.50000000 -0.86602540 -5.1043057e-32
vn -0.50000000 -0.86602540 -5.1043057e-32
vn -0.38200025 -0.66665161 -0.64004019
vn -0.38200025 -0.66665161 -0.64004019
vn -0.86602540 -0.50000000 -3.6140072e-16
vn -0.86602540 -0.50000000 -3.6140072e-16
vn -0.64067944 -0.37480133 -0.67011478
vn -0.64067944 -0.37480133 -0.67011478
vn -0.99144486 -0.13052619 -3.2358505e-16
vn -0.99144486 -0.13052619 -3.2358505e-16
vn -0.71301441 -9.5870728e-2 -0.69456408
vn -0.71301441 -9.5870728e-2 -0.69456408
vn -2.7755576e-16 1.00000000 -5.1358132e-32
vn -1.8503717e-16 -6.8477509e-32 1.00000000
vn -1.00000000 -4.9960036e-16 -2.7755576e-16
vn -1.00000000 -4.9960036e-16 -2.7755576e-16
vn -2.7755576e-16 1.00000000 -5.1358132e-32
vn -1.8503717e-16 -6.8477509e-32 1.00000000
vn 1.00000000 4.9960036e-16 2.7755576e-16
vn 1.00000000 4.9960036e-16 2.7755576e-16
vn -2.7755576e-16 1.00000000 -4.1633363e-16
vn 1.00000000 3.8857806e-16 1.6653345e-16
vn 1.00000000 3.8857806e-16 1.6653345e-16
vn -2.7755576e-16 1.00000000 -4.1633363e-16
vn 0.70710678 -1.7827697e-16 -0.70710678
vn -2.7755576e-16 1.00000000 -4.1633363e-16
vn -1.00000000 -3.8857806e-16 -1.6653345e-16
vn -1.00000000 -3.8857806e-16 -1.6653345e-16
vn -0.70710678 1.5846842e-16 -0.70710678
vn -2.7755576e-16 1.00000000 -4.1633363e-16
vn -0.99144486 -0.13052619 -4.3556536e-16
vn 2.5699607e-17 0.0000000e+0 -1.00000000
vn 2.5699607e-17 0.0000000e+0 -1.00000000
vn -0.99144486 -0.13052619 -4.3556536e-16
vn -0.99144486 -0.13052619 -3.2358505e-16
vn -2.5699607e-17 0.0000000e+0 1.00000000
vn -2.5699607e-17 0.0000000e+0 1.00000000
vn -0.99144486 -0.13052619 -3.2358505e-16
vn -0.86602540 -0.50000000 -4.7704896e-16
vn -0.86602540 -0.50000000 -4.7704896e-16
vn 5.1399214e-17 0.0000000e+0 -1.00000000
vn -0.86602540 -0.50000000 -3.6140072e-16
vn -0.86602540 -0.50000000 -3.6140072e-16
vn -5.1399214e-17 0.0000000e+0 1.00000000
vn -0.50000000 -0.86602540 -2.6020852e-16
vn -0.50000000 -0.86602540 -2.6020852e-16
vn 5.1399214e-17 0.0000000e+0 -1.00000000
vn -0.50000000 -0.86602540 -5.1043057e-32
vn -0.50000000 -0.86602540 -5.1043057e-32
vn -5.1399214e-17 0.0000000e+0 1.00000000
vn 2.0114280e-16 -1.00000000 1.4456029e-16
vn 2.0114280e-16 -1.00000000 1.4456029e-16
vn 5.1399214e-17 0.0000000e+0 -1.00000000
vn 3.4481624e-16 -1.00000000 1.4456029e-16
vn 3.4481624e-16 -1.00000000 1.4456029e-16
vn -5.1399214e-17 0.0000000e+0 1.00000000
vn 0.50000000 -0.86602540 5.2041704e-16
vn 0.50000000 -0.86602540 5.2041704e-16
vn 5.1399214e-17 0.0000000e+0 -1.00000000
vn 0.50000000 -0.86602540 2.6020852e-16
vn 0.50000000 -0.86602540 2.6020852e-16
vn -5.1399214e-17 0.0000000e+0 1.00000000
vn 0.86602540 -0.50000000 5.9269719e-16
vn 0.86602540 -0.50000000 5.9269719e-16
vn 5.1399214e-17 0.0000000e+0 -1.00000000
vn 0.86602540 -0.50000000 4.9150498e-16
vn 0.86602540 -0.50000000 4.9150498e-16
vn -5.1399214e-17 0.0000000e+0 1.00000000
vn 0.99144486 -0.13052619 4.3556536e-16
vn 2.5699607e-17 0.0000000e+0 -1.00000000
vn 2.5699607e-17 0.0000000e+0 -1.00000000
vn 0.99144486 -0.13052619 4.3556536e-16
vn 0.99144486 -0.13052619 3.3766899e-16
vn -2.5699607e-17 0.0000000e+0 1.00000000
vn -2.5699607e-17 0.0000000e+0 1.00000000
vn 0.99144486 -0.13052619 3.3766899e-16
vn -1.00000000 -4.9960036e-16 -2.7755576e-16
vn 0.0000000e+0 0.0000000e+0 -1.00000000
vn 0.0000000e+0 -1.00000000 0.0000000e+0
vn -1.00000000 -4.9960036e-16 -2.7755576e-16
vn 1.00000000 4.9960036e-16 2.7755576e-16
vn 0.0000000e+0 0.0000000e+0 -1.00000000
vn 0.0000000e+0 -1.00000000 0.0000000e+0
vn 1.00000000 4.9960036e-16 2.7755576e-16
vn 1.00000000 3.8857806e-16 1.6653345e-16
vn 0.0000000e+0 -1.00000000 0.0000000e+0
vn 0.0000000e+0 0.0000000e+0 1.00000000
vn 1.00000000 3.8857806e-16 1.6653345e-16
vn -1.00000000 -3.8857806e-16 -1.6653345e-16
vn 0.0000000e+0 -1.00000000 0.0000000e+0
vn 0.0000000e+0 0.0000000e+0 1.00000000
vn -1.00000000 -3.8857806e-16 -1.6653345e-16
vn 2.8333817e-16 4.6259293e-17 -1.00000000
vn 2.8333817e-16 4.6259293e-17 -1.00000000
vn 0.71301441 -9.5870728e-2 -0.69456408
vn 0.71301441 -9.5870728e-2 -0.69456408
vn 2.8333817e-16 4.6259293e-17 -1.00000000
vn 2.8333817e-16 4.6259293e-17 -1.00000000
vn -0.71301441 -9.5870728e-2 -0.69456408
vn -0.71301441 -9.5870728e-2 -0.69456408
vn 2.7755576e-16 -2.1717952e-31 -1.00000000
vn -0.70710678 1.5846842e-16 -0.70710678
vn -2.7755576e-16 1.00000000 -8.3266727e-16
vn 2.7755576e-16 -2.1717952e-31 -1.00000000
vn -2.7755576e-16 1.00000000 -8.3266727e-16
vn 0.70710678 -1.7827697e-16 -0.70710678
vn 2.8912058e-16 9.2518585e-17 -1.00000000
vn 0.64067944 -0.37480133 -0.67011478
vn 0.64067944 -0.37480133 -0.67011478
vn 2.8912058e-16 9.2518585e-17 -1.00000000
vn 0.38200025 -0.66665161 -0.64004019
vn 0.38200025 -0.66665161 -0.64004019
vn 2.8912058e-16 9.2518585e-17 -1.00000000
vn 5.3869271e-16 -0.77799533 -0.62827006
vn 5.3869271e-16 -0.77799533 -0.62827006
vn 2.8912058e-16 9.2518585e-17 -1.00000000
vn -0.38200025 -0.66665161 -0.64004019
vn -0.38200025 -0.66665161 -0.64004019
vn 2.8912058e-16 9.2518585e-17 -1.00000000
vn -0.64067944 -0.37480133 -0.67011478
vn -0.64067944 -0.37480133 -0.67011478
g mesh1_mesh1_auv
usemtl mesh1_auv
s 1
f 44/149/87 52/167/78 59/168/85 51/150/115
f 45/148/92 53/166/79 52/167/78 44/149/88
f 46/147/96 54/165/80 53/166/79 45/148/91
f 47/146/100 55/164/81 54/165/80 46/147/95
f 48/145/104 56/163/82 55/164/81 47/146/99
f 49/144/108 57/162/83 56/163/82 48/145/103
f 50/143/112 58/161/84 57/162/83 49/144/107
f 51/150/116 59/168/85 58/169/84 50/151/111
f 61/104/119 67/64/138 66/67/135 65/79/132 64/80/129 63/81/126 62/103/123
f 61/104/121 76/105/175 75/65/171 67/64/140
f 79/136/190 93/137/235 94/110/239 91/109/228
f 86/124/213 88/121/219 90/115/225 92/112/231 80/139/193 82/135/201 84/129/207
f 87/120/216 85/123/210 83/128/204 81/134/198 79/136/189 91/109/227 89/114/222
f 92/112/232 95/111/244 96/138/248 80/139/194
f 97/117/250 101/119/264 102/122/267 103/126/270 104/127/273 105/131/276 98/132/254
f 98/132/255 99/133/258 100/116/261 97/117/251
s 2
f 44/160/89 60/156/86 45/158/93
f 45/158/94 60/156/86 46/155/98
f 46/155/97 60/156/86 47/153/102
f 47/153/101 60/156/86 48/152/106
f 48/152/105 60/156/86 49/154/110
f 49/154/109 60/156/86 50/157/114
f 50/157/113 60/156/86 51/159/118
f 51/159/117 60/156/86 44/160/90
f 68/108/144 97/117/252 100/116/263 77/107/182
f 69/113/148 101/119/265 97/117/253 68/108/145
f 70/118/152 102/122/268 101/119/266 69/113/149
f 71/125/156 103/126/271 102/122/269 70/118/153
f 72/130/160 104/127/274 103/126/272 71/125/157
f 73/140/164 105/131/277 104/127/275 72/130/161
f 74/141/168 78/142/186 99/133/259 98/132/256
f 74/141/169 98/132/257 105/131/278 73/140/165
f 94/110/240 93/137/236 96/138/247 95/111/243
s 3
f 62/60/125 89/71/221 91/68/226 61/55/120
f 63/56/128 87/69/215 89/71/220 62/60/124
f 64/57/131 85/72/209 87/69/214 63/56/127
f 65/98/134 83/85/203 85/86/208 64/96/130
f 66/93/137 81/84/197 83/85/202 65/98/133
f 67/94/141 75/97/173 93/83/237 79/82/191
f 67/94/139 79/82/188 81/84/196 66/93/136
f 68/100/143 77/99/180 95/89/245 92/91/233
f 68/100/142 92/91/230 90/87/224 69/95/147
f 69/95/146 90/87/223 88/90/218 70/102/151
f 70/102/150 88/90/217 86/88/212 71/101/155
f 71/62/154 86/77/211 84/73/206 72/61/159
f 72/61/158 84/73/205 82/75/200 73/63/163
f 73/63/162 82/75/199 80/76/192 74/59/166
f 76/54/176 94/70/238 95/89/242 77/99/179
f 78/58/184 96/74/246 93/83/234 75/97/172
f 80/76/195 96/74/249 78/58/185 74/59/167
f 91/68/229 94/70/241 76/54/177 61/55/122
s 4
f 76/105/174 77/106/178 78/66/183 75/65/170
f 77/106/181 100/92/262 99/78/260 78/66/187
