# Exported from Wings 3D 1.5.4
mtllib 4mv_vl_sensor_thermometer_srf_1_compact.mtl
o mesh1
#79 vertices, 88 faces
v 2.5000000e-2 1.7600375e-17 0.0000000e+0
v 1.7677670e-2 -1.7677670e-2 0.0000000e+0
v -5.2592564e-17 -2.5000000e-2 0.0000000e+0
v -1.7677670e-2 -1.7677670e-2 0.0000000e+0
v -2.5000000e-2 1.4538758e-17 0.0000000e+0
v -1.7677670e-2 1.7677670e-2 0.0000000e+0
v -5.8715798e-17 2.5000000e-2 -6.9388939e-18
v 1.7677670e-2 1.7677670e-2 0.0000000e+0
v 2.5000000e-2 1.4538758e-17 -3.7500000e-2
v 1.7677670e-2 -1.7677670e-2 -3.7500000e-2
v -5.2592564e-17 -2.5000000e-2 -3.7500000e-2
v -1.7677670e-2 -1.7677670e-2 -3.7500000e-2
v -2.5000000e-2 1.1477141e-17 -3.7500000e-2
v -1.7677670e-2 1.7677670e-2 -3.7500000e-2
v -5.8715798e-17 2.5000000e-2 -3.7500000e-2
v 1.7677670e-2 1.7677670e-2 -3.7500000e-2
v -5.5944832e-17 1.8432146e-17 -6.9388939e-18
v 5.0000000e-2 2.6007304e-17 -3.7500000e-2
v 4.3301270e-2 -2.5000000e-2 -3.7500000e-2
v 2.5000000e-2 -4.3301270e-2 -3.7500000e-2
v -3.8190164e-17 -5.0000000e-2 -3.7500000e-2
v -2.5000000e-2 -4.3301270e-2 -3.7500000e-2
v -4.3301270e-2 -2.5000000e-2 -3.7500000e-2
v -5.0000000e-2 1.4845485e-18 -3.7500000e-2
v -4.3301270e-2 2.5000000e-2 -3.7500000e-2
v -2.5000000e-2 4.3301270e-2 -3.7500000e-2
v -6.8836153e-17 5.0000000e-2 -3.7500000e-2
v 2.5000000e-2 4.3301270e-2 -3.7500000e-2
v 4.3301270e-2 2.5000000e-2 -3.7500000e-2
v 1.9134172e-2 -1.4558593e-17 -0.14619398
v 1.6570679e-2 9.5670858e-3 -0.14619398
v 9.5670858e-3 1.6570679e-2 -0.14619398
v -3.6030424e-17 1.9134172e-2 -0.14619398
v -9.5670858e-3 1.6570679e-2 -0.14619398
v -1.6570679e-2 9.5670858e-3 -0.14619398
v -1.9134172e-2 -1.0002499e-17 -0.14619398
v -1.6570679e-2 -9.5670858e-3 -0.14619398
v -9.5670858e-3 -1.6570679e-2 -0.14619398
v -4.2929778e-17 -1.9134172e-2 -0.14619398
v 9.5670858e-3 -1.6570679e-2 -0.14619398
v 1.6570679e-2 -9.5670858e-3 -0.14619398
v 3.5355339e-2 -1.0608037e-17 -0.13535534
v 3.0618622e-2 1.7677670e-2 -0.13535534
v 1.7677670e-2 3.0618622e-2 -0.13535534
v -3.4725924e-17 3.5355339e-2 -0.13535534
v -1.7677670e-2 3.0618622e-2 -0.13535534
v -3.0618622e-2 1.7677670e-2 -0.13535534
v -3.5355339e-2 -2.1894745e-18 -0.13535534
v -3.0618622e-2 -1.7677670e-2 -0.13535534
v -1.7677670e-2 -3.0618622e-2 -0.13535534
v -4.7474267e-17 -3.5355339e-2 -0.13535534
v 1.7677670e-2 -3.0618622e-2 -0.13535534
v 3.0618622e-2 -1.7677670e-2 -0.13535534
v 4.6193977e-2 -3.9185695e-18 -0.11913417
v 4.0005157e-2 2.3096988e-2 -0.11913417
v 2.3096988e-2 4.0005157e-2 -0.11913417
v -3.4373489e-17 4.6193977e-2 -0.11913417
v -2.3096988e-2 4.0005157e-2 -0.11913417
v -4.0005157e-2 2.3096988e-2 -0.11913417
v -4.6193977e-2 7.0808128e-18 -0.11913417
v -4.0005157e-2 -2.3096988e-2 -0.11913417
v -2.3096988e-2 -4.0005157e-2 -0.11913417
v -5.1030002e-17 -4.6193977e-2 -0.11913417
v 2.3096988e-2 -4.0005157e-2 -0.11913417
v 4.0005157e-2 -2.3096988e-2 -0.11913417
v 5.0000000e-2 1.2376216e-17 -1.0000000e-1
v 4.3301270e-2 2.5000000e-2 -1.0000000e-1
v 2.5000000e-2 4.3301270e-2 -1.0000000e-1
v -4.5031643e-17 5.0000000e-2 -1.0000000e-1
v -2.5000000e-2 4.3301270e-2 -1.0000000e-1
v -4.3301270e-2 2.5000000e-2 -1.0000000e-1
v -5.0000000e-2 6.0676611e-18 -1.0000000e-1
v -4.3301270e-2 -2.5000000e-2 -1.0000000e-1
v -2.5000000e-2 -4.3301270e-2 -1.0000000e-1
v -3.8723088e-17 -5.0000000e-2 -1.0000000e-1
v 2.5000000e-2 -4.3301270e-2 -1.0000000e-1
v 4.3301270e-2 -2.5000000e-2 -1.0000000e-1
v -3.8088391e-17 -1.5168800e-17 -0.15000000
v -5.6089392e-17 1.5247676e-17 -3.7500000e-2
vt 0.77350315 0.71243030
vt 0.77350315 0.77116338
vt 0.77543298 0.84999044
vt 0.77543298 0.84999044
vt 0.77543298 0.84999044
vt 0.77614814 0.90033926
vt 0.77655221 0.90033926
vt 0.77655221 0.90033926
vt 0.77655221 0.90033926
vt 0.77871708 0.91556740
vt 0.77931781 0.91556740
vt 0.77931781 0.91556740
vt 0.77931781 0.91556740
vt 0.78477920 0.93049275
vt 0.78546999 0.93049275
vt 0.78546999 0.93049275
vt 0.78546999 0.93049275
vt 0.78848727 0.71243030
vt 0.78848727 0.77116338
vt 0.79420599 0.94506729
vt 0.79475464 0.94506729
vt 0.79475464 0.94506729
vt 0.79475464 0.94506729
vt 0.79588018 0.84999044
vt 0.79597834 0.84999044
vt 0.79597834 0.84999044
vt 0.79623459 0.90033926
vt 0.79664504 0.90033926
vt 0.79664504 0.90033926
vt 0.79664504 0.90033926
vt 0.79715408 0.91556740
vt 0.79767349 0.91556740
vt 0.79767349 0.91556740
vt 0.79767349 0.91556740
vt 0.79890624 0.93049275
vt 0.79949610 0.93049275
vt 0.79949610 0.93049275
vt 0.79949610 0.93049275
vt 0.80181003 0.94506729
vt 0.80235998 0.94506729
vt 0.80235998 0.94506729
vt 0.80235998 0.94506729
vt 0.80347139 0.71243030
vt 0.80347139 0.77116338
vt 0.80592976 0.95931735
vt 0.80637704 0.95931735
vt 0.80637704 0.95931735
vt 0.80637704 0.95931735
vt 0.80994683 0.94506729
vt 0.81049678 0.94506729
vt 0.81049678 0.94506729
vt 0.81049678 0.94506729
vt 0.81281071 0.93049275
vt 0.81340057 0.93049275
vt 0.81340057 0.93049275
vt 0.81340057 0.93049275
vt 0.81428591 0.65265950
vt 0.81463332 0.91556740
vt 0.81515273 0.91556740
vt 0.81515273 0.91556740
vt 0.81515273 0.91556740
vt 0.81566177 0.90033926
vt 0.81607222 0.90033926
vt 0.81607222 0.90033926
vt 0.81607222 0.90033926
vt 0.81632846 0.84999044
vt 0.81642663 0.84999044
vt 0.81642663 0.84999044
vt 0.81755217 0.94506729
vt 0.81810081 0.94506729
vt 0.81810081 0.94506729
vt 0.81810081 0.94506729
vt 0.81845551 0.71243030
vt 0.81845551 0.77116338
vt 0.82002009 0.63881598
vt 0.82002009 0.66650302
vt 0.82683682 0.93049275
vt 0.82752761 0.93049275
vt 0.82752761 0.93049275
vt 0.82752761 0.93049275
vt 0.83298900 0.91556740
vt 0.83343962 0.71243030
vt 0.83343962 0.77116338
vt 0.83358973 0.91556740
vt 0.83358973 0.91556740
vt 0.83358973 0.91556740
vt 0.83386361 0.63308181
vt 0.83386361 0.65265950
vt 0.83386361 0.67223720
vt 0.83575460 0.90033926
vt 0.83615867 0.90033926
vt 0.83615867 0.90033926
vt 0.83615867 0.90033926
vt 0.83687383 0.84999044
vt 0.83687383 0.84999044
vt 0.83687383 0.84999044
vt 0.84770713 0.63881598
vt 0.84770713 0.66650302
vt 0.84842374 0.71243030
vt 0.84842374 0.77116338
vt 0.85344130 0.65265950
vt 0.86340786 0.71243030
vt 0.86340786 0.77116338
vt 0.87839197 0.71243030
vt 0.87839197 0.77116338
vt 0.88038962 0.88994024
vt 0.88563544 0.87036254
vt 0.88563544 0.90951793
vt 0.89337609 0.71243030
vt 0.89337609 0.77116338
vt 0.89996731 0.85603068
vt 0.89996731 0.92384980
vt 0.91954500 0.85078485
vt 0.91954500 0.88994024
vt 0.91954500 0.92909562
vt 0.93912269 0.85603068
vt 0.93912269 0.92384980
vt 0.95345456 0.87036254
vt 0.95345456 0.90951793
vt 0.95870039 0.88994024
vn 1.00000000 9.0127256e-17 1.0221956e-17
vn 0.70710678 -0.70710678 1.0221956e-16
vn 9.0127256e-17 -1.00000000 1.2266347e-16
vn -0.70710678 -0.70710678 7.1553693e-17
vn -1.00000000 -1.8025451e-16 -1.0221956e-17
vn -0.70710678 0.70710678 -1.0221956e-16
vn -1.2016967e-16 1.00000000 -1.2266347e-16
vn 0.70710678 0.70710678 -7.1553693e-17
vn -3.0814879e-32 6.9388939e-17 1.00000000
vn 0.38180163 -7.1184787e-17 -0.92424429
vn 0.33064991 0.19090082 -0.92424429
vn 0.19090082 0.33064991 -0.92424429
vn -1.6372501e-16 0.38180163 -0.92424429
vn -0.19090082 0.33064991 -0.92424429
vn -0.33064991 0.19090082 -0.92424429
vn -0.38180163 1.0677718e-16 -0.92424429
vn -0.33064991 -0.19090082 -0.92424429
vn -0.19090082 -0.33064991 -0.92424429
vn -2.7050219e-16 -0.38180163 -0.92424429
vn 0.19090082 -0.33064991 -0.92424429
vn 0.33064991 -0.19090082 -0.92424429
vn 0.70617349 -9.3602881e-17 -0.70803885
vn 0.61156418 0.35308674 -0.70803885
vn 0.35308674 0.61156418 -0.70803885
vn 1.4400443e-17 0.70617349 -0.70803885
vn -0.35308674 0.61156418 -0.70803885
vn -0.61156418 0.35308674 -0.70803885
vn -0.70617349 1.8000554e-16 -0.70803885
vn -0.61156418 -0.35308674 -0.70803885
vn -0.35308674 -0.61156418 -0.70803885
vn -3.6721130e-16 -0.70617349 -0.70803885
vn 0.35308674 -0.61156418 -0.70803885
vn 0.61156418 -0.35308674 -0.70803885
vn 0.92353014 -4.3689135e-17 -0.38352586
vn 0.79980056 0.46176507 -0.38352586
vn 0.46176507 0.79980056 -0.38352586
vn -4.3689135e-17 0.92353014 -0.38352586
vn -0.46176507 0.79980056 -0.38352586
vn -0.79980056 0.46176507 -0.38352586
vn -0.92353014 1.1650436e-16 -0.38352586
vn -0.79980056 -0.46176507 -0.38352586
vn -0.46176507 -0.79980056 -0.38352586
vn -3.7863917e-16 -0.92353014 -0.38352586
vn 0.46176507 -0.79980056 -0.38352586
vn 0.79980056 -0.46176507 -0.38352586
vn 0.99517856 1.8755941e-16 -9.8079695e-2
vn 0.86184992 0.49758928 -9.8079695e-2
vn 0.49758928 0.86184992 -9.8079695e-2
vn -2.8855294e-16 0.99517856 -9.8079695e-2
vn -0.49758928 0.86184992 -9.8079695e-2
vn -0.86184992 0.49758928 -9.8079695e-2
vn -0.99517856 -1.5870412e-16 -9.8079695e-2
vn -0.86184992 -0.49758928 -9.8079695e-2
vn -0.49758928 -0.86184992 -9.8079695e-2
vn -1.5870412e-16 -0.99517856 -9.8079695e-2
vn 0.49758928 -0.86184992 -9.8079695e-2
vn 0.86184992 -0.49758928 -9.8079695e-2
vn 2.6684930e-16 1.3578615e-17 -1.00000000
vn -1.8792838e-16 4.6259293e-17 1.00000000
vn 1.00000000 9.0127256e-17 1.0221956e-17
vn 1.00000000 9.0127256e-17 1.0221956e-17
vn -2.7755576e-16 -2.4651903e-32 1.00000000
vn -2.7755576e-16 -2.4651903e-32 1.00000000
vn 0.70710678 -0.70710678 1.0221956e-16
vn 0.70710678 -0.70710678 1.0221956e-16
vn -1.9626156e-16 1.9626156e-16 1.00000000
vn -1.9626156e-16 1.9626156e-16 1.00000000
vn 9.0127256e-17 -1.00000000 1.2266347e-16
vn 9.0127256e-17 -1.00000000 1.2266347e-16
vn -2.4651903e-32 2.7755576e-16 1.00000000
vn -2.4651903e-32 2.7755576e-16 1.00000000
vn -0.70710678 -0.70710678 7.1553693e-17
vn -0.70710678 -0.70710678 7.1553693e-17
vn 1.9626156e-16 1.9626156e-16 1.00000000
vn 1.9626156e-16 1.9626156e-16 1.00000000
vn -1.00000000 -1.8025451e-16 -1.0221956e-17
vn -1.00000000 -1.8025451e-16 -1.0221956e-17
vn 2.7755576e-16 4.9303807e-32 1.00000000
vn 2.7755576e-16 4.9303807e-32 1.00000000
vn -0.70710678 0.70710678 -1.0221956e-16
vn -0.70710678 0.70710678 -1.0221956e-16
vn 3.3503944e-16 -5.7483679e-17 1.00000000
vn 3.3503944e-16 -5.7483679e-17 1.00000000
vn -1.2016967e-16 1.00000000 -1.2266347e-16
vn -1.2016967e-16 1.00000000 -1.2266347e-16
vn -4.9303807e-32 0.0000000e+0 1.00000000
vn -4.9303807e-32 0.0000000e+0 1.00000000
vn 0.70710678 0.70710678 -7.1553693e-17
vn 0.70710678 0.70710678 -7.1553693e-17
vn -3.3503944e-16 -5.7483679e-17 1.00000000
vn -3.3503944e-16 -5.7483679e-17 1.00000000
vn 1.00000000 3.4481624e-16 2.2551405e-16
vn 1.00000000 3.4481624e-16 2.2551405e-16
vn -6.1629758e-32 0.0000000e+0 1.00000000
vn -6.1629758e-32 0.0000000e+0 1.00000000
vn 0.86602540 -0.50000000 1.9949320e-16
vn 0.86602540 -0.50000000 1.9949320e-16
vn 2.4651903e-32 0.0000000e+0 1.00000000
vn 2.4651903e-32 0.0000000e+0 1.00000000
vn 0.50000000 -0.86602540 1.7347235e-16
vn 0.50000000 -0.86602540 1.7347235e-16
vn -4.3368087e-17 0.0000000e+0 1.00000000
vn -4.3368087e-17 0.0000000e+0 1.00000000
vn 0.0000000e+0 -1.00000000 5.2041704e-17
vn 0.0000000e+0 -1.00000000 5.2041704e-17
vn -3.4694470e-16 -9.6296497e-32 1.00000000
vn -3.4694470e-16 -9.6296497e-32 1.00000000
vn -0.50000000 -0.86602540 -3.4694470e-17
vn -0.50000000 -0.86602540 -3.4694470e-17
vn -3.0357661e-16 -1.0159246e-16 1.00000000
vn -3.0357661e-16 -1.0159246e-16 1.00000000
vn -0.86602540 -0.50000000 -9.1072982e-17
vn -0.86602540 -0.50000000 -9.1072982e-17
vn -2.6020852e-16 -1.3877788e-16 1.00000000
vn -2.6020852e-16 -1.3877788e-16 1.00000000
vn -1.00000000 -3.4481624e-16 -2.2117724e-16
vn -1.00000000 -3.4481624e-16 -2.2117724e-16
vn -3.4694470e-16 -1.6640035e-31 1.00000000
vn -3.4694470e-16 -1.6640035e-31 1.00000000
vn -0.86602540 0.50000000 -2.9490299e-16
vn -0.86602540 0.50000000 -2.9490299e-16
vn -1.7347235e-16 1.3877788e-16 1.00000000
vn -1.7347235e-16 1.3877788e-16 1.00000000
vn -0.50000000 0.86602540 -2.0383001e-16
vn -0.50000000 0.86602540 -2.0383001e-16
vn -1.7347235e-16 2.4037034e-16 1.00000000
vn -1.7347235e-16 2.4037034e-16 1.00000000
vn -4.5975498e-16 1.00000000 -7.3725748e-17
vn -4.5975498e-16 1.00000000 -7.3725748e-17
vn -4.3368087e-16 2.7755576e-16 1.00000000
vn -4.3368087e-16 2.7755576e-16 1.00000000
vn 0.50000000 0.86602540 2.6020852e-17
vn 0.50000000 0.86602540 2.6020852e-17
vn -2.6020852e-16 1.3877788e-16 1.00000000
vn -2.6020852e-16 1.3877788e-16 1.00000000
vn 0.86602540 0.50000000 1.7347235e-16
vn 0.86602540 0.50000000 1.7347235e-16
vn 8.6736174e-17 0.0000000e+0 1.00000000
vn 8.6736174e-17 0.0000000e+0 1.00000000
g mesh1_mesh1_auv
usemtl mesh1_auv
s 1
f 1/102/60 9/103/1 16/100/8 8/99/88
f 2/104/65 10/105/2 9/103/1 1/102/61
f 3/109/69 11/110/3 10/105/2 2/104/64
f 4/18/73 12/19/4 11/2/3 3/1/68
f 5/43/77 13/44/5 12/19/4 4/18/72
f 6/73/81 14/74/6 13/44/5 5/43/76
f 7/82/85 15/83/7 14/74/6 6/73/80
f 8/99/89 16/100/8 15/83/7 7/82/84
f 18/120/94 79/114/59 19/118/98
f 19/118/99 79/114/59 20/116/103
f 20/116/102 79/114/59 21/113/107
f 21/113/106 79/114/59 22/111/111
f 22/111/110 79/114/59 23/107/115
f 23/107/114 79/114/59 24/106/119
f 24/106/118 79/114/59 25/108/123
f 25/108/122 79/114/59 26/112/127
f 26/112/126 79/114/59 27/115/131
f 27/115/130 79/114/59 28/117/135
f 28/117/134 79/114/59 29/119/139
f 29/119/138 79/114/59 18/120/95
s 2
f 1/101/62 17/88/9 2/97/66
f 2/97/67 17/88/9 3/87/71
f 3/87/70 17/88/9 4/75/75
f 4/75/74 17/88/9 5/57/79
f 5/57/78 17/88/9 6/76/83
f 6/76/82 17/88/9 7/89/87
f 7/89/86 17/88/9 8/98/91
f 8/98/90 17/88/9 1/101/63
f 18/3/92 66/6/46 67/27/47 29/24/136
f 19/26/97 77/28/57 66/7/46 18/3/93
f 20/68/101 76/63/56 77/28/57 19/26/96
f 21/96/105 75/91/55 76/63/56 20/68/100
f 22/68/109 74/64/54 75/92/55 21/94/104
f 23/26/113 73/29/53 74/64/54 22/68/108
f 24/5/117 72/8/52 73/29/53 23/26/112
f 25/25/121 71/30/51 72/9/52 24/4/116
f 26/67/125 70/65/50 71/30/51 25/25/120
f 27/95/129 69/93/49 70/65/50 26/67/124
f 28/66/133 68/62/48 69/90/49 27/96/128
f 29/24/137 67/27/47 68/62/48 28/66/132
f 30/21/10 42/15/22 53/36/33 41/40/21
f 30/20/10 78/45/58 31/39/11
f 31/39/11 43/35/23 42/14/22 30/20/10
f 31/39/11 78/45/58 32/49/12
f 32/49/12 44/53/24 43/35/23 31/39/11
f 32/49/12 78/45/58 33/69/13
f 33/69/13 45/77/25 44/53/24 32/49/12
f 33/72/13 78/48/58 34/52/14
f 34/52/14 46/56/26 45/80/25 33/72/13
f 34/52/14 78/48/58 35/42/15
f 35/42/15 47/38/27 46/56/26 34/52/14
f 35/42/15 78/48/58 36/23/16
f 36/23/16 48/17/28 47/38/27 35/42/15
f 36/22/16 78/47/58 37/41/17
f 37/41/17 49/37/29 48/16/28 36/22/16
f 37/41/17 78/47/58 38/51/18
f 38/51/18 50/55/30 49/37/29 37/41/17
f 38/51/18 78/47/58 39/71/19
f 39/71/19 51/79/31 50/55/30 38/51/18
f 39/70/19 78/46/58 40/50/20
f 40/50/20 52/54/32 51/78/31 39/70/19
f 40/50/20 78/46/58 41/40/21
f 41/40/21 53/36/33 52/54/32 40/50/20
f 41/40/21 78/46/58 30/21/10
f 42/15/22 54/11/34 65/32/45 53/36/33
f 43/35/23 55/31/35 54/10/34 42/14/22
f 44/53/24 56/58/36 55/31/35 43/35/23
f 45/77/25 57/81/37 56/58/36 44/53/24
f 46/56/26 58/61/38 57/86/37 45/80/25
f 47/38/27 59/34/39 58/61/38 46/56/26
f 48/17/28 60/13/40 59/34/39 47/38/27
f 49/37/29 61/33/41 60/12/40 48/16/28
f 50/55/30 62/60/42 61/33/41 49/37/29
f 51/79/31 63/85/43 62/60/42 50/55/30
f 52/54/32 64/59/44 63/84/43 51/78/31
f 53/36/33 65/32/45 64/59/44 52/54/32
f 66/6/46 54/10/34 55/31/35 67/27/47
f 67/27/47 55/31/35 56/58/36 68/62/48
f 68/62/48 56/58/36 57/81/37 69/90/49
f 69/93/49 57/86/37 58/61/38 70/65/50
f 70/65/50 58/61/38 59/34/39 71/30/51
f 71/30/51 59/34/39 60/13/40 72/9/52
f 72/8/52 60/12/40 61/33/41 73/29/53
f 73/29/53 61/33/41 62/60/42 74/64/54
f 74/64/54 62/60/42 63/85/43 75/92/55
f 75/91/55 63/84/43 64/59/44 76/63/56
f 76/63/56 64/59/44 65/32/45 77/28/57
f 77/28/57 65/32/45 54/11/34 66/7/46
