# Exported from Wings 3D 1.5.4
mtllib 4mv_vl_sensor_accelerometer_srf_1_compact.mtl
o mesh1
#70 vertices, 66 faces
v 2.5000000e-2 1.7600375e-17 0.0000000e+0
v 1.7677670e-2 -1.7677670e-2 0.0000000e+0
v -5.2592564e-17 -2.5000000e-2 0.0000000e+0
v -1.7677670e-2 -1.7677670e-2 0.0000000e+0
v -2.5000000e-2 1.4538758e-17 0.0000000e+0
v -1.7677670e-2 1.7677670e-2 0.0000000e+0
v -5.8715798e-17 2.5000000e-2 -6.9388939e-18
v 1.7677670e-2 1.7677670e-2 0.0000000e+0
v 2.5000000e-2 1.4538758e-17 -3.7500000e-2
v 1.7677670e-2 -1.7677670e-2 -3.7500000e-2
v -5.2592564e-17 -2.5000000e-2 -3.7500000e-2
v -1.7677670e-2 -1.7677670e-2 -3.7500000e-2
v -2.5000000e-2 1.1477141e-17 -3.7500000e-2
v -1.7677670e-2 1.7677670e-2 -3.7500000e-2
v -5.8715798e-17 2.5000000e-2 -3.7500000e-2
v 1.7677670e-2 1.7677670e-2 -3.7500000e-2
v -5.5944832e-17 1.8432146e-17 -6.9388939e-18
v -5.0000000e-2 3.7500000e-2 -3.7500000e-2
v -5.0000000e-2 -3.7500000e-2 -8.7500000e-2
v -5.0000000e-2 -3.7500000e-2 -3.7500000e-2
v 5.0000000e-2 3.7500000e-2 -3.7500000e-2
v 5.0000000e-2 -3.7500000e-2 -8.7500000e-2
v 5.0000000e-2 -3.7500000e-2 -3.7500000e-2
v 5.0000000e-2 2.5000000e-2 -8.7500000e-2
v -5.0000000e-2 2.5000000e-2 -8.7500000e-2
v -2.5000000e-2 2.5000000e-2 -0.13750000
v -5.0000000e-2 2.5000000e-2 -0.11250000
v 2.5000000e-2 2.5000000e-2 -0.13750000
v 5.0000000e-2 2.5000000e-2 -0.11250000
v 2.5000000e-2 3.7500000e-2 -0.13750000
v 5.0000000e-2 3.7500000e-2 -0.11250000
v -2.5000000e-2 3.7500000e-2 -0.13750000
v -5.0000000e-2 3.7500000e-2 -0.11250000
v -3.7500000e-2 1.2500000e-2 -8.7500000e-2
v -3.7500000e-2 -2.5000000e-2 -8.7500000e-2
v -3.7500000e-2 -1.9508252e-2 -0.10075825
v -3.7500000e-2 -6.2500000e-3 -0.10625000
v -3.7500000e-2 7.0082521e-3 -0.10075825
v 3.7500000e-2 1.2500000e-2 -8.7500000e-2
v 3.7500000e-2 -2.5000000e-2 -8.7500000e-2
v 3.7500000e-2 -1.9508252e-2 -0.10075825
v 3.7500000e-2 -6.2500000e-3 -0.10625000
v 3.7500000e-2 7.0082521e-3 -0.10075825
v -3.7500000e-2 -6.2500000e-3 -8.7500000e-2
v 3.7500000e-2 -6.2500000e-3 -8.7500000e-2
v 3.7500000e-2 3.7500000e-2 -8.7500000e-2
v 3.2475953e-2 3.7500000e-2 -6.8750000e-2
v 1.8750000e-2 3.7500000e-2 -5.5024047e-2
v 3.4526951e-18 3.7500000e-2 -5.0000000e-2
v -1.8750000e-2 3.7500000e-2 -5.5024047e-2
v -3.2475953e-2 3.7500000e-2 -6.8750000e-2
v -3.7500000e-2 3.7500000e-2 -8.7500000e-2
v -3.2475953e-2 3.7500000e-2 -0.10625000
v -1.8750000e-2 3.7500000e-2 -0.11997595
v -5.7321559e-18 3.7500000e-2 -0.12500000
v 1.8750000e-2 3.7500000e-2 -0.11997595
v 3.2475953e-2 3.7500000e-2 -0.10625000
v 3.7500000e-2 0.11250000 -8.7500000e-2
v 3.2475953e-2 0.11250000 -6.8750000e-2
v 1.8750000e-2 0.11250000 -5.5024047e-2
v 3.4526951e-18 0.11250000 -5.0000000e-2
v -1.8750000e-2 0.11250000 -5.5024047e-2
v -3.2475953e-2 0.11250000 -6.8750000e-2
v -3.7500000e-2 0.11250000 -8.7500000e-2
v -3.2475953e-2 0.11250000 -0.10625000
v -1.8750000e-2 0.11250000 -0.11997595
v -5.7321559e-18 0.11250000 -0.12500000
v 1.8750000e-2 0.11250000 -0.11997595
v 3.2475953e-2 0.11250000 -0.10625000
v -1.4456029e-18 0.11250000 -8.7500000e-2
vt 4.1400922e-2 0.35961241
vt 4.1400922e-2 0.37904528
vt 4.1400922e-2 0.42762745
vt 4.1400922e-2 0.46649319
vt 4.1400922e-2 0.52493463
vt 4.1400922e-2 0.58309042
vt 4.1520187e-2 0.25950605
vt 4.1520187e-2 4.9078631e-2
vt 4.1520187e-2 0.10737724
vt 4.1520187e-2 0.13485947
vt 4.1520187e-2 0.17372521
vt 4.1520187e-2 0.20120744
vt 5.1236623e-2 0.22064031
vt 5.1236623e-2 0.10737724
vt 5.1236623e-2 0.13485947
vt 5.1236623e-2 0.17372521
vt 5.1236623e-2 8.7944371e-2
vt 5.1236623e-2 0.20120744
vt 6.0833792e-2 0.34017954
vt 6.0833792e-2 0.60252329
vt 9.9699533e-2 0.34017954
vt 9.9699533e-2 0.60252329
vt 9.9818799e-2 0.25950605
vt 9.9818799e-2 0.22064031
vt 9.9818799e-2 4.9078631e-2
vt 9.9818799e-2 8.7944371e-2
vt 0.11923365 0.35961241
vt 0.11923365 0.37904528
vt 0.11923365 0.42762745
vt 0.11923365 0.52493463
vt 0.11923365 0.46649319
vt 0.11923365 0.58309042
vt 0.19707887 0.19630303
vt 0.19707887 0.20745798
vt 0.19707887 0.21861294
vt 0.19707887 0.22976789
vt 0.19707887 0.24092285
vt 0.20198949 0.42216144
vt 0.20198949 0.60322693
vt 0.20198983 0.48251680
vt 0.20198983 0.54287156
vt 0.20198992 0.49760551
vt 0.20198992 0.52778285
vt 0.20198993 0.43725036
vt 0.20198993 0.58813801
vt 0.20198995 0.51269418
vt 0.20199001 0.46742769
vt 0.20199001 0.55796068
vt 0.20199031 0.45233882
vt 0.20199031 0.57304954
vt 0.21187165 0.35276974
vt 0.21187165 0.35276974
vt 0.21356953 0.14238041
vt 0.21356953 0.14238041
vt 0.21577692 0.33819509
vt 0.21577692 0.36734440
vt 0.21577692 0.33819509
vt 0.21577692 0.36734440
vt 0.21783835 0.15268624
vt 0.21783835 0.15268624
vt 0.22644630 0.32752570
vt 0.22644630 0.37801378
vt 0.22644630 0.32752570
vt 0.22644630 0.37801378
vt 0.22814418 0.14238041
vt 0.22814418 0.14238041
vt 0.22814418 0.15695506
vt 0.22814418 0.15695506
vt 0.23845002 0.15268624
vt 0.23845002 0.15268624
vt 0.24102096 0.32362044
vt 0.24102096 0.35276974
vt 0.24102096 0.38191905
vt 0.24102096 0.32362044
vt 0.24102096 0.35276974
vt 0.24102096 0.38191905
vt 0.24271883 0.14238041
vt 0.24271883 0.14238041
vt 0.25537611 0.45233882
vt 0.25537611 0.57304954
vt 0.25537640 0.46742769
vt 0.25537640 0.55796068
vt 0.25537646 0.51269418
vt 0.25537649 0.43725036
vt 0.25537649 0.58813801
vt 0.25537649 0.52778285
vt 0.25537649 0.49760551
vt 0.25537658 0.48251680
vt 0.25537658 0.54287156
vt 0.25537693 0.42216144
vt 0.25537693 0.60322693
vt 0.25537748 0.19630303
vt 0.25537748 0.20745798
vt 0.25537748 0.21861294
vt 0.25537748 0.22976789
vt 0.25537748 0.24092285
vt 0.77434862 0.71319435
vt 0.77434862 0.77192743
vt 0.78933274 0.71319435
vt 0.78933274 0.77192743
vt 0.80431686 0.71319435
vt 0.80431686 0.77192743
vt 0.81470740 0.65346733
vt 0.81930097 0.71319435
vt 0.81930097 0.77192743
vt 0.82044157 0.63962381
vt 0.82044157 0.66731085
vt 0.83428509 0.71319435
vt 0.83428509 0.77192743
vt 0.83428509 0.63388964
vt 0.83428509 0.65346733
vt 0.83428509 0.67304502
vt 0.84812861 0.63962381
vt 0.84812861 0.66731085
vt 0.84926921 0.71319435
vt 0.84926921 0.77192743
vt 0.85386279 0.65346733
vt 0.86425333 0.71319435
vt 0.86425333 0.77192743
vt 0.87923744 0.71319435
vt 0.87923744 0.77192743
vt 0.89422156 0.71319435
vt 0.89422156 0.77192743
vn 1.00000000 9.0127256e-17 1.0221956e-17
vn 0.70710678 -0.70710678 1.0221956e-16
vn 9.0127256e-17 -1.00000000 1.2266347e-16
vn -0.70710678 -0.70710678 7.1553693e-17
vn -1.00000000 -1.8025451e-16 -1.0221956e-17
vn -0.70710678 0.70710678 -1.0221956e-16
vn -1.2016967e-16 1.00000000 -1.2266347e-16
vn 0.70710678 0.70710678 -7.1553693e-17
vn -3.0814879e-32 6.9388939e-17 1.00000000
vn -1.00000000 9.8607613e-32 0.0000000e+0
vn 1.00000000 0.0000000e+0 2.6168208e-16
vn 1.00000000 0.0000000e+0 -1.4367343e-16
vn 0.86602540 0.0000000e+0 0.50000000
vn 0.50000000 0.0000000e+0 0.86602540
vn 1.4367343e-16 0.0000000e+0 1.00000000
vn -0.50000000 0.0000000e+0 0.86602540
vn -0.86602540 0.0000000e+0 0.50000000
vn -1.00000000 0.0000000e+0 1.4367343e-16
vn -0.86602540 0.0000000e+0 -0.50000000
vn -0.50000000 0.0000000e+0 -0.86602540
vn -4.5975498e-16 0.0000000e+0 -1.00000000
vn 0.50000000 0.0000000e+0 -0.86602540
vn 0.86602540 0.0000000e+0 -0.50000000
vn -3.2869204e-32 1.00000000 1.0279843e-16
vn 1.00000000 9.0127256e-17 1.0221956e-17
vn 1.00000000 9.0127256e-17 1.0221956e-17
vn -2.7755576e-16 -2.4651903e-32 1.00000000
vn -2.7755576e-16 -2.4651903e-32 1.00000000
vn 0.70710678 -0.70710678 1.0221956e-16
vn 0.70710678 -0.70710678 1.0221956e-16
vn -1.9626156e-16 1.9626156e-16 1.00000000
vn -1.9626156e-16 1.9626156e-16 1.00000000
vn 9.0127256e-17 -1.00000000 1.2266347e-16
vn 9.0127256e-17 -1.00000000 1.2266347e-16
vn -2.4651903e-32 2.7755576e-16 1.00000000
vn -2.4651903e-32 2.7755576e-16 1.00000000
vn -0.70710678 -0.70710678 7.1553693e-17
vn -0.70710678 -0.70710678 7.1553693e-17
vn 1.9626156e-16 1.9626156e-16 1.00000000
vn 1.9626156e-16 1.9626156e-16 1.00000000
vn -1.00000000 -1.8025451e-16 -1.0221956e-17
vn -1.00000000 -1.8025451e-16 -1.0221956e-17
vn 2.7755576e-16 4.9303807e-32 1.00000000
vn 2.7755576e-16 4.9303807e-32 1.00000000
vn -0.70710678 0.70710678 -1.0221956e-16
vn -0.70710678 0.70710678 -1.0221956e-16
vn 3.3503944e-16 -5.7483679e-17 1.00000000
vn 3.3503944e-16 -5.7483679e-17 1.00000000
vn -1.2016967e-16 1.00000000 -1.2266347e-16
vn -1.2016967e-16 1.00000000 -1.2266347e-16
vn -4.9303807e-32 0.0000000e+0 1.00000000
vn -4.9303807e-32 0.0000000e+0 1.00000000
vn 0.70710678 0.70710678 -7.1553693e-17
vn 0.70710678 0.70710678 -7.1553693e-17
vn -3.3503944e-16 -5.7483679e-17 1.00000000
vn -3.3503944e-16 -5.7483679e-17 1.00000000
vn 0.0000000e+0 1.00000000 2.3129646e-17
vn 0.0000000e+0 0.0000000e+0 1.00000000
vn -1.00000000 4.6259293e-16 0.0000000e+0
vn -1.00000000 4.6259293e-16 0.0000000e+0
vn 0.0000000e+0 -1.00000000 0.0000000e+0
vn 0.0000000e+0 0.0000000e+0 -1.00000000
vn -1.00000000 0.0000000e+0 0.0000000e+0
vn 0.0000000e+0 -1.00000000 0.0000000e+0
vn 0.0000000e+0 0.0000000e+0 1.00000000
vn -1.00000000 0.0000000e+0 0.0000000e+0
vn 0.0000000e+0 1.00000000 2.3129646e-17
vn 0.0000000e+0 0.0000000e+0 1.00000000
vn 1.00000000 4.6259293e-16 0.0000000e+0
vn 1.00000000 4.6259293e-16 0.0000000e+0
vn 0.0000000e+0 -1.00000000 0.0000000e+0
vn 0.0000000e+0 0.0000000e+0 -1.00000000
vn 1.00000000 0.0000000e+0 0.0000000e+0
vn 0.0000000e+0 -1.00000000 0.0000000e+0
vn 0.0000000e+0 0.0000000e+0 1.00000000
vn 1.00000000 0.0000000e+0 0.0000000e+0
vn 0.0000000e+0 0.0000000e+0 -1.00000000
vn 1.00000000 3.0839528e-16 0.0000000e+0
vn 0.0000000e+0 -1.00000000 0.0000000e+0
vn 1.00000000 3.0839528e-16 0.0000000e+0
vn 1.00000000 3.0839528e-16 0.0000000e+0
vn 0.0000000e+0 0.0000000e+0 -1.00000000
vn 0.0000000e+0 -1.00000000 0.0000000e+0
vn -1.00000000 3.0839528e-16 0.0000000e+0
vn -1.00000000 3.0839528e-16 0.0000000e+0
vn -1.00000000 3.0839528e-16 0.0000000e+0
vn 0.0000000e+0 0.0000000e+0 -1.00000000
vn 0.0000000e+0 -1.00000000 0.0000000e+0
vn -0.70710678 0.0000000e+0 -0.70710678
vn 0.0000000e+0 -1.00000000 0.0000000e+0
vn -1.00000000 0.0000000e+0 0.0000000e+0
vn -0.70710678 0.0000000e+0 -0.70710678
vn 0.0000000e+0 0.0000000e+0 -1.00000000
vn 0.0000000e+0 -1.00000000 0.0000000e+0
vn 0.70710678 0.0000000e+0 -0.70710678
vn 0.0000000e+0 -1.00000000 0.0000000e+0
vn 1.00000000 0.0000000e+0 0.0000000e+0
vn 0.70710678 0.0000000e+0 -0.70710678
vn 0.0000000e+0 1.00000000 2.3129646e-17
vn 0.0000000e+0 0.0000000e+0 -1.00000000
vn 0.70710678 0.0000000e+0 -0.70710678
vn 0.0000000e+0 1.00000000 2.3129646e-17
vn 1.00000000 4.6259293e-16 0.0000000e+0
vn 0.70710678 0.0000000e+0 -0.70710678
vn 1.00000000 4.6259293e-16 0.0000000e+0
vn 0.0000000e+0 1.00000000 2.3129646e-17
vn 0.0000000e+0 0.0000000e+0 -1.00000000
vn -0.70710678 0.0000000e+0 -0.70710678
vn 0.0000000e+0 1.00000000 2.3129646e-17
vn -1.00000000 4.6259293e-16 0.0000000e+0
vn -0.70710678 0.0000000e+0 -0.70710678
vn -1.00000000 4.6259293e-16 0.0000000e+0
vn 8.1846752e-17 0.92387953 -0.38268343
vn -1.00000000 0.0000000e+0 0.0000000e+0
vn -1.0703037e-16 -0.92387953 -0.38268343
vn -1.00000000 0.0000000e+0 0.0000000e+0
vn -8.1775649e-17 -0.70710678 -0.70710678
vn -8.1775649e-17 -0.70710678 -0.70710678
vn -1.00000000 1.0903420e-16 0.0000000e+0
vn -1.00000000 1.0903420e-16 0.0000000e+0
vn -6.8146374e-18 0.0000000e+0 -1.00000000
vn -6.8146374e-18 0.0000000e+0 -1.00000000
vn -1.00000000 1.9721523e-31 0.0000000e+0
vn -1.00000000 1.9721523e-31 0.0000000e+0
vn 6.1331737e-17 0.70710678 -0.70710678
vn 6.1331737e-17 0.70710678 -0.70710678
vn -1.00000000 -1.0903420e-16 0.0000000e+0
vn -1.00000000 -1.0903420e-16 0.0000000e+0
vn 8.1846752e-17 0.92387953 -0.38268343
vn 1.00000000 0.0000000e+0 1.5328981e-16
vn -1.0703037e-16 -0.92387953 -0.38268343
vn 1.00000000 0.0000000e+0 1.5328981e-16
vn -8.1775649e-17 -0.70710678 -0.70710678
vn -8.1775649e-17 -0.70710678 -0.70710678
vn 1.00000000 0.0000000e+0 2.6168208e-16
vn 1.00000000 0.0000000e+0 2.6168208e-16
vn -6.8146374e-18 0.0000000e+0 -1.00000000
vn -6.8146374e-18 0.0000000e+0 -1.00000000
vn 1.00000000 0.0000000e+0 3.7007434e-16
vn 1.00000000 0.0000000e+0 3.7007434e-16
vn 6.1331737e-17 0.70710678 -0.70710678
vn 6.1331737e-17 0.70710678 -0.70710678
vn 1.00000000 0.0000000e+0 2.6168208e-16
vn 1.00000000 0.0000000e+0 2.6168208e-16
vn 1.00000000 0.0000000e+0 -1.4367343e-16
vn 1.00000000 0.0000000e+0 -1.4367343e-16
vn 3.7007434e-16 1.00000000 -3.0839528e-16
vn 3.7007434e-16 1.00000000 -3.0839528e-16
vn 0.86602540 0.0000000e+0 0.50000000
vn 0.86602540 0.0000000e+0 0.50000000
vn 3.2049378e-16 1.00000000 -2.4651903e-31
vn 3.2049378e-16 1.00000000 -2.4651903e-31
vn 0.50000000 0.0000000e+0 0.86602540
vn 0.50000000 0.0000000e+0 0.86602540
vn 1.8503717e-16 1.00000000 3.0839528e-16
vn 1.8503717e-16 1.00000000 3.0839528e-16
vn 1.4367343e-16 0.0000000e+0 1.00000000
vn 1.4367343e-16 0.0000000e+0 1.00000000
vn -1.2325952e-32 1.00000000 0.0000000e+0
vn -1.2325952e-32 1.00000000 0.0000000e+0
vn -0.50000000 0.0000000e+0 0.86602540
vn -0.50000000 0.0000000e+0 0.86602540
vn -1.8503717e-16 1.00000000 3.0839528e-16
vn -1.8503717e-16 1.00000000 3.0839528e-16
vn -0.86602540 0.0000000e+0 0.50000000
vn -0.86602540 0.0000000e+0 0.50000000
vn -3.2049378e-16 1.00000000 3.0839528e-16
vn -3.2049378e-16 1.00000000 3.0839528e-16
vn -1.00000000 0.0000000e+0 1.4367343e-16
vn -1.00000000 0.0000000e+0 1.4367343e-16
vn -3.7007434e-16 1.00000000 3.0839528e-16
vn -3.7007434e-16 1.00000000 3.0839528e-16
vn -0.86602540 0.0000000e+0 -0.50000000
vn -0.86602540 0.0000000e+0 -0.50000000
vn -3.2049378e-16 1.00000000 3.0839528e-16
vn -3.2049378e-16 1.00000000 3.0839528e-16
vn -0.50000000 0.0000000e+0 -0.86602540
vn -0.50000000 0.0000000e+0 -0.86602540
vn -1.8503717e-16 1.00000000 -6.1679057e-16
vn -1.8503717e-16 1.00000000 -6.1679057e-16
vn -4.5975498e-16 0.0000000e+0 -1.00000000
vn -4.5975498e-16 0.0000000e+0 -1.00000000
vn 9.2444637e-32 1.00000000 1.0846837e-30
vn 9.2444637e-32 1.00000000 1.0846837e-30
vn 0.50000000 0.0000000e+0 -0.86602540
vn 0.50000000 0.0000000e+0 -0.86602540
vn 1.8503717e-16 1.00000000 6.1679057e-16
vn 1.8503717e-16 1.00000000 6.1679057e-16
vn 0.86602540 0.0000000e+0 -0.50000000
vn 0.86602540 0.0000000e+0 -0.50000000
vn 3.2049378e-16 1.00000000 0.0000000e+0
vn 3.2049378e-16 1.00000000 0.0000000e+0
g mesh1_mesh1_auv
usemtl mesh1_auv
s 1
f 1/118/25 9/119/1 16/116/8 8/115/53
f 2/120/30 10/121/2 9/119/1 1/118/26
f 3/122/34 11/123/3 10/121/2 2/120/29
f 4/99/38 12/100/4 11/98/3 3/97/33
f 5/101/42 13/102/5 12/100/4 4/99/37
f 6/104/46 14/105/6 13/102/5 5/101/41
f 7/108/50 15/109/7 14/105/6 6/104/45
f 8/115/54 16/116/8 15/109/7 7/108/49
f 19/3/62 25/2/82 24/28/77 22/29/72
f 20/4/65 23/31/75 21/30/68 18/5/58
f 27/18/92 33/12/111 32/11/108 26/16/89
f 30/10/101 31/9/104 29/14/98 28/15/95
f 34/96/113 39/37/129 43/36/141 38/95/125
f 35/53/116 44/65/10 36/59/120
f 36/93/118 41/34/134 40/33/131 35/92/115
f 36/59/119 44/65/10 37/68/124
f 37/94/122 42/35/138 41/34/133 36/93/117
f 37/68/123 44/65/10 38/69/128
f 38/95/126 43/36/142 42/35/137 37/94/121
f 38/69/127 44/65/10 34/77/114
f 39/54/130 45/66/11 43/60/144
f 41/70/135 45/66/11 40/78/132
f 42/67/139 45/66/11 41/70/136
f 43/60/143 45/66/11 42/67/140
f 58/51/147 70/75/24 59/55/151
f 59/55/152 70/75/24 60/63/156
f 60/63/155 70/75/24 61/74/160
f 61/71/159 70/72/24 62/61/164
f 62/61/163 70/72/24 63/57/168
f 63/57/167 70/72/24 64/52/172
f 64/52/171 70/72/24 65/58/176
f 65/58/175 70/72/24 66/62/180
f 66/62/179 70/72/24 67/73/184
f 67/76/183 70/75/24 68/64/188
f 68/64/187 70/75/24 69/56/192
f 69/56/191 70/75/24 58/51/148
s 2
f 1/117/27 17/111/9 2/113/31
f 2/113/32 17/111/9 3/110/36
f 3/110/35 17/111/9 4/106/40
f 4/106/39 17/111/9 5/103/44
f 5/103/43 17/111/9 6/107/48
f 6/107/47 17/111/9 7/112/52
f 7/112/51 17/111/9 8/114/56
f 8/114/55 17/111/9 1/117/28
f 18/5/57 21/30/67 31/32/102 30/22/99 32/20/106 33/6/109
f 19/3/61 22/29/71 23/31/74 20/4/64
f 25/2/83 27/1/90 26/19/88 28/21/94 29/27/96 24/28/79
f 46/48/12 58/82/146 59/80/150 47/50/13
f 47/50/13 59/80/149 60/85/154 48/45/14
f 48/45/14 60/85/153 61/91/158 49/39/15
f 49/38/15 61/90/157 62/84/162 50/44/16
f 50/44/16 62/84/161 63/79/166 51/49/17
f 51/49/17 63/79/165 64/81/170 52/47/18
f 52/47/18 64/81/169 65/88/174 53/40/19
f 53/40/19 65/88/173 66/87/178 54/42/20
f 54/42/20 66/87/177 67/83/182 55/46/21
f 55/46/21 67/83/181 68/86/186 56/43/22
f 56/43/22 68/86/185 69/89/190 57/41/23
f 57/41/23 69/89/189 58/82/145 46/48/12
s 3
f 18/7/60 25/13/86 19/24/63 20/23/66
f 23/25/76 22/26/73 24/17/78 21/8/69
f 25/13/84 33/12/110 27/18/91
f 26/16/87 32/11/107 30/10/100 28/15/93
f 29/14/97 31/9/103 24/17/80
f 31/9/105 21/8/70 24/17/81
f 33/12/112 25/13/85 18/7/59
