# Exported from Wings 3D 1.5.4
mtllib 1mv_sensor_magnetometer_srf_1_base.mtl
o mesh1
#32 vertices, 22 faces
v -3.7500000e-2 2.5000000e-2 -7.5000000e-2
v -3.7500000e-2 -2.5000000e-2 -7.5000000e-2
v -3.7500000e-2 -1.7677670e-2 -9.2677670e-2
v -3.7500000e-2 3.2326742e-17 -0.10000000
v -3.7500000e-2 1.7677670e-2 -9.2677670e-2
v 3.7500000e-2 2.5000000e-2 -7.5000000e-2
v 3.7500000e-2 -2.5000000e-2 -7.5000000e-2
v 3.7500000e-2 -1.7677670e-2 -9.2677670e-2
v 3.7500000e-2 2.8312459e-17 -0.10000000
v 3.7500000e-2 1.7677670e-2 -9.2677670e-2
v 3.7500000e-2 2.5000000e-2 -5.0000000e-2
v -3.7500000e-2 2.5000000e-2 -5.0000000e-2
v -3.7500000e-2 -2.5000000e-2 -5.0000000e-2
v 3.7500000e-2 -2.5000000e-2 -5.0000000e-2
v 3.7500000e-2 2.5000000e-2 2.5000000e-2
v -3.7500000e-2 2.5000000e-2 2.5000000e-2
v -3.7500000e-2 -2.5000000e-2 2.5000000e-2
v 3.7500000e-2 -2.5000000e-2 2.5000000e-2
v -2.5000000e-2 -2.5000000e-2 -5.0000000e-2
v 2.5000000e-2 -2.5000000e-2 -5.0000000e-2
v 2.5000000e-2 2.5000000e-2 -5.0000000e-2
v -2.5000000e-2 2.5000000e-2 -5.0000000e-2
v -2.5000000e-2 1.7677670e-2 -9.2677670e-2
v 2.5000000e-2 1.7677670e-2 -9.2677670e-2
v -2.5000000e-2 3.1207199e-17 -0.10000000
v 2.5000000e-2 3.0384668e-17 -0.10000000
v -2.5000000e-2 -1.7677670e-2 -9.2677670e-2
v 2.5000000e-2 -1.7677670e-2 -9.2677670e-2
v -2.5000000e-2 -2.5000000e-2 -7.5000000e-2
v 2.5000000e-2 -2.5000000e-2 -7.5000000e-2
v 2.5000000e-2 2.5000000e-2 -7.5000000e-2
v -2.5000000e-2 2.5000000e-2 -7.5000000e-2
vt 0.12247863 0.74448357
vt 0.12247863 0.76420595
vt 0.12247863 0.81119814
vt 0.12247863 0.81874556
vt 0.12247863 0.80365071
vt 0.12247863 0.79378952
vt 0.12247863 0.79378952
vt 0.12247863 0.80365071
vt 0.12247863 0.76420595
vt 0.12247863 0.81119814
vt 0.12247863 0.81874556
vt 0.12380302 0.94930599
vt 0.12380302 0.92450489
vt 0.12380302 0.93929668
vt 0.12380302 0.93944480
vt 0.12380302 0.94915787
vt 0.12388652 0.84661459
vt 0.12388652 0.87655316
vt 0.12388652 0.87655316
vt 0.12388652 0.88722700
vt 0.12388652 0.88722700
vt 0.12388652 0.84661459
vt 0.12669130 0.95627890
vt 0.12669130 0.95613078
vt 0.12680945 0.89428359
vt 0.12680945 0.89428359
vt 0.12740922 0.80365071
vt 0.12740922 0.81874556
vt 0.12740922 0.81119814
vt 0.12740922 0.79378952
vt 0.12740922 0.79378952
vt 0.12740922 0.80365071
vt 0.12740922 0.81119814
vt 0.12740922 0.81874556
vt 0.13366421 0.95916718
vt 0.13366421 0.95901906
vt 0.13386604 0.89720652
vt 0.13386604 0.89720652
vt 0.14063712 0.95627890
vt 0.14063712 0.95613078
vt 0.14092263 0.89428359
vt 0.14220101 0.79378952
vt 0.14220101 0.81874556
vt 0.14220101 0.80365071
vt 0.14220101 0.80365071
vt 0.14220101 0.81119814
vt 0.14220101 0.81874556
vt 0.14220101 0.79378952
vt 0.14220101 0.81119814
vt 0.14352540 0.92450489
vt 0.14352540 0.93929668
vt 0.14352540 0.93944480
vt 0.14352540 0.94915787
vt 0.14352540 0.94930599
vt 0.14384557 0.84661459
vt 0.14384557 0.87655316
vt 0.14384557 0.87655316
vt 0.14384557 0.88722700
vt 0.14384557 0.88722700
vt 0.14713160 0.74448357
vt 0.14713160 0.79378952
vt 0.14713160 0.76420595
vt 0.14713160 0.81119814
vt 0.14713160 0.81874556
vt 0.14713160 0.80365071
vt 0.14713160 0.81119814
vt 0.14713160 0.80365071
vt 0.14713160 0.79378952
vt 0.14713160 0.81874556
vt 0.14713160 0.76420595
vn 5.7773233e-17 0.98078528 -0.19509032
vn -1.00000000 0.0000000e+0 0.0000000e+0
vn 5.7773233e-17 0.98078528 -0.19509032
vn -1.2852158e-16 -0.98078528 -0.19509032
vn -1.00000000 0.0000000e+0 0.0000000e+0
vn -1.2852158e-16 -0.98078528 -0.19509032
vn -6.1331737e-17 -0.70710678 -0.70710678
vn -6.1331737e-17 -0.70710678 -0.70710678
vn -1.00000000 0.0000000e+0 0.0000000e+0
vn 3.0665868e-17 -1.2016967e-16 -1.00000000
vn 3.0665868e-17 -1.2016967e-16 -1.00000000
vn -1.00000000 0.0000000e+0 0.0000000e+0
vn 9.1997605e-17 0.70710678 -0.70710678
vn 9.1997605e-17 0.70710678 -0.70710678
vn -1.00000000 0.0000000e+0 0.0000000e+0
vn 1.00000000 -1.5242662e-16 6.9388939e-17
vn 5.7773233e-17 0.98078528 -0.19509032
vn 5.7773233e-17 0.98078528 -0.19509032
vn 1.00000000 -1.5242662e-16 6.9388939e-17
vn -1.2852158e-16 -0.98078528 -0.19509032
vn -1.2852158e-16 -0.98078528 -0.19509032
vn 1.00000000 -1.5242662e-16 6.9388939e-17
vn -1.2266347e-16 -0.70710678 -0.70710678
vn -1.2266347e-16 -0.70710678 -0.70710678
vn 1.00000000 -1.5242662e-16 6.9388939e-17
vn -1.3341514e-32 -6.0084837e-17 -1.00000000
vn -1.3341514e-32 -6.0084837e-17 -1.00000000
vn 1.00000000 -1.5242662e-16 6.9388939e-17
vn 1.2266347e-16 0.70710678 -0.70710678
vn 1.2266347e-16 0.70710678 -0.70710678
vn 1.00000000 -1.4560225e-16 3.4694470e-17
vn 0.0000000e+0 1.00000000 9.6373526e-18
vn 0.0000000e+0 1.00000000 9.6373526e-18
vn 1.00000000 -1.4560225e-16 3.4694470e-17
vn -1.00000000 0.0000000e+0 0.0000000e+0
vn 0.0000000e+0 1.00000000 9.6373526e-18
vn -1.00000000 0.0000000e+0 0.0000000e+0
vn 0.0000000e+0 1.00000000 9.6373526e-18
vn -1.00000000 0.0000000e+0 0.0000000e+0
vn -9.2518585e-17 -1.00000000 5.8787851e-17
vn -1.00000000 0.0000000e+0 0.0000000e+0
vn -9.2518585e-17 -1.00000000 5.8787851e-17
vn 1.00000000 -1.4560225e-16 3.4694470e-17
vn -9.2518585e-17 -1.00000000 5.8787851e-17
vn 1.00000000 -1.4560225e-16 3.4694470e-17
vn -9.2518585e-17 -1.00000000 5.8787851e-17
vn 0.0000000e+0 0.0000000e+0 1.00000000
vn 0.0000000e+0 1.00000000 1.9274705e-17
vn 1.00000000 -1.3877788e-16 0.0000000e+0
vn 0.0000000e+0 0.0000000e+0 1.00000000
vn 0.0000000e+0 1.00000000 1.9274705e-17
vn -1.00000000 0.0000000e+0 0.0000000e+0
vn 0.0000000e+0 0.0000000e+0 1.00000000
vn -1.00000000 0.0000000e+0 0.0000000e+0
vn -4.6259293e-17 -1.00000000 4.8186763e-17
vn 0.0000000e+0 0.0000000e+0 1.00000000
vn -4.6259293e-17 -1.00000000 4.8186763e-17
vn 1.00000000 -1.3877788e-16 0.0000000e+0
vn -9.2518585e-17 -1.00000000 5.8787851e-17
vn -9.2518585e-17 -1.00000000 5.8787851e-17
vn 1.00000000 -1.0161775e-16 0.0000000e+0
vn 0.0000000e+0 0.0000000e+0 -1.00000000
vn -9.2518585e-17 -1.00000000 5.8787851e-17
vn -9.2518585e-17 -1.00000000 5.8787851e-17
vn 0.0000000e+0 0.0000000e+0 -1.00000000
vn -1.00000000 0.0000000e+0 0.0000000e+0
vn 0.0000000e+0 1.00000000 9.6373526e-18
vn 0.0000000e+0 1.00000000 9.6373526e-18
vn 0.0000000e+0 0.0000000e+0 -1.00000000
vn -1.00000000 0.0000000e+0 0.0000000e+0
vn 0.0000000e+0 1.00000000 9.6373526e-18
vn 0.0000000e+0 1.00000000 9.6373526e-18
vn 1.00000000 -1.0161775e-16 0.0000000e+0
vn 0.0000000e+0 0.0000000e+0 -1.00000000
vn 9.1997605e-17 0.70710678 -0.70710678
vn 9.1997605e-17 0.70710678 -0.70710678
vn 1.00000000 -1.0161775e-16 0.0000000e+0
vn 1.2266347e-16 0.70710678 -0.70710678
vn 1.2266347e-16 0.70710678 -0.70710678
vn -1.00000000 0.0000000e+0 0.0000000e+0
vn 3.0665868e-17 -1.2016967e-16 -1.00000000
vn 3.0665868e-17 -1.2016967e-16 -1.00000000
vn 1.00000000 -1.0161775e-16 0.0000000e+0
vn -1.3341514e-32 -6.0084837e-17 -1.00000000
vn -1.3341514e-32 -6.0084837e-17 -1.00000000
vn -1.00000000 0.0000000e+0 0.0000000e+0
vn -6.1331737e-17 -0.70710678 -0.70710678
vn -6.1331737e-17 -0.70710678 -0.70710678
vn 1.00000000 -1.0161775e-16 0.0000000e+0
vn -1.2266347e-16 -0.70710678 -0.70710678
vn -1.2266347e-16 -0.70710678 -0.70710678
vn -1.00000000 0.0000000e+0 0.0000000e+0
vn -1.2852158e-16 -0.98078528 -0.19509032
vn -1.2852158e-16 -0.98078528 -0.19509032
vn 1.00000000 -1.0161775e-16 0.0000000e+0
vn -1.2852158e-16 -0.98078528 -0.19509032
vn -1.2852158e-16 -0.98078528 -0.19509032
vn -1.00000000 0.0000000e+0 0.0000000e+0
vn 5.7773233e-17 0.98078528 -0.19509032
vn 5.7773233e-17 0.98078528 -0.19509032
vn -1.00000000 0.0000000e+0 0.0000000e+0
vn 5.7773233e-17 0.98078528 -0.19509032
vn 5.7773233e-17 0.98078528 -0.19509032
vn 1.00000000 -1.0161775e-16 0.0000000e+0
g mesh1_mesh1_auv
usemtl mesh1_auv
s 1
f 16/9/50 17/1/53 18/60/56 15/70/47
f 22/14/73 19/51/61 29/53/95 27/40/89 25/36/83 23/24/77 32/16/104
f 30/54/98 20/52/66 21/15/70 31/12/101 24/23/80 26/35/86 28/39/92
s 2
f 5/41/15 4/37/12 3/25/9 2/20/5 13/18/39 12/56/35 1/58/2
f 6/21/16 11/19/31 14/57/43 7/59/19 8/41/22 9/38/25 10/26/28
f 11/19/34 15/17/49 18/55/58 14/57/45
f 13/18/41 17/22/54 16/55/52 12/56/37
f 21/13/69 20/50/65 19/51/62 22/14/74
s 3
f 1/8/3 12/7/38 22/31/72 32/32/103
f 1/8/1 32/32/102 23/33/75 5/10/13
f 3/3/8 27/29/88 29/27/93 2/5/4
f 4/4/11 25/28/82 27/29/87 3/3/7
f 5/10/14 23/33/76 25/34/81 4/11/10
f 6/67/17 31/45/99 21/42/67 11/61/32
f 7/65/20 30/44/96 28/46/91 8/63/24
f 8/63/23 28/46/90 26/43/85 9/64/27
f 9/69/26 26/47/84 24/49/79 10/66/30
f 10/66/29 24/49/78 31/45/100 6/67/18
f 12/7/36 16/9/51 15/70/48 11/61/33 21/42/68 22/31/71
f 14/68/44 18/62/57 17/2/55 13/6/42 19/30/60 20/48/63
f 20/48/64 30/44/97 7/65/21 14/68/46
f 29/27/94 19/30/59 13/6/40 2/5/6
