# Exported from Wings 3D 1.5.4
mtllib 1mv_sensor_gravimeter_srf_1.mtl
o mesh1
#64 vertices, 58 faces
v -5.0734451e-17 3.7500000e-2 3.7500000e-2
v 2.6516504e-2 2.6516504e-2 3.7500000e-2
v 3.7500000e-2 1.9147431e-17 3.7500000e-2
v 2.6516504e-2 -2.6516504e-2 3.7500000e-2
v -5.0734451e-17 -3.7500000e-2 3.7500000e-2
v -2.6516504e-2 -2.6516504e-2 3.7500000e-2
v -3.7500000e-2 1.4555006e-17 3.7500000e-2
v -2.6516504e-2 2.6516504e-2 3.7500000e-2
v -5.0633668e-17 3.7500000e-2 -3.7500000e-2
v 2.6516504e-2 2.6516504e-2 -3.7500000e-2
v 3.7500000e-2 1.6700180e-17 -3.7500000e-2
v 2.6516504e-2 -2.6516504e-2 -3.7500000e-2
v -5.0633668e-17 -3.7500000e-2 -3.7500000e-2
v -2.6516504e-2 -2.6516504e-2 -3.7500000e-2
v -3.7500000e-2 1.2107754e-17 -3.7500000e-2
v -2.6516504e-2 2.6516504e-2 -3.7500000e-2
v -5.4210109e-17 1.8366806e-17 3.7500000e-2
v -8.7500000e-2 -0.12500000 -0.16250000
v -8.7500000e-2 -0.12500000 -3.7500000e-2
v -8.7500000e-2 0.12500000 -0.16250000
v -8.7500000e-2 0.12500000 -3.7500000e-2
v 8.7500000e-2 -0.12500000 -0.16250000
v 8.7500000e-2 -0.12500000 -3.7500000e-2
v 8.7500000e-2 0.12500000 -0.16250000
v 8.7500000e-2 0.12500000 -3.7500000e-2
v -6.2500000e-2 -0.10000000 -0.16250000
v -6.2500000e-2 7.5000000e-2 -0.16250000
v 6.2500000e-2 7.5000000e-2 -0.16250000
v 6.2500000e-2 -0.10000000 -0.16250000
v -6.2500000e-2 -7.5000000e-2 -0.13750000
v -6.2500000e-2 7.5000000e-2 -0.13750000
v 6.2500000e-2 7.5000000e-2 -0.13750000
v 6.2500000e-2 -7.5000000e-2 -0.13750000
v 1.2500000e-2 0.15000000 -1.0000000e-1
v 7.4759526e-3 0.15000000 -8.1250000e-2
v -6.2500000e-3 0.15000000 -6.7524047e-2
v -2.5000000e-2 0.15000000 -6.2500000e-2
v -4.3750000e-2 0.15000000 -6.7524047e-2
v -5.7475953e-2 0.15000000 -8.1250000e-2
v -6.2500000e-2 0.15000000 -1.0000000e-1
v -5.7475953e-2 0.15000000 -0.11875000
v -4.3750000e-2 0.15000000 -0.13247595
v -2.5000000e-2 0.15000000 -0.13750000
v -6.2500000e-3 0.15000000 -0.13247595
v 7.4759526e-3 0.15000000 -0.11875000
v 1.2500000e-2 0.12500000 -1.0000000e-1
v 7.4759526e-3 0.12500000 -8.1250000e-2
v -6.2500000e-3 0.12500000 -6.7524047e-2
v -2.5000000e-2 0.12500000 -6.2500000e-2
v -4.3750000e-2 0.12500000 -6.7524047e-2
v -5.7475953e-2 0.12500000 -8.1250000e-2
v -6.2500000e-2 0.12500000 -1.0000000e-1
v -5.7475953e-2 0.12500000 -0.11875000
v -4.3750000e-2 0.12500000 -0.13247595
v -2.5000000e-2 0.12500000 -0.13750000
v -6.2500000e-3 0.12500000 -0.13247595
v 7.4759526e-3 0.12500000 -0.11875000
v -2.5000000e-2 0.15000000 -1.0000000e-1
v -3.7500000e-2 -0.16250000 -0.12120191
v -3.7500000e-2 -0.12500000 -5.6250000e-2
v 3.7500000e-2 -0.16250000 -0.12120191
v 3.7500000e-2 -0.12500000 -5.6250000e-2
v 3.7500000e-2 -0.12500000 -0.14285254
v -3.7500000e-2 -0.12500000 -0.14285254
vt 0.30177778 0.28920135
vt 0.30177778 0.38755310
vt 0.33075014 0.91723596
vt 0.33075014 0.93439278
vt 0.33075057 0.90865344
vt 0.33075057 0.94297530
vt 0.33075115 0.92581437
vt 0.33075214 0.90007251
vt 0.33075214 0.95155623
vt 0.33075229 0.89149271
vt 0.33075229 0.96013603
vt 0.33971354 0.14054438
vt 0.33971354 0.15119930
vt 0.34729839 0.14054438
vt 0.34729839 0.15119930
vt 0.35018578 0.24035871
vt 0.35018578 0.28920135
vt 0.35018578 0.38755310
vt 0.35018578 0.43622189
vt 0.35312520 7.1223339e-2
vt 0.35488323 0.14054438
vt 0.35488323 0.15119930
vt 0.36009780 0.89149271
vt 0.36009780 0.96013603
vt 0.36009795 0.90007251
vt 0.36009795 0.95155623
vt 0.36009894 0.92581437
vt 0.36009952 0.90865344
vt 0.36009952 0.94297530
vt 0.36009995 0.91723596
vt 0.36009995 0.93439278
vt 0.36215651 0.29992610
vt 0.36215651 0.36816092
vt 0.36246808 0.14054438
vt 0.36246808 0.15119930
vt 0.37005292 0.14054438
vt 0.37005292 0.15119930
vt 0.37012012 5.4228422e-2
vt 0.37012012 7.1223339e-2
vt 0.37012012 0.10065940
vt 0.37083858 0.18475530
vt 0.37280168 0.17742890
vt 0.37280168 0.19208170
vt 0.37763776 0.14054438
vt 0.37763776 0.15119930
vt 0.37816498 0.17206561
vt 0.37816498 0.19744499
vt 0.38108397 0.92580316
vt 0.38522261 0.14054438
vt 0.38522261 0.15119930
vt 0.38538185 0.91542715
vt 0.38538185 0.93617917
vt 0.38549137 0.17010251
vt 0.38549137 0.18475530
vt 0.38549137 0.19940810
vt 0.39280745 0.14054438
vt 0.39280745 0.15119930
vt 0.39281777 0.17206561
vt 0.39281777 0.19744499
vt 0.39575787 0.91112927
vt 0.39575787 0.92580316
vt 0.39575787 0.94047706
vt 0.39818107 0.17742890
vt 0.39818107 0.19208170
vt 0.39955618 5.4228422e-2
vt 0.39955618 7.1223339e-2
vt 0.39955618 0.10065940
vt 0.40014417 0.18475530
vt 0.40039230 0.14054438
vt 0.40039230 0.15119930
vt 0.40613388 0.91542715
vt 0.40613388 0.93617917
vt 0.40797714 0.14054438
vt 0.40797714 0.15119930
vt 0.40940546 0.36816092
vt 0.40940546 0.29992610
vt 0.41043176 0.92580316
vt 0.41556199 0.14054438
vt 0.41556199 0.15119930
vt 0.41655109 7.1223339e-2
vt 0.42082564 0.24035871
vt 0.42082564 0.28920135
vt 0.42082564 0.38755310
vt 0.42082564 0.43622189
vt 0.42314683 0.14054438
vt 0.42314683 0.15119930
vt 0.43073167 0.14054438
vt 0.43073167 0.15119930
vt 0.46952340 0.28920135
vt 0.46952340 0.38755310
vt 0.50859075 0.25832024
vt 0.50859075 0.32720756
vt 0.50912754 0.37639953
vt 0.50912754 0.42555038
vt 0.51317380 0.36630467
vt 0.51317380 0.43437618
vt 0.52294233 0.42555038
vt 0.52294233 0.37639953
vt 0.58155350 0.36630467
vt 0.58155350 0.43437618
vt 0.58155350 0.37639953
vt 0.58155350 0.42555038
vt 0.59132203 0.37639953
vt 0.59132203 0.42555038
vt 0.60640295 0.25832024
vt 0.60640295 0.32720756
vn -7.2101805e-16 1.00000000 0.0000000e+0
vn 0.70710678 0.70710678 -6.8146374e-18
vn 1.00000000 1.8025451e-16 -6.6707570e-33
vn 0.70710678 -0.70710678 6.8146374e-18
vn -7.2101805e-16 -1.00000000 0.0000000e+0
vn -0.70710678 -0.70710678 0.0000000e+0
vn -1.00000000 1.5021209e-16 0.0000000e+0
vn -0.70710678 0.70710678 0.0000000e+0
vn 1.7872630e-31 0.0000000e+0 1.00000000
vn 1.00000000 0.0000000e+0 -2.5861218e-16
vn 0.86602540 0.0000000e+0 0.50000000
vn 0.50000000 0.0000000e+0 0.86602540
vn -2.8734686e-17 0.0000000e+0 1.00000000
vn -0.50000000 0.0000000e+0 0.86602540
vn -0.86602540 0.0000000e+0 0.50000000
vn -1.00000000 0.0000000e+0 4.8848967e-16
vn -0.86602540 0.0000000e+0 -0.50000000
vn -0.50000000 0.0000000e+0 -0.86602540
vn -4.8848967e-16 0.0000000e+0 -1.00000000
vn 0.50000000 0.0000000e+0 -0.86602540
vn 0.86602540 0.0000000e+0 -0.50000000
vn 2.7938824e-31 1.00000000 2.5699607e-17
vn -7.2101805e-16 1.00000000 0.0000000e+0
vn -7.2101805e-16 1.00000000 0.0000000e+0
vn 4.4373426e-31 0.0000000e+0 1.00000000
vn 4.4373426e-31 0.0000000e+0 1.00000000
vn 0.70710678 0.70710678 -6.8146374e-18
vn 0.70710678 0.70710678 -6.8146374e-18
vn -1.0903420e-16 0.0000000e+0 1.00000000
vn -1.0903420e-16 0.0000000e+0 1.00000000
vn 1.00000000 1.8025451e-16 -6.6707570e-33
vn 1.00000000 1.8025451e-16 -6.6707570e-33
vn -2.1806840e-16 0.0000000e+0 1.00000000
vn -2.1806840e-16 0.0000000e+0 1.00000000
vn 0.70710678 -0.70710678 6.8146374e-18
vn 0.70710678 -0.70710678 6.8146374e-18
vn -1.0903420e-16 0.0000000e+0 1.00000000
vn -1.0903420e-16 0.0000000e+0 1.00000000
vn -7.2101805e-16 -1.00000000 0.0000000e+0
vn -7.2101805e-16 -1.00000000 0.0000000e+0
vn -4.3140831e-31 0.0000000e+0 1.00000000
vn -4.3140831e-31 0.0000000e+0 1.00000000
vn -0.70710678 -0.70710678 0.0000000e+0
vn -0.70710678 -0.70710678 0.0000000e+0
vn 1.0903420e-16 0.0000000e+0 1.00000000
vn 1.0903420e-16 0.0000000e+0 1.00000000
vn -1.00000000 1.5021209e-16 0.0000000e+0
vn -1.00000000 1.5021209e-16 0.0000000e+0
vn 2.1806840e-16 0.0000000e+0 1.00000000
vn 2.1806840e-16 0.0000000e+0 1.00000000
vn -0.70710678 0.70710678 0.0000000e+0
vn -0.70710678 0.70710678 0.0000000e+0
vn 1.0903420e-16 0.0000000e+0 1.00000000
vn 1.0903420e-16 0.0000000e+0 1.00000000
vn 0.0000000e+0 -1.00000000 0.0000000e+0
vn -1.00000000 0.0000000e+0 0.0000000e+0
vn 0.0000000e+0 0.0000000e+0 -1.00000000
vn 0.0000000e+0 0.0000000e+0 -1.00000000
vn 0.0000000e+0 -1.00000000 0.0000000e+0
vn 0.0000000e+0 0.0000000e+0 1.00000000
vn -1.00000000 0.0000000e+0 0.0000000e+0
vn 0.0000000e+0 1.00000000 0.0000000e+0
vn -1.00000000 0.0000000e+0 0.0000000e+0
vn 0.0000000e+0 0.0000000e+0 -1.00000000
vn 0.0000000e+0 0.0000000e+0 -1.00000000
vn 0.0000000e+0 1.00000000 0.0000000e+0
vn 0.0000000e+0 0.0000000e+0 1.00000000
vn -1.00000000 0.0000000e+0 0.0000000e+0
vn 0.0000000e+0 -1.00000000 0.0000000e+0
vn 1.00000000 0.0000000e+0 0.0000000e+0
vn 0.0000000e+0 0.0000000e+0 -1.00000000
vn 0.0000000e+0 0.0000000e+0 -1.00000000
vn 0.0000000e+0 -1.00000000 0.0000000e+0
vn 0.0000000e+0 0.0000000e+0 1.00000000
vn 1.00000000 0.0000000e+0 0.0000000e+0
vn 0.0000000e+0 1.00000000 0.0000000e+0
vn 1.00000000 0.0000000e+0 0.0000000e+0
vn 0.0000000e+0 0.0000000e+0 -1.00000000
vn 0.0000000e+0 0.0000000e+0 -1.00000000
vn 0.0000000e+0 1.00000000 0.0000000e+0
vn 0.0000000e+0 0.0000000e+0 1.00000000
vn 1.00000000 0.0000000e+0 0.0000000e+0
vn 0.0000000e+0 0.0000000e+0 -1.00000000
vn 0.0000000e+0 0.0000000e+0 -1.00000000
vn 1.00000000 0.0000000e+0 0.0000000e+0
vn 0.0000000e+0 0.70710678 -0.70710678
vn 0.0000000e+0 0.0000000e+0 -1.00000000
vn 0.0000000e+0 0.0000000e+0 -1.00000000
vn 1.00000000 0.0000000e+0 0.0000000e+0
vn 0.0000000e+0 -1.00000000 0.0000000e+0
vn 0.0000000e+0 0.0000000e+0 -1.00000000
vn 0.0000000e+0 0.0000000e+0 -1.00000000
vn 0.0000000e+0 -1.00000000 0.0000000e+0
vn -1.00000000 0.0000000e+0 0.0000000e+0
vn 0.0000000e+0 0.0000000e+0 -1.00000000
vn 0.0000000e+0 0.0000000e+0 -1.00000000
vn -1.00000000 0.0000000e+0 0.0000000e+0
vn 0.0000000e+0 0.70710678 -0.70710678
vn 0.0000000e+0 0.0000000e+0 -1.00000000
vn 1.00000000 0.0000000e+0 0.0000000e+0
vn 0.0000000e+0 0.70710678 -0.70710678
vn 0.0000000e+0 0.0000000e+0 -1.00000000
vn 1.00000000 0.0000000e+0 0.0000000e+0
vn 0.0000000e+0 -1.00000000 0.0000000e+0
vn 0.0000000e+0 0.0000000e+0 -1.00000000
vn 0.0000000e+0 -1.00000000 0.0000000e+0
vn -1.00000000 0.0000000e+0 0.0000000e+0
vn 0.0000000e+0 0.0000000e+0 -1.00000000
vn -1.00000000 0.0000000e+0 0.0000000e+0
vn 0.0000000e+0 0.70710678 -0.70710678
vn 1.00000000 0.0000000e+0 -2.5861218e-16
vn 1.00000000 0.0000000e+0 -2.5861218e-16
vn -1.4802974e-15 1.00000000 4.6259293e-16
vn -1.4802974e-15 1.00000000 4.6259293e-16
vn 0.86602540 0.0000000e+0 0.50000000
vn 0.86602540 0.0000000e+0 0.50000000
vn -1.2819751e-15 1.00000000 -6.1679057e-16
vn -1.2819751e-15 1.00000000 -6.1679057e-16
vn 0.50000000 0.0000000e+0 0.86602540
vn 0.50000000 0.0000000e+0 0.86602540
vn -7.4014868e-16 1.00000000 -1.8503717e-15
vn -7.4014868e-16 1.00000000 -1.8503717e-15
vn -2.8734686e-17 0.0000000e+0 1.00000000
vn -2.8734686e-17 0.0000000e+0 1.00000000
vn 1.4791142e-31 1.00000000 -1.2335811e-15
vn 1.4791142e-31 1.00000000 -1.2335811e-15
vn -0.50000000 0.0000000e+0 0.86602540
vn -0.50000000 0.0000000e+0 0.86602540
vn 7.4014868e-16 1.00000000 -1.2335811e-15
vn 7.4014868e-16 1.00000000 -1.2335811e-15
vn -0.86602540 0.0000000e+0 0.50000000
vn -0.86602540 0.0000000e+0 0.50000000
vn 1.2819751e-15 1.00000000 -7.7098821e-16
vn 1.2819751e-15 1.00000000 -7.7098821e-16
vn -1.00000000 0.0000000e+0 4.8848967e-16
vn -1.00000000 0.0000000e+0 4.8848967e-16
vn 1.4802974e-15 1.00000000 3.0839528e-16
vn 1.4802974e-15 1.00000000 3.0839528e-16
vn -0.86602540 0.0000000e+0 -0.50000000
vn -0.86602540 0.0000000e+0 -0.50000000
vn 1.2819751e-15 1.00000000 4.6259293e-16
vn 1.2819751e-15 1.00000000 4.6259293e-16
vn -0.50000000 0.0000000e+0 -0.86602540
vn -0.50000000 0.0000000e+0 -0.86602540
vn 7.4014868e-16 1.00000000 6.1679057e-16
vn 7.4014868e-16 1.00000000 6.1679057e-16
vn -4.8848967e-16 0.0000000e+0 -1.00000000
vn -4.8848967e-16 0.0000000e+0 -1.00000000
vn 1.8488927e-30 1.00000000 1.8503717e-15
vn 1.8488927e-30 1.00000000 1.8503717e-15
vn 0.50000000 0.0000000e+0 -0.86602540
vn 0.50000000 0.0000000e+0 -0.86602540
vn -7.4014868e-16 1.00000000 1.8503717e-15
vn -7.4014868e-16 1.00000000 1.8503717e-15
vn 0.86602540 0.0000000e+0 -0.50000000
vn 0.86602540 0.0000000e+0 -0.50000000
vn -1.2819751e-15 1.00000000 4.6259293e-16
vn -1.2819751e-15 1.00000000 4.6259293e-16
vn 0.0000000e+0 -0.86602540 0.50000000
vn 0.0000000e+0 -0.50000000 -0.86602540
vn -1.00000000 0.0000000e+0 0.0000000e+0
vn 0.0000000e+0 -0.86602540 0.50000000
vn -1.00000000 0.0000000e+0 0.0000000e+0
vn 0.0000000e+0 -0.86602540 0.50000000
vn 1.00000000 0.0000000e+0 0.0000000e+0
vn 0.0000000e+0 -0.50000000 -0.86602540
vn 0.0000000e+0 -0.86602540 0.50000000
vn 1.00000000 0.0000000e+0 0.0000000e+0
vn 1.00000000 0.0000000e+0 0.0000000e+0
vn 0.0000000e+0 -0.50000000 -0.86602540
vn 0.0000000e+0 -0.50000000 -0.86602540
vn -1.00000000 0.0000000e+0 0.0000000e+0
g mesh1_mesh1_auv
usemtl mesh1_auv
s 1
f 1/28/23 9/5/1 16/8/8 8/25/51
f 2/30/27 10/3/2 9/5/1 1/28/24
f 3/27/31 11/7/3 10/3/2 2/30/28
f 4/31/35 12/4/4 11/7/3 3/27/32
f 5/29/39 13/6/5 12/4/4 4/31/36
f 6/26/43 14/9/6 13/6/5 5/29/40
f 7/24/47 15/11/7 14/9/6 6/26/44
f 8/25/52 16/8/8 15/10/7 7/23/48
f 18/82/55 22/17/69 23/16/73 19/81/59
f 21/84/66 25/19/80 24/18/76 20/83/62
f 26/93/86 30/98/101 33/97/110 29/94/98
f 28/104/93 32/102/106 31/101/104 27/103/90
f 34/35/111 46/34/10 57/36/21 45/37/155
f 35/22/116 47/21/11 46/34/10 34/35/112
f 36/15/120 48/14/12 47/21/11 35/22/115
f 37/13/124 49/12/13 48/14/12 36/15/119
f 38/86/128 50/85/14 49/87/13 37/88/123
f 39/79/132 51/78/15 50/85/14 38/86/127
f 40/74/136 52/73/16 51/78/15 39/79/131
f 41/70/140 53/69/17 52/73/16 40/74/135
f 42/57/144 54/56/18 53/69/17 41/70/139
f 43/50/148 55/49/19 54/56/18 42/57/143
f 44/45/152 56/44/20 55/49/19 43/50/147
f 45/37/156 57/36/21 56/44/20 44/45/151
f 64/38/171 63/65/170 61/66/166 59/39/160
s 2
f 1/77/25 17/61/9 2/71/29
f 2/71/30 17/61/9 3/60/33
f 3/60/34 17/61/9 4/51/37
f 4/51/38 17/61/9 5/48/41
f 5/48/42 17/61/9 6/52/45
f 6/52/46 17/61/9 7/62/49
f 7/62/50 17/61/9 8/72/53
f 8/72/54 17/61/9 1/77/26
f 19/89/61 21/90/68 20/83/63 18/82/56
f 22/17/70 24/18/77 25/2/82 23/1/75
f 27/99/89 31/101/103 30/98/100 26/95/85
f 29/96/97 33/97/109 32/102/107 28/100/94
f 34/68/113 58/54/22 35/63/117
f 35/63/118 58/54/22 36/58/122
f 36/58/121 58/54/22 37/53/126
f 37/53/125 58/54/22 38/46/130
f 38/46/129 58/54/22 39/42/134
f 39/42/133 58/54/22 40/41/138
f 40/41/137 58/54/22 41/43/142
f 41/43/141 58/54/22 42/47/146
f 42/47/145 58/54/22 43/55/150
f 43/55/149 58/54/22 44/59/154
f 44/59/153 58/54/22 45/64/158
f 45/64/157 58/54/22 34/68/114
s 3
f 18/82/58 26/76/84 29/32/96 22/17/72
f 19/105/60 23/106/74 25/92/81 21/91/67
f 20/83/64 27/75/87 26/76/83 18/82/57
f 22/17/71 29/32/95 28/33/92 24/18/79
f 24/18/78 28/33/91 27/75/88 20/83/65
f 31/101/102 32/102/105 33/97/108 30/98/99
f 60/40/163 64/20/172 59/39/161
f 61/66/165 63/80/169 62/67/168
s 4
f 59/39/159 61/66/164 62/67/167 60/40/162
