# Exported from Wings 3D 1.5.4
mtllib 1mv_sensor_cosmis_ray_detector_srf_1.mtl
o mesh1
#58 vertices, 51 faces
v -5.0734451e-17 3.7500000e-2 3.7500000e-2
v 2.6516504e-2 2.6516504e-2 3.7500000e-2
v 3.7500000e-2 1.9147431e-17 3.7500000e-2
v 2.6516504e-2 -2.6516504e-2 3.7500000e-2
v -5.0734451e-17 -3.7500000e-2 3.7500000e-2
v -2.6516504e-2 -2.6516504e-2 3.7500000e-2
v -3.7500000e-2 1.4555006e-17 3.7500000e-2
v -2.6516504e-2 2.6516504e-2 3.7500000e-2
v -5.0633668e-17 3.7500000e-2 -3.7500000e-2
v 2.6516504e-2 2.6516504e-2 -3.7500000e-2
v 3.7500000e-2 1.6700180e-17 -3.7500000e-2
v 2.6516504e-2 -2.6516504e-2 -3.7500000e-2
v -5.0633668e-17 -3.7500000e-2 -3.7500000e-2
v -2.6516504e-2 -2.6516504e-2 -3.7500000e-2
v -3.7500000e-2 1.2107754e-17 -3.7500000e-2
v -2.6516504e-2 2.6516504e-2 -3.7500000e-2
v -5.4210109e-17 1.8366806e-17 3.7500000e-2
v 8.7500000e-2 -0.12500000 -0.11250000
v 8.7500000e-2 -0.12500000 -3.7500000e-2
v -8.7500000e-2 -0.12500000 -0.11250000
v -8.7500000e-2 -0.12500000 -3.7500000e-2
v 8.7500000e-2 0.12500000 -0.16250000
v 8.7500000e-2 0.12500000 -3.7500000e-2
v -8.7500000e-2 0.12500000 -0.16250000
v -8.7500000e-2 0.12500000 -3.7500000e-2
v -8.7500000e-2 7.1408740e-17 -0.16250000
v 8.7500000e-2 6.0693081e-17 -0.16250000
v -6.2500000e-2 0.12500000 -0.10000000
v -5.7475953e-2 0.12500000 -8.1250000e-2
v -4.3750000e-2 0.12500000 -6.7524047e-2
v -2.5000000e-2 0.12500000 -6.2500000e-2
v -6.2500000e-3 0.12500000 -6.7524047e-2
v 7.4759526e-3 0.12500000 -8.1250000e-2
v 1.2500000e-2 0.12500000 -0.10000000
v 7.4759526e-3 0.12500000 -0.11875000
v -6.2500000e-3 0.12500000 -0.13247595
v -2.5000000e-2 0.12500000 -0.13750000
v -4.3750000e-2 0.12500000 -0.13247595
v -5.7475953e-2 0.12500000 -0.11875000
v -6.2500000e-2 0.15000000 -0.10000000
v -5.7475953e-2 0.15000000 -8.1250000e-2
v -4.3750000e-2 0.15000000 -6.7524047e-2
v -2.5000000e-2 0.15000000 -6.2500000e-2
v -6.2500000e-3 0.15000000 -6.7524047e-2
v 7.4759526e-3 0.15000000 -8.1250000e-2
v 1.2500000e-2 0.15000000 -0.10000000
v 7.4759526e-3 0.15000000 -0.11875000
v -6.2500000e-3 0.15000000 -0.13247595
v -2.5000000e-2 0.15000000 -0.13750000
v -4.3750000e-2 0.15000000 -0.13247595
v -5.7475953e-2 0.15000000 -0.11875000
v -2.5000000e-2 0.15000000 -0.10000000
v 0.12500000 2.5448730e-2 -0.12165064
v 8.7500000e-2 2.5448730e-2 -5.6698730e-2
v 0.12500000 0.10044873 -0.12165064
v 8.7500000e-2 0.10044873 -5.6698730e-2
v 8.7500000e-2 0.10044873 -0.14330127
v 8.7500000e-2 2.5448730e-2 -0.14330127
vt 0.19225169 0.80198625
vt 0.19225169 0.73359367
vt 0.19284324 0.89152182
vt 0.19284324 0.96000000
vt 0.22162801 0.73359367
vt 0.22162801 0.80198625
vt 0.22545299 0.68505159
vt 0.22545299 0.85135575
vt 0.22545299 0.71439938
vt 0.22545299 0.82200796
vt 0.27439451 0.73359367
vt 0.27439451 0.80198625
vt 0.29004972 0.89152182
vt 0.29004972 0.96000000
vt 0.32319337 0.68505159
vt 0.32319337 0.73359367
vt 0.32319337 0.80198625
vt 0.32319337 0.85135575
vt 0.33075014 0.91723596
vt 0.33075014 0.93439278
vt 0.33075057 0.90865344
vt 0.33075057 0.94297530
vt 0.33075115 0.92581437
vt 0.33075214 0.90007251
vt 0.33075214 0.95155623
vt 0.33075229 0.89149271
vt 0.33075229 0.96013603
vt 0.36009780 0.89149271
vt 0.36009780 0.96013603
vt 0.36009795 0.90007251
vt 0.36009795 0.95155623
vt 0.36009894 0.92581437
vt 0.36009952 0.90865344
vt 0.36009952 0.94297530
vt 0.36009995 0.91723596
vt 0.36009995 0.93439278
vt 0.37164985 0.73359367
vt 0.37164985 0.80198625
vt 0.38108397 0.92580316
vt 0.38538185 0.91542715
vt 0.38538185 0.93617917
vt 0.39575787 0.91112927
vt 0.39575787 0.92580316
vt 0.39575787 0.94047706
vt 0.40613388 0.91542715
vt 0.40613388 0.93617917
vt 0.41043176 0.92580316
vt 0.41230465 0.72286414
vt 0.41230465 0.73045991
vt 0.41230465 0.73805568
vt 0.41230465 0.74565144
vt 0.41230465 0.76084298
vt 0.41230465 0.77603451
vt 0.41230465 0.78363028
vt 0.41230465 0.79122605
vt 0.41230465 0.79882182
vt 0.41230465 0.80641759
vt 0.41230465 0.75324721
vt 0.41230465 0.76843875
vt 0.41230465 0.81401335
vt 0.42208725 0.72286414
vt 0.42208725 0.73805568
vt 0.42208725 0.74565144
vt 0.42208725 0.75324721
vt 0.42208725 0.76084298
vt 0.42208725 0.76843875
vt 0.42208725 0.77603451
vt 0.42208725 0.78363028
vt 0.42208725 0.79122605
vt 0.42208725 0.79882182
vt 0.42208725 0.80641759
vt 0.42208725 0.81401335
vt 0.42208725 0.73045991
vt 0.44319705 0.76805523
vt 0.44516298 0.76071828
vt 0.44516298 0.77539218
vt 0.45053400 0.75534726
vt 0.45053400 0.78076320
vt 0.45787095 0.75338134
vt 0.45787095 0.76805523
vt 0.45787095 0.78272913
vt 0.46520789 0.75534726
vt 0.46520789 0.78076320
vt 0.47057891 0.76071828
vt 0.47057891 0.77539218
vt 0.47254484 0.76805523
vt 0.52577333 0.18825808
vt 0.54276825 0.17126316
vt 0.54276825 0.18825808
vt 0.54276825 0.21769414
vt 0.57220431 0.17126316
vt 0.57220431 0.18825808
vt 0.57220431 0.21769414
vt 0.58919922 0.18825808
vn -3.0042419e-17 1.00000000 -1.3629275e-17
vn 0.70710678 0.70710678 -2.5015339e-33
vn 1.00000000 6.0084837e-17 4.7702462e-17
vn 0.70710678 -0.70710678 4.7702462e-17
vn 2.7038177e-16 -1.00000000 6.8146374e-18
vn -0.70710678 -0.70710678 -2.0443912e-17
vn -1.00000000 -2.1029693e-16 -6.1331737e-17
vn -0.70710678 0.70710678 -4.7702462e-17
vn -1.2266347e-16 -9.2444637e-33 1.00000000
vn -1.00000000 1.4456029e-16 -2.0114280e-16
vn -0.86602540 2.3129646e-16 0.50000000
vn -0.50000000 2.1684043e-16 0.86602540
vn -2.5861218e-16 2.8912058e-17 1.00000000
vn 0.50000000 -1.3010426e-16 0.86602540
vn 0.86602540 -2.0961242e-16 0.50000000
vn 1.00000000 -2.1684043e-16 8.6204059e-17
vn 0.86602540 -2.6743654e-16 -0.50000000
vn 0.50000000 -2.0238441e-16 -0.86602540
vn 4.5975498e-16 -7.2280145e-18 -1.00000000
vn -0.50000000 1.3733228e-16 -0.86602540
vn -0.86602540 1.7347235e-16 -0.50000000
vn -9.0390312e-32 1.00000000 -5.1399214e-17
vn -3.0042419e-17 1.00000000 -1.3629275e-17
vn -3.0042419e-17 1.00000000 -1.3629275e-17
vn 1.6355130e-16 -1.8503717e-16 1.00000000
vn 1.6355130e-16 -1.8503717e-16 1.00000000
vn 0.70710678 0.70710678 -2.5015339e-33
vn 0.70710678 0.70710678 -2.5015339e-33
vn -4.3613679e-16 -1.3084104e-16 1.00000000
vn -4.3613679e-16 -1.3084104e-16 1.00000000
vn 1.00000000 6.0084837e-17 4.7702462e-17
vn 1.00000000 6.0084837e-17 4.7702462e-17
vn -6.5420519e-16 0.0000000e+0 1.00000000
vn -6.5420519e-16 0.0000000e+0 1.00000000
vn 0.70710678 -0.70710678 4.7702462e-17
vn 0.70710678 -0.70710678 4.7702462e-17
vn -2.7258550e-16 1.3084104e-16 1.00000000
vn -2.7258550e-16 1.3084104e-16 1.00000000
vn 2.7038177e-16 -1.00000000 6.8146374e-18
vn 2.7038177e-16 -1.00000000 6.8146374e-18
vn 0.0000000e+0 1.8503717e-16 1.00000000
vn 0.0000000e+0 1.8503717e-16 1.00000000
vn -0.70710678 -0.70710678 -2.0443912e-17
vn -0.70710678 -0.70710678 -2.0443912e-17
vn 5.4517099e-17 2.2335962e-16 1.00000000
vn 5.4517099e-17 2.2335962e-16 1.00000000
vn -1.00000000 -2.1029693e-16 -6.1331737e-17
vn -1.00000000 -2.1029693e-16 -6.1331737e-17
vn 0.0000000e+0 -2.4651903e-32 1.00000000
vn 0.0000000e+0 -2.4651903e-32 1.00000000
vn -0.70710678 0.70710678 -4.7702462e-17
vn -0.70710678 0.70710678 -4.7702462e-17
vn 1.6355130e-16 -2.2335962e-16 1.00000000
vn 1.6355130e-16 -2.2335962e-16 1.00000000
vn 1.00000000 -1.5419764e-16 -9.2518585e-17
vn -5.5222296e-17 -0.37139068 -0.92847669
vn 0.0000000e+0 -1.00000000 0.0000000e+0
vn 1.00000000 -1.5419764e-16 -9.2518585e-17
vn 3.9650822e-17 2.7755576e-17 1.00000000
vn 0.0000000e+0 -1.00000000 0.0000000e+0
vn -1.00000000 1.2335811e-16 9.2518585e-17
vn -5.5222296e-17 -0.37139068 -0.92847669
vn 0.0000000e+0 -1.00000000 0.0000000e+0
vn -1.00000000 1.2335811e-16 9.2518585e-17
vn 3.9650822e-17 2.7755576e-17 1.00000000
vn 0.0000000e+0 -1.00000000 0.0000000e+0
vn 1.00000000 -1.5419764e-16 -9.2518585e-17
vn 0.0000000e+0 1.00000000 0.0000000e+0
vn 0.0000000e+0 0.0000000e+0 -1.00000000
vn 1.00000000 -1.5419764e-16 -9.2518585e-17
vn 3.9650822e-17 2.7755576e-17 1.00000000
vn 0.0000000e+0 1.00000000 0.0000000e+0
vn -1.00000000 1.2335811e-16 9.2518585e-17
vn 0.0000000e+0 1.00000000 0.0000000e+0
vn 0.0000000e+0 0.0000000e+0 -1.00000000
vn -1.00000000 1.2335811e-16 9.2518585e-17
vn 3.9650822e-17 2.7755576e-17 1.00000000
vn 0.0000000e+0 1.00000000 0.0000000e+0
vn -1.00000000 1.2335811e-16 9.2518585e-17
vn -5.5222296e-17 -0.37139068 -0.92847669
vn 0.0000000e+0 0.0000000e+0 -1.00000000
vn 1.00000000 -1.5419764e-16 -9.2518585e-17
vn -5.5222296e-17 -0.37139068 -0.92847669
vn 0.0000000e+0 0.0000000e+0 -1.00000000
vn -1.00000000 1.4456029e-16 -2.0114280e-16
vn -1.00000000 1.4456029e-16 -2.0114280e-16
vn 7.4014868e-16 1.00000000 -7.7098821e-16
vn 7.4014868e-16 1.00000000 -7.7098821e-16
vn -0.86602540 2.3129646e-16 0.50000000
vn -0.86602540 2.3129646e-16 0.50000000
vn 6.4098756e-16 1.00000000 -4.6259293e-16
vn 6.4098756e-16 1.00000000 -4.6259293e-16
vn -0.50000000 2.1684043e-16 0.86602540
vn -0.50000000 2.1684043e-16 0.86602540
vn 3.7007434e-16 1.00000000 1.2335811e-15
vn 3.7007434e-16 1.00000000 1.2335811e-15
vn -2.5861218e-16 2.8912058e-17 1.00000000
vn -2.5861218e-16 2.8912058e-17 1.00000000
vn -3.6977855e-32 1.00000000 1.2335811e-15
vn -3.6977855e-32 1.00000000 1.2335811e-15
vn 0.50000000 -1.3010426e-16 0.86602540
vn 0.50000000 -1.3010426e-16 0.86602540
vn -3.7007434e-16 1.00000000 -6.1679057e-16
vn -3.7007434e-16 1.00000000 -6.1679057e-16
vn 0.86602540 -2.0961242e-16 0.50000000
vn 0.86602540 -2.0961242e-16 0.50000000
vn -6.4098756e-16 1.00000000 -1.0793835e-15
vn -6.4098756e-16 1.00000000 -1.0793835e-15
vn 1.00000000 -2.1684043e-16 8.6204059e-17
vn 1.00000000 -2.1684043e-16 8.6204059e-17
vn -7.4014868e-16 1.00000000 1.0793835e-15
vn -7.4014868e-16 1.00000000 1.0793835e-15
vn 0.86602540 -2.6743654e-16 -0.50000000
vn 0.86602540 -2.6743654e-16 -0.50000000
vn -6.4098756e-16 1.00000000 -3.0839528e-16
vn -6.4098756e-16 1.00000000 -3.0839528e-16
vn 0.50000000 -2.0238441e-16 -0.86602540
vn 0.50000000 -2.0238441e-16 -0.86602540
vn -3.7007434e-16 1.00000000 -1.2335811e-15
vn -3.7007434e-16 1.00000000 -1.2335811e-15
vn 4.5975498e-16 -7.2280145e-18 -1.00000000
vn 4.5975498e-16 -7.2280145e-18 -1.00000000
vn -2.9582284e-31 1.00000000 0.0000000e+0
vn -2.9582284e-31 1.00000000 0.0000000e+0
vn -0.50000000 1.3733228e-16 -0.86602540
vn -0.50000000 1.3733228e-16 -0.86602540
vn 3.7007434e-16 1.00000000 0.0000000e+0
vn 3.7007434e-16 1.00000000 0.0000000e+0
vn -0.86602540 1.7347235e-16 -0.50000000
vn -0.86602540 1.7347235e-16 -0.50000000
vn 6.4098756e-16 1.00000000 3.0839528e-16
vn 6.4098756e-16 1.00000000 3.0839528e-16
vn 0.49999991 8.3461927e-17 -0.86602545
vn 0.0000000e+0 -1.00000000 0.0000000e+0
vn 0.86602542 -3.8549408e-17 0.49999997
vn 0.0000000e+0 -1.00000000 0.0000000e+0
vn 0.86602542 -3.8549408e-17 0.49999997
vn 0.49999991 8.3461927e-17 -0.86602545
vn 9.2518564e-17 1.00000000 -2.6707815e-16
vn 0.86602542 -3.8549408e-17 0.49999997
vn 9.2518564e-17 1.00000000 -2.6707815e-16
vn 0.86602542 -3.8549408e-17 0.49999997
vn 0.49999991 8.3461927e-17 -0.86602545
vn 9.2518564e-17 1.00000000 -2.6707815e-16
vn 0.49999991 8.3461927e-17 -0.86602545
vn 0.0000000e+0 -1.00000000 0.0000000e+0
g mesh1
usemtl mesh1_auv
s 1
f 1/33/23 9/21/1 16/24/8 8/30/51
f 2/35/28 10/19/2 9/21/1 1/33/24
f 3/32/32 11/23/3 10/19/2 2/35/27
f 4/36/36 12/20/4 11/23/3 3/32/31
f 5/34/40 13/22/5 12/20/4 4/36/35
f 6/31/44 14/25/6 13/22/5 5/34/39
f 7/29/48 15/27/7 14/25/6 6/31/43
f 8/30/52 16/24/8 15/26/7 7/28/47
f 20/5/62 26/11/80 27/12/83 18/6/56
f 22/17/68 24/16/74 25/37/78 23/38/72
f 28/48/10 40/61/85 51/73/129 39/49/21
f 29/57/11 41/71/90 40/72/86 28/60/10
f 30/56/12 42/70/94 41/71/89 29/57/11
f 31/55/13 43/69/98 42/70/93 30/56/12
f 32/54/14 44/68/102 43/69/97 31/55/13
f 33/53/15 45/67/106 44/68/101 32/54/14
f 34/59/16 46/66/110 45/67/105 33/53/15
f 35/52/17 47/65/114 46/66/109 34/59/16
f 36/58/18 48/64/118 47/65/113 35/52/17
f 37/51/19 49/63/122 48/64/117 36/58/18
f 38/50/20 50/62/126 49/63/121 37/51/19
f 39/49/21 51/73/130 50/62/125 38/50/20
f 53/89/135 55/92/140 56/93/142 54/90/137
f 53/89/133 58/88/145 57/91/143 55/92/138
f 54/90/136 58/87/146 53/89/134
f 55/92/139 57/94/144 56/93/141
s 2
f 1/47/25 17/43/9 2/45/29
f 2/45/30 17/43/9 3/42/34
f 3/42/33 17/43/9 4/40/38
f 4/40/37 17/43/9 5/39/42
f 5/39/41 17/43/9 6/41/46
f 6/41/45 17/43/9 7/44/50
f 7/44/49 17/43/9 8/46/54
f 8/46/53 17/43/9 1/47/26
f 18/10/55 27/12/82 22/17/67 23/18/70 19/8/58
f 21/7/64 25/15/76 24/16/73 26/11/79 20/9/61
f 40/81/88 52/80/22 51/83/132
f 41/78/91 52/80/22 40/81/87
f 42/76/95 52/80/22 41/78/92
f 43/74/99 52/80/22 42/76/96
f 44/75/103 52/80/22 43/74/100
f 45/77/107 52/80/22 44/75/104
f 46/79/111 52/80/22 45/77/108
f 47/82/115 52/80/22 46/79/112
f 48/84/119 52/80/22 47/82/116
f 49/86/123 52/80/22 48/84/120
f 50/85/127 52/80/22 49/86/124
f 51/83/131 52/80/22 50/85/128
s 3
f 19/1/60 21/2/66 20/5/63 18/6/57
f 22/17/69 27/12/84 26/11/81 24/16/75
s 4
f 19/3/59 23/13/71 25/14/77 21/4/65
