# Exported from Wings 3D 1.5.4
mtllib 4mv_vl_avionics_s0p5_1_collider.mtl
o collider
#36 vertices, 26 faces
v 0.46875000 0.31250000 -0.12560118
v 0.46875000 0.31250000 0.12560118
v 0.34314882 0.31250000 0.34314882
v 0.12560118 0.31250000 0.46875000
v -0.12560118 0.31250000 0.46875000
v -0.34314882 0.31250000 0.34314882
v -0.46875000 0.31250000 0.12560118
v -0.46875000 0.31250000 -0.12560118
v -0.34314882 0.31250000 -0.34314882
v -0.12560118 0.31250000 -0.46875000
v 0.12560118 0.31250000 -0.46875000
v 0.34314882 0.31250000 -0.34314882
v 0.34314882 0.28750000 -0.34314882
v 0.46875000 0.28750000 -0.12560118
v 0.46875000 0.28750000 0.12560118
v 0.34314882 0.28750000 0.34314882
v 0.12560118 0.28750000 0.46875000
v -0.12560118 0.28750000 0.46875000
v -0.34314882 0.28750000 0.34314882
v -0.46875000 0.28750000 0.12560118
v -0.46875000 0.28750000 -0.12560118
v -0.34314882 0.28750000 -0.34314882
v -0.12560118 0.28750000 -0.46875000
v 0.12560118 0.28750000 -0.46875000
v 0.13725953 0.22500000 -0.13725953
v 0.18750000 0.22500000 -5.0240474e-2
v 0.18750000 0.22500000 5.0240474e-2
v 0.13725953 0.22500000 0.13725953
v 5.0240474e-2 0.22500000 0.18750000
v -5.0240474e-2 0.22500000 0.18750000
v -0.13725953 0.22500000 0.13725953
v -0.18750000 0.22500000 5.0240474e-2
v -0.18750000 0.22500000 -5.0240474e-2
v -0.13725953 0.22500000 -0.13725953
v -5.0240474e-2 0.22500000 -0.18750000
v 5.0240474e-2 0.22500000 -0.18750000
vn 0.0000000e+0 1.00000000 -1.1785696e-16
vn 0.86602540 0.0000000e+0 -0.50000000
vn 1.00000000 0.0000000e+0 0.0000000e+0
vn 0.0000000e+0 1.00000000 -1.1785696e-16
vn 1.00000000 0.0000000e+0 0.0000000e+0
vn 0.86602540 0.0000000e+0 0.50000000
vn 0.0000000e+0 1.00000000 -1.1785696e-16
vn 0.86602540 0.0000000e+0 0.50000000
vn 0.50000000 0.0000000e+0 0.86602540
vn 0.0000000e+0 1.00000000 -1.1785696e-16
vn 0.50000000 0.0000000e+0 0.86602540
vn 0.0000000e+0 0.0000000e+0 1.00000000
vn 0.0000000e+0 1.00000000 -1.1785696e-16
vn 0.0000000e+0 0.0000000e+0 1.00000000
vn -0.50000000 0.0000000e+0 0.86602540
vn 0.0000000e+0 1.00000000 -1.1785696e-16
vn -0.50000000 0.0000000e+0 0.86602540
vn -0.86602540 0.0000000e+0 0.50000000
vn 0.0000000e+0 1.00000000 -1.1785696e-16
vn -0.86602540 0.0000000e+0 0.50000000
vn -1.00000000 0.0000000e+0 0.0000000e+0
vn 0.0000000e+0 1.00000000 -1.1785696e-16
vn -1.00000000 0.0000000e+0 0.0000000e+0
vn -0.86602540 0.0000000e+0 -0.50000000
vn 0.0000000e+0 1.00000000 -1.1785696e-16
vn -0.86602540 0.0000000e+0 -0.50000000
vn -0.50000000 0.0000000e+0 -0.86602540
vn 0.0000000e+0 1.00000000 -1.1785696e-16
vn -0.50000000 0.0000000e+0 -0.86602540
vn -2.2098180e-16 0.0000000e+0 -1.00000000
vn 0.0000000e+0 1.00000000 -1.1785696e-16
vn -2.2098180e-16 0.0000000e+0 -1.00000000
vn 0.50000000 0.0000000e+0 -0.86602540
vn 0.0000000e+0 1.00000000 -1.1785696e-16
vn 0.86602540 0.0000000e+0 -0.50000000
vn 0.50000000 0.0000000e+0 -0.86602540
vn 0.86602540 0.0000000e+0 -0.50000000
vn 0.50000000 0.0000000e+0 -0.86602540
vn 0.18786729 -0.97618706 -0.10846523
vn 0.10846523 -0.97618706 -0.18786729
vn 0.86602540 0.0000000e+0 -0.50000000
vn 1.00000000 0.0000000e+0 0.0000000e+0
vn 0.18786729 -0.97618706 -0.10846523
vn 0.21693046 -0.97618706 0.0000000e+0
vn 1.00000000 0.0000000e+0 0.0000000e+0
vn 0.86602540 0.0000000e+0 0.50000000
vn 0.21693046 -0.97618706 0.0000000e+0
vn 0.18786729 -0.97618706 0.10846523
vn 0.86602540 0.0000000e+0 0.50000000
vn 0.50000000 0.0000000e+0 0.86602540
vn 0.18786729 -0.97618706 0.10846523
vn 0.10846523 -0.97618706 0.18786729
vn 0.50000000 0.0000000e+0 0.86602540
vn 0.0000000e+0 0.0000000e+0 1.00000000
vn 0.10846523 -0.97618706 0.18786729
vn 0.0000000e+0 -0.97618706 0.21693046
vn 0.0000000e+0 0.0000000e+0 1.00000000
vn -0.50000000 0.0000000e+0 0.86602540
vn 0.0000000e+0 -0.97618706 0.21693046
vn -0.10846523 -0.97618706 0.18786729
vn -0.50000000 0.0000000e+0 0.86602540
vn -0.86602540 0.0000000e+0 0.50000000
vn -0.10846523 -0.97618706 0.18786729
vn -0.18786729 -0.97618706 0.10846523
vn -0.86602540 0.0000000e+0 0.50000000
vn -1.00000000 0.0000000e+0 0.0000000e+0
vn -0.18786729 -0.97618706 0.10846523
vn -0.21693046 -0.97618706 0.0000000e+0
vn -1.00000000 0.0000000e+0 0.0000000e+0
vn -0.86602540 0.0000000e+0 -0.50000000
vn -0.21693046 -0.97618706 0.0000000e+0
vn -0.18786729 -0.97618706 -0.10846523
vn -0.86602540 0.0000000e+0 -0.50000000
vn -0.50000000 0.0000000e+0 -0.86602540
vn -0.18786729 -0.97618706 -0.10846523
vn -0.10846523 -0.97618706 -0.18786729
vn -0.50000000 0.0000000e+0 -0.86602540
vn -2.2098180e-16 0.0000000e+0 -1.00000000
vn -0.10846523 -0.97618706 -0.18786729
vn -3.4241202e-17 -0.97618706 -0.21693046
vn -2.2098180e-16 0.0000000e+0 -1.00000000
vn 0.50000000 0.0000000e+0 -0.86602540
vn -3.4241202e-17 -0.97618706 -0.21693046
vn 0.10846523 -0.97618706 -0.18786729
vn 0.0000000e+0 -1.00000000 -1.5345958e-17
vn 0.18786729 -0.97618706 -0.10846523
vn 0.10846523 -0.97618706 -0.18786729
vn 0.0000000e+0 -1.00000000 -1.5345958e-17
vn 0.18786729 -0.97618706 -0.10846523
vn 0.21693046 -0.97618706 0.0000000e+0
vn 0.0000000e+0 -1.00000000 -1.5345958e-17
vn 0.21693046 -0.97618706 0.0000000e+0
vn 0.18786729 -0.97618706 0.10846523
vn 0.0000000e+0 -1.00000000 -1.5345958e-17
vn 0.18786729 -0.97618706 0.10846523
vn 0.10846523 -0.97618706 0.18786729
vn 0.0000000e+0 -1.00000000 -1.5345958e-17
vn 0.10846523 -0.97618706 0.18786729
vn 0.0000000e+0 -0.97618706 0.21693046
vn 0.0000000e+0 -1.00000000 -1.5345958e-17
vn 0.0000000e+0 -0.97618706 0.21693046
vn -0.10846523 -0.97618706 0.18786729
vn 0.0000000e+0 -1.00000000 -1.5345958e-17
vn -0.10846523 -0.97618706 0.18786729
vn -0.18786729 -0.97618706 0.10846523
vn 0.0000000e+0 -1.00000000 -1.5345958e-17
vn -0.18786729 -0.97618706 0.10846523
vn -0.21693046 -0.97618706 0.0000000e+0
vn 0.0000000e+0 -1.00000000 -1.5345958e-17
vn -0.21693046 -0.97618706 0.0000000e+0
vn -0.18786729 -0.97618706 -0.10846523
vn 0.0000000e+0 -1.00000000 -1.5345958e-17
vn -0.18786729 -0.97618706 -0.10846523
vn -0.10846523 -0.97618706 -0.18786729
vn 0.0000000e+0 -1.00000000 -1.5345958e-17
vn -0.10846523 -0.97618706 -0.18786729
vn -3.4241202e-17 -0.97618706 -0.21693046
vn 0.0000000e+0 -1.00000000 -1.5345958e-17
vn -3.4241202e-17 -0.97618706 -0.21693046
vn 0.10846523 -0.97618706 -0.18786729
g collider_default
usemtl default
s 1
f 1//2 14//41 13//37 12//35
f 4//11 17//53 16//50 3//9
f 6//17 19//61 18//58 5//15
f 8//23 21//69 20//66 7//21
f 11//32 24//81 23//78 10//30
f 13//40 25//87 36//120 24//84
f 16//51 28//95 27//93 15//48
f 18//59 30//101 29//99 17//56
f 20//67 32//107 31//105 19//64
f 22//75 34//113 33//111 21//72
s 2
f 3//8 16//49 15//46 2//6
f 5//14 18//57 17//54 4//12
f 7//20 20//65 19//62 6//18
f 9//26 22//73 21//70 8//24
f 12//36 13//38 24//82 11//33
f 14//43 26//89 25//86 13//39
f 17//55 29//98 28//96 16//52
f 19//63 31//104 30//102 18//60
f 21//71 33//110 32//108 20//68
f 23//79 35//116 34//114 22//76
s 3
f 1//1 12//34 11//31 10//28 9//25 8//22 7//19 6//16 5//13 4//10 3//7 2//4
f 26//88 27//91 28//94 29//97 30//100 31//103 32//106 33//109 34//112 35//115 36//118 25//85
s 4
f 2//5 15//45 14//42 1//3
f 10//29 23//77 22//74 9//27
f 24//83 36//119 35//117 23//80
s 5
f 15//47 27//92 26//90 14//44
